<svg width="24" height="26" viewBox="0 0 24 26" fill="none" xmlns="http://www.w3.org/2000/svg">
<path d="M21.3589 3.86885H20.6C20.5356 3.86822 20.4718 3.88058 20.4128 3.90512V1.46533C20.4128 1.0767 20.2513 0.703986 19.9638 0.429184C19.6763 0.154382 19.2863 0 18.8797 0C18.4731 0 18.0832 0.154382 17.7957 0.429184C17.5082 0.703986 17.3467 1.0767 17.3467 1.46533V3.86885C17.3181 3.86635 17.2893 3.86635 17.2607 3.86885H6.74186C6.70257 3.86875 6.66344 3.87363 6.62549 3.88335V1.46533C6.62549 1.0767 6.46398 0.703986 6.17647 0.429184C5.88897 0.154382 5.49904 0 5.09245 0C4.68586 0 4.29592 0.154382 4.00842 0.429184C3.72092 0.703986 3.5594 1.0767 3.5594 1.46533V3.88335C3.50999 3.86593 3.45776 3.85693 3.40509 3.85676H2.64615C2.29835 3.85644 1.9539 3.92172 1.63254 4.04887C1.31118 4.17601 1.01922 4.36252 0.773405 4.5977C0.527588 4.83289 0.33274 5.11212 0.200025 5.41941C0.0673108 5.7267 -0.000660969 6.05599 4.84445e-06 6.38843V22.4877C0.000674624 23.157 0.279146 23.7987 0.774301 24.272C1.26946 24.7453 1.94084 25.0115 2.64109 25.0121H21.3614C22.0613 25.0108 22.732 24.7444 23.2266 24.2711C23.7212 23.7979 23.9993 23.1566 24 22.4877V6.38843C23.998 5.71995 23.7189 5.07946 23.2239 4.60723C22.7289 4.13499 22.0583 3.86948 21.3589 3.86885ZM18.2144 1.46533C18.2144 1.38086 18.2318 1.29722 18.2656 1.21919C18.2994 1.14115 18.349 1.07024 18.4115 1.01052C18.474 0.950791 18.5482 0.903414 18.6298 0.87109C18.7115 0.838767 18.799 0.82213 18.8873 0.82213C18.9757 0.82213 19.0632 0.838767 19.1448 0.87109C19.2265 0.903414 19.3007 0.950791 19.3632 1.01052C19.4256 1.07024 19.4752 1.14115 19.509 1.21919C19.5428 1.29722 19.5602 1.38086 19.5602 1.46533V5.87581C19.5602 5.96028 19.5428 6.04391 19.509 6.12195C19.4752 6.19999 19.4256 6.27089 19.3632 6.33062C19.3007 6.39034 19.2265 6.43772 19.1448 6.47005C19.0632 6.50237 18.9757 6.51901 18.8873 6.51901C18.799 6.51901 18.7115 6.50237 18.6298 6.47005C18.5482 6.43772 18.474 6.39034 18.4115 6.33062C18.349 6.27089 18.2994 6.19999 18.2656 6.12195C18.2318 6.04391 18.2144 5.96028 18.2144 5.87581V1.46533ZM4.42712 1.46533C4.43764 1.30124 4.51325 1.14718 4.63852 1.03454C4.7638 0.921914 4.92931 0.859204 5.1013 0.859204C5.27329 0.859204 5.4388 0.921914 5.56408 1.03454C5.68936 1.14718 5.76497 1.30124 5.77549 1.46533V5.87581C5.76497 6.03989 5.68936 6.19396 5.56408 6.30659C5.4388 6.41922 5.27329 6.48193 5.1013 6.48193C4.92931 6.48193 4.7638 6.41922 4.63852 6.30659C4.51325 6.19396 4.43764 6.03989 4.42712 5.87581V1.46533ZM23.069 22.4877C23.0677 22.9208 22.8871 23.3358 22.5667 23.6421C22.2463 23.9484 21.8121 24.121 21.3589 24.1223H2.63856C2.18586 24.1203 1.7523 23.9474 1.43243 23.6412C1.11255 23.335 0.932294 22.9204 0.930963 22.4877V6.38843C0.931632 5.95511 1.11202 5.53972 1.43259 5.23331C1.75315 4.9269 2.18774 4.75448 2.64109 4.75384H2.93708V5.62434C2.93708 5.89234 2.9923 6.15772 3.0996 6.40532C3.2069 6.65293 3.36418 6.8779 3.56244 7.06741C3.76071 7.25692 3.99608 7.40724 4.25513 7.5098C4.51418 7.61236 4.79182 7.66515 5.07221 7.66515C5.3526 7.66515 5.63024 7.61236 5.88929 7.5098C6.14833 7.40724 6.38371 7.25692 6.58198 7.06741C6.78024 6.8779 6.93751 6.65293 7.04481 6.40532C7.15211 6.15772 7.20734 5.89234 7.20734 5.62434V4.75384H16.7927V5.62434C16.7927 6.16559 17.0176 6.68468 17.418 7.06741C17.8185 7.45014 18.3615 7.66515 18.9278 7.66515C19.4941 7.66515 20.0372 7.45014 20.4376 7.06741C20.838 6.68468 21.0629 6.16559 21.0629 5.62434V4.75384H21.3589C21.8123 4.75448 22.2469 4.9269 22.5674 5.23331C22.888 5.53972 23.0684 5.95511 23.069 6.38843V22.4877Z" fill="#CEAF59"/>
<path d="M21.7131 10.2742H2.3679C2.30644 10.2742 2.24558 10.2857 2.1888 10.3082C2.13202 10.3307 2.08042 10.3637 2.03696 10.4052C1.9935 10.4467 1.95903 10.496 1.93551 10.5503C1.91199 10.6046 1.89989 10.6628 1.89989 10.7215V21.6486C1.90056 22.055 2.06975 22.4445 2.37039 22.7319C2.67103 23.0192 3.0786 23.181 3.50377 23.1816H20.5772C21.002 23.1803 21.4089 23.0183 21.709 22.731C22.0091 22.4437 22.1779 22.0545 22.1786 21.6486V10.7215C22.1789 10.6629 22.1671 10.6048 22.1439 10.5505C22.1206 10.4962 22.0864 10.4469 22.0431 10.4053C21.9999 10.3638 21.9485 10.3308 21.8918 10.3083C21.8352 10.2858 21.7744 10.2742 21.7131 10.2742ZM21.2502 21.6486C21.2502 21.7327 21.2328 21.816 21.1991 21.8938C21.1654 21.9715 21.1161 22.0422 21.0538 22.1017C20.9916 22.1612 20.9176 22.2084 20.8363 22.2406C20.755 22.2728 20.6678 22.2894 20.5798 22.2894H3.50377C3.32597 22.2894 3.15545 22.2218 3.02973 22.1017C2.90401 21.9815 2.83337 21.8185 2.83337 21.6486V11.1664H21.2502V21.6486Z" fill="#CEAF59"/>
</svg>
