<svg width="24" height="24" viewBox="0 0 24 24" fill="none" xmlns="http://www.w3.org/2000/svg">
<g clip-path="url(#clip0_1_94)">
<path d="M24 6.03375V17.9662C23.996 19.5646 23.3596 21.0965 22.2297 22.2271C21.0998 23.3576 19.5684 23.9951 17.97 24H13.5712V14.5988H16.1962L16.5375 11.28H13.5712V9.32625C13.5545 9.20992 13.5637 9.09131 13.5982 8.97897C13.6328 8.86662 13.6918 8.76333 13.771 8.67654C13.8503 8.58975 13.9478 8.52161 14.0566 8.47704C14.1653 8.43246 14.2826 8.41255 14.4 8.41875H16.5V5.1975H13.605C10.395 5.1975 9.66375 7.605 9.66375 9.1425V11.2913H7.78875V14.6138H9.66375V24H6.03375C4.43502 23.9951 2.90318 23.3578 1.77271 22.2273C0.64223 21.0968 0.00494507 19.565 0 17.9662L0 6.03375C0.00494507 4.43502 0.64223 2.90318 1.77271 1.77271C2.90318 0.64223 4.43502 0.00494507 6.03375 0L17.97 0C19.5684 0.00494981 21.0998 0.642355 22.2297 1.77294C23.3596 2.90352 23.996 4.43537 24 6.03375V6.03375Z" fill="#CEAF59"/>
</g>
<defs>
<clipPath id="clip0_1_94">
<rect width="24" height="24" fill="white"/>
</clipPath>
</defs>
</svg>
