<svg width="24" height="24" viewBox="0 0 24 24" fill="none" xmlns="http://www.w3.org/2000/svg">
<g clip-path="url(#clip0_1_111)">
<path d="M10.7026 9.31128L14.4038 11.7525L10.7026 14.1938V9.31128Z" fill="#CEAF59"/>
<path d="M17.9663 0H6.03381C4.43508 0.00494507 2.90325 0.64223 1.77277 1.77271C0.642291 2.90318 0.0050061 4.43502 6.10352e-05 6.03375L6.10352e-05 17.9662C0.0050061 19.565 0.642291 21.0968 1.77277 22.2273C2.90325 23.3578 4.43508 23.9951 6.03381 24H17.9663C19.565 23.9951 21.0969 23.3578 22.2274 22.2273C23.3578 21.0968 23.9951 19.565 24.0001 17.9662V6.03375C23.9951 4.43502 23.3578 2.90318 22.2274 1.77271C21.0969 0.64223 19.565 0.00494507 17.9663 0V0ZM18.4801 14.5988C18.4806 14.8532 18.4309 15.1052 18.3338 15.3404C18.2368 15.5756 18.0944 15.7893 17.9146 15.9694C17.7349 16.1495 17.5214 16.2924 17.2864 16.3898C17.0514 16.4873 16.7995 16.5375 16.5451 16.5375H7.45506C6.94087 16.5375 6.44774 16.3332 6.08416 15.9697C5.72057 15.6061 5.51631 15.1129 5.51631 14.5988V9.40125C5.5173 8.88737 5.72188 8.39481 6.08525 8.03144C6.44862 7.66807 6.94118 7.46349 7.45506 7.4625H16.5451C17.0586 7.46349 17.5508 7.66819 17.9135 8.03167C18.2763 8.39515 18.4801 8.88771 18.4801 9.40125V14.5988Z" fill="#CEAF59"/>
</g>
<defs>
<clipPath id="clip0_1_111">
<rect width="24" height="24" fill="white"/>
</clipPath>
</defs>
</svg>
