<svg width="24" height="24" viewBox="0 0 24 24" fill="none" xmlns="http://www.w3.org/2000/svg">
<g clip-path="url(#clip0_1_98)">
<path d="M15.2137 5.96631H8.78624C8.03799 5.96631 7.32032 6.26329 6.79088 6.79204C6.26143 7.32078 5.96349 8.03805 5.96249 8.78631V15.2138C5.96249 15.5845 6.03556 15.9515 6.17751 16.2938C6.31946 16.6362 6.52752 16.9473 6.78978 17.2092C7.05204 17.4711 7.36335 17.6787 7.70593 17.8202C8.0485 17.9617 8.4156 18.0343 8.78624 18.0338H15.2137C15.5841 18.0338 15.9508 17.9609 16.2929 17.8191C16.635 17.6774 16.9459 17.4697 17.2078 17.2078C17.4696 16.946 17.6774 16.6351 17.8191 16.293C17.9608 15.9508 18.0337 15.5841 18.0337 15.2138V8.78631C18.0337 8.41598 17.9608 8.04928 17.8191 7.70714C17.6774 7.365 17.4696 7.05413 17.2078 6.79227C16.9459 6.53041 16.635 6.32269 16.2929 6.18097C15.9508 6.03925 15.5841 5.96631 15.2137 5.96631ZM12 15.7951C11.2493 15.7958 10.5152 15.5739 9.89058 15.1573C9.26601 14.7408 8.77901 14.1483 8.4912 13.4549C8.20339 12.7616 8.1277 11.9984 8.27371 11.262C8.41971 10.5256 8.78086 9.84903 9.31145 9.31792C9.84204 8.7868 10.5182 8.42499 11.2545 8.27826C11.9908 8.13152 12.754 8.20645 13.4477 8.49358C14.1413 8.7807 14.7342 9.26711 15.1514 9.89128C15.5686 10.5154 15.7912 11.2493 15.7912 12.0001C15.7912 13.0059 15.3919 13.9706 14.681 14.6822C13.9701 15.3938 13.0058 15.7941 12 15.7951ZM15.9225 8.93256C15.7541 8.93256 15.5896 8.88263 15.4496 8.7891C15.3096 8.69556 15.2005 8.56261 15.136 8.40707C15.0716 8.25152 15.0548 8.08036 15.0876 7.91524C15.1204 7.75011 15.2015 7.59843 15.3206 7.47938C15.4396 7.36033 15.5913 7.27926 15.7564 7.24642C15.9215 7.21357 16.0927 7.23043 16.2483 7.29486C16.4038 7.35929 16.5367 7.46839 16.6303 7.60838C16.7238 7.74837 16.7737 7.91295 16.7737 8.08131C16.7737 8.1931 16.7517 8.30379 16.7089 8.40707C16.6662 8.51035 16.6035 8.60419 16.5244 8.68323C16.4454 8.76228 16.3515 8.82498 16.2483 8.86776C16.145 8.91054 16.0343 8.93256 15.9225 8.93256ZM12 9.52506C11.5105 9.52506 11.032 9.67021 10.625 9.94217C10.2179 10.2141 9.90072 10.6007 9.71339 11.0529C9.52607 11.5052 9.47705 12.0028 9.57255 12.4829C9.66805 12.963 9.90377 13.404 10.2499 13.7501C10.596 14.0963 11.037 14.332 11.5171 14.4275C11.9972 14.523 12.4949 14.474 12.9471 14.2867C13.3994 14.0993 13.7859 13.7821 14.0579 13.3751C14.3298 12.9681 14.475 12.4896 14.475 12.0001C14.475 11.3436 14.2142 10.7141 13.7501 10.25C13.2859 9.78582 12.6564 9.52506 12 9.52506Z" fill="#CEAF59"/>
<path d="M17.9662 0H6.03C4.43162 0.00494981 2.90017 0.642355 1.77029 1.77294C0.640409 2.90352 0.0039561 4.43537 0 6.03375L0 17.9662C0.0039561 19.5646 0.640409 21.0965 1.77029 22.2271C2.90017 23.3576 4.43162 23.9951 6.03 24H17.9662C19.565 23.9951 21.0968 23.3578 22.2273 22.2273C23.3578 21.0968 23.9951 19.565 24 17.9662V6.03375C23.9951 4.43502 23.3578 2.90318 22.2273 1.77271C21.0968 0.64223 19.565 0.00494507 17.9662 0V0ZM19.1962 15.2288C19.1962 16.2813 18.7784 17.2909 18.0344 18.0355C17.2905 18.7802 16.2813 19.199 15.2288 19.2H8.77125C7.71801 19.2 6.70791 18.7816 5.96315 18.0368C5.2184 17.2921 4.8 16.282 4.8 15.2288V8.77125C4.80099 7.71866 5.21983 6.70952 5.96448 5.96558C6.70912 5.22163 7.71866 4.80375 8.77125 4.80375H15.2288C16.281 4.80375 17.2901 5.22175 18.0342 5.9658C18.7782 6.70985 19.1962 7.719 19.1962 8.77125V15.2288Z" fill="#CEAF59"/>
</g>
<defs>
<clipPath id="clip0_1_98">
<rect width="24" height="24" fill="white"/>
</clipPath>
</defs>
</svg>
