<svg width="24" height="24" viewBox="0 0 24 24" fill="none" xmlns="http://www.w3.org/2000/svg">
<g clip-path="url(#clip0_1_107)">
<path d="M17.97 0H6.03375C4.43502 0.00494507 2.90318 0.64223 1.77271 1.77271C0.64223 2.90318 0.00494507 4.43502 0 6.03375L0 17.9662C0.00494507 19.565 0.64223 21.0968 1.77271 22.2273C2.90318 23.3578 4.43502 23.9951 6.03375 24H17.97C19.5684 23.9951 21.0998 23.3576 22.2297 22.2271C23.3596 21.0965 23.996 19.5646 24 17.9662V6.03375C23.996 4.43537 23.3596 2.90352 22.2297 1.77294C21.0998 0.642355 19.5684 0.00494981 17.97 0V0ZM17.925 9.43875C17.925 9.56625 17.925 9.69375 17.925 9.81375C17.925 13.7175 14.955 18.2175 9.52125 18.2175C7.91628 18.2191 6.34484 17.7582 4.995 16.89C5.22903 16.917 5.46441 16.9308 5.7 16.9313C7.03125 16.9367 8.32565 16.4942 9.375 15.675C8.75859 15.6633 8.16123 15.4593 7.6664 15.0915C7.17157 14.7237 6.80399 14.2106 6.615 13.6238C6.79923 13.6585 6.98628 13.676 7.17375 13.6763C7.43613 13.6776 7.69741 13.6423 7.95 13.5712C7.28159 13.4363 6.68044 13.0742 6.24848 12.5466C5.81653 12.019 5.58035 11.3582 5.58 10.6762V10.6388C5.99008 10.8684 6.44903 10.997 6.91875 11.0138C6.29266 10.5963 5.84915 9.956 5.67847 9.22311C5.50779 8.49023 5.62277 7.71986 6 7.06875C6.74204 7.98104 7.66777 8.72697 8.71699 9.25804C9.76621 9.78911 10.9155 10.0934 12.09 10.1512C12.0331 9.93194 12.0029 9.70656 12 9.48C11.9999 8.88732 12.1779 8.30829 12.5111 7.81813C12.8443 7.32796 13.3172 6.94931 13.8683 6.73136C14.4195 6.51341 15.0234 6.46622 15.6017 6.59594C16.18 6.72565 16.706 7.02627 17.1112 7.45875C17.7723 7.32795 18.4063 7.08575 18.9862 6.7425C18.7649 7.42713 18.3025 8.00812 17.685 8.3775C18.271 8.3069 18.8435 8.15022 19.3837 7.9125C18.9915 8.50347 18.4976 9.02022 17.925 9.43875Z" fill="#CEAF59"/>
</g>
<defs>
<clipPath id="clip0_1_107">
<rect width="24" height="24" fill="white"/>
</clipPath>
</defs>
</svg>
