<svg width="23" height="24" viewBox="0 0 23 24" fill="none" xmlns="http://www.w3.org/2000/svg">
<g clip-path="url(#clip0_1_103)">
<path d="M17.2212 0H5.78234C4.25023 0.00494507 2.78222 0.64223 1.69884 1.77271C0.61547 2.90318 0.00473902 4.43502 0 6.03375L0 17.9662C0.00473902 19.565 0.61547 21.0968 1.69884 22.2273C2.78222 23.3578 4.25023 23.9951 5.78234 24H17.2212C18.753 23.9951 20.2207 23.3576 21.3035 22.2271C22.3863 21.0965 22.9962 19.5646 23 17.9662V6.03375C22.9962 4.43537 22.3863 2.90352 21.3035 1.77294C20.2207 0.642355 18.753 0.00494981 17.2212 0V0ZM17.1422 9.03375V11.025C17.144 11.0374 17.144 11.0501 17.1422 11.0625C17.1422 11.1187 17.1422 11.1225 17.0847 11.1225C16.8852 11.122 16.6859 11.1082 16.4881 11.0812C16.0866 11.0273 15.6931 10.9215 15.3166 10.7662C14.9554 10.6209 14.6116 10.4322 14.2923 10.2037L14.2205 10.155V10.2487C14.2205 11.6962 14.2205 13.1437 14.2205 14.595C14.2267 15.3527 14.0233 16.0962 13.6347 16.7362C13.176 17.5107 12.4773 18.0982 11.6545 18.4012C11.1492 18.5949 10.61 18.6729 10.0733 18.63C9.18349 18.569 8.34204 18.1857 7.69422 17.5462L7.64391 17.49L7.54688 17.4C7.47419 17.3617 7.40655 17.3138 7.34563 17.2575C6.92714 16.9187 6.58025 16.4933 6.3267 16.0081C6.07315 15.5228 5.91841 14.9881 5.87219 14.4375C5.85604 14.2291 5.85604 14.0197 5.87219 13.8113C5.92159 13.0281 6.18901 12.277 6.64162 11.6502C7.09424 11.0234 7.71236 10.548 8.42016 10.2825C8.75191 10.1559 9.09915 10.0789 9.45156 10.0538C9.70669 10.0338 9.96308 10.04 10.217 10.0725C10.2494 10.0725 10.2709 10.0725 10.2709 10.125C10.2709 10.275 10.2709 10.4213 10.2709 10.5675C10.4618 10.5575 10.6531 10.5663 10.8423 10.5938C10.8711 10.5938 10.8819 10.6125 10.8783 10.6388V12.75C10.885 12.7758 10.885 12.803 10.8783 12.8287C10.792 12.8287 10.7058 12.7837 10.6159 12.7687C10.3753 12.7288 10.1293 12.7415 9.89354 12.806C9.65783 12.8706 9.43755 12.9856 9.24672 13.1437C8.90174 13.4186 8.67138 13.8214 8.60344 14.2687C8.56343 14.5039 8.56856 14.7449 8.61853 14.978C8.6685 15.211 8.76231 15.4313 8.89453 15.6262L8.92688 15.6788L8.95922 15.7125C9.0926 15.7728 9.23092 15.8205 9.3725 15.855C9.63044 15.9145 9.89794 15.9122 10.1549 15.8485C10.4119 15.7847 10.6518 15.661 10.8564 15.4868C11.0611 15.3125 11.2253 15.0922 11.3368 14.8423C11.4483 14.5924 11.5041 14.3194 11.5 14.0438V5.475C11.5 5.34375 11.5 5.35875 11.6114 5.35875H13.5484C13.6131 5.35875 13.6131 5.35875 13.6131 5.43C13.6113 5.58245 13.6258 5.73464 13.6562 5.88375C13.8323 5.88375 14.0156 5.88375 14.1917 5.88375C14.2205 5.88375 14.2348 5.88375 14.2312 5.92875C14.233 5.94118 14.233 5.95382 14.2312 5.96625C14.2315 6.47618 14.3644 6.97647 14.6158 7.41375C14.7036 7.57361 14.8059 7.72431 14.9213 7.86375C14.9213 7.86375 14.95 7.89 14.9536 7.91625L15.0327 7.98375C15.0495 7.98595 15.0655 7.99238 15.0794 8.0025C15.3847 8.1881 15.7194 8.3151 16.0677 8.3775C16.2055 8.40131 16.3448 8.41385 16.4845 8.415C16.542 8.415 16.542 8.415 16.542 8.475C16.542 8.60625 16.542 8.74125 16.542 8.87625C16.657 8.87625 16.772 8.91375 16.9014 8.925C16.9732 8.92881 17.0452 8.92881 17.117 8.925C17.1494 8.925 17.1673 8.925 17.1637 8.9775C17.1536 8.99488 17.1463 9.01388 17.1422 9.03375Z" fill="#CEAF59"/>
</g>
<defs>
<clipPath id="clip0_1_103">
<rect width="23" height="24" fill="white"/>
</clipPath>
</defs>
</svg>
