<svg width="32" height="24" viewBox="0 0 32 24" fill="none" xmlns="http://www.w3.org/2000/svg">
<path d="M18.7761 22.1445L18.6935 22.1646C14.0025 23.3835 9.07793 23.3835 4.38697 22.1646L4.30438 22.1445C3.49386 21.9338 2.75432 21.5105 2.16214 20.9183C1.56997 20.3261 1.14664 19.5866 0.935906 18.7761L0.915815 18.6935C-0.305272 14.0028 -0.305272 9.07764 0.915815 4.38697L0.935906 4.30438C1.14664 3.49386 1.56997 2.75432 2.16214 2.16214C2.75432 1.56997 3.49386 1.14664 4.30438 0.935906L4.38697 0.915815C9.07764 -0.305272 14.0028 -0.305272 18.6935 0.915815L18.7761 0.935906C19.5866 1.14664 20.3261 1.56997 20.9183 2.16214C21.5105 2.75432 21.9338 3.49386 22.1445 4.30438L22.1646 4.38697C23.3835 9.07793 23.3835 14.0025 22.1646 18.6935L22.1445 18.7761C21.9338 19.5866 21.5105 20.3261 20.9183 20.9183C20.3261 21.5105 19.5866 21.9338 18.7761 22.1445Z" fill="#CEAF59"/>
<path d="M29.165 18.305L25.0353 16.1017C24.7272 15.9372 24.4695 15.692 24.2898 15.3924C24.1102 15.0929 24.0152 14.7501 24.0152 14.4008C24.2607 12.4971 24.2607 10.5698 24.0152 8.66611V8.66611C24.0152 8.31678 24.1102 7.97402 24.2898 7.67443C24.4695 7.37485 24.7272 7.12969 25.0353 6.96513L29.165 4.7619C29.4595 4.60437 29.7899 4.52612 30.1238 4.53484C30.4577 4.54355 30.7836 4.63891 31.0695 4.81158C31.3554 4.98425 31.5915 5.22828 31.7546 5.51974C31.9177 5.81119 32.0023 6.14005 31.9999 6.47404V16.6129C31.9988 16.9452 31.9117 17.2716 31.7472 17.5602C31.5826 17.8489 31.3462 18.0901 31.0608 18.2604C30.7755 18.4307 30.451 18.5243 30.1188 18.5321C29.7866 18.54 29.458 18.4617 29.165 18.305V18.305Z" fill="#CEAF59"/>
</svg>
