<svg width="15" height="25" viewBox="0 0 15 25" fill="none" xmlns="http://www.w3.org/2000/svg">
<path d="M14.7876 9.28917C14.928 8.70725 14.9993 8.11076 15 7.51209C15 5.51976 14.2098 3.60903 12.8033 2.20024C11.3968 0.79145 9.48912 0 7.5 0C5.51088 0 3.60322 0.79145 2.1967 2.20024C0.790176 3.60903 0 5.51976 0 7.51209C0.000695085 8.11076 0.071997 8.70725 0.212424 9.28917C0.352003 10.2953 0.627287 11.2779 1.03074 12.2099C1.76698 13.7597 4.86884 18.8781 6.29305 21.2113C4.36192 21.4531 3.47602 22.2848 3.47602 23.0658C3.47602 23.9966 4.73367 25 7.5 25C10.2663 25 11.524 23.999 11.524 23.0658C11.524 22.2848 10.6308 21.4555 8.70695 21.2113C10.1384 18.8781 13.2306 13.7597 13.9693 12.2099C14.3716 11.2775 14.6468 10.2951 14.7876 9.28917ZM10.3653 23.0706C10.2856 23.2906 9.31767 23.8419 7.5 23.8419C5.68233 23.8419 4.69022 23.2785 4.63228 23.0779C4.68539 22.8868 5.47473 22.413 6.96894 22.3187C6.98081 22.3394 6.9937 22.3596 7.00756 22.3791C7.05952 22.4631 7.13202 22.5324 7.2182 22.5804C7.30437 22.6285 7.40137 22.6537 7.5 22.6537C7.59863 22.6537 7.69563 22.6285 7.7818 22.5804C7.86798 22.5324 7.94048 22.4631 7.99244 22.3791L8.03106 22.3187C9.50595 22.4057 10.2953 22.8699 10.3653 23.0658V23.0706ZM2.07596 11.7118C1.72021 10.8698 1.47673 9.98452 1.35179 9.07882C1.35291 9.06353 1.35291 9.04817 1.35179 9.03288C1.23066 8.53503 1.16907 8.02451 1.16833 7.51209C1.16752 6.61284 1.35736 5.72368 1.72529 4.90341C2.09322 4.08315 2.63085 3.35049 3.30262 2.7539C3.97438 2.15732 4.76497 1.7104 5.62207 1.44273C6.47917 1.17506 7.38325 1.09273 8.27449 1.20119C9.16574 1.30965 10.0238 1.60642 10.792 2.07188C11.5602 2.53734 12.2209 3.16087 12.7305 3.90123C13.2401 4.64158 13.5869 5.48187 13.748 6.36652C13.9091 7.25116 13.8809 8.16 13.6651 9.03288V9.07882C13.5414 9.98478 13.2979 10.8702 12.9409 11.7118C12.1781 13.2761 8.7842 18.8588 7.5 20.9623C6.2158 18.8588 2.82185 13.2761 2.07596 11.7118Z" fill="#CEAF59"/>
<path d="M7.5 3.26392C6.70345 3.26344 5.92465 3.49962 5.26215 3.94257C4.59964 4.38553 4.08319 5.01535 3.77815 5.75236C3.4731 6.48938 3.39316 7.30045 3.54844 8.08298C3.70372 8.86551 4.08725 9.58432 4.6505 10.1485C5.21374 10.7126 5.9314 11.0968 6.71267 11.2523C7.49394 11.4078 8.30371 11.3278 9.03953 11.0222C9.77536 10.7167 10.4042 10.1994 10.8464 9.53584C11.2887 8.87227 11.5245 8.09222 11.524 7.29438C11.5233 6.22563 11.0992 5.20084 10.3447 4.44512C9.59017 3.6894 8.56703 3.26456 7.5 3.26392ZM4.63228 7.29438C4.63228 6.72629 4.80047 6.17095 5.11558 5.69859C5.43069 5.22624 5.87856 4.85809 6.40257 4.64068C6.92658 4.42328 7.50318 4.3664 8.05946 4.47723C8.61575 4.58806 9.12672 4.86163 9.52778 5.26333C9.92884 5.66503 10.202 6.17684 10.3126 6.73402C10.4233 7.29119 10.3665 7.86873 10.1494 8.39358C9.93237 8.91843 9.56481 9.36703 9.09322 9.68265C8.62162 9.99826 8.06718 10.1667 7.5 10.1667C6.73963 10.1661 6.01058 9.86326 5.47292 9.32473C4.93526 8.7862 4.63292 8.05598 4.63228 7.29438Z" fill="#CEAF59"/>
</svg>
