<svg width="93" height="98" viewBox="0 0 93 98" fill="none" xmlns="http://www.w3.org/2000/svg">
<g filter="url(#filter0_d_3_112)">
<rect width="63" height="63" transform="matrix(-1 0 0 1 68 0)" fill="url(#paint0_linear_3_112)"/>
<rect x="-0.5" y="0.5" width="62" height="62" transform="matrix(-1 0 0 1 67 0)" stroke="url(#paint1_linear_3_112)"/>
</g>
<path d="M25 33C24.4477 33 24 32.5523 24 32C24 31.4477 24.4477 31 25 31L25 33ZM49.7071 31.2929C50.0976 31.6834 50.0976 32.3166 49.7071 32.7071L43.3431 39.0711C42.9526 39.4616 42.3195 39.4616 41.9289 39.0711C41.5384 38.6805 41.5384 38.0474 41.9289 37.6569L47.5858 32L41.9289 26.3431C41.5384 25.9526 41.5384 25.3195 41.9289 24.9289C42.3195 24.5384 42.9526 24.5384 43.3431 24.9289L49.7071 31.2929ZM25 31L49 31L49 33L25 33L25 31Z" fill="url(#paint2_linear_3_112)"/>
<defs>
<filter id="filter0_d_3_112" x="0" y="0" width="93" height="98" filterUnits="userSpaceOnUse" color-interpolation-filters="sRGB">
<feFlood flood-opacity="0" result="BackgroundImageFix"/>
<feColorMatrix in="SourceAlpha" type="matrix" values="0 0 0 0 0 0 0 0 0 0 0 0 0 0 0 0 0 0 127 0" result="hardAlpha"/>
<feOffset dx="10" dy="20"/>
<feGaussianBlur stdDeviation="7.5"/>
<feComposite in2="hardAlpha" operator="out"/>
<feColorMatrix type="matrix" values="0 0 0 0 0 0 0 0 0 0 0 0 0 0 0 0 0 0 0.25 0"/>
<feBlend mode="normal" in2="BackgroundImageFix" result="effect1_dropShadow_3_112"/>
<feBlend mode="normal" in="SourceGraphic" in2="effect1_dropShadow_3_112" result="shape"/>
</filter>
<linearGradient id="paint0_linear_3_112" x1="57.0167" y1="2.74806" x2="-14.6079" y2="38.6176" gradientUnits="userSpaceOnUse">
<stop stop-color="#1A418E"/>
<stop offset="0.31" stop-color="#132F6C"/>
<stop offset="0.77" stop-color="#0A163F"/>
<stop offset="1" stop-color="#060D2D"/>
</linearGradient>
<linearGradient id="paint1_linear_3_112" x1="5.68742" y1="8.34224" x2="55.1126" y2="17.5308" gradientUnits="userSpaceOnUse">
<stop stop-color="#E59C28"/>
<stop offset="0.12" stop-color="#F9C432"/>
<stop offset="0.34" stop-color="#FCDA61"/>
<stop offset="0.62" stop-color="#FFF8A0"/>
<stop offset="0.67" stop-color="#FDF298"/>
<stop offset="0.76" stop-color="#F8E081"/>
<stop offset="0.87" stop-color="#F0C45C"/>
<stop offset="1" stop-color="#E59C28"/>
</linearGradient>
<linearGradient id="paint2_linear_3_112" x1="27.1666" y1="31.8676" x2="28.0983" y2="27.7106" gradientUnits="userSpaceOnUse">
<stop stop-color="#E59C28"/>
<stop offset="0.12" stop-color="#F9C432"/>
<stop offset="0.34" stop-color="#FCDA61"/>
<stop offset="0.62" stop-color="#FFF8A0"/>
<stop offset="0.67" stop-color="#FDF298"/>
<stop offset="0.76" stop-color="#F8E081"/>
<stop offset="0.87" stop-color="#F0C45C"/>
<stop offset="1" stop-color="#E59C28"/>
</linearGradient>
</defs>
</svg>
