<svg width="1440" height="3026" viewBox="0 0 1440 3026" fill="none" xmlns="http://www.w3.org/2000/svg">
<path opacity="0.2" fill-rule="evenodd" clip-rule="evenodd" d="M-246.383 2913.06L-235.348 2925.17L-226.257 2931.88L-235.661 2917.56L-246.383 2913.06ZM-276.853 2873.88L-262.558 2895.23L-260.928 2897.03L-257.417 2899.73L-243.06 2905.78L-256.539 2879.03L-269.079 2877.4L-276.979 2873.88H-276.853ZM-299.612 2863.82L-289.016 2875.6L-278.608 2883.78L-288.577 2868.97L-299.612 2864.06V2863.82ZM-300.866 2831.59L-285.443 2861.12L-284.502 2862.51L-271.524 2868.4L-261.053 2870.12L-261.43 2869.38L-273.969 2835.27L-300.74 2831.59H-300.866ZM-329.832 2824.47L-315.599 2845.99L-312.402 2849.5L-311.775 2849.99L-294.282 2858.17L-306.822 2830.93L-320.113 2829.13L-329.706 2824.64L-329.832 2824.47ZM-353.155 2813.67L-342.684 2825.62L-331.399 2834.53L-341.681 2818.99L-353.155 2813.67ZM-292.59 2785.53L-314.534 2788.4L-320.051 2787.58L-305.317 2822.84L-285.066 2827.09H-277.229L-292.59 2786.19V2785.53ZM-351.587 2783L-337.919 2812.37L-337.355 2813.27L-327.386 2818.17L-311.211 2821.61L-327.512 2786.52L-351.587 2783ZM-382.935 2774.82L-368.891 2796.25L-366.572 2798.87H-366.196L-347.387 2808.19L-359.926 2781.69L-372.465 2779.81L-383.186 2774.57L-382.935 2774.82ZM-405.694 2763.53L-396.353 2774.41L-385.255 2783.49L-394.848 2768.93L-405.694 2763.53ZM-405.694 2747.17L-414.534 2748.48L-419.801 2747.74L-418.296 2749.46L-400.052 2759.36L-405.694 2747.17ZM-378.108 2743.08L-398.86 2746.19L-390.898 2763.37L-389.895 2764.84L-383.625 2768.19L-363.876 2773.43L-377.92 2743.08H-378.108ZM-342.935 2740.13L-357.857 2741.77L-365.38 2741.2L-371.65 2742.1L-356.102 2775.64L-343.562 2778.91H-331.023L-343.562 2739.73L-342.935 2740.13ZM-403.437 2736.29L-402.183 2738.91H-393.468L-403.437 2736.54V2736.29ZM-306.383 2736.29L-336.478 2739.64L-323.938 2779.73L-299.549 2780.54L-294.972 2779.81L-306.508 2736.29H-306.383ZM-433.908 2726.96L-425.506 2739.97L-409.331 2739.4L-411.588 2734.57L-421.368 2732.28L-433.908 2726.96ZM-310.521 2720.42L-338.922 2731.87L-313.844 2729.66L-308.578 2728.36L-310.709 2720.18L-310.521 2720.42ZM-455.287 2716.9L-449.895 2723.28L-437.858 2733.67L-445.319 2722.14L-450.209 2720.09L-455.287 2716.9ZM-424.879 2705.7L-445.068 2708.48L-443.062 2712.9L-441.369 2715.51L-439.049 2716.9L-416.29 2724.35L-424.879 2705.7ZM-513.72 2700.46L-490.46 2718.78C-480.699 2724.93 -470.491 2729.78 -459.989 2733.26L-446.071 2736.13L-453.344 2729.91L-470.021 2709.87L-503.313 2705.21L-513.72 2700.46ZM-393.468 2696.37L-414.66 2704.55L-418.108 2705.04L-407.763 2727.46L-400.679 2729.75L-382.497 2731.63L-393.468 2696.62V2696.37ZM-359.361 2683.04L-362.183 2684.67L-387.261 2694.16L-375.287 2732.12L-366.321 2733.02L-352.591 2729.83L-346.759 2727.46L-354.471 2702.92L-359.111 2682.96L-359.361 2683.04ZM-496.04 2671.99L-500.115 2672.49L-490.209 2681.4L-496.04 2671.99ZM-541.683 2669.3L-541.181 2670.11L-527.263 2686.47L-510.711 2694.65C-500.7 2698.27 -490.46 2700.71 -480.115 2701.93H-478.61L-506.197 2677.39L-508.893 2674.04H-510.398L-541.746 2669.62L-541.683 2669.3ZM-470.711 2668.8L-487.45 2670.93L-474.535 2693.84L-471.4 2697.52L-464.253 2701.85H-455.601L-470.711 2669.13V2668.8ZM-558.486 2664.63L-546.761 2674.04L-550.649 2667.99H-551.714L-558.486 2664.8V2664.63ZM-323.562 2662.42L-353.782 2679.77L-348.954 2700.62L-341.243 2725.17L-312.59 2713.39L-315.976 2700.38L-323.562 2662.59V2662.42ZM-441.619 2659.48L-464.19 2667.17L-448.203 2702.02H-447.388L-428.579 2698.42L-431.839 2691.3L-441.87 2659.48H-441.619ZM-408.516 2645.65L-421.933 2652.77L-435.538 2657.43L-425.757 2688.44L-421.745 2697.11L-412.089 2695.31L-395.788 2689.42L-405.632 2658.17L-408.516 2645.65ZM-537.106 2635.43L-557.733 2637.72H-560.116L-547.012 2660.54L-533.533 2664.31L-516.103 2665.29L-530.711 2647.37L-536.981 2635.84L-537.106 2635.43ZM-587.264 2633.3L-586.762 2634.2L-573.031 2649.99L-561.558 2656.13L-557.608 2657.19L-566.887 2642.79L-570.022 2635.92L-587.264 2633.3ZM-515.852 2632.08L-520.931 2633.71L-529.959 2634.69L-526.636 2640.67L-506.635 2665.21H-503.438L-500.366 2664.8L-503.563 2659.64L-516.103 2631.75L-515.852 2632.08ZM-601.934 2630.44L-592.216 2638.62L-596.354 2632.08L-599.866 2631.59L-601.934 2630.52V2630.44ZM-372.528 2626.68L-402.748 2642.63L-399.738 2655.8L-389.77 2687.21L-374.409 2681.65L-361.368 2674.94L-372.528 2626.68ZM-488.704 2623.81L-510.46 2630.44L-491.651 2663.9L-474.284 2661.52L-482.999 2642.38L-488.83 2623.81H-488.704ZM-456.917 2609.99L-481.432 2621.6H-482.435L-476.98 2638.95L-467.45 2659.64L-443.751 2652.36L-456.29 2612.12L-456.854 2609.66L-456.917 2609.99ZM-585.696 2601.24L-604.505 2602.96H-605.195L-592.342 2625.12L-587.389 2626.76L-573.721 2628.23L-585.947 2601.32L-585.696 2601.24ZM-334.91 2601.24L-366.948 2623.24L-355.6 2672.32L-334.22 2661.36L-325.067 2655.39L-332.465 2618.25L-334.91 2601.24ZM-632.154 2598.95L-617.859 2615.8L-612.781 2618.66L-603.126 2621.85L-613.22 2605.98L-615.163 2601.65L-632.154 2598.95ZM-646.324 2596.74L-636.606 2604.92L-635.289 2605.65L-638.988 2601.32L-641.245 2597.31L-646.324 2596.49V2596.74ZM-559.113 2596.74L-573.533 2600.58L-579.803 2601.15L-577.232 2608.03L-564.693 2629.62L-559.74 2630.19L-540.931 2628.72L-558.862 2596.74H-559.113ZM-421.181 2590.93L-438.986 2601.97L-451.024 2607.7L-450.334 2610.73L-437.795 2651.63H-437.168L-410.397 2639.44L-421.431 2591.5L-421.181 2590.93ZM-534.724 2589.46L-540.617 2591.91L-552.216 2595.02L-533.783 2627.74H-530.774L-519.05 2624.96L-534.724 2589.29V2589.46ZM-503.376 2576.37L-505.633 2577.51L-527.639 2586.68L-513.846 2623.9L-499.614 2620.46L-490.711 2616.94L-503.25 2576.04L-503.376 2576.37ZM-393.406 2573.75L-415.287 2587.41L-404.064 2636.49L-400.177 2634.69L-373.97 2619.32L-381.744 2575.55L-393.406 2574.08V2573.75ZM-630.273 2567.7L-649.082 2570.4L-637.421 2590.68L-619.427 2592.16L-630.524 2567.62L-630.273 2567.7ZM-339.361 2567.7L-341.556 2568.93L-375.224 2575.96L-368.202 2615.55L-361.431 2611.54L-335.662 2593.38L-339.361 2567.7ZM-675.352 2566.31L-665.822 2577.84L-647.013 2587.17L-657.295 2569.25L-675.478 2566.31H-675.352ZM-689.96 2563.85L-685.007 2568.35L-681.057 2570.32L-685.634 2564.84L-689.835 2564.1L-689.96 2563.85ZM-601.056 2563.44L-624.38 2566.88L-621.684 2574L-610.712 2592.89L-589.959 2594.61H-588.768L-596.981 2576.45L-601.056 2563.69V2563.44ZM-461.933 2558.95L-452.466 2599.85L-432.09 2589.21L-422.685 2583.24L-423.688 2578.91L-426.886 2560.83L-440.679 2563.85L-461.933 2558.7V2558.95ZM-468.83 2557.39L-497.545 2573.1L-484.567 2614.57L-466.823 2607.62L-458.297 2603.12L-468.83 2557.39ZM-577.859 2554.61L-594.599 2561.24L-582.624 2592.89L-563.501 2588.23L-568.956 2578.5L-577.859 2554.61ZM-387.261 2544.14L-409.08 2557.06L-420.742 2559.68L-417.669 2577.19L-417.042 2579.89L-395.412 2566.06C-394.759 2565.61 -394.006 2565.46 -393.281 2565.65H-383.437L-387.261 2543.98V2544.14ZM-548.893 2543.08L-571.903 2552.16L-563.627 2571.79L-556.04 2585.45L-536.479 2580.7L-548.266 2541.93L-548.893 2543.08ZM-472.403 2541.93L-478.673 2546.1C-484.415 2548.83 -490.332 2550.88 -496.354 2552.24L-503.125 2552.81L-500.617 2563.69V2564.43L-470.961 2549.54L-472.717 2541.93H-472.403ZM-567.765 2541.93L-574.787 2544.39L-567.89 2541.6L-567.765 2541.93ZM-543.313 2541.93L-540.68 2551.91L-530.335 2579.89L-506.197 2567.78L-506.573 2566.63L-509.52 2553.79H-513.031C-518.433 2553.46 -523.782 2552.25 -528.956 2550.19L-543.313 2541.93ZM-674.349 2538.25H-693.158L-682.876 2556.66L-662.562 2560.09L-673.032 2541.6L-674.474 2537.84L-674.349 2538.25ZM-603.377 2538.25L-602.687 2540.7L-597.42 2554.53L-580.618 2547.82L-581.809 2544.71L-601.119 2540.05L-603.377 2538.25ZM-716.23 2538.25L-708.832 2547.41L-694.036 2555.59L-690.901 2556.08L-700.368 2539.23H-710.964L-716.23 2537.84V2538.25ZM-644.38 2535.14L-651.527 2537.1H-652.092L-656.23 2535.88L-667.076 2538.82V2539.31L-653.722 2562.63L-649.333 2563.36L-633.534 2560.99L-642.06 2542.18L-644.254 2535.31L-644.38 2535.14ZM-733.91 2533.34L-725.384 2538.09L-727.955 2534.9L-734.224 2533.26L-733.91 2533.34ZM-619.301 2525.65L-624.819 2529.66L-637.358 2533.18L-627.138 2559.85L-603.251 2556.25L-610.963 2532.11L-619.113 2525.57L-619.301 2525.65ZM-708.832 2524.51L-722.437 2528.43L-709.459 2531.95H-704.694L-708.832 2524.67V2524.51ZM-746.951 2520.99L-745.823 2522.05L-742.375 2522.95L-746.951 2520.99ZM-434.911 2515.92L-440.491 2521.48L-466.635 2539.15L-463.751 2551.67L-451.964 2555.92C-446.544 2556.91 -441.06 2557.15 -435.601 2556.66L-428.14 2554.12L-434.911 2515.92ZM-518.485 2514.77L-544.191 2533.67H-541.871C-533.06 2541.13 -522.894 2545.42 -512.404 2546.1H-511.213L-518.485 2514.53V2514.77ZM-689.96 2514.12L-700.619 2522.3L-702.249 2522.79L-697.233 2531.71L-677.296 2531.05L-679.49 2525.32L-689.96 2514.28V2514.12ZM-347.073 2513.22L-374.973 2537.76L-381.243 2541.52V2542.99L-377.042 2566.88H-359.299L-340.49 2558.7L-346.759 2512.4L-347.073 2513.22ZM-746.764 2512.4L-740.494 2515.43L-741.747 2513.05L-747.014 2512.4H-746.764ZM-716.042 2511.66L-733.534 2513.79L-730.086 2520.01L-727.453 2521.15L-712.844 2517.31L-716.042 2511.66ZM-756.732 2511.17L-755.729 2512.65L-755.29 2513.14L-756.607 2511.17H-756.732ZM-696.105 2509.29L-708.644 2510.77L-705.948 2515.59L-703.189 2514.85L-695.916 2509.29H-696.105ZM-594.975 2506.35L-595.79 2507.17L-608.329 2516.33L-606.198 2524.51L-597.044 2531.95L-584.505 2534L-594.975 2506.35ZM-751.215 2493.18L-756.481 2497.35L-753.409 2501.93L-745.948 2502.75L-751.215 2493.18ZM-789.397 2489.33L-786.011 2493.34L-774.099 2498.17L-779.24 2491.62L-780.055 2490.07L-789.397 2489.33ZM-659.365 2485.08L-672.593 2499.56L-679.427 2504.71L-673.973 2518.95L-672.343 2520.66L-655.603 2525.82L-647.201 2523.44L-659.365 2485.08ZM-824.507 2481.48L-827.579 2485.16L-831.028 2488.02L-818.488 2504.38C-813.838 2508.56 -808.438 2511.1 -802.814 2511.75L-781.497 2506.68L-786.137 2503.65L-789.209 2500.05L-805.635 2493.26L-819.491 2482.79L-824.382 2481.23L-824.507 2481.48ZM-483.375 2477.88L-512.655 2507.98L-504.316 2544.06L-495.915 2543.4C-490.109 2541.98 -484.404 2539.93 -478.861 2537.27L-473.532 2533.59L-483.375 2477.88ZM-836.482 2476.65L-834.35 2481.56L-833.034 2480.5L-831.905 2479.11L-833.473 2478.62L-836.482 2476.65ZM-565.759 2475.84L-589.959 2501.11L-577.42 2534.9H-575.038L-552.843 2527.21L-557.545 2511.58L-565.696 2475.43L-565.759 2475.84ZM-395.725 2474.53L-398.61 2478.04L-429.143 2508.72L-421.745 2550.44L-399.738 2542.99L-387.951 2534.81L-395.725 2474.85V2474.53ZM-731.403 2470.93L-746.325 2488.11L-737.735 2503.65L-733.284 2504.22L-719.365 2502.34L-731.403 2470.93ZM-815.04 2470.03L-818.613 2474.36L-817.987 2474.85L-808.519 2477.72L-814.789 2470.03H-815.04ZM-887.642 2455.47L-905.448 2477.88L-899.179 2490.23C-894.149 2498.33 -887.004 2503.72 -879.116 2505.37C-871.843 2506.21 -864.529 2504.52 -857.924 2500.46L-839.93 2485.9L-845.385 2473.95C-854.899 2471.71 -864.253 2468.42 -873.348 2464.14L-887.642 2455.47ZM-800.495 2452.44L-810.463 2464.47L-796.921 2480.83L-784.82 2481.56L-800.495 2452.77V2452.44ZM-631.214 2451.79L-641.997 2466.26L-654.035 2479.43L-646.261 2507.41L-640.743 2521.64L-620.869 2516.08L-616.229 2512.56L-618.236 2506.18L-631.214 2451.79ZM-879.492 2445.41L-881.749 2448.27L-869.649 2456.45L-861.874 2459.07L-875.04 2450.23L-879.492 2445.08V2445.41ZM-707.139 2439.93L-720.431 2458.49L-726.701 2465.36L-713.722 2499.88L-712.782 2501.52L-693.973 2498.99C-693.426 2498.87 -692.865 2498.94 -692.347 2499.2C-691.83 2499.46 -691.374 2499.89 -691.026 2500.46L-689.271 2502.42L-687.954 2501.36L-697.547 2476.33L-707.703 2439.93H-707.139ZM-943.442 2439.19L-962.941 2463.73L-976.797 2475.75L-974.791 2480.5C-972.584 2485.06 -969.69 2489 -966.285 2492.06C-962.88 2495.13 -959.033 2497.26 -954.978 2498.33C-948.258 2499.44 -941.434 2498.05 -935.292 2494.32L-913.16 2476.16L-920.182 2456.37L-943.442 2438.94V2439.19ZM-532.279 2432.73L-561.056 2469.7L-559.614 2476.98L-547.075 2524.59L-520.053 2504.47L-523.313 2490.23L-532.341 2432.97L-532.279 2432.73ZM-445.883 2430.68L-446.949 2432.15L-478.297 2471.01L-468.015 2529.17L-442.121 2511.42L-436.228 2505.37L-436.729 2502.58L-446.008 2430.68H-445.883ZM-615.163 2429.45L-626.386 2444.51L-620.932 2470.35L-610.649 2507.82L-597.232 2497.76L-614.411 2433.14L-615.163 2429.45ZM-868.771 2428.47L-875.04 2437.88L-858.238 2454.24L-840.62 2464.63L-868.833 2428.55L-868.771 2428.47ZM-357.355 2426.59L-390.271 2467.49L-382.183 2530.07L-360.866 2514.61L-348.327 2501.77L-354.597 2459.31L-357.857 2426.59H-357.355ZM-781.309 2424.06L-796.356 2446.14L-790.839 2458.66L-775.228 2481.4L-768.08 2481.89C-767.53 2481.88 -766.986 2482.05 -766.503 2482.4C-766.02 2482.74 -765.613 2483.24 -765.321 2483.85L-760.682 2490.72L-754.851 2486.14L-764.005 2469.78L-781.309 2424.14V2424.06ZM-929.147 2418.9L-933.85 2426.26L-939.054 2432.89L-916.545 2449.25C-915.795 2449.71 -915.211 2450.53 -914.916 2451.54L-908.646 2470.11L-893.41 2451.3L-899.367 2447.7L-929.21 2418.66L-929.147 2418.9ZM-1015.61 2409.17L-1028.15 2429.62L-1048.96 2457.59L-1043.44 2467.82C-1037.07 2478.11 -1027.87 2484.74 -1017.8 2486.31C-1009.74 2487.03 -1001.67 2484.97 -994.415 2480.33L-985.261 2472.56L-988.02 2466.43C-991.035 2457.49 -993.55 2448.28 -995.543 2438.86L-1015.61 2409.17ZM-853.41 2405.08L-864.696 2422.17L-832.846 2463.07L-824.319 2469.62L-819.742 2464.14L-826.702 2455.96L-853.41 2405.16V2405.08ZM-680.242 2399.92L-688.581 2413.01L-702.625 2432.81L-691.402 2473.05L-682.249 2496.86L-675.979 2491.87L-662.186 2476.65L-663.44 2472.73C-669.082 2451.87 -674.349 2430.03 -679.114 2407.29L-680.242 2399.92ZM-915.919 2398.21L-924.821 2412.19L-913.348 2425.86L-887.266 2444.1L-886.201 2442.71L-884.257 2439.76L-903.066 2418.17L-915.605 2398.21H-915.919ZM-757.547 2387.33L-768.77 2405.73L-776.795 2417.51L-759.303 2464.06L-750.086 2480.83L-734.349 2462.75L-742.124 2442.38L-757.547 2387.33ZM-582.686 2381.36L-608.894 2421.11L-610.148 2422.75L-608.956 2428.8L-592.154 2492.36L-567.765 2466.26L-574.034 2439.35L-582.938 2381.36H-582.686ZM-496.479 2381.36L-526.887 2425.53L-517.043 2488.19L-514.473 2499.39L-485.507 2469.29L-484.943 2468.64L-486.197 2461.68L-496.479 2381.36ZM-407.638 2377.35L-408.39 2378.49L-440.491 2423.24L-430.585 2499.97L-401.243 2470.11L-396.979 2464.79L-405.945 2395.34L-407.638 2377.35ZM-994.603 2373.99L-999.556 2382.99L-1011.66 2402.79L-990.653 2433.71C-990.209 2434.23 -989.901 2434.91 -989.775 2435.67C-987.968 2444.46 -985.685 2453.07 -982.941 2461.44L-980.057 2468.23L-968.019 2458L-949.21 2433.46L-968.772 2413.09L-994.854 2373.67L-994.603 2373.99ZM-899.304 2371.79L-902.063 2376.61L-911.906 2392.07L-911.279 2393.3C-904.698 2404.1 -897.51 2414.24 -889.774 2423.65L-879.868 2433.22L-873.16 2422.99L-874.539 2421.27L-899.304 2372.19V2371.79ZM-833.159 2371.29L-849.209 2398.62L-822.438 2449.9L-815.102 2458.58L-805.008 2446.47L-804.131 2445.24L-809.711 2435.02C-818.066 2415.94 -825.479 2396.19 -831.905 2375.88L-833.159 2371.29ZM-1085.26 2365.89L-1095.23 2384.87C-1104.38 2401.23 -1113.06 2416.01 -1121.25 2429.21L-1130.28 2442.05L-1123.51 2461.44C-1121.37 2467.11 -1118.31 2472.1 -1114.54 2476.07C-1110.77 2480.04 -1106.39 2482.89 -1101.69 2484.42C-1089.78 2487.04 -1075.79 2478.37 -1059.68 2459.88L-1057.05 2456.45L-1059.62 2451.87C-1063.87 2442.07 -1067.56 2431.87 -1070.65 2421.36L-1085.26 2365.89ZM-649.396 2350.76L-653.596 2357.88L-675.352 2392.24L-664.882 2440.82L-656.543 2470.76L-645.321 2458.33L-633.534 2441.97L-634.537 2437.72L-649.521 2350.93L-649.396 2350.76ZM-977.424 2342.58L-990.904 2367.12L-964.007 2408.02L-944.445 2428.31L-938.74 2421.11L-934.351 2414.16L-934.978 2413.59C-943.698 2402.76 -951.749 2391.05 -959.054 2378.57L-977.424 2342.58ZM-730.023 2341.6L-735.039 2350.35L-752.97 2379.97L-736.983 2437.23L-729.522 2457.02L-725.196 2452.03L-709.772 2430.44L-715.227 2411.21C-720.034 2391.42 -724.485 2370.83 -728.581 2349.45L-730.023 2341.6ZM-879.116 2336.12L-895.354 2364.83L-870.275 2415.47L-869.21 2416.86L-856.67 2398.21L-879.053 2336.12H-879.116ZM-808.519 2327.94L-816.858 2343.24L-828.582 2363.2L-816.419 2400.99L-799.742 2438.45L-784.319 2415.96L-787.077 2408.68C-793.222 2389.65 -798.885 2369.55 -804.068 2348.39L-808.519 2327.94ZM-547.953 2325.65L-573.031 2366.06L-578.298 2374.24L-573.784 2406.96L-563.188 2460.46L-534.097 2422.67L-546.26 2345.12L-548.266 2325.81L-547.953 2325.65ZM-633.784 2324.01L-644.443 2342.17L-634.787 2404.59L-628.518 2435.18L-617.232 2419.88L-628.204 2365L-633.972 2324.09L-633.784 2324.01ZM-458.234 2322.05L-490.961 2373.18L-479.927 2459.88L-479.551 2461.77L-450.021 2424.79L-446.949 2420.54L-454.786 2359.84L-458.234 2322.05ZM-1061.88 2321.15L-1066.2 2329.82L-1080.68 2357.31L-1064.7 2418.58C-1061.8 2428.33 -1058.38 2437.82 -1054.48 2446.96L-1052.47 2450.72L-1033.66 2426.18L-1019.49 2403.11L-1032.91 2383.24C-1043.21 2364.47 -1052.49 2344.79 -1060.68 2324.34L-1061.88 2321.15ZM-367.7 2317.39L-401.995 2368.84L-399.675 2393.87L-391.4 2457.76L-358.233 2416.86L-366.697 2331.38L-367.7 2317.71V2317.39ZM-957.612 2304.79L-967.894 2324.91L-973.161 2334.65L-962.189 2357.96C-956.089 2369.39 -949.451 2380.32 -942.314 2390.68L-929.461 2406.06L-919.994 2391.25L-922.188 2387.82C-931.903 2370.45 -940.541 2352.09 -948.019 2332.93L-957.612 2304.79ZM-853.974 2289.66L-867.392 2315.26L-874.664 2328.18V2329.33L-852.72 2390.68L-835.855 2362.05L-850.652 2308.55L-854.288 2289.66H-853.974ZM-698.989 2286.79L-725.07 2332.77L-722.5 2347.49C-718.362 2368.68 -713.973 2389.21 -709.146 2408.84L-704.945 2423.81L-692.405 2406.63L-681.684 2389.7L-691.716 2336.36L-698.675 2286.79H-698.989ZM-779.93 2275.91L-781.309 2278.45L-803.754 2319.35L-798.488 2343.89C-793.347 2364.83 -787.83 2384.79 -781.811 2403.69L-779.679 2409.33L-773.41 2400.58L-759.616 2377.92L-773.974 2311.42L-779.616 2275.91H-779.93ZM-1039.05 2275.01L-1057.86 2313.05L-1055.36 2320.25C-1047.22 2340.51 -1038 2360 -1027.77 2378.57L-1015.67 2396.41L-1005.01 2378.98L-998.741 2367.45L-1003.44 2360.33C-1013.01 2342.4 -1021.62 2323.62 -1029.21 2304.14L-1039.05 2275.01ZM-598.674 2263.64L-615.54 2293.34L-628.518 2315.42L-622.248 2361.15L-611.966 2413.09L-584.317 2371.13L-595.226 2300.29L-598.862 2263.81L-598.674 2263.64ZM-509.332 2261.19L-533.407 2302.09L-542.31 2316.65L-539.551 2343.4L-528.329 2415.06L-497.67 2370.39L-503.94 2323.69L-509.583 2261.11L-509.332 2261.19ZM-934.665 2259.64L-953.474 2297.18L-948.333 2313.05C-942.96 2327.83 -937.018 2342.25 -930.527 2356.24L-915.354 2384.63L-906.263 2370.39L-902.439 2363.69L-924.32 2301.44L-934.351 2259.64H-934.665ZM-418.108 2257.02L-451.651 2311.74L-452.779 2313.46L-448.641 2358.61L-441.619 2413.01L-412.027 2371.54L-408.516 2366.3L-416.729 2277.3L-418.108 2257.02ZM-825.635 2235.5L-829.899 2244.17L-849.648 2281.8L-848.833 2285.89C-844.654 2305.53 -839.993 2324.39 -834.852 2342.5L-830.965 2354.61L-823.567 2342.09L-810.338 2317.55L-818.049 2282.13L-825.635 2235.18V2235.5ZM-1016.92 2229.7L-1033.98 2265.28L-1034.73 2266.83L-1023.57 2299.55C-1016.09 2318.85 -1007.58 2337.43 -998.114 2355.18L-994.728 2360.33L-980.747 2334.73L-1000.31 2284.58L-1016.92 2229.37V2229.7ZM-665.822 2226.91L-693.722 2277.96L-678.048 2377.02L-676.919 2382.25L-657.672 2350.93L-651.402 2339.96L-657.107 2306.34L-666.574 2226.83L-665.822 2226.91ZM-748.519 2217.02L-774.601 2266.59L-768.331 2307.49L-754.977 2370.15L-739.428 2344.54L-731.528 2330.72L-739.742 2283.52L-748.707 2217.02H-748.519ZM-908.395 2206.87L-929.9 2250.8L-918.928 2296.85L-898.238 2356.24L-881.373 2326.39L-894.414 2277.88L-908.395 2206.87ZM-649.27 2196.32L-658.236 2212.68L-660.618 2217.02L-653.722 2278.45L-645.634 2331.13L-634.787 2312.81L-645.571 2235.75L-649.27 2195.99V2196.32ZM-559.802 2195.26L-574.223 2221.19L-593.031 2254.73L-591.276 2273.46L-578.737 2363.44L-574.912 2357.71L-548.329 2314.36L-557.357 2226.67L-559.551 2195.09L-559.802 2195.26ZM-468.391 2191.74L-490.836 2230.43L-503.376 2251.86L-497.106 2322.62L-492.028 2362.54L-458.986 2310.68L-464.88 2246.06L-468.454 2191.74H-468.391ZM-376.54 2188.88L-407.889 2240.66L-412.277 2247.86L-410.334 2276.24L-402.81 2358.04L-371.462 2310.52L-368.641 2306.1L-377.042 2188.96L-376.54 2188.88ZM-990.966 2176.03L-998.49 2191.99L-1012.16 2220.54L-1011.47 2223.64C-1002.91 2256.56 -992.326 2288.51 -979.806 2319.19L-976.045 2327.37L-972.471 2320.82L-959.932 2296.28L-969.9 2266.75L-990.966 2176.77V2176.03ZM-794.225 2173.74L-820.369 2225.85L-811.968 2278.45L-805.259 2309.37L-787.328 2276.65L-781.058 2264.71L-791.466 2199.27L-794.225 2173.58V2173.74ZM-714.287 2151.74L-742.375 2205.89L-743.19 2207.45L-733.221 2281.8L-726.262 2322.13L-702.061 2279.51L-699.929 2275.67L-707.453 2221.93L-714.287 2151.74ZM-878.677 2146.26L-894.664 2178.98L-903.505 2197.06L-888.583 2273.38L-876.671 2318.04L-871.153 2308.39L-855.479 2278.45L-871.718 2195.26L-878.677 2146.18V2146.26ZM-610.022 2123.76L-615.414 2133.74L-643.69 2186.34L-639.302 2233.05L-629.458 2304.46L-618.862 2286.55L-599.238 2251.95L-605.508 2187.49L-609.771 2123.76H-610.022ZM-518.861 2122.45L-530.022 2142.33L-553.846 2185.11L-551.088 2226.02L-542.874 2305.93L-535.915 2294.65L-509.708 2250.15L-512.968 2214.4L-518.861 2122.86V2122.45ZM-426.823 2120.33L-445.193 2151.99L-462.56 2182.01L-458.359 2244.99L-453.156 2302.25L-418.296 2245.48L-426.823 2120.49V2120.33ZM-962.941 2116.57L-986.578 2166.63L-964.069 2263.32L-956.044 2287.86L-937.236 2251.46L-936.107 2249.25L-950.59 2188.63L-962.628 2116.16L-962.941 2116.57ZM-760.431 2105.36L-788.958 2163.27L-785.447 2196.4L-776.168 2255.38L-749.773 2205.4L-753.472 2178L-760.431 2105.36ZM-678.926 2083.68L-701.12 2126.54L-709.584 2142.91L-708.268 2157.22C-704.882 2190.68 -701.12 2223.48 -696.982 2255.38L-695.101 2267.08L-666.951 2215.46L-668.832 2199.1L-678.926 2083.52V2083.68ZM-845.698 2077.96L-853.285 2093.74L-873.912 2136.44L-860.432 2224.95L-851.341 2271.01L-833.786 2237.47L-827.015 2224.05L-834.978 2174.97L-845.698 2078.2V2077.96ZM-931.593 2050.39L-958.113 2106.42L-945.073 2185.36L-931.969 2240.66L-910.151 2196.16L-915.417 2169.33C-920.119 2140.78 -924.257 2111.25 -927.956 2081.06L-931.593 2050.39ZM-569.583 2048.92L-604.63 2113.87L-601.245 2166.46L-594.034 2242.87L-578.172 2214.89L-560.367 2182.91L-569.583 2048.92ZM-384.942 2048.92L-421.118 2111.09L-412.591 2236.49L-410.522 2233.13L-377.042 2177.59L-380.49 2129.98L-384.942 2048.92ZM-477.356 2048.92L-513.156 2112.8L-506.573 2213.58L-504.128 2240.99L-494.159 2224.05L-469.08 2180.37L-476.541 2068.63L-477.545 2048.92H-477.356ZM-660.305 2048.34L-673.596 2073.95L-664.819 2177.92L-661.622 2206.22L-650.085 2184.79L-654.913 2133.42L-660.305 2048.34ZM-725.509 2035.09L-746.387 2077.55L-755.102 2095.3L-747.265 2177.1L-744.694 2196.24L-715.415 2139.8L-725.259 2037.63V2034.93L-725.509 2035.09ZM-811.717 2008.02L-840.557 2067.81L-829.021 2172.19L-822.187 2214.97L-795.478 2161.8L-810.965 2017.42L-811.717 2008.02ZM-897.736 1979.47L-904.006 1992.31L-927.267 2040.08L-922.815 2078.86C-919.053 2108.79 -914.915 2138.16 -910.276 2166.55L-906.201 2187.24L-899.931 2174.89L-880.683 2134.97L-885.072 2103.97L-898.175 1979.38L-897.736 1979.47ZM-434.974 1974.15L-447.513 1995.91L-471.4 2038.69L-469.896 2067.89L-463.062 2170.64L-449.833 2147.73L-427.325 2109.04L-428.39 2093.5L-434.66 1974.15H-434.974ZM-527.576 1972.1L-531.526 1979.14L-563.878 2039.02V2039.59L-554.724 2173.25L-535.1 2138.08L-519.677 2110.51L-524.065 2043.03L-527.639 1972.1H-527.576ZM-619.427 1970.47L-654.662 2037.63L-648.832 2131.04L-644.756 2174.81L-620.493 2129.65L-610.775 2111.74L-617.608 2010.14L-619.427 1970.47ZM-688.393 1960.33L-706.45 1996.56L-719.804 2023.72L-717.547 2055.46L-710.65 2130.88L-706.261 2122.7L-679.992 2072.07L-683.565 2030.43L-688.393 1960.65V1960.33ZM-775.228 1933.33L-806.2 1996.81L-804.695 2015.62L-790.212 2151.25L-761.56 2093.17L-770.525 2009.82L-776.231 1933L-775.228 1933.33ZM-667.452 1918.36L-682.876 1949.28L-678.173 2018.32L-674.6 2061.35L-664.756 2042.37L-661.057 2035.34L-665.07 1971.86L-667.452 1918.36ZM-861.811 1905.6L-891.969 1968.18L-887.078 2023.56L-875.291 2125.32L-858.238 2089.98L-846.764 2066.09L-854.037 2000L-861.811 1905.6ZM-392.779 1902.33L-428.892 1964.25L-422.058 2092.76L-421.619 2099.39L-385.318 2036.97L-391.588 1923.43L-392.779 1902.33ZM-484.88 1896.85L-521.432 1961.72L-517.42 2042.29L-513.658 2100.37L-477.67 2036.16L-484.88 1897.09V1896.85ZM-577.044 1892.92L-613.533 1959.83L-611.652 1999.1L-605.069 2101.76L-570.022 2036.81L-577.044 1892.92ZM-737.798 1859.3L-766.764 1916.56L-769.522 1922.21L-763.253 2009.24L-756.23 2082.86L-751.654 2073.54L-726.575 2022.09L-738.236 1859.71L-737.798 1859.3ZM-625.383 1837.3L-661.433 1906.91L-658.612 1970.47L-655.164 2024.62L-620.43 1958.36L-619.74 1957.22L-625.383 1837.3ZM-825.322 1831.16L-842.376 1865.27L-856.42 1894.39L-847.893 1998.04L-841.623 2055.3L-816.545 2002.94L-812.595 1994.76L-825.51 1831.16H-825.322ZM-442.873 1822L-479.3 1886.62L-472.09 2025.68L-451.338 1988.63L-435.475 1961.39L-438.484 1904.86L-442.873 1821.76V1822ZM-535.163 1815.78L-571.338 1882.21L-564.316 2026.01L-536.291 1974.07L-528.015 1959.43L-532.592 1867.89L-535.163 1815.78ZM-700.242 1784.86L-732.406 1848.42L-720.682 2010.39L-711.089 1990.92L-689.208 1946.99L-695.478 1855.54L-700.242 1784.86ZM-583.753 1756.64L-619.865 1826.34V1827.32L-614.286 1946.83L-577.859 1879.92L-579.427 1848.09L-583.815 1756.64H-583.753ZM-788.143 1756.64L-819.93 1820.28L-819.491 1826.09L-806.952 1983.8L-775.98 1920.24L-782.25 1836.15L-788.018 1756.64H-788.143ZM-401.055 1752.63L-437.168 1812.02L-432.215 1904.62L-429.707 1951.82L-393.594 1889.9L-401.055 1752.63ZM-492.968 1742.08L-520.115 1788.13L-529.332 1805.15L-526.26 1867.48L-522.185 1949.28L-485.695 1884.5L-492.968 1742.24V1742.08ZM-675.54 1736.19L-694.663 1773.98L-689.208 1854.88L-683.691 1936.03L-668.267 1905.03V1904.46L-672.719 1806.87L-675.854 1736.19H-675.54ZM-750.776 1684.17L-776.607 1733.25L-782.876 1745.76L-776.607 1835.74L-771.152 1909.36L-739.365 1846.7V1846.21C-742.375 1802.04 -745.635 1758.11 -748.519 1715.33L-750.776 1684.17ZM-542.435 1680.97L-572.028 1733.66L-578.298 1745.43L-573.407 1847.6L-572.342 1869.2L-536.229 1802.86L-540.868 1708.54L-542.561 1680.97H-542.435ZM1845.49 1678.11L1841.22 1683.67C1761.72 1783.72 1678.78 1872.8 1589.94 1934.39C1495.89 1999.84 1416.52 2047.28 1333.38 2069.2C927.547 2177.92 623.469 2366.3 283.716 2719.93C116.944 2893.51 -16.4116 2979.24 -120.362 2979.24C-134.802 2979.44 -149.218 2977.66 -163.372 2973.92L-192.652 2961.98L-180.99 2974.74C-170.609 2984.16 -159.517 2992.16 -147.886 2998.63C-33.089 3062.27 131.239 2974.09 354.563 2730.07C522.528 2546.51 682.529 2416.94 858.518 2322.3C1024.85 2232.97 1193.38 2180.04 1395.26 2128.02C1557.15 2086.3 1713.07 1933.66 1864.8 1737.83L1869.56 1731.45L1857.02 1705.68L1845.42 1678.11H1845.49ZM-451.714 1671.57L-487.45 1732.26L-480.178 1874.11L-443.814 1809.57L-448.14 1728.34L-451.714 1671.57ZM-634.223 1659.87L-669.96 1725.31L-666.387 1807.11L-662.437 1894.07L-626.386 1824.45L-632.656 1686.21L-634.16 1660.61L-634.223 1659.87ZM1878.09 1635.33L1850.06 1672.14L1861.98 1700.44L1874.01 1725.48L1903.04 1686.78L1877.96 1635.33H1878.09ZM1819.03 1615.45L1785.61 1656.93C1709.06 1746.91 1626.24 1827.32 1535.77 1876.32C1519.65 1885.07 1503.41 1893.98 1487.74 1902.66C1413.44 1943.56 1343.22 1982.66 1269.68 2002.86C824.536 2125.56 501.273 2416.53 208.669 2703.57C53.1185 2856.21 -72.2115 2931.71 -170.896 2931.71C-186.058 2931.94 -201.194 2930.02 -216.037 2925.99L-223.561 2922.8L-210.646 2942.27L-208.012 2945.21L-202.056 2949.55C-91.585 3013.11 66.0341 2935.88 279.766 2713.47C620.396 2359.02 925.541 2169.98 1332.06 2061.43C1414.45 2039.51 1493.51 1991.98 1586.93 1927.28C1675.27 1866.09 1757.84 1777.26 1837.09 1677.54L1842.35 1670.67L1819.03 1615.45ZM-713.158 1612.75L-745.321 1673.78L-742.124 1713.12L-733.597 1835.82L-701.371 1772.27L-705.007 1718.11L-713.158 1613.08V1612.75ZM-501.244 1607.85L-536.667 1670.83L-534.473 1706.82L-530.272 1792.14L-525.068 1782.65L-493.72 1729.65L-494.347 1718.28L-501.119 1607.85H-501.244ZM-410.961 1603.02L-414.911 1608.99L-446.259 1662L-442.121 1727.44L-438.234 1799.91L-402.183 1740.61V1738.65C-404.817 1693.33 -407.638 1648.66 -410.835 1605.39L-410.961 1603.02ZM1910.75 1592.38L1883.04 1628.79L1906.62 1680.16L1928.5 1651.04L1935.27 1641.38L1909.69 1592.3L1910.75 1592.38ZM-593.408 1585.76L-628.58 1649.73L-626.637 1683.92L-620.743 1812.76L-584.63 1743.06L-586.825 1697.34L-593.094 1585.76H-593.408ZM1851.76 1575.21L1824.04 1609.56L1847.18 1664.61L1874.95 1628.21L1872.63 1623.47L1851.76 1575.21ZM-684.443 1561.55L-705.258 1598.36L-707.39 1602.45L-698.487 1716.07L-695.478 1760.89L-676.042 1722.61L-678.236 1673.53L-684.506 1561.71L-684.443 1561.55ZM1794.89 1554.27L1740.6 1618.81C1663.73 1704.37 1578.96 1778.73 1482.6 1818.56C1448.12 1832.96 1413.63 1849.32 1380.72 1865.11C1321.41 1893.49 1265.42 1920.32 1206.92 1936.68C816.637 2047.36 518.703 2326.96 255.879 2573.67C213.81 2613.26 174.374 2650.56 133.997 2687.21C-10.2047 2818.83 -126.758 2884.02 -219.925 2884.02L-247.386 2880.42L-233.53 2907.34L-231.273 2910.69L-214.282 2917.89C-111.46 2945.13 26.4727 2872.24 205.22 2697.03C498.389 2409.41 821.966 2118.37 1268.87 1995.01C1341.78 1975.05 1411.75 1936.36 1485.73 1895.38C1501.41 1886.71 1517.65 1877.71 1533.82 1868.95C1623.67 1820.36 1706.05 1740.53 1782.23 1650.79L1816.33 1608.42L1804.61 1580.6L1794.89 1554.43V1554.27ZM1944.11 1547.07L1920.03 1580.69L1916.21 1585.68L1928 1611.61L1941.04 1635.58L1969.25 1595.82L1964.3 1587.64L1944.11 1547.31V1547.07ZM-461.369 1538.89L-469.519 1551.81L-495.413 1597.86L-487.952 1717.13V1719.67L-452.403 1659.22L-456.102 1600.73L-461.557 1538.89H-461.369ZM1883.48 1533.49L1860.6 1564.24L1856.83 1568.83L1875.64 1612.18L1880.03 1621.51L1907.62 1585.27L1906.11 1582.41L1883.48 1533.32V1533.49ZM1826.3 1515.66L1815.14 1530.13L1799.84 1548.38L1809.88 1575.45L1821.16 1602.28L1848.81 1567.93L1826.87 1517.13L1826.3 1515.66ZM-553.219 1515.66L-563.062 1531.44L-587.201 1575.45L-580.053 1695.78L-578.36 1731.94L-575.163 1725.72L-542.749 1668.46L-548.454 1574.39L-553.219 1515.98V1515.66ZM1974.83 1504.61L1948.56 1541.18L1969.19 1582.08L1973.64 1589.68L2000.66 1549.28L1974.39 1506L1973.39 1504.12L1974.83 1504.61ZM1771.82 1491.93L1702.85 1571.28C1623.42 1655.53 1533.13 1728.34 1429.31 1760.24C1381.66 1774.88 1334.82 1795.01 1289.56 1814.47C1241.97 1834.92 1192.75 1855.95 1144.04 1870.02C791.997 1972.76 520.584 2234.69 281.083 2465.77C203.214 2540.95 129.608 2611.95 59.3882 2671.01C-55.6599 2767.78 -152.714 2821.94 -233.655 2833.96L-265.003 2836.41L-252.464 2869.13L-251.273 2871.59L-225.442 2875.76C-132.714 2878.79 -15.0952 2814.08 131.05 2680.42C171.113 2643.69 210.8 2606.8 252.87 2567.04C516.195 2319.6 814.693 2039.43 1206.17 1928.34C1264.23 1911.98 1320.03 1885.31 1379.15 1857.01C1412.32 1841.14 1446.61 1824.78 1481.28 1810.38C1576.77 1770.79 1660.97 1696.84 1737.52 1611.69L1792.63 1546.25L1772.32 1491.61L1771.82 1491.93ZM-644.944 1491.93L-678.8 1551.97L-678.299 1558.44C-675.853 1595.41 -673.784 1633.45 -672.029 1672.14L-670.274 1712.14L-634.599 1647.44L-639.302 1565.64L-645.07 1492.01L-644.944 1491.93ZM1915.83 1490.62L1889.19 1526.29L1913.01 1578.64L1915.77 1575.04L1940.85 1540.28L1915.77 1490.62H1915.83ZM-422.497 1475.65L-457.043 1530.13L-450.773 1599.67L-447.638 1649.65L-420.115 1602.94L-412.654 1591.65L-422.058 1478.44V1475.65H-422.497ZM1855.71 1475.65L1830.13 1509.03L1835.71 1523.1L1852.45 1561.87L1855.27 1558.44L1878.9 1526.7L1859.15 1484L1855.71 1475.82V1475.65ZM2006.18 1459.29L1979.28 1496.84L2005.24 1543.55L2033.14 1502.65L2006.18 1459.54V1459.29ZM1801.1 1453.98L1777.27 1484.49L1775.52 1486.45L1795.71 1540.93L1809.88 1524.08L1822.04 1508.21L1801.1 1453.98ZM-515.1 1452.18L-548.893 1506.74L-543.564 1571.53L-538.235 1658.07L-502.874 1595.17L-511.965 1481.14L-515.1 1452.18ZM1944.23 1450.87L1919.16 1484.65L1943.92 1534.22L1969.94 1497.9L1944.3 1450.87H1944.23ZM1886.93 1435.33L1861.85 1468.05L1884.99 1518.93L1911.38 1483.43L1887.12 1435L1886.93 1435.33ZM1748.62 1429.11L1741.35 1438.27C1642.48 1556.56 1523.85 1670.1 1374.01 1702.41C1315.45 1715 1257.89 1737.58 1202.35 1759.67C1161.97 1775.54 1120.28 1791.98 1079.15 1804.09C741.526 1904.54 469.549 2181.02 250.989 2403.28C154.938 2500.87 64.2158 2593.06 -17.1642 2654.82C-105.88 2722.06 -183.373 2764.02 -250.583 2780.79L-286.006 2785.37V2786.19L-270.395 2827.09L-239.047 2826.19C-158.67 2815.31 -61.4906 2761.49 54.2472 2663.98C124.154 2605.33 197.697 2534.16 275.503 2459.48C515.443 2227.9 787.608 1965.4 1140.71 1862.33C1189.18 1848.34 1238.21 1827.32 1285.67 1806.95C1331.06 1787.48 1378.02 1767.27 1425.92 1752.55C1528.74 1720.89 1618.46 1648.42 1697.4 1564.41L1767.43 1484.08L1754.89 1451.36L1747.93 1429.11H1748.62ZM-607.514 1426.57L-630.148 1463.55L-640.493 1481.95L-634.223 1562.61L-629.96 1636.8L-594.787 1572.92V1569.73C-597.295 1533.41 -600.054 1497.99 -603.251 1463.38L-607.514 1426.57ZM1831.07 1415.37L1805.99 1447.27L1827.18 1501.09L1852.7 1467.88L1830.88 1415.37H1831.07ZM2037.96 1415.37L2021.48 1438.35L2011.13 1452.75L2037.96 1495.61L2065.8 1454.71L2037.96 1415.53V1415.37ZM1975.27 1409.15L1953.14 1439.09L1949.94 1443.34L1975.77 1489.81L2002.42 1452.59L1975.27 1409.15ZM1916.52 1396.63L1906.74 1409.56L1891.69 1429.19L1915.89 1477.62L1940.97 1444L1930.31 1424.45L1916.58 1396.63H1916.52ZM1777.96 1392.14L1753.7 1422.81L1761.16 1446.7L1772.95 1478.52L1773.45 1477.86L1798.53 1446.04L1782.16 1403.67L1778.15 1392.14H1777.96ZM-476.479 1390.01L-509.269 1442.93L-507.702 1456.1C-503.94 1494.39 -500.679 1533.98 -497.733 1574.63L-497.106 1585.1L-473.469 1543.06L-463.25 1526.7L-472.529 1421.34L-476.479 1389.76V1390.01ZM1860.97 1377.33L1835.45 1410.05L1858.53 1460.69L1883.61 1427.96L1873.2 1407.11L1860.66 1377.33H1860.97ZM2069 1371.6L2042.04 1409.4L2069.75 1448.5L2085.68 1424.94L2097.59 1406.94L2069 1371.6ZM2005.68 1368.09L1979.85 1402.93L2006.93 1446.29L2016.59 1432.79L2033.45 1409.23L2013.7 1381.42L2005.68 1368.09ZM-569.458 1364.81L-601.872 1417.74L-598.674 1445.71L-589.019 1562.77L-568.517 1525.63L-555.1 1503.96L-558.548 1462.08C-561.558 1430.45 -564.922 1399.8 -568.643 1370.13L-569.458 1364.81ZM1728.43 1363.18L1671.19 1430.75C1577.15 1532.75 1462.22 1624.78 1320.59 1643.92C1251.62 1653.16 1184.1 1677.87 1118.71 1701.75C1085.04 1714.02 1050.24 1726.78 1016.07 1737.09C682.341 1838.69 414.815 2126.87 200.016 2358.78C88.9182 2478.53 -6.88184 2581.93 -91.7728 2638.46C-137.958 2669.97 -186.22 2696 -235.975 2716.25L-299.173 2735.64L-287.637 2778.83L-250.771 2772.77C-184.501 2756.41 -107.949 2714.61 -20.1736 2647.95C60.8303 2586.68 151.427 2494.4 247.29 2396.98C466.289 2174.32 738.956 1897.17 1077.83 1796.31C1118.77 1784.29 1160.4 1767.93 1200.65 1752.14C1256.45 1730.14 1314.13 1707.48 1373.13 1694.88C1521.47 1662.9 1639.28 1550.09 1737.59 1432.46L1746.36 1421.42L1728.31 1363.51L1728.43 1363.18ZM1946.49 1357.04L1921.41 1390.42L1924.61 1397.29L1946.49 1436.8L1948.94 1433.53L1971.57 1403.02L1966.8 1395.41L1946.68 1357.04H1946.49ZM1807.12 1355.33L1783.29 1385.43L1798.84 1428.62L1803.23 1439.74L1828.31 1408L1815.77 1378.39L1807.12 1355.33ZM1889.19 1341.01L1868.43 1367.84L1865.61 1371.44L1878.15 1402.44L1887.93 1422.07L1902.1 1403.59L1912.82 1389.44L1889 1341.01H1889.19ZM-439.488 1331.52L-446.447 1341.5L-471.15 1381.42L-466.385 1420.11L-457.732 1518.27L-423.438 1464.12L-435.162 1359.5L-439.488 1331.52ZM1756.52 1330.13L1733.39 1357.37L1751.25 1414.63L1775.39 1384.2L1756.58 1329.8L1756.52 1330.13ZM2099.78 1328.66L2073.33 1365.63L2101.66 1400.72L2128.56 1359.82L2104.67 1334.55L2099.78 1328.49V1328.66ZM2037.09 1327.43L2015.83 1354.59L2010.25 1362.11L2018.4 1375.78L2037.9 1403.26L2064.61 1365.96L2058.34 1358.43L2036.84 1327.43H2037.09ZM1715.08 1319.66L1655.95 1397.13C1567.55 1502.08 1459.97 1591.24 1326.17 1591.24C1306.17 1591.16 1286.2 1589.19 1266.42 1585.35C1192.5 1571.12 1118.65 1602.86 1046.98 1633.61C1015.95 1646.86 983.911 1660.69 952.563 1670.34C644.221 1766.05 395.442 2055.62 195.502 2288.27C56.5042 2450.56 -63.6221 2590.93 -166.946 2621.85C-209.113 2659.61 -254.211 2691.47 -301.493 2716.9L-303.75 2717.8L-301.367 2726.8L-263.749 2717.48C-204.989 2697.06 -148.198 2668 -94.4688 2630.85C-10.2046 2574.73 85.47 2471.5 196.317 2352.15C411.743 2120.08 679.77 1831.16 1014.95 1729.07C1048.99 1718.93 1083.91 1706.17 1117.27 1693.9C1183.04 1669.93 1250.81 1644.82 1320.28 1635.74C1480.47 1614.14 1603.04 1502.32 1704.04 1383.55L1726.49 1355.49L1715.33 1319.66H1715.08ZM1976.4 1318.92L1961.41 1337.57L1951.38 1350.83L1971.76 1389.6L1976.21 1396.72L2002.1 1361.79L1976.4 1318.92ZM1836.77 1318.02L1834.45 1321.05L1812.7 1348.45L1832.63 1402.36L1858.09 1369.64L1836.77 1317.86V1318.02ZM-533.156 1308.13L-549.144 1331.77L-564.316 1356.31L-562.937 1365.71C-559.05 1395.57 -555.664 1426.49 -552.592 1458.39L-549.583 1494.8L-516.04 1440.73L-523.501 1371.93L-533.156 1307.96V1308.13ZM1918.28 1303.22L1894.89 1333.48L1917.78 1383.06L1942.85 1350.34L1918.34 1303.54L1918.28 1303.22ZM1784.42 1294.55L1761.35 1323.99L1762.98 1328.98L1780.53 1378.07L1804.36 1348.05L1784.42 1294.71V1294.55ZM2067.18 1288.58L2041.35 1321.3L2062.67 1352.14L2068.94 1359.58L2095.39 1322.69L2067.43 1288.25L2067.18 1288.58ZM2131.57 1285.47L2104.99 1321.3L2104.05 1322.6L2108.56 1328.17L2132.32 1352.95L2159.28 1312.05L2149.13 1302.97L2131.26 1284.57L2131.57 1285.47ZM1740.91 1285.47L1737.9 1289.8L1719.65 1313.69L1730.81 1349.68L1753.39 1321.46L1740.85 1285.47H1740.91ZM1863.29 1283.83L1841.16 1312.38L1862.41 1364.16L1863.86 1362.28L1885.67 1334.06L1863.29 1283.83ZM2005.61 1282.44L1980.53 1313.53L2006.11 1356.06L2011.19 1349.19L2032.64 1321.79L2005.49 1282.44H2005.61ZM1946.24 1269.35L1928.06 1290.78L1922.98 1297.33L1947.49 1344.04L1956.84 1331.68L1972.2 1312.62L1946.24 1269.35ZM1812.26 1259.29L1802.54 1271.64L1790 1288L1809.88 1341.5L1829.94 1316.14L1833.7 1311.32L1812.38 1259.45L1812.26 1259.29ZM1694.76 1255.28L1662.41 1300.11C1567.43 1422.81 1448.49 1537.99 1293.38 1537.99C1266.26 1537.88 1239.2 1534.49 1212.57 1527.84C1133.44 1508.21 1053.38 1540.69 975.948 1572.1C947.422 1583.63 917.954 1595.58 889.302 1604.82C575.443 1703.88 324.657 2014.31 123.025 2263.81C-25.3146 2447.45 -142.557 2592.57 -242.182 2606.14C-263.708 2623.76 -284.356 2639.11 -304.126 2652.2L-316.665 2659.4L-308.201 2701.61L-305.819 2710.52L-266.759 2688.52C-233.269 2666.87 -200.947 2642.27 -170.018 2614.9L-169.015 2614.32C-67.1332 2583.73 52.7426 2444.26 191.553 2282.7C392.181 2049.41 641.4 1759.18 951.309 1662.9C982.344 1653.33 1014.32 1639.58 1045.35 1626.33C1117.39 1595.33 1192.06 1563.26 1267.42 1577.82C1420.22 1607.35 1541.22 1518.35 1639.21 1406.04L1712.26 1311.23L1694.64 1254.63L1694.76 1255.28ZM-496.667 1254.46L-528.015 1300.27L-520.931 1345.67L-510.899 1432.22L-478.172 1379.37L-483.25 1338.47C-487.012 1311.59 -491.191 1285.58 -495.789 1260.44L-496.667 1254.46ZM2098.4 1251.44L2075.46 1278.27L2071.76 1283.01L2099.47 1317.21L2100.35 1315.9L2126.62 1280.56L2098.4 1251.44ZM1890.57 1249.64L1881.47 1260.52L1868.94 1276.88L1891.76 1326.45L1914.83 1296.59L1894.01 1256.84L1890.75 1249.64H1890.57ZM2035.27 1248.33L2013.2 1272.87L2010.19 1276.63L2037.28 1315.9L2062.79 1283.18L2040.6 1255.86L2035.27 1248.17V1248.33ZM1767.62 1247.18L1746.18 1277.94L1758.4 1315.24L1781.35 1286.53L1773.76 1266.08L1767.49 1247.18H1767.62ZM2163.55 1242.77L2136.02 1279.74L2153.08 1297.33L2163.73 1306.9L2179.91 1282.36L2191.63 1264.61L2163.55 1242.69V1242.77ZM1975.46 1234.59L1950.5 1262.97L1976.33 1306L2000.97 1275.41L1990.5 1260.19L1975.21 1233.85L1975.46 1234.59ZM1838.21 1225.83L1816.77 1253.24L1838.09 1305.02L1860.09 1276.71L1844.92 1242.77L1838.21 1225.83ZM1720.59 1219.13L1699.34 1248.57L1717.08 1305.84L1729.62 1289.97L1738.4 1277.37L1720.78 1219.37L1720.59 1219.13ZM1918.09 1216.26L1895.33 1243.58L1898.9 1251.77L1919.28 1290.7L1923.67 1284.98L1942.48 1262.97L1918.21 1216.67L1918.09 1216.26ZM2067.12 1215.53L2046.49 1235.49L2040.22 1242.77L2044.92 1249.64L2067.43 1277.45L2071.51 1272.22L2093.7 1246.28L2088.56 1241.05L2067.37 1215.53H2067.12ZM2129.82 1214.55L2103.11 1245.71L2131.01 1274.42L2157.84 1238.27L2139.72 1224.12L2129.82 1214.55ZM1792.95 1210.7L1779.66 1229.68L1772.26 1240.23L1786.8 1279.5L1797.9 1265.59L1809.06 1251.44L1796.52 1220.68L1793.07 1210.7H1792.95ZM2005.05 1204.24L1982.79 1226.08L1980.22 1229.11L1995.46 1255.36L2005.86 1270.42L2009.06 1266.41L2030.94 1241.87L2005.05 1204.16V1204.24ZM-461.933 1203.34L-463.438 1205.3L-491.714 1246.94L-489.332 1258.55C-484.734 1283.75 -480.554 1309.84 -476.792 1336.84L-472.591 1370.7L-450.71 1335.37L-441.118 1321.62L-452.215 1249.8L-461.87 1203.34H-461.933ZM2194.08 1201.46L2168 1236.55L2195.77 1258.23L2222.17 1218.39L2194.08 1201.46ZM1865.05 1193.28L1851 1209.64L1843.29 1219.53L1849.19 1234.51L1865.49 1269.84L1877.27 1254.71L1887.37 1242.6L1865.05 1193.52V1193.28ZM1674.76 1191.07L1672.88 1193.77C1622.73 1262.97 1563.6 1336.43 1494.82 1391.81C1387.05 1478.52 1277.21 1503.96 1159.15 1469.44C1074.13 1444.9 987.297 1477.62 903.283 1510.34C877.891 1520.07 851.559 1530.13 826.104 1538.23C504.722 1641.22 250.801 1974.15 46.7235 2241.72C-101.303 2435.84 -218.733 2589.78 -313.091 2589.78H-317.543L-328.076 2597.06L-324.878 2619.4L-318.609 2651.54L-290.646 2633.47C-275.975 2623 -260.802 2611.46 -245.254 2598.7C-244.833 2598.36 -244.364 2598.14 -243.875 2598.05C-146.131 2585.2 -29.4528 2440.74 118.448 2257.75C320.582 2007.61 572.12 1696.27 887.609 1596.39C916.073 1587.56 945.415 1575.62 973.817 1563.67C1052.12 1532.02 1132.88 1499.29 1213.57 1519.17C1376.27 1559.42 1502.72 1471.81 1604.29 1358.19L1692.07 1247.18L1674.58 1191.07H1674.76ZM1946.8 1184.93L1925.3 1207.59L1922.79 1210.62L1947.05 1257L1971.76 1227.96L1946.68 1184.93H1946.8ZM2098.97 1184.93L2072.39 1210.78L2092.26 1234.75L2098.53 1240.97L2125.05 1209.96L2099.22 1184.93H2098.97ZM3708.64 1184.28L3658.48 1344.85C3604.12 1510.67 3535.91 1683.43 3426.5 1836.81C3326.19 1977.67 3202.49 2088.34 3048.32 2175.05C2903.53 2256.53 2766.6 2297.24 2637.53 2297.18C2450.26 2297.18 2280.47 2211.37 2129.69 2040.08C2054.83 1955.06 1984.78 1849.19 1919.53 1722.45L1905.86 1694.31L1876.83 1733L1918.78 1819.95C2019.09 2012.92 2140.47 2175.87 2287.81 2276.65C2505.56 2425.61 2757.28 2421.03 3036.03 2262.91C3192.21 2174.4 3316.97 2060.12 3417.48 1913.62C3564.37 1699.38 3634.72 1447.84 3696.73 1225.59L3708.64 1184.28ZM1746.74 1183.22L1725.11 1213.16L1728.56 1224.69L1743.42 1270.01L1764.92 1239.25L1746.74 1183.22ZM2035.83 1177.98L2017.34 1192.46L2010.13 1199.49L2035.77 1236.8L2042.54 1229.19L2062.42 1209.96L2035.83 1177.98ZM2161.23 1177.98L2134.45 1209.31L2142.86 1217.49L2162.23 1232.54L2187.93 1197.86L2161.23 1177.98ZM1817.96 1175.04L1797.34 1204.57L1801.66 1216.92L1813.57 1245.88L1835.14 1218.47L1817.96 1175.04ZM1890.44 1163.91L1869.88 1187.88L1892.2 1236.96L1914.64 1210.05L1890.44 1163.83V1163.91ZM1974.7 1160.56L1952.82 1178.88L1951.63 1180.19L1976.27 1222.81L1978.72 1219.94L2000.66 1197.53L1974.64 1159.66L1974.7 1160.56ZM2224.93 1160.15L2198.47 1195.73L2226.18 1212.09L2251.45 1172.99L2244.68 1170.13L2224.55 1159.41L2224.93 1160.15ZM2130.07 1154.83L2104.11 1179.94L2129.19 1204.48L2155.4 1173.89L2129.82 1154.83H2130.07ZM1700.78 1154.83L1679.34 1185.02L1696.96 1241.7L1698.02 1240.31L1718.09 1211.85L1700.78 1154.59V1154.83ZM2066.74 1154.18L2041.66 1173.89L2067.68 1205.3L2093.7 1180.11L2066.99 1154.18H2066.74ZM1771.07 1148.94L1750.38 1178.31L1757.52 1201.29L1769.31 1233.11L1775.02 1224.93L1790.06 1203.34L1771.25 1148.86L1771.07 1148.94ZM1842.04 1143.38L1822.85 1168.57L1840.09 1212.34L1846.74 1204.16L1861.6 1186.81L1842.04 1143.62V1143.38ZM2191.51 1142.81L2165.99 1172.66L2192.32 1192.21L2218.47 1157.04L2191.51 1142.81ZM2004.05 1140.11L1987.87 1149.76L1980.1 1156.22L2005.8 1193.69L2013.64 1186L2030.88 1172.5L2004.05 1139.78V1140.11ZM1918.09 1136.26L1895.77 1158.02L1895.2 1158.68L1919.28 1204.73L1921.41 1202.19L1943.11 1179.45L1918.03 1136.26H1918.09ZM2097.02 1130.54L2072.57 1149.68L2098.72 1174.95L2123.8 1150.41L2096.9 1130.37L2097.02 1130.54ZM2159.72 1126.12L2135.14 1149.92L2160.22 1168.49L2185.3 1139.53L2160.22 1126.12H2159.72ZM2033.83 1122.27L2010.06 1136.43L2036.33 1168.08L2060.97 1148.86L2036.27 1124.97L2033.83 1122.27ZM1725.55 1119.49L1719.91 1127.67L1705.17 1148.45L1722.35 1205.71L1743.67 1175.45L1725.55 1119.74V1119.49ZM2256.4 1119.49L2242.54 1136.75L2229.44 1154.34L2246.81 1163.5L2256.15 1167.51L2282.1 1128.33L2256.4 1119.49ZM1944.23 1115.73L1923.61 1129.96L1923.1 1130.45L1948.18 1173.4L1949.56 1172.01L1970.88 1154.09L1944.23 1115.73ZM1794.45 1115.16L1792.57 1117.61L1775.58 1141.66L1794.39 1196.06L1811.76 1171.52L1814.83 1167.35L1794.33 1115.48L1794.45 1115.16ZM1865.74 1112.7L1859.09 1120.07L1846.55 1136.43L1866.36 1180.11L1886.62 1156.55L1881.16 1146.16L1865.55 1112.79L1865.74 1112.7ZM2224.11 1107.22L2197.09 1135.93L2223.23 1149.76L2229.5 1141.09L2249.57 1115.89L2223.99 1107.22H2224.11ZM2126.99 1106.32L2102.98 1125.06L2129.25 1144.61L2153.01 1121.54L2126.99 1106.32ZM1652.63 1104.2L1641.6 1118.18C1532.94 1253.32 1380.28 1413.81 1158.83 1413.81C1141.53 1413.81 1123.85 1412.83 1105.6 1410.79C989.491 1397.62 876.386 1434.02 767.044 1469.27L762.342 1470.83C432.62 1578.48 174.813 1935.21 -32.3367 2221.93C-138.419 2369.17 -228.953 2494 -304.565 2547.49L-333.092 2563.85L-329.518 2588.39L-319.988 2581.69C-319.474 2581.3 -318.889 2581.1 -318.295 2581.11C-225.755 2586.92 -107.51 2431.91 42.1469 2235.59C246.788 1967.36 501.399 1633.45 824.348 1529.72C849.427 1521.54 875.822 1511.65 901.214 1501.91C985.98 1469.19 1073.44 1435.9 1160.21 1461.01C1390.62 1528.33 1548.56 1352.13 1666.99 1189.11L1672.01 1181.99L1652.57 1104.11L1652.63 1104.2ZM2064.55 1103.3L2040.35 1117.69L2066.99 1143.54L2090.76 1124.97L2064.55 1103.3ZM1972.64 1100.52L1958.53 1105.83L1950 1111.72L1976.02 1149.6L1984.86 1142.15L1999.03 1133.32L1980.22 1110.58L1972.7 1100.52H1972.64ZM2191.51 1096.1L2182.98 1102.97L2165.93 1119.33L2190.63 1132.34L2216.84 1104.52L2191.76 1096.34L2191.51 1096.1ZM3730.58 1090.94L3715.28 1136.02C3649.08 1334.79 3574.34 1560.32 3430.89 1753.78C3331.39 1888.26 3209.39 1994.6 3058.23 2078.94C2913.02 2159.87 2775.76 2200.33 2646.43 2200.33C2467.31 2200.33 2304.17 2122.7 2158.66 1967.03C2085.51 1888.89 2016.69 1791.08 1952.2 1673.61L1939.16 1648.5L1932.89 1657.66L1910.5 1687.44L1914.52 1695.62C1982.29 1831.08 2055.58 1944.05 2133.95 2032.88C2386.75 2319.92 2693.65 2364.91 3046.12 2166.46C3199.61 2080.25 3322.49 1970.14 3422.3 1830.18C3567.07 1626.82 3639.61 1388.45 3703.62 1178.23L3730.58 1090.94ZM2279.1 1090.29L2262.04 1111.56L2287.12 1119.74L2304.55 1093.4L2279.47 1089.96L2279.1 1090.29ZM2003.92 1088.9L1979.53 1097.98L1984.48 1104.6L2005.17 1129.15L2028.18 1114.83L2003.92 1088.57V1088.9ZM2095.39 1087.84L2077.34 1096.02L2071.07 1099.7L2095.77 1120.07L2096.59 1120.72L2119.91 1102.56L2095.33 1088.16L2095.39 1087.84ZM1890.31 1087.84L1883.04 1093.73L1870.5 1107.55L1886.3 1141.33L1891.44 1151.15L1891.94 1150.58L1914.14 1129.06L1890.25 1088.16L1890.31 1087.84ZM1749.25 1085.79L1730.44 1112.7L1747.93 1169.15L1768.37 1140.02L1749.56 1085.79H1749.25ZM1817.59 1085.79L1799.47 1109.1L1819.91 1160.8L1838.72 1135.61L1830 1116.22L1817.46 1085.79H1817.59ZM2159.47 1085.79L2135.77 1100.11L2133.7 1101.66L2157.72 1115.73L2158.97 1116.38L2179.47 1096.51L2182.92 1093.73L2159.47 1085.55V1085.79ZM2244.86 1085.79L2230.19 1101.33L2255.27 1109.51L2271.2 1089.47L2258.28 1087.75L2245.11 1085.46L2244.86 1085.79ZM2212.14 1080.06L2198.97 1090.7L2222.92 1098.88L2236.59 1084.32L2212.14 1080.06ZM2033.58 1078.43L2011.19 1086.61L2034.39 1111.64L2044.36 1105.42L2058.09 1098.47L2033.58 1078.18V1078.43ZM2127.62 1074.58L2104.61 1084.56L2126.93 1097.65L2132.89 1092.99L2150.13 1082.52L2147.12 1081.54L2127.62 1074.58ZM2178.91 1074.58L2168.81 1080.64L2190.63 1088.08L2202.35 1078.67L2184.8 1075.65L2178.91 1074.58ZM1677.65 1073.68L1657.84 1098.8L1677.21 1176.26L1698.34 1146.41L1686.17 1106.4L1677.65 1073.68ZM2064.23 1070.49L2046.8 1073.93L2041.66 1075.89L2065.36 1095.44L2087.56 1084.15L2072.95 1075.97L2064.23 1070.82V1070.49ZM1914.14 1069.84H1913.2L1895.96 1083.83L1919.53 1124.73L1920.66 1123.58L1940.16 1110.17L1928.81 1093.81L1914.14 1069.84ZM2142.73 1068.28L2138.47 1070.17L2148.81 1073.85L2159.22 1077.37L2167.18 1072.54L2142.73 1068.28ZM2124.42 1065.09L2126.99 1065.99H2127.81L2124.42 1065.42V1065.09ZM2097.02 1063.95L2075.9 1068.12L2095.96 1079.9L2106.18 1074.67L2115.83 1070.66L2097.02 1063.95ZM1942.79 1061.25L1929.19 1063.38L1920.53 1067.06L1933.39 1088.16L1945.93 1106.32L1956.4 1099.12L1967.87 1094.79L1942.79 1061.25ZM1840.47 1059.37L1831.51 1068.78L1822.73 1080.15L1835.58 1112.05L1843.61 1129.8L1846.18 1126.28L1862.6 1106.57L1840.47 1059.37ZM1973.32 1056.42L1950.69 1059.94L1974.77 1092.66L1998.28 1083.91L1973.2 1056.83L1973.32 1056.42ZM2055.21 1056.02L2065.3 1061.99L2079.72 1059.04L2055.21 1056.02ZM1772.13 1056.02L1763.98 1066.24L1754.14 1080.06L1772.95 1134.3L1782.98 1119.98L1791.69 1108.45L1780.53 1080.15L1772.13 1055.61V1056.02ZM2016.02 1054.71L2034.52 1069.92L2045.05 1065.99L2053.7 1064.28L2038.03 1055.03H2016.02V1054.71ZM1987.56 1054.22L1981.85 1055.12L2005.55 1080.72L2026.68 1072.54L2006.93 1056.18L2004.42 1054.05H1987.56V1054.22ZM2156.84 1053.56L2141.04 1055.03L2128.12 1057.65L2141.41 1059.94L2156.84 1053.56ZM2206.12 1048.82L2185.8 1050.78L2171.82 1055.52L2155.9 1062.48L2177.46 1066.24L2206.12 1048.82ZM2243.73 1045.3H2242.67L2224.3 1047.02L2189.38 1068.12L2210.69 1071.88L2243.73 1045.22V1045.3ZM2275.08 1043.83L2256.27 1044.64L2220.29 1073.68L2242.98 1077.69L2274.9 1043.83H2275.08ZM2032.7 1042.93L2039.72 1047.1H2045.99L2032.57 1042.85L2032.7 1042.93ZM1701.79 1042.93L1685.55 1063.46L1682.35 1067.47L1695.52 1115.57L1702.79 1140.11L1715.33 1122.19L1722.79 1111.56L1707.55 1064.6L1701.6 1043.17L1701.79 1042.93ZM2309.19 1042.19L2285.11 1043.42L2251.45 1079.17L2258.72 1080.47L2276.78 1082.93L2309.19 1042.03V1042.19ZM2342.04 1040.64L2318.97 1041.7L2284.99 1083.99L2309.38 1087.26L2309.94 1086.45L2342.04 1040.64ZM1862.98 1038.59L1854.89 1044.07L1845.17 1054.3L1867.12 1101.01L1886.43 1082.11L1875.46 1063.3L1862.92 1038.76L1862.98 1038.59ZM1635.77 1037.77L1613.57 1065.99C1505.3 1200.88 1353.76 1360.48 1131.31 1360.48C1104.9 1360.43 1078.52 1358.24 1052.31 1353.93C932.249 1334.55 816.825 1367.43 699.269 1405.8C359.893 1517.95 86.6615 1915.91 -112.839 2206.06C-200.614 2333.83 -274.91 2441.97 -338.045 2505.04L-341.18 2507.82L-334.22 2556.9L-321.681 2551.75C-244.69 2506.1 -149.579 2374.48 -36.7255 2218.33C65.4071 2076.89 181.208 1916.64 313.748 1776.6C467.417 1614.63 613.688 1512.63 760.962 1464.61L765.727 1463.14C875.572 1427.64 989.24 1391.07 1106.36 1404.32C1351.88 1432.05 1518.09 1261.42 1634.26 1117.53L1650.56 1096.83L1635.89 1038.1L1635.77 1037.77ZM2224.55 1037.77L2219.85 1039.33H2222.29L2224.55 1037.94V1037.77ZM1987.81 1031.47L2005.93 1046.61H2023.8L2016.96 1042.6L2001.73 1034.42L1987.81 1031.39V1031.47ZM1794.08 1028.12L1776.9 1049.8L1784.42 1071.56L1796.4 1101.99L1814.33 1078.27L1794.08 1028.12ZM2268.37 1025.34L2254.02 1029.1L2240.22 1037.28H2241.67L2254.21 1036.63L2268.25 1025.34H2268.37ZM1952.95 1024.11L1975.14 1048.16L1986.8 1046.28H1994.45L1972.51 1027.96L1955.39 1024.11H1952.95ZM1885.61 1024.11H1883.98L1868.56 1034.67L1880.6 1058.22L1891.51 1077.04L1894.08 1074.5L1909.94 1063.46L1885.61 1023.79V1024.11ZM1922.67 1022.4L1937.21 1042.6L1945.11 1053.15L1966.62 1049.72L1946.05 1027.47L1942.6 1023.7L1922.67 1022.4ZM1899.47 1020.92L1892.7 1022.48L1916.21 1060.76L1927.81 1055.85L1937.15 1054.38L1932.7 1048.41L1913.45 1021.82L1899.47 1020.92ZM1971.95 1018.47L1973.45 1019.7H1974.64L1971.95 1018.22V1018.47ZM2300.29 1017.32L2286.37 1020.92L2267.56 1036.3L2283.42 1035.48L2300.54 1017.32H2300.29ZM1724.8 1014.05L1706.43 1037.28L1727.49 1105.18L1746.3 1078.59L1732.07 1037.69L1724.73 1014.13L1724.8 1014.05ZM2282.79 1014.05H2282.36H2282.79ZM2336.46 1008.08L2313.89 1013.97L2304.17 1023.38L2292.95 1035.24L2315.71 1034.17L2336.46 1008.08ZM1659.34 1007.59L1656.83 1010.7L1640.22 1031.88L1654.89 1090.7L1674.58 1065.75L1659.34 1007.59ZM1814.89 1005.22L1802.35 1017.65L1798.59 1022.4L1818.78 1072.62L1836.27 1052.42L1825.8 1030.08L1815.02 1005.54L1814.89 1005.22ZM2371.01 999L2348.44 1004.89L2325.3 1033.68L2347.5 1032.62L2371.01 999ZM1927.87 998.1L1943.42 1014.95L1958.65 1017.57L1942.98 1005.05L1927.87 998.1ZM3756.16 994.828L3720.86 1090.04C3652.96 1277.12 3576.04 1489.15 3435.28 1671.49C3336.54 1799.42 3216.35 1901.51 3067.82 1983.56C2730.13 2170.55 2434.02 2140.78 2187.81 1894.88C2123.39 1829.52 2064.93 1754.72 2013.58 1671.98L1972.01 1601.87L1943.61 1641.96L1979.22 1707.4C2032.45 1800.86 2093.96 1885.79 2162.48 1960.41C2411.07 2226.02 2711.51 2263.07 3055.53 2071C3206 1987.07 3327.38 1881.31 3426.32 1747.64C3568.76 1555.25 3643.5 1330.46 3709.39 1132.01L3756.16 994.828ZM2323.17 993.519L2311.89 998.754L2300.79 1007.67L2311.32 1004.97L2323.17 993.519ZM1747.87 985.748L1731.94 1003.42L1729.56 1006.44L1737.65 1032.46L1750.94 1070.58L1753.89 1066.4L1769 1046.69L1747.87 985.748ZM1836.4 985.748L1826.36 992.783L1820.47 998.591L1831.38 1023.95L1841.66 1045.87L1859.15 1030.25L1836.4 985.748ZM1896.15 984.521L1915.83 1011.84L1933.51 1012.58L1912.38 989.675L1896.15 984.521ZM1912.26 979.04L1914.83 981.822L1917.21 982.557L1912.26 979.04ZM1858.09 976.586H1855.02L1842.04 981.985L1864.36 1025.58L1865.86 1024.28L1881.22 1016.1L1879.84 1013.89L1858.09 976.995V976.586ZM1870 976.586H1865.93L1884.73 1008.24L1888.12 1013.72L1899.34 1011.27H1906.93L1889.25 986.729L1884.86 980.676L1870.06 976.014L1870 976.586ZM2360.85 976.586L2342.86 984.766L2325.3 1001.78L2344.61 996.791L2360.85 976.422V976.586ZM1683.73 976.586L1664.54 1001.13L1680.22 1058.39L1681.16 1057.24L1699.59 1033.85L1683.73 976.586ZM1619.03 969.633L1579.65 1019.7C1526.86 1085.14 1464.1 1154.91 1387.17 1209.64C1265.79 1296.02 1138.65 1324.16 998.457 1294.96C873.063 1269.03 750.178 1300.6 635.695 1338.56C286.538 1455.53 8.35352 1880.08 -194.72 2190.02C-233.906 2249.9 -270.458 2305.61 -304.377 2354.52L-351.776 2420.37L-347.7 2461.27L-342.559 2496.94L-318.609 2472.89C-260.05 2407.45 -192.714 2309.29 -117.479 2200C-14.0922 2049.57 103.088 1879.02 238.638 1729.57C396.131 1555.98 546.227 1447.35 697.639 1397.29C815.759 1358.68 931.81 1325.63 1053 1345.26C1313.32 1387.39 1485.23 1213.32 1604.73 1065.26L1633.57 1028.69L1618.84 969.715L1619.03 969.633ZM1769 963.498L1753.32 980.84L1774.2 1041.13L1789.31 1021.49L1791.07 1019.61L1774.7 978.713L1769 963.171V963.498ZM2399.16 958.999L2376.84 968.488L2357.15 993.028L2378.47 987.548L2399.03 958.181L2399.16 958.999ZM1871.88 951.391L1888.31 973.969L1901.47 978.14L1884.04 959.244L1878.34 955.154L1872.07 951.391H1871.88ZM2383.55 950.819L2368.06 960.962L2360.54 968.242L2373.58 962.189L2383.55 950.819ZM1705.3 950.083L1698.71 957.526L1687.55 971.76L1695.14 999.327L1704.11 1028.28L1722.41 1005.05L1705.3 950.083ZM1790.13 945.256L1774.26 958.099L1780.53 974.459L1796.4 1013.81L1811.25 997.445L1812.51 996.464L1790.31 945.175L1790.13 945.256ZM1642.6 939.776L1629.31 956.545L1624.04 963.253L1638.78 1022.23L1653.07 1004.07L1657.84 998.018L1642.6 939.776ZM3779.86 935.031L3771.59 954.745L3759.05 988.447L3779.8 935.031H3779.86ZM1840.28 933.068L1840.78 933.968L1861.35 968.734H1871.32L1876.96 970.451L1856.58 942.557L1840.66 933.232L1840.28 933.068ZM1810.06 933.068L1796.77 939.776L1795.45 940.839L1817.71 992.21L1833.26 979.695L1827.3 968.079L1810.06 933.068ZM1858.34 933.068L1860.78 936.422L1863.1 937.731L1858.34 933.068ZM1825.61 929.878L1816.71 931.514L1832.57 963.743L1838.84 975.768L1853.89 969.633L1835.96 939.285L1831.13 931.105L1825.74 929.878H1825.61ZM1726.86 925.706L1710.25 944.602V945.256L1727.18 999.572L1745.17 978.877L1726.68 925.706H1726.86ZM2422.8 925.215L2404.55 937.158L2388.38 955.4L2408 946.238L2422.8 925.215ZM1665.17 910.982L1647.99 932.823L1662.16 992.456L1680.97 968.406L1664.98 911.145L1665.17 910.982ZM1747.18 905.256L1734.64 916.381L1731.63 919.816L1750.06 972.987L1758.84 962.844L1765.86 956.3L1747.05 905.256H1747.18ZM1602.66 901.984L1601.35 903.702C1537.77 985.503 1458.65 1088.08 1352 1161.78C1225.48 1249.07 1092.31 1273.61 944.851 1237.04C809.552 1203.42 680.585 1235.98 572.371 1272.38C212.18 1394.34 -71.0203 1846.46 -277.856 2176.61C-293.593 2201.72 -309.205 2226.26 -323.938 2250.23L-362.308 2310.19L-360.615 2333.67L-352.904 2410.72L-308.327 2348.63C-274.722 2300.04 -238.483 2244.75 -199.611 2185.03C3.9646 1874.19 283.152 1448.82 634.252 1331.03C749.426 1292.91 873.377 1261.17 999.585 1287.27C1274.76 1344.53 1452.38 1166.36 1575.45 1013.97L1616.77 961.371L1607.49 924.07L1602.79 901.984H1602.66ZM1817.77 895.767L1834.45 923.906L1842.54 925.951L1845.3 927.587L1832.01 909.346L1829.19 905.829L1817.77 895.767ZM1766.93 891.432L1756.58 896.83L1752.63 900.348L1771.44 951.31L1781.47 941.903L1786.93 938.549L1777.52 916.872L1766.99 891.432H1766.93ZM2449 888.568L2448.06 889.223L2442.61 894.131L2424.18 914.99L2434.83 907.955L2442.23 897.403L2449 888.568ZM1686.3 886.36L1670.63 904.111L1669.12 905.992L1684.98 963.253L1695.27 950.165L1702.6 941.984L1686.3 886.114V886.36ZM1785.17 883.088H1782.79L1772.82 888.241L1782.85 912.781L1792.57 935.195L1806.49 927.015L1785.17 883.578V883.088ZM1796.4 883.088H1792.51L1812.88 924.479L1825.42 922.189L1804.48 886.851L1796.46 883.006L1796.4 883.088ZM1808.12 879.815L1808.43 880.306L1807.93 879.734L1808.12 879.815ZM1626.3 872.29L1607.93 895.767L1613.45 921.534L1621.85 955.318L1624.98 951.391L1640.28 931.923L1636.14 916.054L1626.3 872.29ZM3801.87 866.727L3778.8 917.117C3761.3 958.59 3744.12 1001.78 3726.51 1046.04C3656.91 1221.09 3578.04 1419.54 3439.98 1590.75C3342.12 1712.22 3223.68 1809.98 3077.97 1889.73C2905.12 1984.54 2741.11 2023.64 2590.38 2005.89C2455.73 1990.04 2326.8 1927.3 2217.09 1824.21C2143.85 1754.82 2077.77 1673.41 2020.47 1582L2004.8 1556.06L1976.27 1596.23L2018.15 1666.82C2069.3 1749.17 2127.5 1823.61 2191.63 1888.67C2436.15 2132.6 2730.07 2162.05 3065.37 1976.19C3213.15 1894.39 3332.71 1793.12 3430.83 1665.92C3570.83 1484.57 3647.57 1273.28 3715.22 1086.77C3731.65 1041.45 3747.89 996.791 3764.69 953.355L3801.87 866.727ZM1707.05 863.455H1706.61L1691.5 880.552L1707.8 936.422L1724.29 917.935L1707.05 863.046V863.455ZM1725.86 847.095L1712.44 858.793L1729.37 912.618L1733.13 908.364L1744.67 898.303L1727.05 850.449L1725.86 847.095ZM1647.93 845.868L1638.21 857.239L1631.94 865.419L1646.11 924.888L1663.1 903.374L1654.01 870.654L1647.74 846.113L1647.93 845.868ZM1770.63 838.179L1788.75 875.153H1797.65L1791.76 865.173L1778.4 843.987L1770.63 838.097V838.179ZM1744.73 838.179L1731.82 844.068L1732.82 846.932L1750.19 893.967L1755.96 888.978L1764.11 884.969L1744.73 838.179ZM1752.76 834.498L1750.75 835.398L1770.13 882.106L1781.72 876.544L1761.66 835.643L1752.76 834.498ZM1587.87 832.862L1573.7 851.022C1512.19 930.86 1427.93 1040.06 1317.08 1114.34C1232.48 1172.01 1138.42 1202.04 1042.97 1201.87C992.045 1201.55 941.297 1194.01 891.622 1179.37C744.661 1137.16 603.218 1174.63 509.173 1206.53C137.696 1333.89 -150.896 1814.23 -361.493 2165.07L-371.525 2181.43L-363.124 2298.98L-328.389 2244.67C-313.53 2221.19 -298.295 2196.81 -282.621 2171.86C-75.2837 1840.9 208.731 1387.55 570.804 1264.69C679.77 1228.12 809.552 1195.24 946.042 1229.27C1277.21 1311.56 1469.56 1062.8 1596.89 898.303L1600.72 893.395L1587.68 832.535L1587.87 832.862ZM3828.01 821.246L3824.13 828.526L3822.81 831.717L3828.01 821.246ZM1668.12 820.755L1652.26 839.242L1666.99 896.503L1683.98 877.443L1679.72 862.801L1668.12 820.673V820.755ZM1755.89 807.34L1757.71 810.939L1765.23 826.236L1768.06 826.727L1755.89 807.34ZM1610.44 801.859L1592.76 824.518L1605.74 885.46L1624.04 862.147L1610.44 801.859ZM1687.74 801.859L1673.2 815.684L1685.74 860.102L1689.31 872.208L1704.29 855.848H1704.73L1688.06 802.677L1687.74 801.859ZM1705.92 789.834L1693.38 797.605L1710 850.367L1723.29 839.079L1706.05 789.998L1705.92 789.834ZM1730.25 784.763L1740.03 808.567L1747.74 827.299L1753.57 824.845L1757.08 825.336L1752.32 815.602L1738.09 787.626L1730.25 784.763ZM1722.6 783.618L1713.64 785.09L1711.82 786.235L1729 835.316L1741.54 829.835L1734.39 812.493L1722.48 783.618H1722.6ZM1631.06 778.301L1615.52 796.297L1629.62 855.439L1639.65 842.678L1645.48 836.134L1631.06 778.301ZM3849.39 768.812L3832.9 796.706L3826.63 811.103L3849.71 768.157L3849.39 768.812ZM1573.51 761.123L1545.67 796.706C1418.46 962.107 1205.54 1238.92 837.891 1120.15C719.332 1081.78 594.754 1087.43 445.85 1138.96C110.674 1254.79 -156.037 1659.22 -361.681 2007.69L-379.989 2039.26L-374.973 2130.47L-372.277 2168.51L-366.007 2158.61C-154.783 1806.87 134.561 1325.3 507.919 1197.37C601.964 1165.3 744.849 1127.59 893.126 1170.13C1240.78 1270.01 1446.55 1003.34 1569.56 843.987L1586.24 822.8L1580.59 796.706L1573.7 761.123H1573.51ZM1650.94 757.196L1642.98 764.64L1635.95 772.82L1645.86 813.721L1650.25 830.735L1666.11 813.066L1657.84 783.045L1650.94 756.869V757.196ZM1714.01 745.171L1719.15 757.441L1726.36 774.947L1733.07 777.319L1723.23 757.85L1714.01 745.171ZM1669.69 742.39L1661.91 746.889L1656.21 752.206L1663.67 780.427L1671.19 807.749L1676.65 801.696L1685.61 794.415L1678.9 773.229L1669.69 742.39ZM1595.39 734.21L1587.18 743.453L1578.71 754.169L1586.36 793.843L1591.13 815.929L1608.74 793.515L1595.39 734.21ZM1686.49 733.474H1684.29L1675.45 738.545L1683.67 765.948L1691.07 789.425L1698.4 783.454L1703.42 781.654L1686.49 733.228V733.474ZM1695.77 732.574H1693.38L1709.81 779.446L1719.84 775.929L1713.57 760.877L1703.1 736.337L1695.7 732.737L1695.77 732.574ZM1615.7 711.633L1600.78 727.993L1606.36 756.296L1613.7 787.217L1629.43 769.875L1615.7 711.387V711.633ZM3878.17 706.725L3841.3 765.621C3802.43 836.461 3767.82 915.808 3731.21 999.572C3660.05 1162.52 3579.42 1347.23 3444.31 1507.23C3347.26 1622.16 3230.64 1715.66 3087.63 1793.53C2919.67 1884.9 2759.79 1924.42 2612.39 1911.41C2481.68 1900.29 2355.43 1845.08 2245.99 1751.16C2173.11 1688.06 2106.83 1612.85 2048.81 1527.43L2037.09 1508.62L2008.94 1550.18L2010.44 1552.96C2070.83 1653.02 2141.53 1741.72 2220.54 1816.52C2460.73 2038.94 2748.38 2060.61 3075.47 1881.14C3220.48 1801.88 3338.29 1704.62 3435.6 1583.88C3572.9 1413.57 3651.52 1215.77 3720.86 1041.29C3755.1 955.318 3788.33 871.799 3826.57 795.888L3878.17 706.725ZM1634.51 694.536L1621.97 704.353L1620.16 706.398L1625.74 730.938L1633.82 764.803L1648.49 748.443L1638.09 708.852L1634.32 694.209L1634.51 694.536ZM1678.4 690.61L1690.5 725.212L1696.21 724.721L1698.53 725.866L1693.7 714.414C1690.34 705.956 1685.86 698.34 1680.47 691.919L1678.4 690.61ZM1559.28 689.383L1558.15 690.691C1545.61 706.152 1531.88 723.984 1517.08 743.289C1410.5 882.351 1245.17 1097.73 979.146 1097.73C913.016 1097.15 847.246 1084.99 783.596 1061.58C660.334 1017.65 528.922 1020.68 381.836 1072.21C85.6581 1175.61 -163.623 1517.21 -357.042 1838.2L-388.39 1892.19L-386.76 1922.62L-380.992 2026.91L-368.453 2005.89C-281.493 1858.65 -180.927 1696.6 -69.014 1552.63C105.847 1327.76 273.748 1189.68 444.219 1130.62C594.189 1079.16 720.084 1073.36 839.208 1111.8C1203.54 1229.43 1414.82 954.664 1541.41 790.571L1571.88 751.47L1559.9 689.383H1559.28ZM1652.01 683.984L1641.97 688.401L1639.72 690.201L1643.79 706.561L1653.82 744.517L1666.93 734.292L1658.15 705.007L1651.88 684.066L1652.01 683.984ZM3900.36 682.921L3894.1 691.101L3891.9 694.945L3900.36 682.921ZM1665.42 682.184H1658.65L1663.67 699.199L1672.88 729.956L1683.67 725.212L1669.43 684.311L1665.42 681.857V682.184ZM1581.22 664.924L1564.92 683.166L1576.77 744.517L1578.71 741.981L1593.32 725.212L1590.19 711.387L1581.22 664.924ZM3929.89 653.8L3918.61 667.051L3914.16 673.513L3929.89 653.8ZM3914.53 653.308L3903.56 665.824L3894.1 681.53L3914.78 653.472L3914.53 653.308ZM1601.03 645.701L1593.38 651.755L1587.11 658.544L1598.96 718.831L1611.5 704.271L1613.45 702.471L1610.88 691.346L1600.72 645.701H1601.03ZM1646.17 639.075L1656.58 674.25H1665.99L1664.8 670.814C1661.51 660.684 1656.96 651.339 1651.32 643.165L1646.17 639.075ZM1619.53 633.513L1613.26 636.212L1606.36 641.693L1609.5 656.254L1618.21 698.545L1630.75 687.174L1632.26 686.438L1621.1 642.511L1619.03 634.331L1619.53 633.513ZM1635.52 631.141H1625.48L1627.49 639.321L1638.53 682.675L1650.5 676.376L1640.22 641.366L1637.65 632.613L1635.52 631.059V631.141ZM3946.38 624.924L3928.7 644.556L3920.55 655.517L3946.38 624.924ZM3929.52 622.715L3912.9 640.711C3845.13 727.011 3792.71 836.052 3735.79 954.418C3663.25 1105.26 3581.05 1276.22 3449.2 1424.94C3353.09 1533.41 3238.16 1622.57 3098.1 1697.66C2935.09 1785.52 2779.1 1825.76 2635.15 1817.26C2508.41 1810.48 2384.96 1762.69 2275.9 1678.19C2208.98 1625.78 2147.19 1562.96 2091.88 1491.11L2069.88 1460.11L2041.79 1501.59L2053.64 1520.65C2111.35 1605.74 2177.32 1680.65 2249.88 1743.47C2485.93 1944.29 2767.12 1958.28 3085.56 1785.11C3227.88 1708.13 3343.93 1615.04 3440.42 1500.77C3574.78 1341.66 3655.16 1157.2 3726.07 995.073C3779.23 873.272 3830.33 756.296 3898.23 662.716L3929.52 622.715ZM1547.05 618.38L1525.67 642.92C1514.57 656.826 1502.6 672.45 1489.81 689.219C1424.04 775.028 1334.2 892.577 1211.06 968.734C1144.63 1010.09 1073 1035.37 999.648 1043.34C914.757 1052.5 824.098 1038.76 730.743 1002.44C601.4 952.21 466.728 952.946 319.203 1004.81C64.4667 1094.79 -155.159 1359.74 -335.349 1641.79L-396.227 1742L-388.766 1878.85L-359.487 1828.71C-293.265 1717.39 -222.416 1610.89 -147.26 1509.68C32.4287 1270.82 205.158 1125.22 380.833 1063.38C529.048 1011.92 661.526 1008.41 785.916 1052.74C1166.55 1188.53 1383.6 905.501 1513.19 736.5C1526.49 719.24 1538.84 703.125 1550.37 688.728L1557.9 680.057L1556.77 674.168L1546.93 618.052L1547.05 618.38ZM1568.18 596.539L1556.58 607.336L1552.44 612.081L1562.98 672.286L1563.35 674.25L1579.53 655.599L1568.18 596.539ZM1613.95 585.495L1623.42 623.451L1624.86 622.715H1634.32L1629.18 607.746C1626.34 600.562 1622.64 594.018 1618.21 588.359L1613.95 585.495ZM1587.3 583.777L1574.76 590.649L1574.14 591.222L1585.61 649.464L1599.21 637.194L1593.51 611.754L1587.55 583.777H1587.3ZM1595.33 579.442L1592.88 580.833L1595.08 591.385L1604.17 633.267L1617.58 626.478L1606.8 583.042L1605.86 579.769C1602.44 578.948 1598.94 578.948 1595.52 579.769L1595.33 579.442ZM4048.08 567.99L4034.6 576.17L4032.47 577.806L4048.08 568.399V567.99ZM1534.95 548.112L1528.05 554.575C1504.98 580.372 1482.93 607.674 1461.97 636.376C1394.89 724.23 1302.97 844.723 1175.64 921.452C1106.75 963.253 1032.51 988.021 956.701 994.501C868.487 1001.94 774.442 985.176 677.2 944.602C541.901 888.078 404.031 886.196 255.879 938.712C45.7203 1013.56 -140.237 1207.18 -300.427 1433.77L-406.07 1594.02L-405.193 1603.84L-396.979 1730.71L-339.675 1636.56C-158.858 1353.77 61.5825 1087.84 317.572 997.445C466.289 945.256 602.027 944.357 732.561 995.155C1129.43 1149.19 1352.25 857.975 1485.48 684.311C1498.65 667.051 1510.88 651.018 1522.35 636.785L1545.55 610.036L1536.71 559.483L1534.89 548.112H1534.95ZM1582.54 532.816L1583.73 537.396L1591.31 573.307L1595.58 571.18H1603.42L1600.28 560.628C1597.52 552.317 1593.75 544.639 1589.12 537.887L1582.54 532.816ZM1555.83 532.816L1545.73 538.133L1540.53 542.959L1542.91 557.683L1550.88 603.41L1554.32 599.402L1566.55 588.359L1555.83 532.816ZM4129.96 527.908L4092.34 542.796L4086.82 545.985L4130.02 527.908H4129.96ZM1566.11 527.417L1561.78 529.707L1572.32 583.205L1573.2 582.387L1585.73 576.17L1577.96 539.605L1574.95 527.744H1566.17L1566.11 527.417ZM4208.2 504.676L4155.35 517.846L4148.2 520.709L4208.2 504.349V504.676ZM4274.22 494.042L4224.57 500.341L4218.3 501.895L4274.35 493.715L4274.22 494.042ZM4318.11 490.361H4300.24H4297.99L4318.11 489.625V490.361ZM1524.17 481.936L1516.77 485.78C1494.95 503.04 1467.43 539.033 1433.82 583.123C1365.29 673.105 1271.44 796.379 1139.96 873.926C1068.57 916.118 991.719 940.347 913.44 945.338C822.029 951.064 724.473 931.269 623.469 886.278C484.345 824.355 339.265 819.61 192.367 872.208C-18.7943 948.038 -202.181 1144.36 -358.609 1374.22L-417.544 1467.47L-407.199 1582.9L-304.628 1427.47C-143.936 1200.31 42.7737 1006.12 254.186 930.941C403.592 877.77 542.59 879.898 679.081 936.913C1091.94 1109.35 1320.72 809.712 1457.4 630.65C1479.18 600.749 1502.2 572.431 1526.36 545.822L1533.38 539.605L1524.23 481.936H1524.17ZM1551.5 480.299L1554.64 494.533L1560.03 522.182L1566.3 519.237H1572.57L1571.19 513.756C1568.5 504.288 1564.69 495.428 1559.9 487.498L1551.5 480.299ZM1536.77 475.31L1530.12 478.827L1538.96 534.534L1544.61 529.462L1554.07 524.963L1548.56 496.414L1544.1 475.719H1536.77V475.31ZM4345.57 473.919L4298.42 474.328L4230.52 483.817L4211.72 486.189L4210.15 486.598L4190.71 489.297L4135.66 507.703L4129.02 509.584L4126.64 510.729L4099.36 519.891L4060.87 542.223L4054.91 545.004L4050.59 548.112L4022 564.472L3997.29 586.232L3988.83 592.285L3975.85 605.046L3956.79 622.306L3946.13 634.903L3976.1 605.291L3997.54 586.477L4050.84 548.112L4061.12 542.223L4126.82 510.402L4135.85 507.376L4210.34 486.271L4230.46 483.49L4303.75 474.164L4345.51 473.592L4345.57 473.919ZM4303 465.739L4246.2 472.774L4218.36 475.882L4216.23 476.454L4198.05 478.663L4144.5 495.023L4137.36 496.905L4134.85 497.968L4108.33 506.148L4069.65 527.826L4064.38 530.198L4060.68 532.652L4032.03 548.358L4006.2 569.872L3999.11 574.698L3988.58 584.023L3966.82 602.101L3954.28 616.253L3988.83 584.023L4006.32 569.544L4060.87 532.325L4069.83 527.499L4135.04 498.05L4144.69 495.105L4216.42 476.127L4246.39 472.446L4308.21 465.493H4303.19L4303 465.739ZM4307.58 457.068C4197.11 460.258 4111.34 487.171 4041.49 531.916L4010.15 556.456L4009.02 557.192L4007.45 558.583L3976.67 582.551L3965.07 595.884L4007.45 558.583L4010.15 556.456L4073.72 515.556C4141.81 479.645 4220.56 460.422 4312.41 457.395L4348.46 457.804L4307.52 457.068H4307.58ZM4312.22 448.479C4168.58 450.36 4066.51 492.815 3986.2 562.509L3968.26 581.569L3971.9 577.724C4061.75 493.633 4173.41 451.423 4316.73 448.806L4337.61 449.297L4312.09 448.479H4312.22ZM4316.54 439.481C3989.52 438.254 3876.98 649.955 3739.11 909.346C3665.38 1048.41 3581.93 1205.14 3453.59 1342.89C3358.48 1444.82 3245.31 1529.72 3107.76 1602.53C2949.26 1686.86 2797.66 1727.68 2657.16 1723.84C2534.26 1721.48 2413.53 1681.29 2304.8 1606.54C2243.08 1563.38 2185.3 1511.24 2132.57 1451.11L2101.79 1413.08L2089.81 1431.24L2073.7 1454.96L2095.71 1486.04C2150.73 1557.57 2212.2 1620.12 2278.78 1672.3C2510.76 1851.45 2785.5 1857.75 3095.4 1690.87C3235.03 1616.19 3349.33 1527.27 3444.94 1419.62C3576.1 1271.64 3658.11 1101.25 3730.33 950.982C3804.13 797.524 3873.78 652.654 3981.93 558.337C4071.71 479.972 4181.62 441.607 4321.31 441.28L4390.27 444.062H4389.84C4364.17 441.771 4339.68 440.571 4316.36 440.462L4316.54 439.481ZM4320.62 430.728C4001.56 423.775 3884.63 621.979 3741.3 864.846C3666.82 991.147 3582.31 1134.79 3457.98 1260.27C3363.93 1355.57 3252.46 1436.23 3117.54 1506.74C2963.8 1587.64 2816.59 1629.44 2679.35 1629.44C2560.22 1631.25 2442.27 1598.5 2334.02 1533.57C2277.66 1499 2224.17 1456.98 2174.39 1408.17L2133.14 1364.49L2105.99 1405.39L2136.65 1443.34C2189.02 1503.52 2246.47 1555.75 2307.87 1599.01C2535.4 1756.48 2803.8 1754.92 3105.37 1594.51C3242.05 1522.04 3354.9 1437.53 3449.58 1336.1C3577.16 1199.49 3660.43 1042.93 3733.84 904.765C3810.52 760.55 3882.94 624.269 3991.21 536.66C4080.99 464.021 4189.27 429.582 4325.45 431.464L4371.72 434.082L4320.56 430.728H4320.62ZM1521.47 427.865L1525.92 451.342L1529.06 470.974L1537.27 467.13L1542.54 467.62C1539.94 457.011 1536.14 446.973 1531.25 437.845L1521.47 427.865ZM1507.87 423.121C1484.17 427.374 1450.5 471.628 1406.05 530.116C1336.01 622.224 1240.09 748.362 1104.54 826.563C1030.68 869.286 951.184 892.979 870.43 896.339C775.821 900.429 674.754 877.444 570.114 828.118C428.635 760.057 274.266 752.239 129.169 805.786C-63.6223 875.562 -234.47 1044.73 -384.001 1250.78L-434.158 1322.85L-433.155 1328.98C-428.976 1357.12 -425.318 1386.14 -422.184 1416.02L-418.61 1455.53L-361.431 1365.55C-177.667 1095.61 2.9613 932.005 190.612 864.682C338.827 811.594 484.972 816.42 625.475 878.916C1054.51 1069.92 1289.12 761.858 1429.37 577.724C1465.17 530.689 1493.07 494.124 1515.95 477.273L1522.98 474.001L1519.65 453.223L1514.2 423.856L1507.93 423.366L1507.87 423.121ZM4324.44 421.811C4012.84 409.051 3891.27 593.594 3742.24 820.428C3667.01 934.377 3582.18 1063.62 3462.3 1177.98C3369.26 1266.73 3259.67 1343.06 3127.25 1411.36C2978.29 1488.74 2835.03 1530.71 2701.54 1536.02C2585.97 1541.91 2470.71 1516.59 2362.98 1461.67C2311.45 1434.63 2261.94 1401.44 2215.08 1362.52L2164.42 1317.21L2137.21 1358.11L2177.84 1401.22C2227.32 1449.78 2280.5 1491.58 2336.53 1525.96C2560.23 1661.92 2822.17 1652.59 3115.03 1498.64C3249.45 1428.37 3360.36 1348.13 3454.03 1253.24C3577.67 1127.92 3661.87 985.176 3736.16 859.284C3815.85 724.067 3891.21 596.457 3999.49 515.719C4089.39 448.724 4196.17 418.13 4328.96 422.302L4392.78 426.965L4323.82 421.239L4324.44 421.811ZM4265.7 411.75C4005.51 418.949 3885.88 580.915 3741.74 776.337C3666.51 877.852 3581.74 992.865 3466.88 1095.36C3375.09 1177.16 3267.32 1249.56 3137.29 1315.57C2860.1 1457.66 2609.57 1482.36 2392.51 1389.19C2346.08 1369.14 2300.92 1344.36 2257.47 1315.08L2196.9 1267.96L2184.36 1286.94L2168.75 1310.58L2218.53 1355.16C2265.13 1393.7 2314.34 1426.56 2365.55 1453.32C2584.99 1567.84 2840.73 1550.75 3125.06 1403.02C3257.04 1334.96 3366.25 1258.96 3458.73 1170.62C3577.85 1056.83 3662.81 927.997 3737.48 814.293C3820.49 688.156 3898.92 568.89 4007.95 495.269C4098.17 434 4203.56 407.169 4333.16 413.468L4387.14 418.376L4328.33 412.405C4306.58 411.014 4285.7 410.687 4265.63 411.177L4265.7 411.75ZM4270.4 401.279C4014.6 401.852 3889.64 551.712 3738.92 732.41C3664.56 821.246 3580.61 922.516 3471.4 1013.48C3380.99 1088.98 3274.9 1156.55 3147.13 1220.6C2878.79 1356.14 2634.71 1388.62 2421.79 1317.29C2380.14 1303.19 2339.22 1285.63 2299.28 1264.69L2227.87 1221.5L2201.04 1262.4L2260.1 1308.45C2303.31 1337.56 2348.22 1362.17 2394.39 1382.07C2610.01 1474.76 2859.16 1450.13 3134.9 1308.45C3264.5 1243.01 3371.9 1170.86 3463.31 1089.06C3577.6 986.893 3662.12 871.963 3737.35 770.693C3824 653.227 3905.82 542.386 4015.54 474.982C4106.26 419.194 4210.46 396.289 4337.05 405.369L4399.74 412.241H4398.49C4355.96 405.147 4313.14 401.486 4270.27 401.279H4270.4ZM4274.6 390.563C4022.37 384.428 3891.27 522.427 3733.22 688.974C3656.91 769.303 3578.04 852.576 3476.16 931.35C3387.38 1000.15 3283.05 1063.62 3157.35 1125.38C2969.26 1218.8 2793.14 1265.67 2630.7 1265.67C2570.54 1265.86 2510.48 1259.01 2451.26 1245.22C2413.33 1236.22 2377.4 1225.02 2343.05 1212.5L2258.28 1176.02L2232.07 1215.53L2301.42 1257.41C2341.13 1278.29 2381.84 1295.78 2423.3 1309.76C2634.96 1380.68 2877.66 1348.29 3144.81 1213.4C3272.21 1149.68 3377.85 1082.52 3467.95 1007.02C3576.41 916.463 3656.79 820.019 3734.6 726.848C3909.64 516.619 4050.21 348.027 4398.68 404.061L4411.22 406.433L4400.06 404.061C4358.5 396.327 4316.63 391.82 4274.66 390.563H4274.6ZM4221.94 378.784C4006.57 385.901 3877.1 504.512 3723.12 645.374C3649.58 712.533 3573.9 781.9 3480.3 848.731C3393.46 910.573 3290.95 969.797 3166.82 1029.68C2962.05 1129.72 2770.32 1180.27 2595.21 1180.27C2556.91 1180.31 2518.64 1177.77 2480.54 1172.66C2420.29 1164.31 2360.5 1151.18 2301.48 1133.32L2288.94 1129.15L2262.61 1168.9L2344.43 1204.16C2378.59 1216.84 2414.39 1228.04 2452.14 1236.88C2659.85 1285.96 2896.15 1245.96 3154.72 1117.53C3280.11 1055.85 3384.06 992.538 3472.52 924.152C3574.34 845.787 3653.09 762.595 3729.27 682.184C3912.84 488.888 4060.18 333.63 4400.75 395.881L4412.72 398.498L4401.25 395.717C4341.97 382.973 4281.94 377.278 4221.87 378.703L4221.94 378.784ZM1478.9 370.604C1455.64 374.612 1422.47 418.703 1377.96 476.945C1306.42 571.18 1208.68 700.262 1068.8 779.118C992.448 822.227 910.354 845.378 827.17 847.259C729.3 849.549 624.785 823.536 516.509 769.875C219.515 622.633 -79.7354 728.975 -372.904 1086.28L-456.854 1195.9L-446.259 1247.18L-435.663 1312.62L-388.014 1243.99C-238.044 1037.45 -66.3811 867.709 127.477 797.605C273.818 743.647 429.498 751.551 572.183 820.183C1016.89 1029.84 1267.11 700.835 1401.47 524.063C1448.93 461.567 1482.35 417.722 1508.37 414.532H1512.13L1506.36 394.981C1504.76 389.513 1502.33 384.522 1499.21 380.306C1496.1 376.09 1492.37 372.734 1488.24 370.441C1485.21 369.299 1482.02 369.02 1478.9 369.622V370.604ZM4224.38 365.532C4008.64 365.532 3870.96 473.755 3707.57 602.755C3639.11 656.662 3568.39 712.369 3484.69 766.357C3399.42 821.737 3301.61 874.989 3176.66 934.131C2922.74 1055.69 2708.07 1082.76 2510.07 1100.11C2452.28 1104.87 2394.29 1104.05 2336.59 1097.65L2312.14 1094.3L2293.83 1121.95L2302.67 1124.97C2361.47 1142.84 2421.06 1155.95 2481.1 1164.24C2684.99 1191.64 2915.03 1143.79 3164.5 1021.9C3288.26 962.026 3390.52 903.047 3477.04 841.451C3570.58 774.865 3646.32 705.497 3719.42 638.502C3912.9 461.321 4068.39 319.315 4401.94 387.701L4410.53 389.746L4402.31 387.537C4343.53 373.543 4283.94 366.208 4224.19 365.614L4224.38 365.532ZM4224.88 351.872C4006.76 343.692 3858.92 442.998 3683.37 560.382C3622.74 601.283 3560.05 642.838 3489.01 684.393C3407.32 732.41 3314.03 780.346 3186.69 839.161C2954.71 947.792 2736.91 1010.94 2539.22 1028.2C2472.33 1033.85 2410.63 1036.38 2351.13 1038.84L2317.4 1086.94L2337.15 1089.64C2394.6 1096.03 2452.34 1096.85 2509.88 1092.09C2707.44 1074.83 2921.55 1047.83 3174.78 926.606C3299.42 867.627 3397.16 814.457 3481.99 759.078C3565.44 704.843 3636.1 649.3 3704.31 595.475C3909.77 433.755 4074.6 303.936 4403.38 379.52L4408.83 380.911L4403.13 379.275C4344.38 363.688 4284.74 354.549 4224.82 351.954L4224.88 351.872ZM4182.81 334.694C4160.56 334.203 4138.92 334.693 4117.8 336.493C3948.52 349.581 3811.52 426.474 3645.75 519.4C3597.42 546.476 3547.45 574.453 3493.59 602.592C3397.85 652.573 3290.08 701.898 3196.53 744.19C2975.47 845.296 2763.93 916.626 2568.63 956.218L2536.84 962.107L2382.04 994.828L2356.96 1030.58L2538.78 1020.19C2735.96 1003.34 2953.33 940.103 3184.56 832.044C3311.77 773.147 3404.94 725.703 3486.63 677.603C3557.35 636.13 3619.99 594.248 3680.55 553.757C3900.99 406.515 4078.05 287.903 4404.26 371.831H4405.45L4403.13 371.095C4330.73 349.202 4256.8 337.032 4182.5 334.776L4182.81 334.694ZM4104.5 314.979C3924.44 321.36 3771.08 392.772 3585.57 479.236C3557.35 492.324 3528.14 505.985 3498.17 519.646C3438.67 546.804 3376.85 573.716 3311.39 602.265L3206.56 648.155C2998.91 740.672 2799.92 817.565 2598.03 883.333C2534.08 904.111 2475.21 925.542 2420.6 947.956L2411.76 952.128L2388.5 985.339L2535.9 954.5L2567.62 948.201C2762.86 908.61 2973.71 837.443 3194.59 736.5C3288.01 694.209 3395.72 644.883 3491.4 594.985C3545.13 566.927 3595.03 538.951 3643.31 511.874C3774.97 438.254 3888.58 374.367 4016.85 344.591C4122.12 320.051 4230.02 321.033 4348.71 348.354L4457.92 380.338L4401.94 360.624C4291.28 324.959 4194.6 311.544 4104.57 315.061L4104.5 314.979ZM4077.36 291.257C3879.11 291.257 3704.12 359.152 3502.68 437.681C3411.33 473.346 3317.29 510.402 3216.47 553.184L3150.39 581.814C2953.08 666.887 2782.99 740.427 2627.37 810.857C2574.46 835.016 2522.82 861.792 2472.45 891.186L2438.72 913.354L2420.54 939.203L2596.4 875.153C2798.16 809.712 2997.03 732.656 3204.56 640.302C3240.3 624.542 3275.24 609.245 3309.39 594.412C3374.84 565.863 3436.6 539.032 3496.1 511.874C3526.07 498.132 3555.28 484.553 3583.5 471.465C3731.15 402.588 3858.67 343.201 3997.29 318.579C4113.48 298.485 4231.45 304.322 4346.14 335.839L4445.2 368.068L4398.68 349.909C4294.16 311.589 4186.17 291.779 4077.61 291.012L4077.36 291.257ZM3989.08 260.5C3834.97 262.709 3680.93 299.11 3506.63 354.98C3404.31 387.701 3312.27 421.484 3225.94 457.15C3012.77 546.313 2820.92 640.793 2656.53 738.055C2609.23 766.154 2563.07 797.388 2518.22 831.635L2472.01 868.772L2451.45 895.849L2469.88 883.824C2520.41 854.212 2572.22 827.381 2625.31 803.332C2780.79 732.574 2951.33 658.953 3148.32 573.88L3214.4 545.249C3315.09 502.14 3409.51 465.33 3500.74 429.828C3652.34 370.686 3809.08 309.662 3967.39 289.948C4092.56 274.393 4218.85 285.443 4341.31 322.669L4439.55 358.661L4343.38 319.397C4227.97 278.542 4108.78 258.748 3989.21 260.582L3989.08 260.5ZM3895.04 220.417C3766.25 222.114 3637.87 239.781 3511.65 273.179C3418.79 296.65 3326.94 326.438 3236.47 362.424C3036.47 442.752 2851.26 545.004 2686.5 666.233C2633.38 705.581 2582.29 749.439 2533.58 797.524L2499.79 832.453L2490.26 845.05L2515.34 824.845C2560.32 790.553 2606.63 759.318 2654.08 731.265C2818.72 633.922 3010.51 539.196 3224.06 450.033C3311.02 413.795 3402.55 380.257 3505.38 347.291C3810.96 249.13 4055.98 210.928 4345.01 311.462L4441.94 351.054L4357.61 311.871C4208.1 250.128 4052.1 219.298 3895.29 220.499L3895.04 220.417ZM3808.45 168.637C3419.11 159.283 3037.15 307.917 2715.34 594.003C2668.07 636.51 2622.96 682.96 2580.29 733.064L2542.11 779.528L2605.87 720.631C2631.37 698.545 2657.11 677.931 2683.11 658.789C2848.38 537.233 3033.84 434.818 3234.28 354.326C3324.96 318.209 3417.04 288.364 3510.14 264.917C3828.77 184.18 4095.73 195.714 4359.18 304.018L4429.96 336.739L4363.88 302.218C4185.54 218.541 3997.93 173.394 3808.45 168.556V168.637ZM-1543.2 0.20906C-1542.42 -0.130188 -1541.56 -0.0542934 -1540.82 0.420253C-1540.08 0.894799 -1539.52 1.72983 -1539.25 2.74487C-1538.75 4.6263 -1487.84 192.687 -1351.66 397.026C-1225.89 585.168 -999.869 826.808 -636.292 905.91C-588.267 916.299 -549.081 951.964 -516.542 1014.79C-494.911 1056.59 -476.541 1109.76 -460.993 1176.18L-458.798 1186.81L-377.293 1080.47C-240.928 914.253 -102.431 800.878 34.3724 743.208C194.249 675.886 357.197 682.348 518.64 762.349C979.334 990.82 1235.76 652.818 1373.7 471.301C1427.68 400.134 1463.35 353.181 1490.25 363.733C1502.79 368.559 1512 385.41 1519.4 416.085L1535.33 430.81C1540.82 440.567 1545.05 451.425 1547.87 462.958L1549.18 468.929L1563.85 481.281C1569.21 489.77 1573.45 499.362 1576.39 509.666L1579.4 521.445L1592.63 531.507C1597.85 538.696 1602.09 546.995 1605.17 556.047L1610.25 573.225L1616.52 576.825C1626.11 585.005 1634.14 600.138 1640.91 623.615L1641.85 626.723L1654.39 635.803C1660.81 644.83 1665.98 655.235 1669.69 666.561L1673.89 678.585L1683.54 684.393C1689.73 691.551 1694.87 700.115 1698.71 709.669L1707.05 729.629L1712.76 732.328C1718.67 737.863 1723.73 744.801 1727.68 752.779L1741.41 779.691C1746.98 783.628 1751.92 788.934 1755.96 795.315L1781.47 836.216L1784.61 838.67L1833.07 899.121L1844.17 908.855C1854.83 918.835 1865.74 929.796 1877.02 941.576L1887.81 952.128L1921.29 976.095L1945.05 995.073L1966.93 1005.13L2005.05 1025.99L2080.28 1048.16L2087.75 1050.86L2104.67 1052.91L2140.1 1045.79L2186.99 1041.29L2236.52 1024.93L2250.69 1021.25L2265.99 1012.01L2309.06 991.965L2321.6 981.576L2366.18 952.455L2373.64 945.175L2438.28 887.914L2455.21 868.691L2495.21 827.299L2509.13 808.976C2576.21 723.903 2643.8 647.992 2711.89 588.113C2965.32 363.208 3256.63 221.491 3561.05 175.018C3876.1 127.737 4191.15 188.188 4472.03 349.909C4472.41 350.114 4472.75 350.415 4473.04 350.795C4473.32 351.174 4473.55 351.625 4473.7 352.12C4473.85 352.615 4473.93 353.145 4473.92 353.678C4473.91 354.211 4473.83 354.738 4473.66 355.226L4471.91 356.125C4472.29 356.324 4472.64 356.619 4472.93 356.993C4473.23 357.368 4473.47 357.815 4473.63 358.309C4473.79 358.803 4473.88 359.334 4473.88 359.872C4473.89 360.409 4473.81 360.943 4473.66 361.442L4471.22 362.833H4471.53C4472.31 363.202 4472.95 363.961 4473.3 364.943C4473.65 365.924 4473.69 367.048 4473.41 368.068L4470.84 369.622H4471.84C4472.63 369.959 4473.29 370.692 4473.66 371.658C4474.04 372.624 4474.11 373.745 4473.85 374.776L4471.53 376.33L4473.79 381.157L4470.65 383.365H4471.47C4472.26 383.652 4472.94 384.337 4473.35 385.272C4473.76 386.206 4473.87 387.314 4473.66 388.355L4471.53 389.991L4473.66 394.653L4471.28 396.535L4473.6 401.198L4471.15 403.243L4473.54 407.987L4471.03 410.114H4471.34C4472.16 410.332 4472.88 410.959 4473.35 411.86C4473.82 412.762 4474 413.868 4473.85 414.94L4471.15 417.231L4473.79 421.73L4471.22 424.02L4473.72 428.519L4471.15 430.892L4473.6 435.145L4471.15 437.436L4473.79 441.935L4471.28 444.389L4473.85 448.724L4471.22 451.423L4473.85 455.759L4471.22 458.459L4473.66 462.467L4471.03 465.166L4473.66 469.256L4471.03 471.956L4473.6 475.964L4471.09 478.663L4473.79 482.835L4471.15 485.698L4473.72 489.625L4471.22 492.488L4473.85 496.496C4473.79 497.567 4473.4 498.562 4472.78 499.266C4472.16 499.97 4471.35 500.327 4470.53 500.259C4217.86 476.864 4044.19 535.515 3924.13 685.129C3815.85 819.937 3760.74 1017.32 3702.37 1226.33C3640.17 1449.07 3569.64 1701.59 3421.86 1916.89C3320.8 2064.13 3195.28 2179.22 3038.29 2268.63C2757.6 2427.82 2503.93 2432.24 2284.68 2282.13C2136.59 2180.94 2014.39 2017.42 1913.83 1824.04L1872.01 1737.58L1867.56 1743.55C1715.27 1939.88 1558.59 2093.09 1395.45 2135.13C971.058 2244.26 694.002 2367.12 357.698 2735.14C180.142 2929.59 38.8865 3025.62 -70.3936 3025.62C-98.1573 3026.03 -125.695 3019.07 -151.335 3005.17C-163.215 2998.53 -174.54 2990.3 -185.128 2980.63L-213.216 2950.04L-238.295 2931.3L-264.564 2902.59L-292.088 2881.65L-316.854 2854.17L-345.819 2831.42L-369.33 2804.84L-399.362 2780.3L-421.995 2754.12H-422.622L-433.657 2744.63L-454.033 2741.93C-467.258 2738.15 -480.11 2732.41 -492.341 2724.84C-501.933 2718.84 -511.065 2711.66 -519.614 2703.41L-530.461 2691.05L-541.056 2686.15C-550.317 2680.16 -559.132 2673.07 -567.388 2664.96L-576.793 2654L-589.771 2647.86C-598.699 2641.78 -607.214 2634.72 -615.226 2626.76L-622.186 2618.58L-638.612 2610.4C-647.215 2604.36 -655.396 2597.35 -663.063 2589.46L-667.578 2583.98L-687.515 2573.59C-695.784 2567.48 -703.63 2560.45 -710.964 2552.57L-711.904 2551.42L-736.607 2537.68L-748.644 2526.31L-750.462 2525.82L-774.287 2510.44L-776.168 2511.91C-783.549 2516.46 -791.58 2518.94 -799.742 2519.19H-803.567C-810.247 2518.14 -816.662 2515.15 -822.346 2510.46C-828.03 2505.76 -832.838 2499.46 -836.419 2492.03L-852.47 2505.53C-859.386 2510.08 -866.984 2512.6 -874.727 2512.89C-876.293 2513.01 -877.863 2513.01 -879.429 2512.89C-888.332 2511.19 -896.473 2505.39 -902.376 2496.53L-910.339 2482.22L-929.775 2499.39C-936.277 2503.89 -943.484 2506.38 -950.841 2506.68C-952.54 2506.67 -954.238 2506.51 -955.919 2506.18C-965.199 2503.88 -973.404 2496.88 -978.741 2486.72L-981.813 2479.84L-989.65 2486.72C-997.215 2491.76 -1005.55 2494.56 -1014.04 2494.9C-1015.39 2495.06 -1016.76 2495.06 -1018.11 2494.9C-1029.34 2493.21 -1039.67 2486.06 -1047.02 2474.85L-1053.29 2463.97L-1053.85 2464.71C-1070.09 2483.44 -1084.57 2493.42 -1097.74 2493.42C-1099.5 2493.44 -1101.27 2493.24 -1103.01 2492.85C-1108.3 2491.38 -1113.29 2488.43 -1117.62 2484.19C-1121.95 2479.95 -1125.52 2474.53 -1128.08 2468.31L-1135.11 2449.33L-1144.51 2462.67C-1158.93 2480.5 -1171.53 2489.99 -1182.13 2489.99C-1183.8 2489.98 -1185.46 2489.74 -1187.08 2489.25C-1204.76 2484.1 -1215.48 2452.03 -1220.69 2388.55C-1273.73 1741.26 -1358.62 1380.03 -1420.75 1190.99C-1487.9 986.484 -1543.32 933.804 -1543.82 933.314C-1544.17 933.01 -1544.46 932.62 -1544.69 932.167C-1544.92 931.714 -1545.07 931.206 -1545.15 930.673C-1545.23 930.14 -1545.22 929.593 -1545.13 929.063C-1545.04 928.534 -1544.88 928.032 -1544.64 927.587C-1544.4 927.145 -1544.1 926.769 -1543.75 926.48C-1543.4 926.19 -1543.01 925.995 -1542.6 925.903C-1542.19 925.812 -1541.78 925.827 -1541.37 925.948C-1540.97 926.068 -1540.59 926.292 -1540.25 926.606C-1537.99 928.651 -1483.38 980.022 -1415.55 1186.16C-1353.16 1375.69 -1267.65 1737.99 -1214.48 2387.74C-1209.71 2445.57 -1200 2477.06 -1185.7 2481.32C-1176.11 2484.1 -1164.2 2476.08 -1150.09 2459.07L-1137.55 2441.64L-1145.51 2405.49C-1167.77 2277.3 -1187.58 2144.3 -1206.71 2015.71C-1245.2 1756.8 -1281.56 1512.22 -1329.84 1368.74C-1451.6 1007.26 -1543.01 889.959 -1544.01 888.814C-1544.31 888.447 -1544.55 888.003 -1544.71 887.511C-1544.88 887.018 -1544.96 886.487 -1544.96 885.951C-1544.96 885.414 -1544.88 884.883 -1544.71 884.391C-1544.55 883.898 -1544.31 883.455 -1544.01 883.088C-1543.43 882.338 -1542.64 881.918 -1541.82 881.918C-1541 881.918 -1540.21 882.338 -1539.62 883.088C-1538.68 884.233 -1446.33 1002.35 -1324.07 1365.71C-1275.67 1509.93 -1239.12 1754.92 -1200.5 2014.31C-1181.69 2142.91 -1161.63 2276.08 -1139.31 2403.85L-1132.6 2434.85L-1127.02 2426.67C-1118.87 2413.83 -1110.15 2398.94 -1100.94 2382.17L-1087.58 2356.81L-1102.75 2298.82C-1132.72 2168.51 -1156.42 2020.69 -1179.62 1875.66C-1214.04 1660.44 -1246.58 1457.17 -1295.17 1346C-1448.09 996.546 -1543.32 845.705 -1544.26 844.232C-1544.79 843.392 -1545.05 842.314 -1544.98 841.229C-1544.91 840.143 -1544.52 839.137 -1543.89 838.424C-1543.23 837.761 -1542.4 837.451 -1541.57 837.557C-1540.75 837.664 -1539.98 838.179 -1539.44 838.997C-1538.49 840.469 -1443.01 991.802 -1289.78 1341.99C-1240.62 1454.22 -1208.27 1658.15 -1173.48 1873.7C-1150.4 2018.08 -1126.7 2166.14 -1096.8 2296.04L-1083.13 2348.14L-1071.72 2326.47L-1064.95 2312.81L-1084.45 2257.59C-1127.9 2116.57 -1149.65 1936.44 -1169.65 1770.79C-1192.1 1585.35 -1213.54 1410.13 -1260.5 1323.26C-1443.95 986.157 -1543.45 801.45 -1544.45 799.732C-1544.91 798.831 -1545.08 797.739 -1544.94 796.676C-1544.8 795.613 -1544.36 794.658 -1543.7 794.006C-1543.01 793.393 -1542.17 793.153 -1541.35 793.337C-1540.53 793.52 -1539.8 794.112 -1539.31 794.988C-1538.31 796.869 -1439 981.495 -1255.42 1318.51C-1207.33 1406.94 -1186.02 1583.06 -1163.51 1769.48C-1143.57 1934.56 -1121.81 2114.11 -1078.74 2254.16L-1060.94 2304.63L-1042.13 2266.43L-1050.9 2240.49C-1090.9 2105.44 -1110.28 1931.7 -1128.33 1770.38C-1150.53 1571.44 -1171.47 1383.63 -1225.89 1300.68C-1439.06 975.85 -1543.57 757.441 -1544.58 755.314C-1544.98 754.42 -1545.09 753.358 -1544.91 752.351C-1544.72 751.345 -1544.24 750.472 -1543.57 749.916C-1543.23 749.619 -1542.84 749.417 -1542.43 749.322C-1542.02 749.227 -1541.6 749.241 -1541.2 749.364C-1540.79 749.486 -1540.41 749.714 -1540.08 750.034C-1539.74 750.353 -1539.46 750.759 -1539.25 751.224C-1538.24 753.351 -1433.98 971.269 -1221.13 1295.61C-1165.51 1380.27 -1144.38 1569.4 -1122.06 1769.57C-1104.2 1929.98 -1084.89 2102.82 -1045.32 2236.81L-1038.11 2258.25L-1019.74 2219.8L-1041 2123.68C-1061.06 2015.3 -1073.73 1893.66 -1086.08 1774.96C-1108.27 1560.73 -1129.27 1357.78 -1191.28 1278.35C-1433.67 965.38 -1543.57 713.923 -1544.64 711.142C-1544.85 710.677 -1544.98 710.162 -1545.04 709.627C-1545.09 709.093 -1545.06 708.55 -1544.95 708.03C-1544.84 707.511 -1544.65 707.026 -1544.39 706.605C-1544.13 706.184 -1543.81 705.835 -1543.45 705.579C-1542.72 705.049 -1541.87 704.916 -1541.07 705.207C-1540.27 705.498 -1539.59 706.191 -1539.18 707.134C-1538.12 709.588 -1428.59 960.717 -1186.77 1272.3C-1123.26 1354.1 -1102.25 1558.03 -1079.68 1773.74C-1067.14 1892.02 -1054.6 2013.41 -1034.85 2121.31L-1015.17 2210.23L-1004.38 2187.65L-994.101 2165.89L-995.857 2158.37C-1017.8 2043.35 -1030.59 1910.84 -1043.13 1782.08C-1065.51 1551.07 -1086.58 1333.32 -1156.49 1255.86C-1427.9 954.909 -1543.57 670.078 -1544.7 667.296C-1545.08 666.328 -1545.16 665.205 -1544.91 664.166C-1544.66 663.127 -1544.12 662.254 -1543.39 661.734C-1542.64 661.26 -1541.78 661.173 -1540.99 661.492C-1540.2 661.812 -1539.53 662.512 -1539.12 663.452C-1537.99 666.315 -1422.88 949.755 -1152.41 1249.64C-1080.68 1329.15 -1059.43 1548.62 -1036.92 1780.85C-1024.38 1909.53 -1011.84 2041.55 -989.838 2156.16V2156.81L-966.515 2107.73L-965.7 2105.93L-967.267 2096.52C-981.186 1999.67 -990.841 1894.31 -1000.31 1790.34C-1022.88 1542.73 -1044.2 1308.78 -1122.06 1233.61C-1422.07 944.112 -1543.76 626.723 -1544.95 623.533C-1545.3 622.566 -1545.34 621.459 -1545.07 620.45C-1544.81 619.441 -1544.24 618.61 -1543.51 618.134C-1542.77 617.649 -1541.91 617.566 -1541.13 617.903C-1540.34 618.241 -1539.69 618.971 -1539.31 619.934C-1538.12 623.124 -1417.18 938.958 -1118.24 1227.06C-1038.18 1304.28 -1016.73 1539.95 -994.039 1789.36C-984.571 1892.76 -975.229 1997.38 -961.311 2093.58L-960.935 2095.95L-933.912 2038.69L-939.493 1989.61C-945.762 1927.03 -951.53 1862.74 -956.985 1798.93C-979.744 1533.98 -1001.25 1283.59 -1087.27 1210.78C-1222.27 1096.65 -1341.74 953.939 -1440.75 788.526C-1512.79 667.297 -1544.7 579.115 -1545.02 578.297C-1545.19 577.815 -1545.3 577.291 -1545.32 576.756C-1545.34 576.221 -1545.28 575.686 -1545.14 575.183C-1545 574.68 -1544.78 574.218 -1544.5 573.826C-1544.22 573.433 -1543.88 573.118 -1543.51 572.898C-1542.75 572.447 -1541.89 572.399 -1541.1 572.766C-1540.32 573.133 -1539.68 573.884 -1539.31 574.861C-1538.12 578.379 -1410.91 925.87 -1083.95 1203.01C-995.418 1278.02 -973.788 1530.22 -950.841 1797.13C-945.386 1860.53 -939.869 1924.41 -933.474 1986.58L-928.897 2026.83L-910.088 1987.4L-899.806 1966.22L-900.746 1957.46C-905.323 1907.73 -909.398 1857.34 -913.285 1807.11C-936.295 1524.65 -958.051 1257.82 -1052.28 1187.22C-1199.13 1077.47 -1328.62 932.249 -1433.85 759.323C-1510.91 631.386 -1544.33 535.188 -1544.64 534.206C-1544.96 533.228 -1544.97 532.126 -1544.68 531.133C-1544.39 530.14 -1543.81 529.336 -1543.07 528.889C-1542.31 528.474 -1541.45 528.463 -1540.67 528.86C-1539.9 529.257 -1539.28 530.03 -1538.93 531.016C-1538.93 531.916 -1505.45 627.459 -1428.78 754.578C-1324.05 926.494 -1195.22 1070.85 -1049.15 1179.94C-952.094 1252.66 -930.025 1521.55 -907.141 1806.13L-894.038 1954.35L-863.755 1891.61L-870.025 1816.36C-893.285 1516.23 -915.229 1232.7 -1017.67 1164.32C-1176.24 1058.86 -1315.87 910.737 -1427.33 729.711C-1509.47 595.23 -1544.39 491.015 -1544.76 489.952C-1545.08 488.964 -1545.09 487.853 -1544.78 486.859C-1544.48 485.865 -1543.89 485.066 -1543.13 484.635C-1542.76 484.406 -1542.35 484.281 -1541.93 484.265C-1541.52 484.249 -1541.1 484.343 -1540.72 484.542C-1540.33 484.741 -1539.98 485.04 -1539.68 485.421C-1539.39 485.803 -1539.15 486.259 -1539 486.762C-1539 487.907 -1503.95 591.221 -1422.26 724.884C-1311.35 904.919 -1172.46 1052.24 -1014.73 1157.12C-909.147 1227.47 -887.203 1513.12 -863.63 1815.54L-858.3 1880.41L-848.52 1860.04L-827.141 1817.34L-835.416 1707.97C-856.921 1436.55 -886.075 1199.41 -983.067 1141.58C-1153.09 1040.58 -1302.86 889.555 -1420.63 700.344C-1507.77 559.155 -1544.26 446.761 -1544.64 445.861C-1544.93 444.861 -1544.92 443.75 -1544.61 442.76C-1544.29 441.771 -1543.7 440.977 -1542.95 440.544C-1542.56 440.345 -1542.15 440.246 -1541.74 440.253C-1541.33 440.26 -1540.92 440.374 -1540.54 440.587C-1540.17 440.799 -1539.82 441.108 -1539.54 441.493C-1539.25 441.879 -1539.02 442.335 -1538.87 442.834C-1538.49 443.98 -1502.26 555.229 -1415.61 695.436C-1298.41 883.571 -1149.42 1033.75 -980.308 1134.22C-880.558 1193.85 -850.902 1432.95 -829.209 1706.82L-821.623 1806.7L-789.773 1742.98L-792.093 1711.24C-813.911 1424.94 -844.131 1174.87 -948.27 1119.17C-1129.7 1022.6 -1289.81 868.529 -1414.11 670.896C-1506.27 523.654 -1544.26 403.325 -1544.64 402.098C-1544.93 401.097 -1544.92 399.987 -1544.61 398.997C-1544.29 398.007 -1543.7 397.213 -1542.95 396.78C-1542.16 396.375 -1541.29 396.388 -1540.52 396.817C-1539.74 397.246 -1539.13 398.056 -1538.81 399.071C-1538.49 400.216 -1500.69 519.319 -1409.09 665.988C-1285.5 862.365 -1126.37 1015.5 -946.076 1111.56C-838.865 1168.82 -808.143 1420.93 -786.074 1709.61L-784.444 1732.02L-782.438 1727.93L-752.469 1671.16L-759.24 1587.97C-781.685 1341.91 -818.363 1142.48 -913.849 1096.34C-1106.57 1004.46 -1277.11 847.418 -1408.02 641.284C-1505.14 487.171 -1544.7 359.316 -1545.08 358.089C-1545.37 357.09 -1545.35 355.983 -1545.02 355.005C-1544.69 354.026 -1544.08 353.254 -1543.32 352.853C-1542.94 352.654 -1542.53 352.555 -1542.12 352.563C-1541.71 352.57 -1541.3 352.683 -1540.92 352.896C-1540.54 353.109 -1540.2 353.417 -1539.91 353.802C-1539.63 354.188 -1539.4 354.644 -1539.25 355.144C-1538.87 356.371 -1499.62 483.163 -1403.01 636.294C-1272.86 841.149 -1103.43 997.346 -911.969 1088.98C-811.654 1137.41 -774.663 1346.08 -752.03 1600.97L-747.202 1660.77L-715.039 1599.83L-725.823 1490.46C-749.961 1276.96 -790.463 1112.46 -879.492 1073.28C-1083.15 985.808 -1263.97 825.709 -1401.5 611.099C-1503.7 450.524 -1544.7 314.98 -1545.08 313.671C-1545.23 313.171 -1545.31 312.637 -1545.3 312.1C-1545.3 311.562 -1545.21 311.031 -1545.05 310.537C-1544.88 310.043 -1544.65 309.596 -1544.35 309.222C-1544.05 308.847 -1543.71 308.552 -1543.32 308.353C-1542.55 307.973 -1541.69 307.999 -1540.93 308.426C-1540.17 308.853 -1539.57 309.649 -1539.25 310.644C-1538.87 312.035 -1498.12 446.598 -1396.55 606.191C-1259.73 819.443 -1079.95 978.536 -877.486 1065.5C-785.886 1105.42 -744.443 1271.4 -719.866 1486.62L-709.71 1589.44L-686.575 1548.54L-694.098 1452.83C-713.66 1246.2 -751.779 1087.18 -844.883 1050.45C-964.291 1003.98 -1077.22 932.838 -1179.37 839.733C-1259.61 766.261 -1332.1 679.353 -1394.98 581.242C-1502.19 414.367 -1544.7 270.97 -1545.08 269.58C-1545.23 269.086 -1545.3 268.558 -1545.3 268.026C-1545.29 267.494 -1545.2 266.97 -1545.04 266.482C-1544.88 265.995 -1544.64 265.555 -1544.35 265.188C-1544.05 264.821 -1543.7 264.534 -1543.32 264.344C-1542.94 264.147 -1542.52 264.053 -1542.11 264.065C-1541.69 264.078 -1541.28 264.199 -1540.9 264.419C-1540.53 264.64 -1540.18 264.957 -1539.9 265.351C-1539.61 265.745 -1539.39 266.21 -1539.25 266.717C-1538.81 268.108 -1496.61 410.359 -1390.09 576.334C-1291.85 729.465 -1117.11 934.622 -843.065 1042.6C-747.265 1080.39 -708.08 1241.05 -688.142 1449.48L-681.057 1538.72L-647.201 1478.68L-648.267 1464.45C-669.02 1237.94 -709.396 1063.62 -810.212 1027.55C-935.671 983.392 -1054.65 912.408 -1162.32 817.483C-1246.7 742.625 -1322.87 653.101 -1388.71 551.385C-1500.81 377.966 -1544.83 226.879 -1545.45 225.407C-1545.74 224.387 -1545.7 223.263 -1545.34 222.282C-1544.99 221.3 -1544.35 220.541 -1543.57 220.172C-1543.19 219.976 -1542.78 219.882 -1542.37 219.896C-1541.96 219.91 -1541.56 220.031 -1541.18 220.252C-1540.81 220.473 -1540.47 220.79 -1540.19 221.184C-1539.92 221.577 -1539.7 222.04 -1539.56 222.544C-1539.12 224.098 -1495.67 373.958 -1383.95 546.395C-1280.94 705.416 -1097.61 916.626 -808.77 1019.78C-705.07 1056.75 -663.691 1232.46 -642.562 1461.5L-641.935 1469.68L-635.665 1458.23L-609.395 1415.37L-615.038 1364.49C-640.117 1174.22 -684.694 1034.91 -776.043 1005.38C-907.62 963.742 -1032.74 892.936 -1145.95 796.051C-1234.4 719.803 -1314.11 627.566 -1382.69 522.1C-1499.81 342.137 -1545.27 183.525 -1545.71 181.971C-1545.97 180.95 -1545.92 179.835 -1545.57 178.859C-1545.22 177.883 -1544.6 177.122 -1543.82 176.736C-1543.44 176.54 -1543.03 176.446 -1542.62 176.46C-1542.21 176.474 -1541.81 176.595 -1541.43 176.816C-1541.06 177.037 -1540.72 177.354 -1540.44 177.747C-1540.17 178.141 -1539.95 178.604 -1539.81 179.108C-1539.37 180.662 -1494.17 338.456 -1377.74 517.028C-1270.34 682.021 -1078.49 899.202 -774.726 997.445C-680.681 1027.88 -635.038 1168.41 -609.521 1360.23L-604.191 1406.37L-572.091 1354.1L-582.436 1284.81C-610.712 1122.19 -657.671 1007.43 -741.747 982.803C-879.258 943.326 -1010.39 872.639 -1129.15 773.965C-1221.69 696.172 -1305.03 601.183 -1376.55 491.997C-1498.68 305.736 -1545.45 139.353 -1545.83 137.717C-1546.1 136.696 -1546.05 135.581 -1545.7 134.605C-1545.35 133.629 -1544.72 132.868 -1543.95 132.481C-1543.56 132.287 -1543.15 132.197 -1542.74 132.217C-1542.32 132.236 -1541.92 132.364 -1541.54 132.593C-1541.17 132.822 -1540.83 133.148 -1540.56 133.55C-1540.28 133.953 -1540.07 134.424 -1539.94 134.935C-1539.44 136.571 -1492.91 301.809 -1371.47 486.68C-1259.37 657.726 -1058.99 880.961 -740.306 974.377C-653.722 999.736 -605.759 1115.65 -576.793 1279.58L-566.887 1345.51L-554.787 1325.8L-535.602 1297.57L-539.614 1271.23C-573.784 1079.82 -627.013 980.758 -707.076 959.49C-850.558 922.517 -987.744 852.046 -1112.03 751.47C-1208.62 672.378 -1295.55 574.79 -1369.9 461.976C-1496.86 269.335 -1545.45 95.262 -1545.45 93.8714C-1545.72 92.8507 -1545.67 91.7353 -1545.32 90.7594C-1544.97 89.7834 -1544.34 89.0226 -1543.57 88.636C-1542.79 88.2676 -1541.93 88.3191 -1541.18 88.7793C-1540.43 89.2394 -1539.84 90.0705 -1539.56 91.0899C-1539.06 92.8077 -1491.03 265.653 -1364.7 457.231C-1248.15 633.922 -1039.24 863.21 -705.572 951.637C-614.599 976.177 -563.94 1096.51 -533.219 1268.45L-529.896 1289.8L-499.175 1244.57L-510.523 1189.6C-546.636 1035.32 -598.737 954.5 -672.217 936.995C-821.661 902.052 -964.903 831.538 -1094.79 728.974C-1195.42 648.51 -1285.93 548.27 -1363.13 431.791C-1495.17 232.851 -1544.95 51.7437 -1545.45 49.7805C-1545.72 48.7494 -1545.66 47.6257 -1545.3 46.648C-1544.93 45.6704 -1544.29 44.9158 -1543.51 44.5451C-1542.73 44.2058 -1541.88 44.2817 -1541.14 44.7563C-1540.4 45.2308 -1539.83 46.0659 -1539.56 47.0809C-1539.06 48.8805 -1489.4 229.007 -1358.24 426.802C-1237.11 609.136 -1019.68 843.987 -671.089 928.978C-625.132 939.939 -587.702 974.705 -556.668 1035.32C-536.04 1075.48 -518.611 1126.61 -503.814 1190.33L-494.222 1237.29L-468.454 1199.33L-464.378 1194.01L-468.203 1175.77C-506.26 1014.79 -560.931 931.187 -637.484 914.418C-798.864 879.325 -947.016 809.794 -1077.8 707.624C-1182.47 625.802 -1276.53 522.846 -1356.49 402.588C-1493.48 196.941 -1544.58 7.65289 -1545.14 5.77147C-1545.4 4.74044 -1545.35 3.61668 -1544.98 2.63903C-1544.62 1.66137 -1543.98 0.906808 -1543.2 0.536084V0.20906Z" fill="#CEAF59"/>
</svg>
