<svg width="1440" height="1630" viewBox="0 0 1440 1630" fill="none" xmlns="http://www.w3.org/2000/svg">
<path opacity="0.2" fill-rule="evenodd" clip-rule="evenodd" d="M-211.675 1569.35L-205.729 1575.87L-200.83 1579.49L-205.898 1571.78L-211.675 1569.35ZM-228.095 1548.24L-220.392 1559.75L-219.513 1560.71L-217.621 1562.17L-209.884 1565.43L-217.148 1551.02L-223.905 1550.14L-228.162 1548.24H-228.095ZM-240.359 1542.82L-234.649 1549.17L-229.041 1553.58L-234.412 1545.6L-240.359 1542.96V1542.82ZM-241.034 1525.46L-232.723 1541.37L-232.216 1542.12L-225.223 1545.29L-219.581 1546.22L-219.783 1545.82L-226.54 1527.44L-240.967 1525.46H-241.034ZM-256.643 1521.63L-248.974 1533.22L-247.251 1535.11L-246.913 1535.38L-237.487 1539.78L-244.244 1525.11L-251.406 1524.14L-256.576 1521.71L-256.643 1521.63ZM-269.211 1515.81L-263.569 1522.24L-257.488 1527.05L-263.029 1518.67L-269.211 1515.81ZM-236.575 1500.65L-248.4 1502.19L-251.373 1501.75L-243.433 1520.74L-232.521 1523.04H-228.297L-236.575 1501V1500.65ZM-268.367 1499.28L-261.002 1515.1L-260.697 1515.59L-255.326 1518.23L-246.609 1520.08L-255.393 1501.18L-268.367 1499.28ZM-285.259 1494.88L-277.691 1506.42L-276.441 1507.83H-276.239L-266.103 1512.86L-272.86 1498.58L-279.617 1497.56L-285.394 1494.74L-285.259 1494.88ZM-297.523 1488.79L-292.489 1494.66L-286.509 1499.55L-291.679 1491.7L-297.523 1488.79ZM-297.523 1479.98L-302.287 1480.69L-305.125 1480.29L-304.314 1481.21L-294.483 1486.55L-297.523 1479.98ZM-282.658 1477.78L-293.841 1479.45L-289.55 1488.71L-289.009 1489.5L-285.631 1491.31L-274.989 1494.13L-282.557 1477.78H-282.658ZM-263.704 1476.19L-271.745 1477.07L-275.799 1476.76L-279.178 1477.25L-270.799 1495.32L-264.042 1497.08H-257.285L-264.042 1475.97L-263.704 1476.19ZM-296.307 1474.12L-295.631 1475.53H-290.935L-296.307 1474.25V1474.12ZM-244.007 1474.12L-260.224 1475.93L-253.467 1497.52L-240.325 1497.96L-237.859 1497.56L-244.075 1474.12H-244.007ZM-312.727 1469.1L-308.199 1476.1L-299.483 1475.79L-300.699 1473.19L-305.97 1471.96L-312.727 1469.1ZM-246.237 1465.57L-261.542 1471.74L-248.028 1470.55L-245.19 1469.85L-246.339 1465.44L-246.237 1465.57ZM-324.247 1463.68L-321.342 1467.11L-314.855 1472.71L-318.876 1466.5L-321.511 1465.39L-324.247 1463.68ZM-307.862 1457.64L-318.741 1459.14L-317.659 1461.52L-316.747 1462.93L-315.497 1463.68L-303.233 1467.69L-307.862 1457.64ZM-355.735 1454.82L-343.201 1464.69C-337.941 1468 -332.44 1470.61 -326.781 1472.49L-319.281 1474.03L-323.2 1470.68L-332.187 1459.89L-350.127 1457.37L-355.735 1454.82ZM-290.935 1452.61L-302.355 1457.02L-304.213 1457.29L-298.638 1469.36L-294.821 1470.59L-285.023 1471.61L-290.935 1452.75V1452.61ZM-272.556 1445.43L-274.076 1446.31L-287.591 1451.42L-281.138 1471.87L-276.306 1472.36L-268.907 1470.64L-265.765 1469.36L-269.921 1456.14L-272.421 1445.39L-272.556 1445.43ZM-346.208 1439.48L-348.404 1439.75L-343.066 1444.55L-346.208 1439.48ZM-370.804 1438.03L-370.533 1438.47L-363.033 1447.28L-354.114 1451.69C-348.719 1453.64 -343.201 1454.95 -337.626 1455.61H-336.816L-351.681 1442.39L-353.134 1440.58H-353.945L-370.837 1438.2L-370.804 1438.03ZM-332.559 1437.76L-341.579 1438.91L-334.62 1451.25L-332.93 1453.23L-329.079 1455.57H-324.417L-332.559 1437.94V1437.76ZM-379.858 1435.52L-373.54 1440.58L-375.635 1437.32H-376.209L-379.858 1435.6V1435.52ZM-253.265 1434.33L-269.549 1443.67L-266.948 1454.91L-262.792 1468.13L-247.352 1461.78L-249.177 1454.77L-253.265 1434.41V1434.33ZM-316.882 1432.74L-329.045 1436.88L-320.43 1455.66H-319.991L-309.855 1453.72L-311.612 1449.88L-317.018 1432.74H-316.882ZM-299.044 1425.29L-306.274 1429.13L-313.605 1431.64L-308.335 1448.34L-306.172 1453.01L-300.97 1452.04L-292.185 1448.87L-297.49 1432.03L-299.044 1425.29ZM-368.337 1419.78L-379.453 1421.02H-380.737L-373.675 1433.31L-366.412 1435.34L-357.019 1435.87L-364.891 1426.22L-368.27 1420L-368.337 1419.78ZM-395.366 1418.64L-395.095 1419.12L-387.696 1427.63L-381.513 1430.93L-379.385 1431.51L-384.385 1423.75L-386.075 1420.05L-395.366 1418.64ZM-356.884 1417.98L-359.621 1418.86L-364.486 1419.39L-362.695 1422.6L-351.918 1435.82H-350.195L-348.539 1435.6L-350.262 1432.83L-357.019 1417.8L-356.884 1417.98ZM-403.271 1417.1L-398.035 1421.5L-400.264 1417.98L-402.156 1417.71L-403.271 1417.14V1417.1ZM-279.651 1415.07L-295.936 1423.66L-294.314 1430.76L-288.942 1447.68L-280.665 1444.68L-273.637 1441.07L-279.651 1415.07ZM-342.255 1413.53L-353.979 1417.1L-343.843 1435.12L-334.484 1433.84L-339.181 1423.53L-342.323 1413.53H-342.255ZM-325.126 1406.08L-338.336 1412.34H-338.877L-335.937 1421.68L-330.802 1432.83L-318.031 1428.91L-324.788 1407.22L-325.092 1405.9L-325.126 1406.08ZM-394.521 1401.36L-404.657 1402.29H-405.028L-398.102 1414.23L-395.433 1415.11L-388.068 1415.91L-394.656 1401.41L-394.521 1401.36ZM-259.38 1401.36L-276.644 1413.22L-270.529 1439.66L-259.008 1433.75L-254.076 1430.54L-258.062 1410.53L-259.38 1401.36ZM-419.556 1400.13L-411.853 1409.21L-409.116 1410.75L-403.913 1412.47L-409.353 1403.92L-410.4 1401.58L-419.556 1400.13ZM-427.191 1398.94L-421.955 1403.35L-421.245 1403.74L-423.238 1401.41L-424.455 1399.25L-427.191 1398.81V1398.94ZM-380.196 1398.94L-387.967 1401.01L-391.345 1401.32L-389.96 1405.02L-383.203 1416.65L-380.534 1416.96L-370.398 1416.17L-380.061 1398.94H-380.196ZM-305.868 1395.81L-315.463 1401.76L-321.95 1404.84L-321.578 1406.47L-314.821 1428.51H-314.484L-300.057 1421.94L-306.003 1396.12L-305.868 1395.81ZM-367.054 1395.02L-370.229 1396.34L-376.48 1398.01L-366.547 1415.64H-364.925L-358.607 1414.14L-367.054 1394.93V1395.02ZM-350.161 1387.97L-351.377 1388.58L-363.236 1393.52L-355.803 1413.57L-348.134 1411.72L-343.336 1409.82L-350.093 1387.79L-350.161 1387.97ZM-290.901 1386.56L-302.693 1393.92L-296.645 1420.36L-294.55 1419.39L-280.428 1411.1L-284.617 1387.53L-290.901 1386.73V1386.56ZM-418.542 1383.29L-428.678 1384.75L-422.394 1395.68L-412.697 1396.47L-418.677 1383.25L-418.542 1383.29ZM-261.779 1383.29L-262.961 1383.96L-281.104 1387.75L-277.32 1409.07L-273.671 1406.92L-259.785 1397.13L-261.779 1383.29ZM-442.834 1382.55L-437.698 1388.76L-427.563 1393.78L-433.104 1384.13L-442.901 1382.55H-442.834ZM-450.706 1381.22L-448.037 1383.65L-445.908 1384.7L-448.375 1381.75L-450.638 1381.36L-450.706 1381.22ZM-402.798 1381L-415.366 1382.85L-413.914 1386.69L-408.001 1396.87L-396.818 1397.79H-396.176L-400.602 1388.01L-402.798 1381.14V1381ZM-327.829 1378.58L-322.727 1400.61L-311.747 1394.88L-306.679 1391.67L-307.22 1389.33L-308.943 1379.59L-316.376 1381.22L-327.829 1378.45V1378.58ZM-331.545 1377.74L-347.019 1386.2L-340.025 1408.55L-330.464 1404.8L-325.869 1402.38L-331.545 1377.74ZM-390.298 1376.24L-399.318 1379.81L-392.866 1396.87L-382.561 1394.36L-385.5 1389.11L-390.298 1376.24ZM-287.591 1370.6L-299.348 1377.57L-305.632 1378.98L-303.976 1388.41L-303.638 1389.86L-291.983 1382.41C-291.631 1382.17 -291.225 1382.09 -290.834 1382.19H-285.53L-287.591 1370.51V1370.6ZM-374.689 1370.03L-387.088 1374.92L-382.628 1385.5L-378.54 1392.86L-367.999 1390.3L-374.351 1369.41L-374.689 1370.03ZM-333.471 1369.41L-336.849 1371.66C-339.944 1373.13 -343.132 1374.24 -346.377 1374.97L-350.026 1375.27L-348.674 1381.14V1381.53L-332.694 1373.51L-333.64 1369.41H-333.471ZM-384.858 1369.41L-388.642 1370.74L-384.926 1369.24L-384.858 1369.41ZM-371.682 1369.41L-370.263 1374.79L-364.689 1389.86L-351.681 1383.34L-351.884 1382.72L-353.472 1375.8H-355.364C-358.275 1375.62 -361.157 1374.97 -363.945 1373.86L-371.682 1369.41ZM-442.293 1367.43H-452.429L-446.888 1377.35L-435.942 1379.2L-441.584 1369.24L-442.361 1367.21L-442.293 1367.43ZM-404.048 1367.43L-403.677 1368.75L-400.839 1376.2L-391.784 1372.59L-392.426 1370.91L-402.832 1368.4L-404.048 1367.43ZM-464.862 1367.43L-460.875 1372.37L-452.902 1376.77L-451.213 1377.04L-456.314 1367.96H-462.024L-464.862 1367.21V1367.43ZM-426.144 1365.76L-429.996 1366.81H-430.299L-432.529 1366.15L-438.374 1367.74V1368L-431.178 1380.56L-428.813 1380.96L-420.299 1379.68L-424.894 1369.55L-426.076 1365.84L-426.144 1365.76ZM-474.389 1364.79L-469.794 1367.34L-471.18 1365.62L-474.558 1364.74L-474.389 1364.79ZM-412.63 1360.64L-415.603 1362.8L-422.36 1364.7L-416.853 1379.06L-403.981 1377.12L-408.136 1364.12L-412.528 1360.6L-412.63 1360.64ZM-460.875 1360.03L-468.207 1362.14L-461.213 1364.04H-458.645L-460.875 1360.11V1360.03ZM-481.417 1358.13L-480.809 1358.7L-478.95 1359.19L-481.417 1358.13ZM-313.267 1355.4L-316.274 1358.4L-330.363 1367.91L-328.809 1374.66L-322.457 1376.95C-319.536 1377.48 -316.581 1377.61 -313.639 1377.35L-309.619 1375.98L-313.267 1355.4ZM-358.303 1354.78L-372.155 1364.96H-370.905C-366.157 1368.98 -360.679 1371.29 -355.026 1371.66H-354.384L-358.303 1354.65V1354.78ZM-450.706 1354.43L-456.449 1358.84L-457.328 1359.1L-454.625 1363.9L-443.881 1363.55L-445.064 1360.47L-450.706 1354.52V1354.43ZM-265.934 1353.94L-280.969 1367.17L-284.347 1369.19V1369.99L-282.083 1382.85H-272.522L-262.387 1378.45L-265.765 1353.5L-265.934 1353.94ZM-481.315 1353.5L-477.937 1355.13L-478.612 1353.86L-481.45 1353.5H-481.315ZM-464.76 1353.11L-474.186 1354.25L-472.328 1357.6L-470.909 1358.22L-463.037 1356.15L-464.76 1353.11ZM-486.687 1352.84L-486.147 1353.64L-485.91 1353.9L-486.62 1352.84H-486.687ZM-454.017 1351.83L-460.774 1352.62L-459.321 1355.22L-457.835 1354.83L-453.915 1351.83H-454.017ZM-399.521 1350.24L-399.96 1350.68L-406.717 1355.62L-405.569 1360.03L-400.636 1364.04L-393.879 1365.14L-399.521 1350.24ZM-483.714 1343.15L-486.552 1345.4L-484.897 1347.86L-480.876 1348.3L-483.714 1343.15ZM-504.289 1341.08L-502.465 1343.24L-496.046 1345.84L-498.816 1342.31L-499.255 1341.47L-504.289 1341.08ZM-434.219 1338.79L-441.347 1346.59L-445.03 1349.36L-442.09 1357.03L-441.212 1357.96L-432.191 1360.73L-427.664 1359.45L-434.219 1338.79ZM-523.209 1336.85L-524.864 1338.83L-526.723 1340.37L-519.966 1349.19C-517.46 1351.44 -514.55 1352.8 -511.519 1353.15L-500.032 1350.42L-502.532 1348.79L-504.188 1346.85L-513.04 1343.19L-520.506 1337.55L-523.142 1336.71L-523.209 1336.85ZM-339.383 1334.91L-355.161 1351.12L-350.668 1370.56L-346.14 1370.21C-343.012 1369.44 -339.938 1368.34 -336.951 1366.9L-334.079 1364.92L-339.383 1334.91ZM-529.662 1334.25L-528.513 1336.89L-527.804 1336.32L-527.196 1335.57L-528.04 1335.3L-529.662 1334.25ZM-383.777 1333.81L-396.818 1347.42L-390.061 1365.62H-388.777L-376.818 1361.48L-379.351 1353.06L-383.743 1333.58L-383.777 1333.81ZM-292.151 1333.1L-293.706 1335L-310.159 1351.52L-306.172 1374L-294.314 1369.99L-287.962 1365.58L-292.151 1333.28V1333.1ZM-473.038 1331.16L-481.079 1340.42L-476.45 1348.79L-474.051 1349.1L-466.551 1348.08L-473.038 1331.16ZM-518.107 1330.68L-520.033 1333.01L-519.695 1333.28L-514.594 1334.82L-517.972 1330.68H-518.107ZM-557.231 1322.83L-566.826 1334.91L-563.447 1341.56C-560.737 1345.92 -556.887 1348.83 -552.636 1349.71C-548.717 1350.17 -544.776 1349.26 -541.217 1347.07L-531.52 1339.23L-534.46 1332.79C-539.587 1331.58 -544.627 1329.81 -549.528 1327.5L-557.231 1322.83ZM-510.269 1321.2L-515.641 1327.68L-508.344 1336.49L-501.823 1336.89L-510.269 1321.38V1321.2ZM-419.049 1320.85L-424.86 1328.65L-431.347 1335.74L-427.157 1350.82L-424.184 1358.48L-413.474 1355.49L-410.974 1353.59L-412.056 1350.15L-419.049 1320.85ZM-552.839 1317.41L-554.055 1318.95L-547.534 1323.36L-543.345 1324.77L-550.44 1320.01L-552.839 1317.24V1317.41ZM-459.963 1314.46L-467.125 1324.46L-470.504 1328.16L-463.51 1346.76L-463.004 1347.64L-452.868 1346.28C-452.573 1346.21 -452.271 1346.25 -451.992 1346.39C-451.713 1346.53 -451.467 1346.77 -451.28 1347.07L-450.334 1348.13L-449.625 1347.55L-454.794 1334.07L-460.267 1314.46H-459.963ZM-587.3 1314.06L-597.807 1327.28L-605.274 1333.76L-604.192 1336.32C-603.003 1338.78 -601.444 1340.9 -599.609 1342.55C-597.774 1344.2 -595.701 1345.35 -593.516 1345.92C-589.895 1346.52 -586.218 1345.77 -582.908 1343.77L-570.981 1333.98L-574.765 1323.32L-587.3 1313.93V1314.06ZM-365.736 1310.58L-381.243 1330.5L-380.466 1334.42L-373.709 1360.07L-359.148 1349.23L-360.905 1341.56L-365.77 1310.71L-365.736 1310.58ZM-319.18 1309.48L-319.754 1310.27L-336.647 1331.21L-331.106 1362.54L-317.153 1352.98L-313.977 1349.71L-314.247 1348.22L-319.247 1309.48H-319.18ZM-410.4 1308.82L-416.448 1316.93L-413.508 1330.85L-407.967 1351.04L-400.737 1345.62L-409.994 1310.8L-410.4 1308.82ZM-547.061 1308.29L-550.44 1313.36L-541.385 1322.17L-531.892 1327.77L-547.095 1308.33L-547.061 1308.29ZM-271.475 1307.28L-289.212 1329.31L-284.854 1363.02L-273.367 1354.69L-266.61 1347.78L-269.988 1324.9L-271.745 1307.28H-271.475ZM-499.931 1305.91L-508.039 1317.81L-505.066 1324.55L-496.654 1336.8L-492.802 1337.07C-492.506 1337.06 -492.213 1337.16 -491.952 1337.34C-491.692 1337.53 -491.473 1337.8 -491.316 1338.12L-488.816 1341.83L-485.674 1339.36L-490.606 1330.54L-499.931 1305.95V1305.91ZM-579.597 1303.13L-582.131 1307.1L-584.935 1310.67L-572.806 1319.48C-572.401 1319.73 -572.087 1320.17 -571.927 1320.72L-568.549 1330.72L-560.339 1320.58L-563.549 1318.65L-579.63 1303L-579.597 1303.13ZM-626.187 1297.89L-632.944 1308.91L-644.16 1323.98L-641.187 1329.49C-637.753 1335.03 -632.795 1338.6 -627.369 1339.45C-623.025 1339.83 -618.679 1338.72 -614.767 1336.23L-609.834 1332.04L-611.321 1328.74C-612.946 1323.92 -614.301 1318.96 -615.375 1313.89L-626.187 1297.89ZM-538.784 1295.69L-544.865 1304.9L-527.702 1326.93L-523.108 1330.46L-520.641 1327.5L-524.392 1323.1L-538.784 1295.73V1295.69ZM-445.469 1292.91L-449.962 1299.96L-457.53 1310.63L-451.483 1332.31L-446.55 1345.13L-443.172 1342.44L-435.739 1334.25L-436.415 1332.13C-439.455 1320.89 -442.293 1309.13 -444.861 1296.88L-445.469 1292.91ZM-572.468 1291.98L-577.265 1299.52L-571.083 1306.88L-557.028 1316.71L-556.454 1315.96L-555.406 1314.37L-565.542 1302.74L-572.299 1291.98H-572.468ZM-487.126 1286.12L-493.174 1296.04L-497.498 1302.38L-488.072 1327.46L-483.106 1336.49L-474.626 1326.75L-478.815 1315.78L-487.126 1286.12ZM-392.899 1282.91L-407.021 1304.32L-407.697 1305.21L-407.055 1308.47L-398.001 1342.71L-384.858 1328.65L-388.237 1314.15L-393.034 1282.91H-392.899ZM-346.444 1282.91L-362.83 1306.7L-357.526 1340.46L-356.141 1346.5L-340.532 1330.28L-340.228 1329.93L-340.904 1326.18L-346.444 1282.91ZM-298.571 1280.75L-298.976 1281.36L-316.274 1305.47L-310.936 1346.81L-295.125 1330.72L-292.827 1327.86L-297.658 1290.44L-298.571 1280.75ZM-614.868 1278.94L-617.538 1283.79L-624.058 1294.45L-612.74 1311.11C-612.501 1311.39 -612.335 1311.76 -612.267 1312.17C-611.293 1316.9 -610.063 1321.54 -608.584 1326.05L-607.03 1329.71L-600.544 1324.2L-590.408 1310.98L-600.949 1300L-615.004 1278.76L-614.868 1278.94ZM-563.515 1277.75L-565.001 1280.35L-570.306 1288.68L-569.968 1289.34C-566.421 1295.16 -562.548 1300.62 -558.38 1305.69L-553.041 1310.85L-549.426 1305.34L-550.17 1304.41L-563.515 1277.97V1277.75ZM-527.871 1277.49L-536.52 1292.2L-522.094 1319.84L-518.141 1324.51L-512.702 1317.99L-512.229 1317.32L-515.236 1311.82C-519.738 1301.54 -523.733 1290.9 -527.196 1279.95L-527.871 1277.49ZM-663.722 1274.58L-669.094 1284.8C-674.026 1293.61 -678.7 1301.58 -683.115 1308.69L-687.98 1315.61L-684.331 1326.05C-683.178 1329.1 -681.529 1331.79 -679.499 1333.93C-677.468 1336.07 -675.105 1337.61 -672.574 1338.43C-666.155 1339.84 -658.62 1335.17 -649.938 1325.21L-648.519 1323.36L-649.904 1320.89C-652.195 1315.61 -654.183 1310.12 -655.85 1304.46L-663.722 1274.58ZM-428.847 1266.42L-431.11 1270.26L-442.834 1288.77L-437.192 1314.94L-432.698 1331.07L-426.651 1324.37L-420.299 1315.56L-420.84 1313.27L-428.914 1266.51L-428.847 1266.42ZM-605.611 1262.02L-612.875 1275.24L-598.381 1297.27L-587.84 1308.2L-584.766 1304.32L-582.401 1300.58L-582.739 1300.27C-587.438 1294.44 -591.776 1288.13 -595.712 1281.41L-605.611 1262.02ZM-472.295 1261.49L-474.997 1266.2L-484.66 1282.16L-476.045 1313.01L-472.024 1323.67L-469.693 1320.98L-461.382 1309.35L-464.321 1298.99C-466.911 1288.33 -469.31 1277.24 -471.518 1265.72L-472.295 1261.49ZM-552.636 1258.54L-561.386 1274L-547.872 1301.28L-547.298 1302.03L-540.541 1291.98L-552.602 1258.54H-552.636ZM-514.594 1254.13L-519.087 1262.37L-525.405 1273.12L-518.851 1293.48L-509.864 1313.67L-501.553 1301.55L-503.039 1297.63C-506.35 1287.37 -509.402 1276.55 -512.195 1265.15L-514.594 1254.13ZM-374.182 1252.9L-387.696 1274.67L-390.534 1279.07L-388.102 1296.7L-382.392 1325.52L-366.716 1305.16L-373.27 1263.38L-374.351 1252.98L-374.182 1252.9ZM-420.434 1252.01L-426.178 1261.8L-420.975 1295.42L-417.596 1311.9L-411.515 1303.66L-417.427 1274.09L-420.535 1252.06L-420.434 1252.01ZM-325.835 1250.96L-343.471 1278.5L-337.525 1325.21L-337.323 1326.23L-321.41 1306.31L-319.754 1304.02L-323.977 1271.32L-325.835 1250.96ZM-651.12 1250.47L-653.451 1255.14L-661.256 1269.95L-652.64 1302.96C-651.078 1308.21 -649.238 1313.32 -647.133 1318.25L-646.052 1320.28L-635.917 1307.06L-628.281 1294.63L-635.511 1283.92C-641.06 1273.81 -646.061 1263.21 -650.478 1252.19L-651.12 1250.47ZM-277.049 1248.44L-295.53 1276.16L-294.28 1289.65L-289.82 1324.07L-271.948 1302.03L-276.509 1255.98L-277.049 1248.62V1248.44ZM-594.935 1241.66L-600.476 1252.5L-603.314 1257.74L-597.402 1270.3C-594.114 1276.46 -590.538 1282.35 -586.692 1287.93L-579.766 1296.21L-574.664 1288.24L-575.846 1286.39C-581.082 1277.03 -585.736 1267.14 -589.766 1256.82L-594.935 1241.66ZM-539.088 1233.51L-546.318 1247.3L-550.237 1254.26V1254.88L-538.412 1287.93L-529.324 1272.51L-537.298 1243.68L-539.257 1233.51H-539.088ZM-455.571 1231.96L-469.626 1256.73L-468.24 1264.66C-466.011 1276.08 -463.646 1287.14 -461.044 1297.71L-458.78 1305.78L-452.023 1296.52L-446.246 1287.4L-451.652 1258.67L-455.402 1231.96H-455.571ZM-499.188 1226.1L-499.931 1227.47L-512.026 1249.5L-509.188 1262.72C-506.418 1274 -503.445 1284.76 -500.201 1294.94L-499.053 1297.98L-495.674 1293.26L-488.241 1281.06L-495.978 1245.23L-499.019 1226.1H-499.188ZM-638.822 1225.62L-648.958 1246.11L-647.606 1249.99C-643.223 1260.9 -638.256 1271.4 -632.741 1281.41L-626.22 1291.02L-620.477 1281.63L-617.098 1275.41L-619.632 1271.58C-624.79 1261.92 -629.43 1251.8 -633.518 1241.31L-638.822 1225.62ZM-401.515 1219.49L-410.603 1235.49L-417.596 1247.39L-414.218 1272.02L-408.677 1300L-393.778 1277.4L-399.656 1239.23L-401.616 1219.58L-401.515 1219.49ZM-353.371 1218.17L-366.344 1240.2L-371.141 1248.05L-369.655 1262.46L-363.607 1301.06L-347.086 1277L-350.465 1251.84L-353.506 1218.13L-353.371 1218.17ZM-582.57 1217.33L-592.705 1237.56L-589.935 1246.11C-587.04 1254.07 -583.838 1261.84 -580.34 1269.38L-572.164 1284.67L-567.265 1277L-565.204 1273.39L-576.995 1239.85L-582.401 1217.33H-582.57ZM-304.213 1215.92L-322.288 1245.4L-322.896 1246.33L-320.666 1270.65L-316.882 1299.96L-300.936 1277.62L-299.044 1274.8L-303.47 1226.85L-304.213 1215.92ZM-523.817 1204.33L-526.114 1209L-536.757 1229.27L-536.318 1231.48C-534.065 1242.05 -531.554 1252.22 -528.784 1261.97L-526.689 1268.5L-522.702 1261.75L-515.573 1248.53L-519.729 1229.45L-523.817 1204.16V1204.33ZM-626.896 1201.2L-636.086 1220.37L-636.491 1221.21L-630.477 1238.84C-626.445 1249.23 -621.861 1259.24 -616.76 1268.8L-614.936 1271.58L-607.402 1257.79L-617.943 1230.77L-626.896 1201.03V1201.2ZM-437.698 1199.7L-452.733 1227.2L-444.287 1280.57L-443.678 1283.39L-433.306 1266.51L-429.928 1260.61L-433.002 1242.5L-438.104 1199.66L-437.698 1199.7ZM-482.261 1194.37L-496.316 1221.08L-492.938 1243.11L-485.741 1276.87L-477.362 1263.08L-473.106 1255.63L-477.531 1230.2L-482.363 1194.37H-482.261ZM-568.414 1188.91L-580.002 1212.57L-574.09 1237.38L-562.94 1269.38L-553.852 1253.29L-560.88 1227.16L-568.414 1188.91ZM-428.779 1183.22L-433.611 1192.04L-434.894 1194.37L-431.178 1227.47L-426.82 1255.85L-420.975 1245.98L-426.786 1204.46L-428.779 1183.05V1183.22ZM-380.568 1182.65L-388.338 1196.62L-398.474 1214.69L-397.528 1224.78L-390.771 1273.26L-388.71 1270.17L-374.385 1246.81L-379.25 1199.57L-380.432 1182.56L-380.568 1182.65ZM-331.309 1180.76L-343.404 1201.6L-350.161 1213.15L-346.782 1251.27L-344.046 1272.77L-326.241 1244.83L-329.417 1210.02L-331.342 1180.76H-331.309ZM-281.813 1179.21L-298.706 1207.11L-301.071 1210.99L-300.023 1226.28L-295.969 1270.35L-279.077 1244.74L-277.556 1242.36L-282.083 1179.26L-281.813 1179.21ZM-612.909 1172.29L-616.963 1180.89L-624.328 1196.27L-623.957 1197.94C-619.348 1215.67 -613.642 1232.89 -606.895 1249.41L-604.868 1253.82L-602.942 1250.3L-596.185 1237.07L-601.557 1221.17L-612.909 1172.69V1172.29ZM-506.891 1171.06L-520.979 1199.13L-516.452 1227.47L-512.837 1244.13L-503.174 1226.5L-499.796 1220.06L-505.404 1184.81L-506.891 1170.97V1171.06ZM-463.815 1159.21L-478.95 1188.38L-479.39 1189.22L-474.018 1229.27L-470.267 1251L-457.226 1228.04L-456.078 1225.97L-460.132 1197.02L-463.815 1159.21ZM-552.4 1156.25L-561.015 1173.88L-565.779 1183.62L-557.738 1224.74L-551.318 1248.8L-548.345 1243.6L-539.899 1227.47L-548.649 1182.65L-552.4 1156.21V1156.25ZM-407.63 1144.13L-410.535 1149.51L-425.772 1177.85L-423.407 1203.01L-418.103 1241.48L-412.393 1231.83L-401.818 1213.19L-405.197 1178.46L-407.494 1144.13H-407.63ZM-358.506 1143.43L-364.52 1154.14L-377.358 1177.19L-375.871 1199.22L-371.446 1242.27L-367.695 1236.19L-353.573 1212.22L-355.33 1192.96L-358.506 1143.65V1143.43ZM-308.909 1142.28L-318.808 1159.34L-328.167 1175.51L-325.903 1209.44L-323.099 1240.29L-304.314 1209.71L-308.909 1142.37V1142.28ZM-597.807 1140.26L-610.544 1167.23L-598.415 1219.32L-594.091 1232.54L-583.955 1212.93L-583.347 1211.74L-591.151 1179.08L-597.638 1140.04L-597.807 1140.26ZM-488.681 1134.22L-504.053 1165.42L-502.161 1183.27L-497.161 1215.04L-482.937 1188.11L-484.93 1173.35L-488.681 1134.22ZM-444.76 1122.54L-456.72 1145.63L-461.281 1154.45L-460.571 1162.16C-458.747 1180.18 -456.72 1197.85 -454.49 1215.04L-453.476 1221.34L-438.307 1193.53L-439.32 1184.72L-444.76 1122.45V1122.54ZM-534.628 1119.46L-538.717 1127.96L-549.832 1150.96L-542.568 1198.65L-537.669 1223.46L-528.209 1205.39L-524.56 1198.16L-528.851 1171.72L-534.628 1119.59V1119.46ZM-580.914 1104.6L-595.205 1134.79L-588.178 1177.32L-581.117 1207.11L-569.36 1183.13L-572.198 1168.68C-574.732 1153.3 -576.961 1137.39 -578.955 1121.13L-580.914 1104.6ZM-385.838 1103.81L-404.724 1138.8L-402.9 1167.14L-399.014 1208.3L-390.467 1193.23L-380.872 1176L-385.838 1103.81ZM-286.34 1103.81L-305.835 1137.3L-301.24 1204.86L-300.125 1203.05L-282.083 1173.13L-283.942 1147.48L-286.34 1103.81ZM-336.14 1103.81L-355.431 1138.23L-351.884 1192.52L-350.566 1207.28L-345.194 1198.16L-331.68 1174.63L-335.701 1114.43L-336.241 1103.81H-336.14ZM-434.725 1103.5L-441.888 1117.3L-437.158 1173.31L-435.435 1188.56L-429.218 1177.01L-431.82 1149.33L-434.725 1103.5ZM-469.862 1096.36L-481.113 1119.24L-485.809 1128.8L-481.586 1172.87L-480.2 1183.18L-464.423 1152.77L-469.727 1097.73V1096.28L-469.862 1096.36ZM-516.317 1081.78L-531.858 1113.99L-525.642 1170.22L-521.959 1193.27L-507.566 1164.63L-515.911 1086.84L-516.317 1081.78ZM-562.67 1066.4L-566.049 1073.32L-578.583 1099.05L-576.184 1119.94C-574.157 1136.07 -571.927 1151.89 -569.427 1167.18L-567.231 1178.33L-563.853 1171.68L-553.481 1150.17L-555.846 1133.47L-562.907 1066.35L-562.67 1066.4ZM-313.301 1063.53L-320.058 1075.25L-332.93 1098.3L-332.119 1114.04L-328.437 1169.39L-321.308 1157.05L-309.179 1136.2L-309.754 1127.83L-313.132 1063.53H-313.301ZM-363.202 1062.43L-365.33 1066.22L-382.764 1098.48V1098.79L-377.831 1170.8L-367.256 1151.85L-358.945 1136.99L-361.31 1100.64L-363.236 1062.43H-363.202ZM-412.697 1061.55L-431.685 1097.73L-428.543 1148.06L-426.347 1171.63L-413.272 1147.31L-408.035 1137.66L-411.718 1082.92L-412.697 1061.55ZM-449.861 1056.09L-459.591 1075.61L-466.788 1090.24L-465.571 1107.34L-461.855 1147.97L-459.49 1143.56L-445.334 1116.28L-447.26 1093.85L-449.861 1056.26V1056.09ZM-496.654 1041.54L-513.344 1075.74L-512.533 1085.88L-504.729 1158.94L-489.289 1127.65L-494.12 1082.75L-497.194 1041.37L-496.654 1041.54ZM-438.577 1033.48L-446.888 1050.14L-444.354 1087.33L-442.428 1110.51L-437.124 1100.29L-435.131 1096.5L-437.293 1062.3L-438.577 1033.48ZM-543.311 1026.6L-559.562 1060.32L-556.927 1090.15L-550.575 1144.97L-541.385 1125.93L-535.203 1113.07L-539.122 1077.46L-543.311 1026.6ZM-290.564 1024.84L-310.024 1058.2L-306.341 1127.43L-306.105 1131L-286.543 1097.38L-289.922 1036.21L-290.564 1024.84ZM-340.194 1021.89L-359.891 1056.83L-357.729 1100.24L-355.702 1131.53L-336.309 1096.94L-340.194 1022.02V1021.89ZM-389.859 1019.77L-409.522 1055.82L-408.508 1076.97L-404.961 1132.28L-386.075 1097.29L-389.859 1019.77ZM-476.484 1001.66L-492.093 1032.51L-493.579 1035.55L-490.201 1082.44L-486.417 1122.1L-483.951 1117.08L-470.436 1089.36L-476.72 1001.88L-476.484 1001.66ZM-415.907 989.806L-435.333 1027.31L-433.813 1061.55L-431.955 1090.72L-413.238 1055.03L-412.866 1054.41L-415.907 989.806ZM-523.648 986.501L-532.838 1004.88L-540.406 1020.57L-535.811 1076.4L-532.432 1107.25L-518.918 1079.04L-516.79 1074.64L-523.75 986.501H-523.648ZM-317.558 981.565L-337.187 1016.38L-333.302 1091.3L-322.119 1071.33L-313.571 1056.66L-315.193 1026.21L-317.558 981.433V981.565ZM-367.29 978.216L-386.784 1014L-383 1091.47L-367.898 1063.49L-363.438 1055.6L-365.905 1006.29L-367.29 978.216ZM-456.247 961.558L-473.578 995.799L-467.261 1083.06L-462.092 1072.57L-450.3 1048.9L-453.679 999.633L-456.247 961.558ZM-393.474 946.354L-412.934 983.901V984.429L-409.927 1048.81L-390.298 1012.77L-391.142 995.623L-393.507 946.354H-393.474ZM-503.614 946.354L-520.743 980.64L-520.506 983.768L-513.749 1068.73L-497.059 1034.49L-500.438 989.189L-503.546 946.354H-503.614ZM-295.023 944.195L-314.484 976.189L-311.814 1026.07L-310.463 1051.5L-291.003 1018.14L-295.023 944.195ZM-344.552 938.51L-359.182 963.32L-364.148 972.487L-362.492 1006.07L-360.296 1050.14L-340.633 1015.23L-344.552 938.598V938.51ZM-442.935 935.337L-453.24 955.697L-450.3 999.281L-447.327 1043L-439.016 1026.29V1025.99L-441.415 973.412L-443.104 935.337H-442.935ZM-483.477 907.309L-497.397 933.75L-500.776 940.493L-497.397 988.969L-494.458 1028.63L-477.329 994.874V994.61C-478.95 970.812 -480.707 947.148 -482.261 924.1L-483.477 907.309ZM-371.209 905.591L-387.156 933.971L-390.534 940.317L-387.899 995.358L-387.325 1006.99L-367.864 971.253L-370.364 920.442L-371.277 905.591H-371.209ZM915.571 904.048L913.273 907.045C870.434 960.941 825.736 1008.93 777.862 1042.12C727.184 1077.37 684.412 1102.93 639.613 1114.74C420.92 1173.31 257.062 1274.8 73.9794 1465.31C-15.8894 1558.82 -87.7505 1605 -143.767 1605C-151.548 1605.11 -159.316 1604.15 -166.943 1602.14L-182.721 1595.71L-176.437 1602.58C-170.843 1607.65 -164.866 1611.96 -158.598 1615.45C-96.7375 1649.73 -8.18628 1602.23 112.157 1470.77C202.668 1371.88 288.888 1302.08 383.723 1251.09C473.355 1202.97 564.17 1174.45 672.959 1146.43C760.192 1123.95 844.216 1041.72 925.976 936.219L928.544 932.781L921.787 918.899L915.537 904.048H915.571ZM-322.322 900.523L-341.579 933.222L-337.66 1009.64L-318.065 974.866L-320.396 931.107L-322.322 900.523ZM-420.671 894.221L-439.928 929.476L-438.003 973.545L-435.874 1020.39L-416.448 982.887L-419.826 908.411L-420.637 894.618L-420.671 894.221ZM933.139 881L918.037 900.831L924.456 916.079L930.943 929.564L946.586 908.72L933.071 881H933.139ZM901.313 870.292L883.306 892.635C842.054 941.11 797.424 984.429 748.671 1010.83C739.989 1015.54 731.238 1020.35 722.792 1025.02C682.756 1047.05 644.917 1068.12 605.287 1079C365.411 1145.1 191.214 1301.86 33.5385 1456.49C-50.2828 1538.72 -117.819 1579.4 -170.997 1579.4C-179.168 1579.52 -187.324 1578.49 -195.323 1576.32L-199.377 1574.6L-192.417 1585.08L-190.999 1586.67L-187.789 1589.01C-128.259 1623.25 -43.3231 1581.65 71.851 1461.82C255.406 1270.88 419.839 1169.03 638.903 1110.55C683.297 1098.74 725.9 1073.14 776.24 1038.28C823.844 1005.32 868.339 957.46 911.043 903.74L913.881 900.038L901.313 870.292ZM-463.206 868.838L-480.538 901.713L-478.815 922.91L-474.22 989.013L-456.855 954.771L-458.814 925.598L-463.206 869.014V868.838ZM-349.012 866.193L-368.101 900.126L-366.918 919.516L-364.655 965.48L-361.85 960.368L-344.958 931.812L-345.296 925.686L-348.945 866.193H-349.012ZM-300.361 863.593L-302.49 866.811L-319.383 895.367L-317.153 930.622L-315.058 969.667L-295.631 937.717V936.659C-297.05 912.245 -298.571 888.184 -300.294 864.871L-300.361 863.593ZM950.741 857.864L935.808 877.475L948.511 905.15L960.302 889.461L963.951 884.262L950.167 857.82L950.741 857.864ZM-398.677 854.295L-417.63 888.757L-416.583 907.177L-413.407 976.585L-393.946 939.039L-395.129 914.404L-398.508 854.295H-398.677ZM918.949 848.61L904.016 867.119L916.483 896.777L931.45 877.167L930.2 874.61L918.949 848.61ZM-447.733 841.25L-458.949 861.081L-460.098 863.285L-455.301 924.496L-453.679 948.646L-443.205 928.021L-444.388 901.58L-447.767 841.339L-447.733 841.25ZM888.306 837.328L859.048 872.099C817.627 918.194 771.949 958.253 720.021 979.714C701.44 987.47 682.858 996.284 665.12 1004.79C633.16 1020.08 602.989 1034.54 571.468 1043.35C361.154 1102.97 200.607 1253.6 58.9788 1386.51C36.3088 1407.84 15.058 1427.94 -6.69971 1447.68C-84.4059 1518.59 -147.213 1553.71 -197.418 1553.71L-212.216 1551.77L-204.749 1566.27L-203.533 1568.07L-194.377 1571.95C-138.969 1586.63 -64.6415 1547.36 31.6803 1452.97C189.66 1298.02 364.026 1141.23 604.847 1074.77C644.14 1064.02 681.844 1043.17 721.711 1021.09C730.157 1016.42 738.907 1011.58 747.624 1006.86C796.038 980.683 840.432 937.673 881.481 889.33L899.86 866.502L893.543 851.518L888.306 837.417V837.328ZM968.715 833.45L955.741 851.562L953.68 854.251L960.032 868.22L967.059 881.133L982.263 859.715L979.594 855.308L968.715 833.583V833.45ZM-327.525 829.043L-331.917 836.007L-345.87 860.817L-341.85 925.069V926.435L-322.693 893.868L-324.687 862.36L-327.626 829.043H-327.525ZM936.045 826.135L923.713 842.705L921.686 845.173L931.821 868.529L934.186 873.553L949.052 854.031L948.241 852.488L936.045 826.047V826.135ZM905.232 816.528L899.219 824.328L890.975 834.156L896.381 848.742L902.462 863.197L917.361 844.688L905.536 817.321L905.232 816.528ZM-377.02 816.528L-382.324 825.033L-395.332 848.742L-391.48 913.567L-390.568 933.045L-388.845 929.696L-371.378 898.848L-374.453 848.169L-377.02 816.705V816.528ZM985.27 810.579L971.114 830.277L982.229 852.312L984.628 856.41L999.189 834.64L985.033 811.328L984.493 810.314L985.27 810.579ZM875.873 803.748L838.709 846.494C795.903 891.885 747.252 931.107 691.304 948.293C665.627 956.182 640.39 967.023 615.997 977.511C590.354 988.528 563.832 999.853 537.581 1007.43C347.877 1062.78 201.62 1203.89 72.5605 1328.39C30.5992 1368.88 -9.06476 1407.14 -46.9043 1438.95C-108.9 1491.09 -161.2 1520.26 -204.817 1526.74L-221.709 1528.06L-214.952 1545.69L-214.31 1547.01L-200.391 1549.26C-150.422 1550.89 -87.0412 1516.03 -8.28772 1444.02C13.301 1424.23 34.6872 1404.36 57.3571 1382.94C199.255 1249.63 360.107 1098.7 571.062 1038.85C602.347 1030.04 632.416 1015.67 664.276 1000.43C682.148 991.877 700.629 983.064 719.312 975.307C770.767 953.978 816.141 914.14 857.392 868.265L887.09 833.01L876.143 803.572L875.873 803.748ZM-426.448 803.748L-444.692 836.094L-444.422 839.576C-443.104 859.495 -441.989 879.987 -441.043 900.831L-440.097 922.381L-420.873 887.523L-423.407 843.454L-426.516 803.792L-426.448 803.748ZM953.478 803.043L939.119 822.257L951.957 850.461L953.444 848.522L966.958 829.793L953.444 803.043H953.478ZM-306.578 794.978L-325.194 824.328L-321.815 861.787L-320.126 888.713L-305.294 863.549L-301.273 857.468L-306.341 796.477V794.978H-306.578ZM921.078 794.978L907.293 812.958L910.3 820.538L919.321 841.427L920.841 839.576L933.578 822.477L922.936 799.474L921.078 795.067V794.978ZM1002.16 786.165L987.668 806.392L1001.66 831.556L1016.69 809.521L1002.16 786.297V786.165ZM891.651 783.3L878.812 799.738L877.866 800.795L888.745 830.145L896.381 821.067L902.935 812.518L891.651 783.3ZM-356.479 782.331L-374.689 811.725L-371.817 846.627L-368.945 893.252L-349.891 859.363L-354.789 797.931L-356.479 782.331ZM968.782 781.626L955.268 799.826L968.613 826.532L982.634 806.965L968.816 781.626H968.782ZM937.903 773.252L924.389 790.88L936.855 818.291L951.079 799.165L938.004 773.076L937.903 773.252ZM863.372 769.904L859.453 774.839C806.174 838.563 742.252 899.729 661.505 917.137C629.95 923.923 598.935 936.086 569.001 947.985C547.244 956.534 524.776 965.392 502.613 971.914C320.679 1026.03 174.119 1174.98 56.3435 1294.72C4.58447 1347.29 -44.3029 1396.96 -88.1561 1430.23C-135.962 1466.45 -177.721 1489.06 -213.939 1498.09L-233.027 1500.56V1501L-224.615 1523.04L-207.722 1522.55C-164.409 1516.69 -112.042 1487.69 -49.6746 1435.16C-12.0041 1403.57 27.626 1365.23 69.5536 1324.99C198.85 1200.23 345.512 1058.82 535.79 1003.29C561.906 995.755 588.326 984.429 613.902 973.456C638.362 962.968 663.668 952.083 689.479 944.151C744.887 927.096 793.234 888.051 835.77 842.793L873.508 799.518L866.751 781.89L863.001 769.904H863.372ZM-406.278 768.537L-418.475 788.456L-424.049 798.372L-420.671 841.823L-418.373 881.793L-399.42 847.376V845.657C-400.771 826.091 -402.258 807.009 -403.981 788.368L-406.278 768.537ZM907.8 762.5L894.286 779.687L905.705 808.684L919.456 790.792L907.699 762.5H907.8ZM1019.29 762.5L1010.41 774.883L1004.83 782.639L1019.29 805.731L1034.29 783.697L1019.29 762.588V762.5ZM985.506 759.151L973.58 775.28L971.857 777.572L985.776 802.602L1000.14 782.551L985.506 759.151ZM953.849 752.408L948.579 759.371L940.47 769.947L953.511 796.036L967.026 777.924L961.282 767.391L953.883 752.408H953.849ZM879.184 749.985L866.109 766.51L870.13 779.378L876.481 796.521L876.751 796.168L890.265 779.026L881.448 756.198L879.285 749.985H879.184ZM-335.667 748.839L-353.337 777.351L-352.492 784.446C-350.465 805.07 -348.708 826.399 -347.12 848.301L-346.782 853.942L-334.045 831.291L-328.538 822.477L-333.538 765.717L-335.667 748.706V748.839ZM923.916 742.008L910.165 759.635L922.598 786.914L936.112 769.287L930.504 758.049L923.747 742.008H923.916ZM1036.02 738.923L1021.49 759.283L1036.42 780.348L1045 767.656L1051.42 757.961L1036.02 738.923ZM1001.89 737.028L987.973 755.801L1002.57 779.158L1007.77 771.887L1016.86 759.195L1006.22 744.211L1001.89 737.028ZM-385.771 735.265L-403.237 763.778L-401.515 778.849L-396.311 841.912L-385.264 821.904L-378.034 810.226L-379.892 787.663C-381.514 770.623 -383.327 754.112 -385.331 738.13L-385.771 735.265ZM852.493 734.384L821.648 770.785C770.97 825.738 709.041 875.315 632.72 885.627C595.557 890.607 559.17 903.916 523.932 916.784C505.789 923.394 487.038 930.269 468.625 935.822C288.786 990.555 144.624 1145.81 28.876 1270.74C-30.9915 1335.26 -82.6152 1390.96 -128.36 1421.41C-153.248 1438.39 -179.255 1452.42 -206.067 1463.32L-240.122 1473.77L-233.906 1497.04L-214.04 1493.77C-178.329 1484.96 -137.077 1462.44 -89.7778 1426.53C-46.1272 1393.52 2.6925 1343.81 54.3502 1291.32C172.362 1171.37 319.294 1022.06 501.904 967.727C523.965 961.249 546.399 952.436 568.089 943.931C598.158 932.076 629.24 919.869 661.032 913.083C740.968 895.852 804.451 835.081 857.426 771.71L862.156 765.761L852.426 734.561L852.493 734.384ZM969.999 731.079L956.485 749.059L958.208 752.761L969.999 774.046L971.316 772.283L983.513 755.845L980.945 751.747L970.1 731.079H969.999ZM894.894 730.154L882.056 746.371L890.434 769.639L892.799 775.632L906.313 758.534L899.556 742.581L894.894 730.154ZM939.119 722.442L927.936 736.896L926.416 738.835L933.173 755.537L938.443 766.113L946.079 756.154L951.856 748.53L939.018 722.442H939.119ZM-315.734 717.33L-319.484 722.706L-332.795 744.211L-330.227 765.056L-325.565 817.938L-307.085 788.765L-313.402 732.401L-315.734 717.33ZM867.629 716.58L855.163 731.255L864.791 762.103L877.799 745.709L867.663 716.404L867.629 716.58ZM1052.6 715.787L1038.35 735.706L1053.62 754.611L1068.11 732.577L1055.24 718.96L1052.6 715.699V715.787ZM1018.82 715.126L1007.37 729.757L1004.36 733.811L1008.75 741.171L1019.26 755.978L1033.65 735.882L1030.27 731.828L1018.68 715.126H1018.82ZM845.297 710.94L813.438 752.673C765.8 809.213 707.825 857.247 635.727 857.247C624.95 857.206 614.189 856.146 603.53 854.075C563.697 846.407 523.898 863.505 485.281 880.075C468.558 887.214 451.293 894.662 434.401 899.862C268.245 951.422 134.185 1107.42 26.4435 1232.76C-48.4584 1320.19 -113.191 1395.81 -168.869 1412.47C-191.591 1432.81 -215.893 1449.97 -241.372 1463.68L-242.589 1464.16L-241.305 1469.01L-221.033 1463.98C-189.369 1452.99 -158.766 1437.33 -129.813 1417.32C-84.4058 1387.08 -32.8496 1331.47 26.8828 1267.17C142.969 1142.15 287.401 986.501 468.017 931.503C486.363 926.038 505.181 919.164 523.155 912.554C558.595 899.642 595.117 886.112 632.551 881.221C718.873 869.586 784.923 809.345 839.351 745.357L851.446 730.242L845.432 710.94H845.297ZM986.114 710.543L978.04 720.591L972.634 727.73L983.614 748.618L986.013 752.452L999.966 733.635L986.114 710.543ZM910.875 710.058L909.625 711.689L897.901 726.452L908.645 755.493L922.361 737.866L910.875 709.97V710.058ZM-366.209 704.726L-374.824 717.462L-383 730.682L-382.257 735.75C-380.162 751.836 -378.338 768.493 -376.682 785.68L-375.061 805.29L-356.985 776.161L-361.006 739.099L-366.209 704.638V704.726ZM954.795 702.082L942.193 718.387L954.525 745.093L968.039 727.466L954.829 702.258L954.795 702.082ZM882.664 697.41L870.231 713.275L871.109 715.963L880.569 742.404L893.408 726.232L882.664 697.499V697.41ZM1035.04 694.194L1021.12 711.821L1032.6 728.435L1035.98 732.445L1050.24 712.57L1035.17 694.017L1035.04 694.194ZM1069.73 692.519L1055.41 711.821L1054.9 712.526L1057.33 715.523L1070.14 728.875L1084.67 706.841L1079.19 701.95L1069.56 692.034L1069.73 692.519ZM859.217 692.519L857.595 694.855L847.764 707.722L853.777 727.113L865.94 711.909L859.183 692.519H859.217ZM925.166 691.638L913.24 707.018L924.693 734.913L925.47 733.899L937.227 718.695L925.166 691.638ZM1001.86 690.888L988.344 707.635L1002.13 730.55L1004.87 726.849L1016.42 712.085L1001.79 690.888H1001.86ZM969.864 683.837L960.066 695.383L957.329 698.909L970.539 724.072L975.573 717.418L983.851 707.149L969.864 683.837ZM897.664 678.417L892.428 685.072L885.671 693.885L896.381 722.706L907.192 709.045L909.219 706.445L897.732 678.505L897.664 678.417ZM834.351 676.258L816.918 700.407C765.733 766.51 701.642 828.559 618.057 828.559C603.443 828.502 588.863 826.673 574.508 823.094C531.871 812.518 488.727 830.013 447.003 846.936C431.63 853.149 415.751 859.583 400.311 864.563C231.182 917.93 96.0413 1085.17 -12.6121 1219.58C-92.5481 1318.51 -155.727 1396.69 -209.411 1404.01C-221.011 1413.5 -232.138 1421.77 -242.791 1428.82L-249.548 1432.7L-244.987 1455.43L-243.703 1460.24L-222.655 1448.38C-204.609 1436.72 -187.191 1423.47 -170.524 1408.72L-169.984 1408.41C-115.083 1391.93 -50.4855 1316.8 24.3151 1229.76C132.428 1104.08 266.724 947.72 433.725 895.852C450.449 890.696 467.679 883.292 484.403 876.153C523.222 859.451 563.46 842.176 604.07 850.02C686.405 865.929 751.611 817.982 804.417 757.476L843.777 706.401L834.283 675.905L834.351 676.258ZM-346.546 675.817L-363.438 700.496L-359.621 724.953L-354.215 771.578L-336.579 743.11L-339.316 721.075C-341.343 706.591 -343.595 692.577 -346.073 679.034L-346.546 675.817ZM1051.86 674.186L1039.5 688.641L1037.5 691.197L1052.43 709.618L1052.91 708.912L1067.06 689.875L1051.86 674.186ZM939.862 673.217L934.963 679.078L928.206 687.891L940.504 714.597L952.937 698.512L941.72 677.095L939.964 673.217H939.862ZM1017.84 672.512L1005.95 685.732L1004.32 687.76L1018.92 708.912L1032.67 691.285L1020.71 676.566L1017.84 672.423V672.512ZM873.609 671.895L862.055 688.464L868.643 708.56L881.008 693.092L876.92 682.075L873.542 671.895H873.609ZM1086.96 669.515L1072.13 689.434L1081.32 698.909L1087.06 704.065L1095.78 690.844L1102.1 681.281L1086.96 669.471V669.515ZM985.608 665.108L972.161 680.4L986.081 703.58L999.358 687.099L993.716 678.902L985.472 664.711L985.608 665.108ZM911.651 660.393L900.097 675.156L911.584 703.051L923.443 687.804L915.267 669.515L911.651 660.393ZM848.27 656.779L836.817 672.644L846.378 703.492L853.135 694.943L857.865 688.156L848.372 656.912L848.27 656.779ZM954.694 655.237L942.43 669.956L944.356 674.363L955.336 695.339L957.701 692.254L967.836 680.4L954.762 655.457L954.694 655.237ZM1035 654.84L1023.89 665.593L1020.51 669.515L1023.04 673.217L1035.17 688.2L1037.37 685.38L1049.33 671.41L1046.56 668.589L1035.14 654.84H1035ZM1068.79 654.311L1054.39 671.102L1069.43 686.57L1083.89 667.091L1074.12 659.467L1068.79 654.311ZM887.259 652.24L880.096 662.464L876.109 668.149L883.948 689.302L889.928 681.81L895.942 674.186L889.184 657.616L887.326 652.24H887.259ZM1001.55 648.758L989.56 660.525L988.175 662.156L996.385 676.301L1001.99 684.41L1003.72 682.251L1015.51 669.031L1001.55 648.715V648.758ZM-327.829 648.274L-328.64 649.331L-343.877 671.763L-342.593 678.02C-340.115 691.593 -337.863 705.651 -335.836 720.194L-333.572 738.439L-321.781 719.401L-316.612 711.997L-322.592 673.305L-327.795 648.274H-327.829ZM1103.42 647.26L1089.36 666.166L1104.33 677.844L1118.55 656.383L1103.42 647.26ZM926.112 642.853L918.544 651.667L914.388 656.999L917.564 665.064L926.348 684.102L932.7 675.949L938.139 669.427L926.112 642.986V642.853ZM823.573 641.664L822.56 643.118C795.531 680.4 763.672 719.974 726.61 749.808C668.533 796.521 609.341 810.226 545.723 791.629C499.91 778.409 453.118 796.036 407.846 813.664C394.162 818.908 379.973 824.328 366.256 828.691C193.073 884.173 56.2421 1063.53 -53.7289 1207.68C-133.496 1312.26 -196.776 1395.19 -247.622 1395.19H-250.021L-255.697 1399.11L-253.974 1411.15L-250.596 1428.46L-235.527 1418.73C-227.622 1413.09 -219.445 1406.87 -211.067 1400C-210.84 1399.81 -210.587 1399.69 -210.324 1399.64C-157.652 1392.73 -94.7781 1314.9 -15.0786 1216.32C93.8451 1081.56 229.392 913.832 399.399 860.024C414.738 855.264 430.549 848.83 445.854 842.396C488.052 825.342 531.567 807.714 575.049 818.423C662.722 840.104 730.867 792.907 785.599 731.696L832.898 671.895L823.472 641.664H823.573ZM970.168 638.358L958.579 650.565L957.228 652.196L970.303 677.183L983.614 661.539L970.1 638.358H970.168ZM1052.16 638.358L1037.84 652.284L1048.55 665.197L1051.93 668.546L1066.22 651.844L1052.3 638.358H1052.16ZM1919.57 638.006L1892.54 724.513C1863.25 813.84 1826.49 906.913 1767.53 989.542C1713.48 1065.43 1646.82 1125.05 1563.74 1171.77C1485.72 1215.66 1411.93 1237.59 1342.38 1237.56C1241.46 1237.56 1149.97 1191.33 1068.72 1099.05C1028.38 1053.25 990.63 996.211 955.471 927.934L948.106 912.774L932.463 933.618L955.066 980.463C1009.12 1084.42 1074.53 1172.21 1153.93 1226.5C1271.26 1306.75 1406.91 1304.28 1557.12 1219.09C1641.28 1171.41 1708.51 1109.85 1762.67 1030.92C1841.83 915.506 1879.73 779.995 1913.15 660.261L1919.57 638.006ZM862.359 637.433L850.703 653.562L852.561 659.776L860.568 684.19L872.156 667.62L862.359 637.433ZM1018.14 634.613L1008.18 642.413L1004.29 646.203L1018.11 666.298L1021.76 662.2L1032.47 651.844L1018.14 634.613ZM1085.71 634.613L1071.29 651.491L1075.81 655.898L1086.25 664.007L1100.11 645.322L1085.71 634.613ZM900.739 633.026L889.624 648.935L891.955 655.589L898.374 671.19L909.996 656.427L900.739 633.026ZM939.795 627.033L928.713 639.945L940.741 666.386L952.836 651.888L939.795 626.989V627.033ZM985.202 625.226L973.411 635.097L972.769 635.803L986.047 658.762L987.364 657.22L999.189 645.145L985.168 624.741L985.202 625.226ZM1120.04 625.006L1105.78 644.176L1120.71 652.989L1134.33 631.924L1130.68 630.382L1119.84 624.609L1120.04 625.006ZM1068.92 622.141L1054.93 635.67L1068.45 648.891L1082.57 632.409L1068.79 622.141H1068.92ZM837.594 622.141L826.04 638.402L835.533 668.942L836.108 668.193L846.919 652.857L837.594 622.009V622.141ZM1034.8 621.789L1021.28 632.409L1035.31 649.331L1049.33 635.758L1034.93 621.789H1034.8ZM875.468 618.969L864.318 634.789L868.17 647.172L874.521 664.315L877.596 659.908L885.704 648.274L875.569 618.924L875.468 618.969ZM913.712 615.972L903.374 629.545L912.665 653.122L916.246 648.715L924.254 639.372L913.712 616.104V615.972ZM1102.03 615.663L1088.28 631.748L1102.47 642.281L1116.56 623.331L1102.03 615.663ZM1001.01 614.209L992.297 619.409L988.108 622.89L1001.96 643.074L1006.18 638.931L1015.47 631.66L1001.01 614.032V614.209ZM954.694 612.138L942.666 623.86L942.362 624.213L955.336 649.023L956.485 647.657L968.174 635.406L954.66 612.138H954.694ZM1051.12 609.053L1037.94 619.365L1052.03 632.982L1065.54 619.762L1051.05 608.965L1051.12 609.053ZM1084.9 606.673L1071.66 619.497L1085.17 629.501L1098.69 613.901L1085.17 606.673H1084.9ZM1017.06 604.602L1004.26 612.226L1018.41 629.281L1031.69 618.924L1018.38 606.056L1017.06 604.602ZM850.939 603.103L847.899 607.51L839.959 618.704L849.216 649.552L860.703 633.247L850.939 603.236V603.103ZM1137 603.103L1129.53 612.402L1122.47 621.877L1131.83 626.812L1136.86 628.972L1150.85 607.863L1137 603.103ZM968.782 601.076L957.667 608.744L957.397 609.009L970.911 632.145L971.654 631.396L983.141 621.744L968.782 601.076ZM888.069 600.768L887.056 602.09L877.9 615.046L888.036 644.352L897.394 631.131L899.05 628.884L888.002 600.944L888.069 600.768ZM926.483 599.446L922.902 603.412L916.145 612.226L926.821 635.758L937.734 623.067L934.795 617.47L926.382 599.49L926.483 599.446ZM1119.6 596.493L1105.04 611.961L1119.13 619.409L1122.51 614.738L1133.32 601.165L1119.53 596.493H1119.6ZM1067.27 596.008L1054.33 606.1L1068.48 616.633L1081.29 604.205L1067.27 596.008ZM811.647 594.863L805.701 602.399C747.151 675.2 664.884 761.662 545.554 761.662C536.23 761.662 526.702 761.133 516.871 760.032C454.3 752.937 393.352 772.547 334.43 791.541L331.896 792.379C154.219 850.373 15.2944 1042.56 -96.3321 1197.02C-153.497 1276.34 -202.283 1343.59 -243.028 1372.41L-258.4 1381.22L-256.474 1394.44L-251.339 1390.83C-251.062 1390.62 -250.747 1390.51 -250.427 1390.52C-200.56 1393.65 -136.841 1310.14 -56.1952 1204.38C54.08 1059.88 191.282 879.987 365.31 824.108C378.824 819.701 393.048 814.368 406.731 809.124C452.408 791.497 499.539 773.561 546.298 787.09C670.458 823.358 755.564 728.435 819.384 640.606L822.087 636.772L811.613 594.819L811.647 594.863ZM1033.62 594.378L1020.58 602.134L1034.93 616.06L1047.74 606.056L1033.62 594.378ZM984.087 592.88L976.485 595.744L971.891 598.917L985.912 619.321L990.675 615.311L998.311 610.551L988.175 598.3L984.121 592.88H984.087ZM1102.03 590.5L1097.44 594.202L1088.25 603.015L1101.56 610.023L1115.68 595.039L1102.17 590.632L1102.03 590.5ZM1931.39 587.724L1923.15 612.005C1887.47 719.092 1847.2 840.589 1769.9 944.812C1716.28 1017.26 1650.54 1074.55 1569.08 1119.98C1490.83 1163.58 1416.87 1185.38 1347.18 1185.38C1250.65 1185.38 1162.74 1143.56 1084.33 1059.7C1044.91 1017.6 1007.83 964.907 973.073 901.624L966.046 888.095L962.667 893.031L950.606 909.072L952.768 913.479C989.29 986.457 1028.79 1047.32 1071.02 1095.17C1207.24 1249.81 1372.62 1274.05 1562.56 1167.14C1645.27 1120.69 1711.48 1061.37 1765.27 985.972C1843.28 876.417 1882.37 748.001 1916.86 634.745L1931.39 587.724ZM1149.23 587.371L1140.04 598.829L1153.55 603.236L1162.95 589.046L1149.43 587.195L1149.23 587.371ZM1000.95 586.622L987.804 591.513L990.473 595.083L1001.62 608.304L1014.02 600.592L1000.95 586.446V586.622ZM1050.24 586.049L1040.51 590.456L1037.13 592.439L1050.44 603.412L1050.88 603.765L1063.45 593.982L1050.2 586.225L1050.24 586.049ZM939.727 586.049L935.808 589.222L929.051 596.67L937.565 614.87L940.335 620.158L940.605 619.85L952.565 608.26L939.693 586.225L939.727 586.049ZM863.71 584.947L853.575 599.446L863.001 629.853L874.015 614.165L863.879 584.947H863.71ZM900.536 584.947L890.772 597.507L901.786 625.358L911.922 611.785L907.226 601.341L900.469 584.947H900.536ZM1084.77 584.947L1072 592.659L1070.88 593.497L1083.82 601.076L1084.5 601.429L1095.54 590.72L1097.4 589.222L1084.77 584.815V584.947ZM1130.78 584.947L1122.88 593.32L1136.39 597.727L1144.97 586.931L1138.01 586.005L1130.92 584.771L1130.78 584.947ZM1113.15 581.863L1106.05 587.591L1118.96 591.998L1126.32 584.154L1113.15 581.863ZM1016.93 580.981L1004.87 585.388L1017.37 598.873L1022.74 595.524L1030.14 591.778L1016.93 580.849V580.981ZM1067.6 578.91L1055.21 584.286L1067.23 591.337L1070.44 588.825L1079.73 583.184L1078.11 582.656L1067.6 578.91ZM1095.24 578.91L1089.8 582.171L1101.56 586.181L1107.88 581.113L1098.42 579.483L1095.24 578.91ZM825.127 578.425L814.451 591.955L824.891 633.687L836.277 617.602L829.722 596.053L825.127 578.425ZM1033.45 576.706L1024.06 578.557L1021.28 579.615L1034.06 590.148L1046.02 584.066L1038.14 579.659L1033.45 576.883V576.706ZM952.565 576.354H952.059L942.768 583.89L955.471 605.924L956.079 605.307L966.586 598.08L960.471 589.266L952.565 576.354ZM1075.75 575.516L1073.45 576.531L1079.02 578.513L1084.63 580.409L1088.92 577.808L1075.75 575.516ZM1065.88 573.798L1067.27 574.283H1067.71L1065.88 573.974V573.798ZM1051.12 573.181L1039.73 575.429L1050.54 581.774L1056.05 578.954L1061.25 576.795L1051.12 573.181ZM968.005 571.727L960.674 572.872L956.012 574.856L962.938 586.225L969.695 596.008L975.337 592.13L981.519 589.795L968.005 571.727ZM912.868 570.713L908.036 575.781L903.307 581.907L910.233 599.094L914.557 608.656L915.942 606.762L924.794 596.141L912.868 570.713ZM984.459 569.127L972.262 571.022L985.236 588.649L997.905 583.934L984.391 569.347L984.459 569.127ZM1028.58 568.906L1034.02 572.123L1041.79 570.537L1028.58 568.906ZM876.042 568.906L871.65 574.415L866.346 581.863L876.481 611.08L881.887 603.368L886.583 597.154L880.569 581.907L876.042 568.686V568.906ZM1007.47 568.201L1017.43 576.398L1023.11 574.283L1027.77 573.357L1019.33 568.378H1007.47V568.201ZM992.128 567.937L989.054 568.422L1001.82 582.215L1013.21 577.808L1002.57 568.994L1001.22 567.849H992.128V567.937ZM1083.35 567.584L1074.83 568.378L1067.87 569.788L1075.04 571.022L1083.35 567.584ZM1109.9 565.028L1098.96 566.086L1091.42 568.642L1082.84 572.388L1094.46 574.415L1109.9 565.028ZM1130.17 563.133H1129.6L1119.7 564.059L1100.88 575.429L1112.37 577.456L1130.17 563.089V563.133ZM1147.07 562.34L1136.93 562.781L1117.54 578.425L1129.77 580.584L1146.97 562.34H1147.07ZM1016.45 561.855L1020.24 564.103H1023.62L1016.39 561.811L1016.45 561.855ZM838.135 561.855L829.384 572.917L827.661 575.076L834.756 600.988L838.675 614.209L845.432 604.558L849.453 598.829L841.243 573.534L838.033 561.988L838.135 561.855ZM1165.45 561.459L1152.47 562.12L1134.33 581.378L1138.25 582.083L1147.98 583.405L1165.45 561.371V561.459ZM1183.15 560.622L1170.72 561.194L1152.41 583.978L1165.55 585.741L1165.85 585.3L1183.15 560.622ZM924.997 559.52L920.639 562.472L915.402 567.981L927.226 593.144L937.632 582.964L931.72 572.829L924.963 559.608L924.997 559.52ZM802.559 559.079L790.599 574.283C732.252 646.952 650.593 732.93 530.723 732.93C516.491 732.901 502.274 731.724 488.153 729.404C423.454 718.96 361.256 736.675 297.908 757.344C115.029 817.762 -32.2075 1032.16 -139.712 1188.47C-187.012 1257.3 -227.047 1315.56 -261.069 1349.54L-262.758 1351.04L-259.008 1377.48L-252.251 1374.7C-210.763 1350.11 -159.511 1279.2 -98.6971 1195.08C-43.6609 1118.88 18.7405 1032.55 90.1626 957.107C172.97 869.851 251.791 814.898 331.153 789.029L333.721 788.236C392.912 769.11 454.165 749.412 517.276 756.551C649.579 771.49 739.144 679.563 801.748 602.046L810.532 590.896L802.626 559.255L802.559 559.079ZM1119.84 559.079L1117.3 559.916H1118.62L1119.84 559.167V559.079ZM992.263 555.686L1002.03 563.838H1011.66L1007.97 561.679L999.764 557.272L992.263 555.642V555.686ZM887.867 553.879L878.61 565.557L882.664 577.279L889.117 593.673L898.779 580.893L887.867 553.879ZM1143.45 552.381L1135.72 554.408L1128.28 558.815H1129.06L1135.82 558.462L1143.38 552.381H1143.45ZM973.479 551.72L985.439 564.676L991.723 563.662H995.844L984.02 553.791L974.796 551.72H973.479ZM937.193 551.72H936.315L928.004 557.405L934.49 570.096L940.369 580.232L941.754 578.866L950.302 572.917L937.193 551.543V551.72ZM957.16 550.794L964.999 561.679L969.255 567.364L980.844 565.513L969.762 553.527L967.904 551.499L957.16 550.794ZM944.66 550.001L941.011 550.838L953.68 571.463L959.931 568.818L964.965 568.025L962.566 564.808L952.194 550.486L944.66 550.001ZM983.716 548.679L984.526 549.34H985.168L983.716 548.547V548.679ZM1160.65 548.062L1153.15 550.001L1143.01 558.286L1151.56 557.845L1160.78 548.062H1160.65ZM850.534 546.299L840.635 558.815L851.987 595.391L862.122 581.069L854.453 559.035L850.5 546.343L850.534 546.299ZM1151.22 546.299H1150.99H1151.22ZM1180.14 543.082L1167.98 546.255L1162.74 551.323L1156.7 557.713L1168.96 557.14L1180.14 543.082ZM815.262 542.818L813.911 544.492L804.958 555.906L812.863 587.591L823.472 574.151L815.262 542.818ZM899.083 541.54L892.326 548.238L890.299 550.794L901.178 577.852L910.604 566.967L904.962 554.937L899.151 541.716L899.083 541.54ZM1198.76 538.19L1186.6 541.364L1174.13 556.876L1186.09 556.303L1198.76 538.19ZM959.964 537.706L968.343 546.784L976.553 548.194L968.107 541.451L959.964 537.706ZM1945.18 535.943L1926.16 587.239C1889.57 688.024 1848.11 802.25 1772.26 900.478C1719.05 969.402 1654.29 1024.4 1574.25 1068.6C1392.28 1169.34 1232.71 1153.3 1100.04 1020.83C1065.33 985.614 1033.82 945.322 1006.15 900.743L983.749 862.977L968.445 884.57L987.635 919.825C1016.32 970.178 1049.47 1015.93 1086.39 1056.13C1220.35 1199.22 1382.25 1219.18 1567.63 1115.71C1648.71 1070.5 1714.12 1013.51 1767.43 941.507C1844.19 837.857 1884.46 716.757 1919.97 609.846L1945.18 535.943ZM1172.98 535.238L1166.9 538.058L1160.92 542.862L1166.6 541.408L1172.98 535.238ZM862.967 531.051L854.386 540.57L853.102 542.201L857.46 556.215L864.622 576.75L866.21 574.503L874.353 563.883L862.967 531.051ZM910.672 531.051L905.266 534.841L902.09 537.97L907.969 551.632L913.51 563.442L922.936 555.025L910.672 531.051ZM942.869 530.391L953.478 545.109L963.005 545.506L951.62 533.167L942.869 530.391ZM951.552 527.438L952.937 528.936L954.221 529.333L951.552 527.438ZM922.361 526.116H920.706L913.712 529.024L925.74 552.513L926.551 551.808L934.828 547.401L934.085 546.211L922.361 526.336V526.116ZM928.781 526.116H926.585L936.72 543.17L938.545 546.123L944.592 544.801H948.68L939.153 531.58L936.788 528.319L928.814 525.807L928.781 526.116ZM1193.29 526.116L1183.59 530.523L1174.13 539.689L1184.54 537.001L1193.29 526.027V526.116ZM828.405 526.116L818.067 539.336L826.513 570.184L827.019 569.567L836.952 556.964L828.405 526.116ZM793.538 522.37L772.321 549.34C743.874 584.595 710.055 622.185 668.6 651.667C603.192 698.204 534.675 713.364 459.132 697.631C391.561 683.661 325.342 700.672 263.65 721.119C75.4998 784.138 -74.4053 1012.85 -183.836 1179.83C-204.952 1212.09 -224.649 1242.1 -242.926 1268.45L-268.468 1303.93L-266.272 1325.96L-263.502 1345.18L-250.596 1332.22C-219.04 1296.96 -182.755 1244.08 -142.213 1185.21C-86.5007 1104.16 -23.356 1012.28 49.6878 931.768C134.556 838.254 215.438 779.731 297.03 752.761C360.681 731.961 423.218 714.157 488.525 724.733C628.801 747.429 721.44 653.65 785.835 573.886L801.376 554.187L793.437 522.414L793.538 522.37ZM874.353 519.065L865.906 528.407L877.157 560.886L885.299 550.309L886.245 549.296L877.427 527.262L874.353 518.888V519.065ZM1213.93 516.641L1201.9 521.753L1191.29 534.974L1202.78 532.021L1213.86 516.2L1213.93 516.641ZM929.794 512.542L938.646 524.706L945.741 526.953L936.349 516.773L933.274 514.57L929.896 512.542H929.794ZM1205.52 512.234L1197.17 517.699L1193.12 521.621L1200.14 518.36L1205.52 512.234ZM840.027 511.838L836.479 515.848L830.466 523.516L834.553 538.367L839.385 553.967L849.25 541.451L840.027 511.838ZM885.738 509.237L877.191 516.156L880.569 524.97L889.117 546.167L897.124 537.353L897.8 536.824L885.839 509.194L885.738 509.237ZM806.242 506.285L799.079 515.319L796.241 518.932L804.181 550.706L811.884 540.923L814.451 537.662L806.242 506.285ZM1957.95 503.729L1953.49 514.349L1946.73 532.506L1957.91 503.729H1957.95ZM912.766 502.671L913.037 503.156L924.118 521.885H929.49L932.531 522.811L921.551 507.783L912.969 502.759L912.766 502.671ZM896.482 502.671L889.319 506.285L888.61 506.858L900.604 534.533L908.983 527.79L905.773 521.533L896.482 502.671ZM922.497 502.671L923.814 504.478L925.064 505.183L922.497 502.671ZM904.861 500.953L900.063 501.834L908.611 519.197L911.99 525.675L920.098 522.37L910.435 506.02L907.834 501.614L904.928 500.953H904.861ZM851.649 498.705L842.696 508.885V509.237L851.818 538.499L861.514 527.35L851.548 498.705H851.649ZM1226.67 498.441L1216.83 504.875L1208.12 514.702L1218.69 509.766L1226.67 498.441ZM818.404 490.773L809.147 502.539L816.782 534.665L826.918 521.709L818.303 490.861L818.404 490.773ZM862.595 487.688L855.838 493.681L854.217 495.532L864.149 524.177L868.879 518.712L872.663 515.187L862.528 487.688H862.595ZM784.72 485.925L784.011 486.851C749.752 530.919 707.115 586.181 649.647 625.887C581.468 672.908 509.708 686.129 430.245 666.43C357.337 648.318 287.84 665.857 229.527 685.468C35.4305 751.174 -117.178 994.741 -228.635 1172.6C-237.115 1186.13 -245.528 1199.35 -253.467 1212.26L-274.144 1244.57L-273.232 1257.21L-269.076 1298.73L-245.055 1265.28C-226.946 1239.1 -207.418 1209.31 -186.471 1177.14C-76.7704 1009.68 73.6754 780.524 262.873 717.065C324.936 696.529 391.73 679.43 459.74 693.488C608.023 724.336 703.737 628.355 770.057 546.255L792.322 517.919L787.322 497.824L784.788 485.925H784.72ZM900.637 482.576L909.625 497.736L913.983 498.837L915.469 499.719L908.307 489.891L906.786 487.996L900.637 482.576ZM873.238 480.24L867.663 483.149L865.535 485.044L875.67 512.499L881.076 507.431L884.015 505.624L878.947 493.946L873.271 480.24H873.238ZM1240.79 478.698L1240.28 479.05L1237.34 481.694L1227.41 492.932L1233.15 489.142L1237.14 483.457L1240.79 478.698ZM829.79 477.508L821.344 487.071L820.533 488.084L829.08 518.932L834.621 511.882L838.574 507.475L829.79 477.376V477.508ZM883.069 475.745H881.785L876.413 478.522L881.819 491.742L887.056 503.817L894.556 499.41L883.069 476.01V475.745ZM889.117 475.745H887.022L898.002 498.044L904.759 496.81L893.475 477.773L889.151 475.701L889.117 475.745ZM895.435 473.982L895.604 474.247L895.333 473.939L895.435 473.982ZM797.457 469.928L787.558 482.576L790.531 496.458L795.058 514.658L796.748 512.542L804.991 502.054L802.762 493.505L797.457 469.928ZM1969.81 466.932L1957.37 494.078C1947.95 516.421 1938.69 539.689 1929.2 563.53C1891.69 657.837 1849.19 764.747 1774.8 856.983C1722.06 922.425 1658.24 975.087 1579.72 1018.05C1486.58 1069.13 1398.19 1090.19 1316.97 1080.63C1244.41 1072.09 1174.94 1038.29 1115.82 982.755C1076.35 945.371 1040.74 901.515 1009.87 852.268L1001.42 838.298L986.047 859.936L1008.62 897.967C1036.18 942.331 1067.54 982.43 1102.1 1017.48C1233.86 1148.89 1392.25 1164.76 1572.93 1064.63C1652.56 1020.57 1716.99 966.009 1769.87 897.482C1845.31 799.782 1886.66 685.952 1923.11 585.476C1931.97 561.062 1940.72 537.001 1949.77 513.6L1969.81 466.932ZM840.973 465.169H840.736L832.594 474.379L841.378 504.478L850.264 494.519L840.973 464.948V465.169ZM851.108 456.355L843.878 462.657L853 491.654L855.027 489.363L861.244 483.942L851.75 458.162L851.108 456.355ZM809.113 455.694L803.876 461.82L800.498 466.227L808.134 498.264L817.289 486.674L812.39 469.047L809.012 455.826L809.113 455.694ZM875.231 451.552L884.995 471.471H889.793L886.617 466.094L879.42 454.681L875.231 451.508V451.552ZM861.278 451.552L854.318 454.724L854.859 456.267L864.217 481.607L867.325 478.918L871.717 476.759L861.278 451.552ZM865.602 449.569L864.521 450.053L874.961 475.216L881.211 472.22L870.4 450.186L865.602 449.569ZM776.747 448.687L769.111 458.47C735.968 501.481 690.561 560.313 630.828 600.327C585.24 631.396 534.555 647.577 483.119 647.481C455.677 647.311 428.33 643.247 401.561 635.362C322.369 612.623 246.149 632.806 195.471 649.993C-4.70648 718.607 -160.22 977.379 -273.705 1166.39L-279.11 1175.2L-274.583 1238.53L-255.866 1209.27C-247.859 1196.62 -239.649 1183.49 -231.203 1170.05C-119.475 991.745 33.5723 747.516 228.682 681.325C287.401 661.627 357.337 643.911 430.887 662.244C609.341 706.577 712.994 572.564 781.612 483.942L783.673 481.298L776.646 448.511L776.747 448.687ZM1983.89 442.429L1981.8 446.352L1981.09 448.07L1983.89 442.429ZM819.992 442.165L811.444 452.125L819.384 482.973L828.54 472.705L826.242 464.816L819.992 442.121V442.165ZM867.291 434.938L868.271 436.877L872.325 445.118L873.846 445.382L867.291 434.938ZM788.91 431.985L779.382 444.192L786.376 477.023L796.241 464.464L788.91 431.985ZM830.567 431.985L822.729 439.433L829.486 463.362L831.411 469.884L839.486 461.07H839.723L830.736 432.426L830.567 431.985ZM840.365 425.507L833.608 429.694L842.561 458.118L849.723 452.036L840.432 425.595L840.365 425.507ZM853.473 422.775L858.744 435.599L862.899 445.69L866.041 444.368L867.933 444.633L865.366 439.389L857.697 424.317L853.473 422.775ZM849.351 422.158L844.52 422.951L843.541 423.568L852.798 450.009L859.555 447.057L855.703 437.714L849.284 422.158H849.351ZM800.025 419.293L791.646 428.989L799.248 460.85L804.654 453.975L807.796 450.45L800.025 419.293ZM1995.42 414.182L1986.53 429.209L1983.15 436.965L1995.58 413.829L1995.42 414.182ZM769.01 410.039L754.009 429.209C685.459 518.316 570.724 667.444 372.608 603.456C308.72 582.788 241.588 585.829 161.348 613.592C-19.2679 675.993 -162.99 893.869 -273.806 1081.6L-283.672 1098.61L-280.969 1147.75L-279.516 1168.24L-276.137 1162.91C-162.315 973.412 -6.39569 713.98 194.796 645.057C245.474 627.782 322.47 607.467 402.372 630.382C589.712 684.19 700.595 540.526 766.882 454.681L775.869 443.267L772.828 429.209L769.111 410.039H769.01ZM810.735 407.924L806.444 411.934L802.66 416.341L807.998 438.375L810.363 447.541L818.911 438.023L814.451 421.849L810.735 407.747V407.924ZM844.723 401.446L847.493 408.056L851.379 417.487L854.994 418.765L849.689 408.276L844.723 401.446ZM820.837 399.947L816.647 402.371L813.573 405.236L817.593 420.439L821.648 435.158L824.587 431.897L829.418 427.975L825.803 416.561L820.837 399.947ZM780.801 395.54L776.375 400.52L771.814 406.293L775.936 427.667L778.504 439.565L787.997 427.49L780.801 395.54ZM829.891 395.144H828.709L823.945 397.876L828.371 412.639L832.358 425.287L836.31 422.07L839.013 421.1L829.891 395.012V395.144ZM834.891 394.659H833.608L842.459 419.91L847.865 418.016L844.486 409.907L838.844 396.686L834.858 394.747L834.891 394.659ZM791.748 383.377L783.707 392.191L786.714 407.439L790.667 424.097L799.147 414.754L791.748 383.245V383.377ZM2010.92 380.733L1991.06 412.463C1970.11 450.626 1951.46 493.373 1931.73 538.499C1893.38 626.284 1849.94 725.791 1777.13 811.989C1724.83 873.905 1661.99 924.276 1584.92 966.229C1494.41 1015.45 1408.26 1036.74 1328.83 1029.73C1258.4 1023.74 1190.36 993.996 1131.39 943.402C1092.12 909.405 1056.4 868.889 1025.14 822.874L1018.82 812.738L1003.65 835.125L1004.46 836.623C1037 890.532 1075.1 938.314 1117.67 978.613C1247.11 1098.44 1402.11 1110.11 1578.37 1013.43C1656.52 970.724 1720 918.326 1772.43 853.281C1846.42 761.53 1888.79 654.973 1926.16 560.974C1944.6 514.658 1962.51 469.664 1983.12 428.768L2010.92 380.733ZM801.883 374.167L795.126 379.455L794.146 380.557L797.153 393.778L801.511 412.022L809.417 403.208L803.809 381.879L801.782 373.991L801.883 374.167ZM825.533 372.052L832.053 390.693L835.128 390.428L836.378 391.046L833.776 384.876C831.967 380.319 829.554 376.216 826.648 372.757L825.533 372.052ZM761.341 371.391L760.733 372.096C753.976 380.425 746.577 390.032 738.603 400.432C681.168 475.349 592.077 591.382 448.726 591.382C413.09 591.067 377.649 584.516 343.349 571.903C276.928 548.238 206.114 549.869 126.853 577.632C-32.7483 633.335 -167.078 817.365 -271.306 990.29L-288.199 1019.38L-287.32 1035.77L-284.212 1091.96L-277.455 1080.63C-230.595 1001.31 -176.403 914.008 -116.096 836.447C-21.8693 715.302 68.6076 640.914 160.47 609.097C241.284 581.378 309.125 578.249 373.317 598.961C569.643 662.332 683.5 514.305 751.712 425.904L768.132 404.839L761.679 371.391H761.341ZM811.309 368.482L805.904 370.862L804.687 371.831L806.883 380.645L812.289 401.093L819.35 395.584L814.62 379.808L811.242 368.526L811.309 368.482ZM2022.88 367.909L2019.5 372.316L2018.32 374.387L2022.88 367.909ZM818.539 367.513H814.891L817.593 376.679L822.56 393.249L828.371 390.693L820.702 368.659L818.539 367.337V367.513ZM773.166 358.214L764.381 368.042L770.767 401.093L771.814 399.727L779.686 390.693L777.997 383.245L773.166 358.214ZM2038.8 352.221L2032.71 359.36L2030.32 362.841L2038.8 352.221ZM2030.52 351.956L2024.61 358.699L2019.5 367.16L2030.65 352.045L2030.52 351.956ZM783.842 347.858L779.72 351.119L776.342 354.777L782.727 387.255L789.484 379.411L790.531 378.442L789.146 372.448L783.673 347.858H783.842ZM808.167 344.289L813.776 363.238H818.844L818.202 361.387C816.432 355.93 813.977 350.896 810.938 346.492L808.167 344.289ZM793.808 341.292L790.43 342.746L786.714 345.699L788.403 353.543L793.099 376.326L799.856 370.201L800.667 369.804L794.653 346.14L793.538 341.733L793.808 341.292ZM802.424 340.014H797.018L798.099 344.421L804.045 367.777L810.498 364.384L804.958 345.523L803.573 340.807L802.424 339.97V340.014ZM2047.68 336.665L2038.15 347.241L2033.76 353.146L2047.68 336.665ZM2038.59 335.475L2029.64 345.17C1993.12 391.662 1964.87 450.406 1934.2 514.173C1895.11 595.436 1850.81 687.539 1779.76 767.656C1727.97 826.091 1666.04 874.126 1590.57 914.581C1502.72 961.91 1418.67 983.592 1341.1 979.009C1272.8 975.36 1206.28 949.615 1147.51 904.092C1111.45 875.855 1078.15 842.012 1048.35 803.307L1036.49 786.605L1021.35 808.948L1027.74 819.216C1058.83 865.058 1094.38 905.413 1133.49 939.259C1260.69 1047.45 1412.21 1054.98 1583.81 961.69C1660.5 920.221 1723.04 870.071 1775.03 808.507C1847.44 722.794 1890.75 623.419 1928.96 536.075C1957.61 470.457 1985.14 407.439 2021.73 357.024L2038.59 335.475ZM754.753 333.139L743.232 346.36C737.252 353.852 730.799 362.269 723.907 371.303C688.466 417.531 640.052 480.857 573.697 521.885C537.9 544.164 499.3 557.782 459.773 562.076C414.028 567.012 365.175 559.608 314.869 540.042C245.169 512.983 172.599 513.38 93.1019 541.319C-44.1677 589.795 -162.518 732.533 -259.616 884.482L-292.422 938.466L-288.401 1012.19L-272.624 985.179C-236.938 925.207 -198.76 867.832 -158.261 813.311C-61.4319 684.631 31.6465 606.188 126.313 572.872C206.181 545.153 277.569 543.258 344.599 567.144C549.71 640.297 666.675 487.82 736.509 396.774C743.671 387.476 750.327 378.794 756.543 371.038L760.598 366.367L759.99 363.194L754.685 332.963L754.753 333.139ZM766.138 321.373L759.888 327.19L757.658 329.746L763.334 362.18L763.537 363.238L772.253 353.19L766.138 321.373ZM790.802 315.424L795.903 335.872L796.68 335.475H801.782L799.011 327.41C797.48 323.541 795.484 320.015 793.099 316.966L790.802 315.424ZM776.443 314.498L769.686 318.2L769.348 318.508L775.531 349.885L782.862 343.275L779.788 329.57L776.578 314.498H776.443ZM780.767 312.163L779.45 312.912L780.632 318.597L785.531 341.16L792.761 337.502L786.95 314.102L786.443 312.339C784.601 311.897 782.711 311.897 780.869 312.339L780.767 312.163ZM2102.48 305.993L2095.22 310.4L2094.07 311.281L2102.48 306.213V305.993ZM748.232 295.284L744.516 298.766C732.084 312.663 720.199 327.372 708.906 342.834C672.756 390.164 623.227 455.077 554.609 496.413C517.486 518.933 477.484 532.276 436.63 535.767C389.095 539.777 338.417 530.743 286.016 508.885C213.107 478.434 138.813 477.42 58.9788 505.712C-54.2695 546.035 -154.477 650.345 -240.798 772.415L-297.726 858.746L-297.253 864.034L-292.827 932.385L-261.948 881.662C-164.511 729.316 -45.7218 586.049 92.2234 537.353C172.362 509.237 245.507 508.753 315.848 536.119C529.709 619.101 649.782 462.216 721.576 368.659C728.67 359.36 735.259 350.723 741.441 343.055L753.942 328.644L749.178 301.41L748.198 295.284H748.232ZM773.875 287.043L774.517 289.511L778.605 308.857L780.903 307.712H785.126L783.437 302.027C781.948 297.549 779.917 293.413 777.423 289.776L773.875 287.043ZM759.483 287.043L754.043 289.908L751.239 292.508L752.523 300.44L756.814 325.075L758.672 322.915L765.26 316.966L759.483 287.043ZM2146.6 284.399L2126.33 292.42L2123.36 294.138L2146.64 284.399H2146.6ZM765.023 284.135L762.692 285.369L768.368 314.19L768.841 313.749L775.598 310.4L771.409 290.701L769.787 284.311H765.057L765.023 284.135ZM2188.77 271.884L2160.29 278.979L2156.44 280.521L2188.77 271.708V271.884ZM2224.34 266.155L2197.59 269.548L2194.21 270.386L2224.41 265.979L2224.34 266.155ZM2247.99 264.172H2238.37H2237.15L2247.99 263.775V264.172ZM742.421 259.633L738.434 261.704C726.677 271.002 711.845 290.393 693.736 314.146C656.809 362.621 606.233 429.033 535.385 470.81C496.915 493.54 455.501 506.592 413.319 509.281C364.06 512.366 311.49 501.702 257.062 477.464C182.092 444.104 103.913 441.548 24.7543 469.884C-89.0345 510.736 -187.856 616.5 -272.151 740.333L-303.909 790.572L-298.334 852.752L-243.062 769.022C-156.47 646.643 -55.8574 542.024 58.0666 501.525C138.577 472.881 213.479 474.027 287.029 504.743C509.505 597.639 632.788 436.216 706.44 339.75C718.177 323.641 730.584 308.385 743.604 294.05L747.388 290.701L742.455 259.633H742.421ZM757.151 258.751L758.841 266.419L761.746 281.315L765.125 279.728H768.503L767.76 276.775C766.312 271.675 764.26 266.902 761.679 262.629L757.151 258.751ZM749.212 256.063L745.631 257.958L750.394 287.969L753.435 285.237L758.537 282.813L755.564 267.433L753.165 256.284H749.212V256.063ZM2262.79 255.314L2237.39 255.535L2200.8 260.646L2190.66 261.924L2189.82 262.145L2179.34 263.599L2149.68 273.514L2146.1 274.528L2144.81 275.145L2130.12 280.08L2109.37 292.111L2106.16 293.61L2103.83 295.284L2088.43 304.098L2075.11 315.82L2070.55 319.081L2063.56 325.956L2053.29 335.254L2047.55 342.041L2063.7 326.088L2075.25 315.952L2103.97 295.284L2109.51 292.111L2144.92 274.969L2149.78 273.338L2189.92 261.968L2200.76 260.47L2240.26 255.446L2262.76 255.138L2262.79 255.314ZM2239.85 250.907L2209.24 254.697L2194.24 256.372L2193.09 256.68L2183.3 257.87L2154.44 266.684L2150.59 267.697L2149.24 268.27L2134.95 272.677L2114.1 284.355L2111.27 285.633L2109.27 286.955L2093.83 295.417L2079.91 307.007L2076.09 309.607L2070.42 314.63L2058.7 324.37L2051.94 331.993L2070.55 314.63L2079.98 306.83L2109.37 286.779L2114.2 284.179L2149.34 268.314L2154.54 266.728L2193.19 256.504L2209.34 254.521L2242.66 250.775H2239.95L2239.85 250.907ZM2242.32 246.236C2182.79 247.954 2136.57 262.453 2098.93 286.559L2082.04 299.779L2081.43 300.176L2080.59 300.925L2064 313.837L2057.75 321.02L2080.59 300.925L2082.04 299.779L2116.3 277.745C2152.99 258.399 2195.42 248.043 2244.92 246.412L2264.35 246.633L2242.28 246.236H2242.32ZM2244.82 241.609C2167.42 242.622 2112.41 265.494 2069.14 303.04L2059.47 313.308L2061.43 311.237C2109.85 265.934 2170.02 243.195 2247.25 241.785L2258.5 242.049L2244.75 241.609H2244.82ZM2247.15 236.761C2070.93 236.1 2010.28 350.15 1935.99 489.891C1896.26 564.808 1851.29 649.244 1782.13 723.455C1730.88 778.365 1669.89 824.108 1595.77 863.329C1510.36 908.764 1428.67 930.754 1352.95 928.682C1286.73 927.413 1221.67 905.761 1163.08 865.488C1129.82 842.239 1098.69 814.15 1070.27 781.758L1053.68 761.266L1047.23 771.049L1038.55 783.829L1050.41 800.575C1080.06 839.11 1113.18 872.804 1149.06 900.92C1274.07 997.43 1422.11 1000.82 1589.11 910.923C1664.35 870.689 1725.94 822.786 1777.47 764.792C1848.15 685.071 1892.34 593.276 1931.26 512.322C1971.02 429.649 2008.56 351.604 2066.84 300.793C2115.22 258.575 2174.44 237.907 2249.72 237.731L2286.88 239.229H2286.64C2272.82 237.995 2259.62 237.349 2247.05 237.29L2247.15 236.761ZM2249.35 232.046C2077.41 228.3 2014.4 335.078 1937.17 465.918C1897.03 533.96 1851.49 611.345 1784.49 678.946C1733.82 730.286 1673.75 773.738 1601.04 811.725C1518.2 855.309 1438.87 877.828 1364.91 877.828C1300.72 878.802 1237.16 861.161 1178.83 826.179C1148.46 807.557 1119.63 784.92 1092.81 758.622L1070.58 735.089L1055.95 757.124L1072.47 777.572C1100.69 809.992 1131.65 838.126 1164.74 861.434C1287.34 946.266 1431.98 945.429 1594.49 859.01C1668.14 819.966 1728.95 774.442 1779.97 719.797C1848.72 646.203 1893.59 561.855 1933.15 487.424C1974.47 409.731 2013.49 336.312 2071.84 289.115C2120.22 249.982 2178.57 231.429 2251.95 232.442L2276.88 233.853L2249.31 232.046H2249.35ZM740.968 230.503L743.367 243.151L745.056 253.728L749.482 251.656L752.32 251.921C750.923 246.205 748.873 240.797 746.239 235.88L740.968 230.503ZM733.637 227.947C720.866 230.239 702.723 254.08 678.77 285.589C641.031 335.21 589.34 403.164 516.296 445.294C476.495 468.31 433.658 481.074 390.142 482.884C339.16 485.088 284.698 472.705 228.311 446.131C152.072 409.465 68.8868 405.253 -9.30127 434.1C-113.191 471.691 -205.256 562.825 -285.834 673.834L-312.862 712.658L-312.321 715.963C-310.069 731.123 -308.098 746.753 -306.409 762.852L-304.483 784.138L-273.671 735.662C-174.646 590.236 -77.311 502.098 23.8083 465.83C103.677 437.229 182.43 439.829 258.143 473.498C489.336 576.398 615.76 410.436 691.338 311.237C710.629 285.898 725.664 266.199 737.995 257.121L741.779 255.358L739.989 244.165L737.049 228.344L733.671 228.08L733.637 227.947ZM2251.41 227.242C2083.49 220.368 2017.98 319.787 1937.68 441.989C1897.13 503.376 1851.42 573.005 1786.83 634.613C1736.69 682.427 1677.63 723.543 1606.28 760.341C1526 802.029 1448.8 824.637 1376.87 827.501C1314.6 830.671 1252.49 817.034 1194.43 787.443C1166.66 772.878 1139.98 754.999 1114.73 734.032L1087.44 709.618L1072.77 731.652L1094.67 754.876C1121.33 781.037 1149.98 803.556 1180.18 822.081C1300.72 895.323 1441.88 890.299 1599.69 807.362C1672.12 769.507 1731.89 726.276 1782.37 675.156C1848.99 607.643 1894.36 530.743 1934.4 462.921C1977.34 390.076 2017.95 321.329 2076.3 277.833C2124.75 241.741 2182.28 225.259 2253.84 227.507L2288.23 230.019L2251.07 226.934L2251.41 227.242ZM2219.75 221.822C2079.54 225.7 2015.08 312.956 1937.41 418.236C1896.86 472.925 1851.19 534.885 1789.29 590.103C1739.83 634.172 1681.75 673.173 1611.68 708.736C1462.32 785.284 1327.31 798.592 1210.35 748.398C1185.32 737.597 1160.99 724.247 1137.57 708.472L1104.94 683.088L1098.18 693.312L1089.77 706.048L1116.59 730.065C1141.7 750.827 1168.22 768.53 1195.82 782.948C1314.07 844.644 1451.88 835.433 1605.09 755.845C1676.21 719.18 1735.07 678.24 1784.9 630.646C1849.09 569.347 1894.87 499.939 1935.11 438.684C1979.84 370.73 2022.11 306.478 2080.86 266.816C2129.48 233.809 2186.27 219.354 2256.1 222.747L2285.19 225.391L2253.5 222.175C2241.78 221.425 2230.53 221.249 2219.72 221.513L2219.75 221.822ZM2222.28 216.181C2084.44 216.489 2017.11 297.223 1935.89 394.571C1895.82 442.429 1850.58 496.986 1791.72 545.991C1743.01 586.666 1685.84 623.066 1616.99 657.572C1472.39 730.594 1340.86 748.089 1226.12 709.662C1203.68 702.069 1181.63 692.604 1160.11 681.325L1121.63 658.057L1107.17 680.092L1138.99 704.902C1162.28 720.581 1186.48 733.843 1211.36 744.564C1327.55 794.494 1461.81 781.229 1610.4 704.902C1680.23 669.648 1738.11 630.779 1787.37 586.71C1848.96 531.668 1894.5 469.752 1935.04 415.195C1981.73 351.913 2025.82 292.199 2084.95 255.887C2133.83 225.832 2189.98 213.493 2258.2 218.384L2291.98 222.086H2291.31C2268.39 218.264 2245.32 216.292 2222.22 216.181H2222.28ZM2224.55 210.408C2088.63 207.103 2017.98 281.447 1932.81 371.171C1891.69 414.446 1849.19 459.308 1794.29 501.746C1746.45 538.808 1690.23 573.005 1622.49 606.277C1521.14 656.603 1426.24 681.854 1338.7 681.854C1306.28 681.955 1273.92 678.268 1242 670.837C1221.56 665.989 1202.2 659.952 1183.69 653.209L1138.01 633.555L1123.89 654.84L1161.26 677.403C1182.66 688.651 1204.6 698.073 1226.94 705.607C1340.99 743.815 1471.78 726.363 1615.74 653.694C1684.39 619.365 1741.32 583.185 1789.87 542.509C1848.31 493.725 1891.63 441.768 1933.55 391.574C2027.88 278.318 2103.63 187.492 2291.41 217.679L2298.17 218.957L2292.15 217.679C2269.76 213.513 2247.2 211.085 2224.58 210.408H2224.55ZM2196.17 204.062C2080.12 207.896 2010.35 271.796 1927.37 347.682C1887.74 383.862 1846.96 421.232 1796.52 457.236C1749.73 490.552 1694.49 522.458 1627.6 554.716C1517.25 608.612 1413.94 635.847 1319.57 635.847C1298.94 635.869 1278.31 634.501 1257.78 631.748C1225.32 627.251 1193.09 620.172 1161.29 610.551L1154.53 608.304L1140.34 629.721L1184.43 648.715C1202.85 655.546 1222.14 661.583 1242.48 666.342C1354.41 692.784 1481.74 671.234 1621.07 602.046C1688.65 568.818 1744.66 534.709 1792.33 497.868C1847.2 455.65 1889.63 410.832 1930.68 367.513C2029.61 263.379 2109 179.736 2292.52 213.273L2298.98 214.683L2292.79 213.184C2260.85 206.319 2228.5 203.251 2196.13 204.018L2196.17 204.062ZM718.028 199.655C705.494 201.815 687.621 225.568 663.634 256.944C625.085 307.712 572.414 377.252 497.039 419.734C455.894 442.958 411.656 455.43 366.83 456.443C314.091 457.677 257.771 443.663 199.424 414.754C39.3833 335.431 -121.874 392.72 -279.854 585.212L-325.092 644.264L-319.383 671.895L-313.673 707.149L-287.996 670.176C-207.182 558.903 -114.678 467.46 -10.2135 429.694C68.6454 400.625 152.537 404.883 229.426 441.857C469.064 554.804 603.901 377.56 676.303 282.328C701.879 248.66 719.886 225.039 733.907 223.32H735.934L732.826 212.788C731.962 209.842 730.653 207.153 728.975 204.882C727.298 202.611 725.287 200.803 723.062 199.567C721.428 198.952 719.711 198.802 718.028 199.126V199.655ZM2197.49 196.923C2081.23 196.923 2007.04 255.226 1918.99 324.722C1882.1 353.763 1843.99 383.774 1798.89 412.859C1752.94 442.694 1700.23 471.382 1632.9 503.244C1496.07 568.73 1380.39 583.317 1273.69 592.659C1242.55 595.225 1211.3 594.784 1180.21 591.337L1167.03 589.531L1157.17 604.426L1161.93 606.056C1193.62 615.68 1225.73 622.745 1258.09 627.209C1367.96 641.972 1491.91 616.192 1626.35 550.53C1693.04 518.272 1748.14 486.498 1794.76 453.314C1845.17 417.442 1885.99 380.072 1925.38 343.98C2029.64 248.527 2113.43 172.024 2293.17 208.866L2297.79 209.967L2293.37 208.777C2261.69 201.238 2229.58 197.287 2197.38 196.967L2197.49 196.923ZM2197.76 189.564C2080.22 185.157 2000.55 238.656 1905.95 301.895C1873.28 323.929 1839.5 346.316 1801.22 368.703C1757.2 394.571 1706.92 420.395 1638.31 452.08C1513.3 510.604 1395.93 544.625 1289.4 553.923C1253.36 556.964 1220.11 558.33 1188.05 559.652L1169.87 585.564L1180.51 587.019C1211.47 590.465 1242.58 590.906 1273.59 588.341C1380.05 579.042 1495.43 564.5 1631.89 499.19C1699.05 467.416 1751.72 438.772 1797.43 408.937C1842.4 379.72 1880.48 349.797 1917.24 320.8C2027.95 233.676 2116.77 163.739 2293.94 204.459L2296.88 205.208L2293.81 204.327C2262.15 195.93 2230.01 191.006 2197.72 189.608L2197.76 189.564ZM2175.09 180.309C2163.09 180.045 2151.44 180.309 2140.05 181.279C2048.83 188.33 1975.01 229.754 1885.68 279.816C1859.63 294.403 1832.71 309.474 1803.68 324.634C1752.09 351.56 1694.02 378.133 1643.61 400.917C1524.48 455.386 1410.49 493.813 1305.25 515.143L1288.12 518.315L1204.7 535.943L1191.19 555.201L1289.17 549.604C1395.42 540.526 1512.56 506.461 1637.16 448.247C1705.71 416.517 1755.91 390.957 1799.93 365.045C1838.04 342.702 1871.8 320.139 1904.43 298.325C2023.22 219.001 2118.63 155.102 2294.42 200.316H2295.06L2293.81 199.92C2254.79 188.125 2214.95 181.569 2174.92 180.353L2175.09 180.309ZM2132.89 169.689C2035.86 173.126 1953.22 211.598 1853.25 258.178C1838.04 265.229 1822.3 272.589 1806.15 279.948C1774.09 294.579 1740.78 309.078 1705.5 324.458L1649.02 349.18C1537.12 399.022 1429.88 440.446 1321.1 475.878C1286.63 487.071 1254.91 498.617 1225.48 510.692L1220.72 512.939L1208.18 530.831L1287.61 514.217L1304.71 510.824C1409.92 489.495 1523.54 451.155 1642.56 396.774C1692.9 373.991 1750.95 347.418 1802.5 320.536C1831.46 305.42 1858.35 290.349 1884.36 275.762C1955.31 236.1 2016.53 201.682 2085.66 185.641C2142.38 172.421 2200.53 172.95 2264.48 187.669L2323.34 204.899L2293.17 194.279C2233.53 175.065 2181.44 167.838 2132.92 169.733L2132.89 169.689ZM2118.26 156.909C2011.43 156.909 1917.14 193.486 1808.58 235.792C1759.36 255.005 1708.68 274.969 1654.35 298.016L1618.74 313.44C1512.42 359.272 1420.76 398.89 1336.91 436.833C1308.39 449.848 1280.56 464.273 1253.42 480.108L1235.25 492.051L1225.45 505.976L1320.22 471.471C1428.94 436.216 1536.1 394.703 1647.93 344.95C1667.19 336.459 1686.02 328.218 1704.42 320.227C1739.69 304.847 1772.97 290.393 1805.04 275.762C1821.18 268.358 1836.93 261.043 1852.13 253.992C1931.7 216.886 2000.42 184.892 2075.11 171.628C2137.73 160.803 2201.29 163.947 2263.1 180.926L2316.48 198.289L2291.41 188.506C2235.09 167.862 2176.9 157.19 2118.39 156.777L2118.26 156.909ZM2070.69 140.339C1987.65 141.529 1904.63 161.139 1810.71 191.238C1755.57 208.866 1705.98 227.066 1659.45 246.28C1544.58 294.315 1441.2 345.214 1352.62 397.612C1327.13 412.75 1302.26 429.577 1278.09 448.026L1253.19 468.033L1242.11 482.62L1252.04 476.142C1279.27 460.189 1307.19 445.735 1335.79 432.778C1419.58 394.659 1511.48 354.997 1617.63 309.166L1653.24 293.742C1707.5 270.518 1758.38 250.687 1807.54 231.561C1889.23 199.7 1973.69 166.824 2059 156.204C2126.45 147.824 2194.5 153.777 2260.49 173.831L2313.44 193.221L2261.61 172.068C2199.42 150.059 2135.19 139.395 2070.76 140.383L2070.69 140.339ZM2020.01 118.745C1950.61 119.659 1881.43 129.177 1813.41 147.17C1763.38 159.814 1713.88 175.862 1665.13 195.248C1557.36 238.524 1457.55 293.61 1368.77 358.919C1340.14 380.117 1312.61 403.745 1286.36 429.649L1268.15 448.467L1263.02 455.253L1276.53 444.368C1300.77 425.894 1325.73 409.067 1351.3 393.954C1440.02 341.512 1543.37 290.481 1658.44 242.446C1705.3 222.924 1754.63 204.855 1810.04 187.096C1974.71 134.213 2106.74 113.633 2262.49 167.794L2314.72 189.123L2269.28 168.014C2188.71 134.751 2104.65 118.142 2020.15 118.789L2020.01 118.745ZM1973.35 90.8498C1763.55 85.8105 1557.72 165.884 1384.31 320.007C1358.84 342.906 1334.53 367.931 1311.53 394.923L1290.96 419.955L1325.32 388.225C1339.06 376.327 1352.93 365.221 1366.94 354.909C1456 289.423 1555.94 234.249 1663.95 190.886C1712.82 171.428 1762.44 155.35 1812.6 142.719C1984.3 99.2229 2128.16 105.437 2270.12 163.784L2308.27 181.411L2272.66 162.814C2176.56 117.734 2075.46 93.4123 1973.35 90.8059V90.8498ZM-910.49 0.112627C-910.068 -0.0701362 -909.609 -0.0292495 -909.211 0.226403C-908.812 0.482055 -908.507 0.931912 -908.361 1.47874C-908.091 2.49232 -880.657 103.806 -807.276 213.89C-739.502 315.247 -617.707 445.426 -421.786 488.04C-395.906 493.637 -374.79 512.851 -357.256 546.696C-345.6 569.215 -335.701 597.86 -327.322 633.643L-326.14 639.372L-282.219 582.083C-208.736 492.535 -134.104 431.456 -60.3845 400.388C25.7679 364.12 113.576 367.601 200.573 410.7C448.827 533.784 587.009 351.692 661.336 253.904C690.426 215.564 709.649 190.269 724.143 195.954C730.9 198.554 735.867 207.632 739.853 224.157L748.435 232.09C751.393 237.346 753.675 243.196 755.192 249.409L755.901 252.626L763.807 259.28C766.694 263.853 768.978 269.021 770.564 274.572L772.186 280.918L779.315 286.338C782.128 290.211 784.413 294.682 786.072 299.559L788.808 308.813L792.187 310.752C797.356 315.159 801.68 323.312 805.329 335.96L805.836 337.634L812.593 342.526C816.052 347.389 818.841 352.995 820.837 359.096L823.1 365.574L828.303 368.703C831.638 372.559 834.408 377.173 836.479 382.32L840.973 393.073L844.047 394.527C847.234 397.509 849.961 401.246 852.088 405.544L859.487 420.042C862.491 422.164 865.152 425.022 867.325 428.46L881.076 450.494L882.765 451.816L908.881 484.383L914.861 489.627C920.605 495.003 926.483 500.909 932.565 507.254L938.376 512.939L956.417 525.851L969.222 536.075L981.013 541.496L1001.55 552.733L1042.1 564.676L1046.12 566.13L1055.24 567.232L1074.33 563.398L1099.6 560.974L1126.29 552.16L1133.92 550.177L1142.17 545.198L1165.38 534.401L1172.14 528.804L1196.16 513.115L1200.18 509.194L1235.01 478.345L1244.13 467.989L1265.69 445.69L1273.19 435.819C1309.34 389.988 1345.76 349.092 1382.45 316.834C1519.01 195.671 1675.99 119.324 1840.04 94.2873C2009.81 68.8156 2179.58 101.382 2330.94 188.506C2331.14 188.616 2331.32 188.779 2331.48 188.983C2331.63 189.188 2331.76 189.431 2331.84 189.698C2331.92 189.964 2331.96 190.249 2331.96 190.537C2331.95 190.824 2331.9 191.108 2331.82 191.371L2330.87 191.855C2331.08 191.962 2331.26 192.121 2331.42 192.323C2331.58 192.525 2331.71 192.765 2331.8 193.031C2331.89 193.298 2331.93 193.584 2331.94 193.873C2331.94 194.163 2331.9 194.451 2331.82 194.72L2330.5 195.469H2330.67C2331.09 195.668 2331.43 196.076 2331.62 196.605C2331.81 197.134 2331.83 197.74 2331.68 198.289L2330.3 199.126H2330.84C2331.26 199.308 2331.61 199.702 2331.82 200.223C2332.02 200.744 2332.06 201.348 2331.92 201.903L2330.67 202.74L2331.88 205.34L2330.19 206.53H2330.63C2331.06 206.685 2331.43 207.054 2331.65 207.557C2331.87 208.06 2331.93 208.657 2331.82 209.218L2330.67 210.1L2331.82 212.611L2330.53 213.625L2331.78 216.137L2330.46 217.239L2331.75 219.795L2330.4 220.94H2330.57C2331.01 221.058 2331.39 221.395 2331.65 221.881C2331.9 222.367 2332 222.963 2331.92 223.541L2330.46 224.774L2331.88 227.198L2330.5 228.432L2331.85 230.856L2330.46 232.134L2331.78 234.425L2330.46 235.66L2331.88 238.083L2330.53 239.405L2331.92 241.741L2330.5 243.195L2331.92 245.531L2330.5 246.985L2331.82 249.144L2330.4 250.599L2331.82 252.802L2330.4 254.256L2331.78 256.416L2330.43 257.87L2331.88 260.118L2330.46 261.66L2331.85 263.775L2330.5 265.318L2331.92 267.477C2331.88 268.054 2331.68 268.59 2331.34 268.969C2331.01 269.348 2330.57 269.541 2330.13 269.504C2193.97 256.901 2100.39 288.498 2035.69 369.099C1977.34 441.724 1947.64 548.062 1916.19 660.657C1882.67 780.656 1844.67 916.696 1765.03 1032.68C1710.57 1112.01 1642.93 1174.01 1558.34 1222.18C1407.08 1307.94 1270.38 1310.32 1152.24 1229.45C1072.44 1174.94 1006.59 1086.84 952.397 982.667L929.862 936.086L927.463 939.303C845.399 1045.07 760.969 1127.61 673.06 1150.26C444.367 1209.05 295.07 1275.24 113.846 1473.5C18.1662 1578.25 -57.952 1629.99 -116.84 1629.99C-131.801 1630.21 -146.64 1626.46 -160.456 1618.97C-166.859 1615.39 -172.961 1610.96 -178.667 1605.75L-193.803 1589.27L-207.317 1579.18L-221.473 1563.71L-236.304 1552.43L-249.65 1537.62L-265.258 1525.37L-277.928 1511.05L-294.111 1497.83L-306.307 1483.73H-306.645L-312.592 1478.61L-323.572 1477.16C-330.698 1475.12 -337.624 1472.03 -344.215 1467.95C-349.383 1464.72 -354.304 1460.85 -358.911 1456.4L-364.756 1449.75L-370.466 1447.11C-375.456 1443.88 -380.206 1440.06 -384.656 1435.69L-389.723 1429.79L-396.717 1426.48C-401.528 1423.21 -406.116 1419.4 -410.434 1415.11L-414.184 1410.71L-423.036 1406.3C-427.672 1403.05 -432.08 1399.27 -436.212 1395.02L-438.645 1392.06L-449.388 1386.47C-453.844 1383.18 -458.072 1379.39 -462.024 1375.14L-462.531 1374.52L-475.842 1367.12L-482.329 1361L-483.309 1360.73L-496.147 1352.45L-497.161 1353.24C-501.138 1355.69 -505.466 1357.03 -509.864 1357.16H-511.925C-515.524 1356.6 -518.982 1354.99 -522.045 1352.46C-525.107 1349.93 -527.698 1346.53 -529.628 1342.53L-538.277 1349.8C-542.004 1352.26 -546.099 1353.61 -550.271 1353.77C-551.115 1353.83 -551.961 1353.83 -552.805 1353.77C-557.602 1352.85 -561.989 1349.73 -565.17 1344.96L-569.461 1337.24L-579.935 1346.5C-583.439 1348.92 -587.322 1350.26 -591.286 1350.42C-592.202 1350.42 -593.117 1350.33 -594.023 1350.15C-599.024 1348.92 -603.445 1345.15 -606.321 1339.67L-607.976 1335.96L-612.199 1339.67C-616.276 1342.39 -620.765 1343.89 -625.342 1344.07C-626.072 1344.16 -626.807 1344.16 -627.538 1344.07C-633.588 1343.17 -639.152 1339.31 -643.113 1333.28L-646.491 1327.42L-646.796 1327.81C-655.546 1337.9 -663.35 1343.28 -670.445 1343.28C-671.396 1343.29 -672.346 1343.18 -673.283 1342.97C-676.137 1342.18 -678.825 1340.59 -681.159 1338.31C-683.493 1336.02 -685.417 1333.1 -686.797 1329.75L-690.581 1319.53L-695.649 1326.71C-703.42 1336.32 -710.211 1341.43 -715.92 1341.43C-716.819 1341.43 -717.714 1341.3 -718.589 1341.03C-728.117 1338.26 -733.894 1320.98 -736.698 1286.78C-765.28 938.069 -811.026 743.462 -844.507 641.619C-880.691 531.448 -910.557 503.068 -910.828 502.803C-911.013 502.64 -911.171 502.43 -911.294 502.186C-911.417 501.941 -911.501 501.668 -911.542 501.381C-911.583 501.094 -911.579 500.799 -911.532 500.514C-911.485 500.228 -911.395 499.958 -911.267 499.719C-911.139 499.48 -910.976 499.277 -910.787 499.122C-910.599 498.966 -910.389 498.861 -910.169 498.811C-909.949 498.762 -909.724 498.77 -909.506 498.835C-909.289 498.9 -909.083 499.021 -908.902 499.19C-907.686 500.292 -878.258 527.967 -841.703 639.02C-808.086 741.127 -762.003 936.306 -733.353 1286.34C-730.786 1317.5 -725.549 1334.47 -717.846 1336.76C-712.677 1338.26 -706.258 1333.94 -698.656 1324.77L-691.899 1315.38L-696.19 1295.91C-708.183 1226.85 -718.86 1155.2 -729.164 1085.92C-749.908 946.442 -769.504 814.677 -795.518 737.381C-861.129 542.642 -910.388 479.447 -910.929 478.83C-911.09 478.632 -911.219 478.393 -911.307 478.128C-911.395 477.863 -911.441 477.577 -911.441 477.288C-911.441 476.999 -911.395 476.713 -911.307 476.447C-911.219 476.182 -911.09 475.943 -910.929 475.745C-910.613 475.342 -910.189 475.115 -909.746 475.115C-909.304 475.115 -908.88 475.342 -908.564 475.745C-908.057 476.362 -858.291 539.998 -792.41 735.75C-766.328 813.443 -746.631 945.429 -725.819 1085.17C-715.684 1154.45 -704.872 1226.19 -692.845 1295.02L-689.23 1311.73L-686.223 1307.32C-681.831 1300.4 -677.135 1292.38 -672.168 1283.35L-664.972 1269.69L-673.148 1238.44C-689.297 1168.24 -702.068 1088.61 -714.569 1010.47C-733.117 894.53 -750.651 785.019 -776.835 725.13C-859.237 536.869 -910.557 455.606 -911.064 454.813C-911.35 454.36 -911.489 453.779 -911.451 453.195C-911.413 452.61 -911.201 452.068 -910.861 451.684C-910.507 451.326 -910.061 451.159 -909.615 451.217C-909.169 451.274 -908.757 451.552 -908.463 451.992C-907.956 452.785 -856.501 534.313 -773.93 722.97C-747.442 783.433 -730.009 893.296 -711.258 1009.42C-698.825 1087.2 -686.054 1166.96 -669.938 1236.94L-662.573 1265.01L-656.424 1253.34L-652.776 1245.98L-663.283 1216.23C-686.696 1140.26 -698.419 1043.22 -709.197 953.978C-721.292 854.074 -732.847 759.679 -758.152 712.879C-857.008 531.272 -910.625 431.765 -911.165 430.839C-911.41 430.354 -911.505 429.765 -911.429 429.193C-911.354 428.62 -911.115 428.106 -910.76 427.754C-910.39 427.424 -909.937 427.295 -909.495 427.394C-909.054 427.493 -908.659 427.811 -908.395 428.283C-907.854 429.297 -854.339 528.76 -755.415 710.323C-729.502 757.961 -718.015 852.841 -705.886 953.273C-695.142 1042.2 -683.419 1138.93 -660.208 1214.38L-650.613 1241.57L-640.478 1220.99L-645.208 1207.02C-666.763 1134.26 -677.202 1040.66 -686.932 953.758C-698.892 846.583 -710.177 745.401 -739.502 700.716C-854.372 525.719 -910.692 408.056 -911.233 406.91C-911.448 406.428 -911.512 405.856 -911.412 405.314C-911.311 404.772 -911.053 404.302 -910.692 404.002C-910.505 403.842 -910.295 403.733 -910.075 403.682C-909.855 403.631 -909.629 403.638 -909.411 403.704C-909.193 403.77 -908.988 403.893 -908.808 404.065C-908.627 404.237 -908.475 404.456 -908.361 404.707C-907.821 405.852 -851.636 523.251 -736.935 697.983C-706.967 743.594 -695.582 845.481 -683.554 953.317C-673.925 1039.74 -663.519 1132.85 -642.201 1205.04L-638.315 1216.58L-628.416 1195.87L-639.87 1144.09C-650.681 1085.7 -657.506 1020.17 -664.161 956.225C-676.121 840.81 -687.439 731.476 -720.853 688.685C-851.467 520.078 -910.692 384.611 -911.267 383.113C-911.38 382.863 -911.453 382.585 -911.481 382.297C-911.51 382.009 -911.494 381.716 -911.434 381.437C-911.375 381.157 -911.272 380.896 -911.133 380.669C-910.994 380.442 -910.821 380.254 -910.625 380.116C-910.235 379.831 -909.774 379.759 -909.343 379.916C-908.913 380.073 -908.547 380.446 -908.327 380.954C-907.753 382.276 -848.73 517.566 -718.42 685.424C-684.196 729.493 -672.878 839.355 -660.715 955.564C-653.958 1019.29 -647.201 1084.69 -636.559 1142.81L-625.95 1190.71L-620.139 1178.55L-614.598 1166.83L-615.544 1162.78C-627.369 1100.81 -634.261 1029.42 -641.018 960.059C-653.08 835.61 -664.431 718.299 -702.102 676.566C-848.358 514.438 -910.692 360.991 -911.3 359.492C-911.505 358.971 -911.545 358.366 -911.413 357.806C-911.28 357.246 -910.985 356.776 -910.591 356.496C-910.19 356.24 -909.729 356.194 -909.302 356.365C-908.875 356.537 -908.515 356.915 -908.294 357.421C-907.686 358.964 -845.656 511.661 -699.906 673.217C-661.256 716.052 -649.802 834.288 -637.674 959.399C-630.916 1028.72 -624.159 1099.84 -612.301 1161.59V1161.94L-599.733 1135.5L-599.293 1134.53L-600.138 1129.46C-607.638 1077.28 -612.841 1020.52 -617.943 964.51C-630.106 831.115 -641.593 705.079 -683.554 664.58C-845.216 508.621 -910.794 337.634 -911.436 335.916C-911.623 335.395 -911.647 334.798 -911.501 334.255C-911.356 333.711 -911.054 333.263 -910.658 333.007C-910.26 332.746 -909.798 332.701 -909.373 332.883C-908.949 333.064 -908.597 333.458 -908.395 333.977C-907.753 335.695 -842.581 505.844 -681.493 661.054C-638.349 702.655 -626.795 829.616 -614.564 963.982C-609.463 1019.68 -604.429 1076.05 -596.928 1127.87L-596.726 1129.15L-582.164 1098.3L-585.171 1071.86C-588.55 1038.15 -591.658 1003.51 -594.597 969.138C-606.861 826.399 -618.45 691.505 -664.803 652.284C-737.551 590.797 -801.928 513.915 -855.285 424.802C-894.104 359.492 -911.301 311.986 -911.469 311.546C-911.566 311.286 -911.621 311.004 -911.632 310.715C-911.643 310.427 -911.61 310.139 -911.535 309.868C-911.459 309.597 -911.343 309.348 -911.192 309.137C-911.042 308.925 -910.86 308.756 -910.658 308.637C-910.25 308.394 -909.785 308.368 -909.362 308.566C-908.939 308.763 -908.592 309.168 -908.395 309.695C-907.753 311.59 -839.203 498.793 -663.012 648.098C-615.308 688.509 -603.652 824.372 -591.286 968.168C-588.347 1002.32 -585.374 1036.74 -581.928 1070.23L-579.462 1091.91L-569.326 1070.67L-563.785 1059.26L-564.292 1054.54C-566.758 1027.75 -568.954 1000.6 -571.049 973.545C-583.448 821.376 -595.172 677.624 -645.951 639.592C-725.082 580.463 -794.862 502.23 -851.568 409.069C-893.09 340.146 -911.098 288.321 -911.267 287.792C-911.439 287.266 -911.447 286.672 -911.289 286.137C-911.132 285.602 -910.821 285.169 -910.422 284.928C-910.009 284.704 -909.546 284.699 -909.129 284.913C-908.713 285.126 -908.377 285.543 -908.192 286.074C-908.192 286.559 -890.151 338.031 -848.831 406.513C-792.4 499.13 -722.976 576.898 -644.262 635.67C-591.962 674.847 -580.07 819.701 -567.738 973.016L-560.677 1052.87L-544.359 1019.07L-547.737 978.524C-560.271 816.837 -572.096 664.094 -627.301 627.253C-712.748 570.442 -787.988 490.641 -848.054 393.117C-892.313 320.668 -911.132 264.524 -911.334 263.951C-911.504 263.419 -911.508 262.821 -911.343 262.285C-911.179 261.75 -910.86 261.319 -910.456 261.087C-910.252 260.964 -910.032 260.896 -909.808 260.888C-909.584 260.879 -909.361 260.93 -909.153 261.037C-908.944 261.144 -908.755 261.305 -908.595 261.511C-908.436 261.716 -908.31 261.962 -908.226 262.233C-908.226 262.85 -889.34 318.508 -845.318 390.516C-785.555 487.507 -710.708 566.871 -625.714 623.375C-568.819 661.274 -556.994 815.162 -544.291 978.084L-541.419 1013.03L-536.149 1002.06L-524.628 979.053L-529.088 920.133C-540.676 773.914 -556.386 646.159 -608.652 615.002C-700.272 560.593 -780.979 479.229 -844.439 377.296C-891.401 301.233 -911.064 240.683 -911.267 240.198C-911.426 239.66 -911.42 239.061 -911.25 238.528C-911.08 237.995 -910.76 237.567 -910.355 237.334C-910.148 237.227 -909.928 237.173 -909.706 237.177C-909.484 237.181 -909.264 237.242 -909.06 237.357C-908.856 237.472 -908.672 237.638 -908.517 237.845C-908.362 238.053 -908.24 238.299 -908.158 238.568C-907.956 239.185 -888.428 299.118 -841.737 374.652C-778.581 476.006 -698.295 556.912 -607.166 611.036C-553.413 643.162 -537.433 771.975 -525.743 919.516L-521.655 973.324L-504.492 938.995L-505.742 921.896C-517.499 767.656 -533.784 632.938 -589.901 602.928C-687.668 550.906 -773.946 467.902 -840.926 361.431C-890.59 282.108 -911.064 217.283 -911.267 216.622C-911.426 216.083 -911.42 215.485 -911.25 214.951C-911.08 214.418 -910.76 213.99 -910.355 213.757C-909.933 213.539 -909.463 213.546 -909.045 213.777C-908.628 214.008 -908.297 214.444 -908.125 214.991C-907.956 215.608 -887.583 279.772 -838.223 358.787C-771.624 464.582 -685.876 547.078 -588.719 598.829C-530.946 629.677 -514.391 765.496 -502.499 921.015L-501.62 933.089L-500.539 930.886L-484.39 900.303L-488.039 855.485C-500.134 722.926 -519.898 615.487 -571.353 590.632C-675.203 541.134 -767.104 456.529 -837.649 345.478C-889.982 262.453 -911.3 193.574 -911.503 192.913C-911.659 192.375 -911.647 191.778 -911.471 191.251C-911.294 190.724 -910.966 190.308 -910.557 190.092C-910.351 189.985 -910.13 189.932 -909.908 189.936C-909.686 189.94 -909.467 190.001 -909.263 190.116C-909.059 190.23 -908.874 190.396 -908.72 190.604C-908.565 190.812 -908.443 191.057 -908.361 191.326C-908.158 191.988 -887.009 260.294 -834.946 342.79C-764.814 453.152 -673.513 537.3 -570.339 586.666C-516.283 612.755 -496.35 725.174 -484.153 862.491L-481.552 894.706L-464.22 861.875L-470.031 802.955C-483.038 687.936 -504.864 599.314 -552.839 578.205C-662.583 531.084 -760.025 444.834 -834.135 329.217C-889.205 242.71 -911.3 169.689 -911.503 168.984C-911.585 168.715 -911.626 168.427 -911.623 168.137C-911.62 167.848 -911.573 167.562 -911.486 167.296C-911.398 167.03 -911.27 166.789 -911.111 166.587C-910.952 166.385 -910.764 166.226 -910.557 166.119C-910.14 165.914 -909.678 165.928 -909.268 166.158C-908.859 166.388 -908.534 166.817 -908.361 167.353C-908.158 168.102 -886.198 240.595 -831.466 326.573C-757.74 441.458 -660.857 527.166 -551.758 574.018C-502.397 595.524 -480.065 684.939 -466.821 800.883L-461.348 856.278L-448.881 834.244L-452.936 782.683C-463.477 671.366 -484.018 585.697 -534.189 565.91C-598.535 540.873 -659.388 502.547 -714.434 452.389C-757.671 412.807 -796.735 365.988 -830.621 313.132C-888.394 223.232 -911.3 145.98 -911.503 145.231C-911.585 144.965 -911.625 144.68 -911.622 144.394C-911.618 144.107 -911.571 143.824 -911.483 143.562C-911.395 143.299 -911.268 143.062 -911.109 142.865C-910.95 142.667 -910.762 142.512 -910.557 142.41C-910.349 142.304 -910.126 142.253 -909.903 142.26C-909.679 142.267 -909.459 142.332 -909.254 142.45C-909.05 142.569 -908.866 142.74 -908.712 142.952C-908.559 143.165 -908.44 143.415 -908.361 143.688C-908.125 144.437 -885.387 221.073 -827.986 310.488C-775.044 392.984 -680.885 503.509 -533.21 561.679C-481.586 582.039 -460.47 668.59 -449.726 780.877L-445.908 828.955L-427.664 796.609L-428.239 788.941C-439.422 666.915 -461.179 573.005 -515.506 553.57C-583.112 529.782 -647.227 491.541 -705.244 440.402C-750.718 400.074 -791.762 351.845 -827.243 297.047C-887.651 203.622 -911.368 122.227 -911.706 121.433C-911.858 120.884 -911.837 120.279 -911.647 119.75C-911.457 119.221 -911.113 118.812 -910.692 118.613C-910.486 118.508 -910.266 118.457 -910.045 118.464C-909.824 118.472 -909.606 118.537 -909.404 118.656C-909.203 118.775 -909.021 118.946 -908.871 119.158C-908.721 119.37 -908.605 119.62 -908.53 119.891C-908.293 120.728 -884.88 201.462 -824.675 294.359C-769.166 380.028 -670.378 493.814 -514.729 549.384C-458.848 569.303 -436.55 663.963 -425.164 787.355L-424.826 791.762L-421.448 785.592L-407.292 762.5L-410.332 735.089C-423.847 632.586 -447.868 557.537 -497.093 541.628C-567.996 519.196 -635.42 481.051 -696.426 428.856C-744.088 387.779 -787.04 338.088 -823.999 281.27C-887.11 184.319 -911.605 98.8703 -911.841 98.033C-911.984 97.4831 -911.958 96.8825 -911.77 96.3567C-911.581 95.831 -911.243 95.4211 -910.828 95.2128C-910.622 95.1073 -910.401 95.0566 -910.18 95.0641C-909.959 95.0715 -909.741 95.1367 -909.539 95.2558C-909.338 95.375 -909.156 95.5457 -909.006 95.7577C-908.856 95.9698 -908.74 96.2191 -908.665 96.4907C-908.429 97.328 -884.069 182.336 -821.33 278.538C-763.456 367.425 -660.073 484.427 -496.383 537.353C-445.706 553.747 -421.11 629.457 -407.359 732.798L-404.487 757.652L-387.189 729.493L-392.764 692.167C-408.001 604.558 -433.306 542.73 -478.612 529.465C-552.713 508.198 -623.373 470.116 -687.372 416.958C-737.237 375.049 -782.149 323.875 -820.688 265.053C-886.502 164.709 -911.706 75.0733 -911.909 74.192C-912.052 73.6421 -912.026 73.0415 -911.837 72.5157C-911.648 71.99 -911.311 71.5798 -910.895 71.3715C-910.687 71.2671 -910.465 71.2186 -910.242 71.229C-910.019 71.2393 -909.8 71.3083 -909.598 71.4318C-909.396 71.5552 -909.215 71.7305 -909.067 71.9474C-908.918 72.1642 -908.804 72.418 -908.733 72.6935C-908.462 73.5749 -883.394 162.594 -817.952 262.189C-757.544 354.336 -649.566 474.599 -477.835 524.926C-431.178 538.587 -405.332 601.033 -389.723 689.346L-384.385 724.865L-377.865 714.245L-367.527 699.041L-369.689 684.851C-388.102 581.73 -416.785 528.363 -459.929 516.906C-537.247 496.987 -611.173 459.022 -678.148 404.839C-730.198 362.23 -777.041 309.656 -817.107 248.88C-885.522 145.098 -911.706 51.3204 -911.706 50.5713C-911.849 50.0214 -911.823 49.4205 -911.634 48.8947C-911.446 48.369 -911.108 47.9591 -910.692 47.7508C-910.271 47.5524 -909.807 47.5801 -909.401 47.828C-908.996 48.0759 -908.682 48.5236 -908.53 49.0728C-908.26 49.9982 -882.38 143.115 -814.303 246.324C-751.496 341.512 -638.924 465.037 -459.118 512.675C-410.096 525.895 -382.797 590.721 -366.243 683.353L-364.452 694.855L-347.897 670.485L-354.012 640.871C-373.473 557.757 -401.548 514.217 -441.145 504.787C-521.675 485.962 -598.864 447.974 -668.857 392.72C-723.084 349.372 -771.858 295.369 -813.458 232.619C-884.61 125.444 -911.436 27.8759 -911.706 26.8182C-911.847 26.2628 -911.817 25.6574 -911.621 25.1307C-911.426 24.604 -911.08 24.1975 -910.658 23.9977C-910.237 23.815 -909.778 23.8559 -909.38 24.1115C-908.981 24.3672 -908.676 24.817 -908.53 25.3639C-908.26 26.3334 -881.502 123.373 -810.823 229.931C-745.55 328.16 -628.383 454.68 -440.536 500.468C-415.772 506.373 -395.602 525.102 -378.878 557.757C-367.763 579.395 -358.371 606.938 -350.397 641.267L-345.228 666.562L-331.342 646.115L-329.146 643.25L-331.207 633.423C-351.715 546.696 -381.176 501.658 -422.428 492.624C-509.391 473.718 -589.225 436.26 -659.702 381.218C-716.104 337.138 -766.792 281.672 -809.877 216.886C-883.698 106.098 -911.233 4.12284 -911.537 3.10926C-911.678 2.55382 -911.648 1.94841 -911.452 1.42172C-911.257 0.895029 -910.911 0.488524 -910.49 0.288804V0.112627Z" fill="#CEAF59"/>
</svg>
