<svg width="1440" height="1348" viewBox="0 0 1440 1348" fill="none" xmlns="http://www.w3.org/2000/svg">
<path opacity="0.2" fill-rule="evenodd" clip-rule="evenodd" d="M-87.6071 1297.84L-80.8452 1303.24L-75.2742 1306.23L-81.0372 1299.85L-87.6071 1297.84ZM-106.279 1280.39L-97.5192 1289.9L-96.5203 1290.7L-94.3688 1291.9L-85.5707 1294.6L-93.8311 1282.68L-101.515 1281.95L-106.356 1280.39H-106.279ZM-120.225 1275.91L-113.732 1281.15L-107.355 1284.8L-113.464 1278.2L-120.225 1276.01V1275.91ZM-120.994 1261.55L-111.543 1274.7L-110.966 1275.32L-103.013 1277.95L-96.5972 1278.71L-96.8277 1278.38L-104.512 1263.19L-120.917 1261.55H-120.994ZM-138.744 1258.38L-130.022 1267.96L-128.063 1269.53L-127.679 1269.75L-116.96 1273.39L-124.644 1261.25L-132.789 1260.45L-138.667 1258.45L-138.744 1258.38ZM-153.036 1253.56L-146.62 1258.89L-139.704 1262.86L-146.005 1255.93L-153.036 1253.56ZM-115.922 1241.03L-129.369 1242.3L-132.75 1241.94L-123.722 1257.65L-111.312 1259.54H-106.51L-115.922 1241.32V1241.03ZM-152.075 1239.9L-143.7 1252.98L-143.354 1253.38L-137.245 1255.57L-127.333 1257.1L-137.322 1241.47L-152.075 1239.9ZM-171.285 1236.25L-162.679 1245.8L-161.258 1246.97H-161.027L-149.501 1251.12L-157.185 1239.32L-164.869 1238.48L-171.439 1236.14L-171.285 1236.25ZM-185.232 1231.22L-179.507 1236.07L-172.707 1240.12L-178.585 1233.63L-185.232 1231.22ZM-185.232 1223.94L-190.649 1224.52L-193.876 1224.19L-192.954 1224.96L-181.774 1229.37L-185.232 1223.94ZM-168.327 1222.11L-181.044 1223.5L-176.165 1231.15L-175.55 1231.81L-171.708 1233.3L-159.606 1235.63L-168.212 1222.11H-168.327ZM-146.773 1220.8L-155.917 1221.53L-160.528 1221.27L-164.37 1221.68L-154.842 1236.62L-147.158 1238.08H-139.474L-147.158 1220.62L-146.773 1220.8ZM-183.849 1219.09L-183.08 1220.25H-177.74L-183.849 1219.2V1219.09ZM-124.375 1219.09L-142.816 1220.58L-135.132 1238.44L-120.187 1238.8L-117.382 1238.48L-124.452 1219.09H-124.375ZM-202.521 1214.93L-197.372 1220.73L-187.46 1220.47L-188.843 1218.32L-194.837 1217.3L-202.521 1214.93ZM-126.91 1212.02L-144.315 1217.12L-128.947 1216.14L-125.719 1215.55L-127.026 1211.91L-126.91 1212.02ZM-215.622 1210.45L-212.318 1213.29L-204.941 1217.92L-209.513 1212.78L-212.51 1211.87L-215.622 1210.45ZM-196.988 1205.46L-209.359 1206.7L-208.13 1208.67L-207.093 1209.83L-205.671 1210.45L-191.725 1213.77L-196.988 1205.46ZM-251.429 1203.13L-237.175 1211.29C-231.194 1214.02 -224.938 1216.19 -218.503 1217.74L-209.974 1219.02L-214.431 1216.25L-224.651 1207.32L-245.051 1205.24L-251.429 1203.13ZM-177.74 1201.3L-190.726 1204.95L-192.839 1205.17L-186.5 1215.15L-182.158 1216.17L-171.016 1217.01L-177.74 1201.41V1201.3ZM-156.839 1195.36L-158.568 1196.09L-173.936 1200.32L-166.598 1217.23L-161.104 1217.63L-152.69 1216.21L-149.117 1215.15L-153.843 1204.22L-156.686 1195.33L-156.839 1195.36ZM-240.595 1190.44L-243.092 1190.66L-237.022 1194.63L-240.595 1190.44ZM-268.564 1189.24L-268.257 1189.6L-259.728 1196.89L-249.585 1200.54C-243.45 1202.15 -237.175 1203.24 -230.836 1203.78H-229.914L-246.819 1192.85L-248.471 1191.35H-249.393L-268.603 1189.39L-268.564 1189.24ZM-225.073 1189.02L-235.331 1189.97L-227.417 1200.17L-225.496 1201.81L-221.116 1203.75H-215.814L-225.073 1189.17V1189.02ZM-278.861 1187.16L-271.676 1191.35L-274.058 1188.66H-274.711L-278.861 1187.24V1187.16ZM-134.902 1186.18L-153.42 1193.9L-150.462 1203.2L-145.736 1214.13L-128.178 1208.88L-130.253 1203.09L-134.902 1186.25V1186.18ZM-207.246 1184.87L-221.077 1188.29L-211.28 1203.82H-210.781L-199.255 1202.21L-201.253 1199.04L-207.4 1184.87H-207.246ZM-186.961 1178.71L-195.183 1181.88L-203.52 1183.96L-197.526 1197.77L-195.067 1201.63L-189.151 1200.83L-179.161 1198.21L-185.193 1184.28L-186.961 1178.71ZM-265.76 1174.15L-278.4 1175.17H-279.86L-271.83 1185.34L-263.57 1187.02L-252.889 1187.45L-261.841 1179.47L-265.683 1174.33L-265.76 1174.15ZM-296.496 1173.2L-296.188 1173.61L-287.774 1180.64L-280.743 1183.37L-278.323 1183.85L-284.009 1177.43L-285.93 1174.37L-296.496 1173.2ZM-252.735 1172.66L-255.847 1173.39L-261.38 1173.82L-259.343 1176.48L-247.088 1187.42H-245.128L-243.246 1187.24L-245.205 1184.94L-252.889 1172.51L-252.735 1172.66ZM-305.486 1171.93L-299.531 1175.57L-302.066 1172.66L-304.218 1172.44L-305.486 1171.97V1171.93ZM-164.908 1170.25L-183.426 1177.36L-181.582 1183.23L-175.473 1197.22L-166.06 1194.74L-158.069 1191.75L-164.908 1170.25ZM-236.099 1168.98L-249.431 1171.93L-237.905 1186.83L-227.263 1185.78L-232.603 1177.25L-236.176 1168.98H-236.099ZM-216.621 1162.82L-231.643 1167.99H-232.258L-228.915 1175.72L-223.075 1184.94L-208.553 1181.7L-216.237 1163.77L-216.582 1162.67L-216.621 1162.82ZM-295.535 1158.92L-307.061 1159.68H-307.484L-299.608 1169.56L-296.572 1170.29L-288.197 1170.95L-295.689 1158.95L-295.535 1158.92ZM-141.856 1158.92L-161.488 1168.72L-154.534 1190.59L-141.433 1185.7L-135.824 1183.04L-140.357 1166.5L-141.856 1158.92ZM-324.004 1157.9L-315.244 1165.41L-312.132 1166.68L-306.216 1168.1L-312.401 1161.03L-313.592 1159.1L-324.004 1157.9ZM-332.687 1156.91L-326.732 1160.56L-325.925 1160.89L-328.192 1158.95L-329.575 1157.17L-332.687 1156.8V1156.91ZM-279.245 1156.91L-288.082 1158.63L-291.924 1158.88L-290.348 1161.94L-282.664 1171.56L-279.629 1171.82L-268.103 1171.16L-279.091 1156.91H-279.245ZM-194.722 1154.33L-205.633 1159.25L-213.009 1161.8L-212.587 1163.15L-204.903 1181.37H-204.519L-188.113 1175.94L-194.875 1154.58L-194.722 1154.33ZM-264.3 1153.67L-267.911 1154.76L-275.019 1156.15L-263.723 1170.73H-261.879L-254.695 1169.49L-264.3 1153.6V1153.67ZM-245.09 1147.84L-246.473 1148.35L-259.958 1152.43L-251.506 1169.01L-242.785 1167.48L-237.329 1165.92L-245.013 1147.69L-245.09 1147.84ZM-177.701 1146.67L-191.11 1152.76L-184.233 1174.63L-181.851 1173.82L-165.791 1166.97L-170.555 1147.47L-177.701 1146.82V1146.67ZM-322.852 1143.98L-334.377 1145.18L-327.231 1154.22L-316.205 1154.87L-323.005 1143.94L-322.852 1143.98ZM-144.583 1143.98L-145.928 1144.52L-166.56 1147.66L-162.257 1165.3L-158.107 1163.51L-142.317 1155.42L-144.583 1143.98ZM-350.475 1143.36L-344.635 1148.5L-333.11 1152.65L-339.41 1144.67L-350.552 1143.36H-350.475ZM-359.427 1142.26L-356.392 1144.27L-353.971 1145.14L-356.776 1142.7L-359.35 1142.37L-359.427 1142.26ZM-304.948 1142.08L-319.24 1143.61L-317.588 1146.78L-310.865 1155.2L-298.148 1155.97H-297.418L-302.451 1147.88L-304.948 1142.19V1142.08ZM-219.694 1140.08L-213.893 1158.3L-201.407 1153.56L-195.644 1150.9L-196.258 1148.97L-198.218 1140.91L-206.67 1142.26L-219.694 1139.97V1140.08ZM-223.92 1139.38L-241.517 1146.38L-233.564 1164.86L-222.691 1161.76L-217.466 1159.76L-223.92 1139.38ZM-290.733 1138.15L-300.991 1141.1L-293.653 1155.2L-281.934 1153.12L-285.277 1148.79L-290.733 1138.15ZM-173.936 1133.48L-187.306 1139.24L-194.453 1140.4L-192.57 1148.2L-192.186 1149.41L-178.931 1143.25C-178.531 1143.05 -178.069 1142.98 -177.625 1143.07H-171.593L-173.936 1133.41V1133.48ZM-272.983 1133.01L-287.083 1137.05L-282.011 1145.8L-277.362 1151.88L-265.375 1149.77L-272.598 1132.5L-272.983 1133.01ZM-226.11 1132.5L-229.952 1134.35C-233.471 1135.57 -237.097 1136.48 -240.787 1137.09L-244.936 1137.34L-243.399 1142.19V1142.52L-225.227 1135.89L-226.302 1132.5H-226.11ZM-284.547 1132.5L-288.85 1133.59L-284.624 1132.35L-284.547 1132.5ZM-269.563 1132.5L-267.95 1136.94L-261.61 1149.41L-246.819 1144.01L-247.049 1143.5L-248.855 1137.78H-251.006C-254.317 1137.63 -257.595 1137.09 -260.765 1136.18L-269.563 1132.5ZM-349.861 1130.86H-361.386L-355.086 1139.06L-342.638 1140.59L-349.054 1132.35L-349.937 1130.67L-349.861 1130.86ZM-306.37 1130.86L-305.947 1131.95L-302.72 1138.11L-292.423 1135.12L-293.153 1133.73L-304.986 1131.66L-306.37 1130.86ZM-375.525 1130.86L-370.991 1134.94L-361.924 1138.58L-360.003 1138.8L-365.805 1131.29H-372.298L-375.525 1130.67V1130.86ZM-331.496 1129.47L-335.876 1130.35H-336.222L-338.757 1129.8L-345.404 1131.11V1131.33L-337.221 1141.72L-334.531 1142.04L-324.849 1140.99L-330.074 1132.61L-331.419 1129.54L-331.496 1129.47ZM-386.359 1128.67L-381.134 1130.78L-382.71 1129.36L-386.552 1128.63L-386.359 1128.67ZM-316.128 1125.24L-319.509 1127.03L-327.193 1128.6L-320.931 1140.48L-306.293 1138.87L-311.018 1128.12L-316.013 1125.21L-316.128 1125.24ZM-370.991 1124.73L-379.329 1126.48L-371.376 1128.05H-368.456L-370.991 1124.81V1124.73ZM-394.351 1123.17L-393.659 1123.64L-391.546 1124.04L-394.351 1123.17ZM-203.135 1120.91L-206.555 1123.38L-222.576 1131.26L-220.808 1136.83L-213.586 1138.73C-210.264 1139.17 -206.904 1139.28 -203.558 1139.06L-198.986 1137.93L-203.135 1120.91ZM-254.349 1120.4L-270.101 1128.82H-268.68C-263.28 1132.14 -257.051 1134.05 -250.622 1134.35H-249.892L-254.349 1120.29V1120.4ZM-359.427 1120.1L-365.958 1123.75L-366.957 1123.97L-363.884 1127.94L-351.666 1127.65L-353.011 1125.1L-359.427 1120.18V1120.1ZM-149.309 1119.7L-166.406 1130.64L-170.248 1132.31V1132.97L-167.674 1143.61H-156.801L-145.275 1139.97L-149.117 1119.34L-149.309 1119.7ZM-394.236 1119.34L-390.394 1120.69L-391.162 1119.63L-394.389 1119.34H-394.236ZM-375.41 1119.01L-386.129 1119.96L-384.016 1122.73L-382.402 1123.24L-373.45 1121.53L-375.41 1119.01ZM-400.344 1118.79L-399.73 1119.45L-399.461 1119.67L-400.268 1118.79H-400.344ZM-363.192 1117.95L-370.876 1118.61L-369.224 1120.76L-367.534 1120.43L-363.077 1117.95H-363.192ZM-301.221 1116.64L-301.721 1117.01L-309.405 1121.09L-308.098 1124.73L-302.489 1128.05L-294.805 1128.96L-301.221 1116.64ZM-396.963 1110.78L-400.191 1112.63L-398.308 1114.67L-393.736 1115.04L-396.963 1110.78ZM-420.361 1109.06L-418.286 1110.85L-410.987 1113L-414.137 1110.08L-414.637 1109.39L-420.361 1109.06ZM-340.678 1107.17L-348.785 1113.62L-352.973 1115.91L-349.63 1122.26L-348.631 1123.02L-338.373 1125.32L-333.225 1124.26L-340.678 1107.17ZM-441.876 1105.56L-443.759 1107.2L-445.872 1108.48L-438.188 1115.77C-435.338 1117.63 -432.029 1118.76 -428.583 1119.05L-415.52 1116.79L-418.363 1115.44L-420.246 1113.84L-430.312 1110.81L-438.803 1106.15L-441.799 1105.45L-441.876 1105.56ZM-232.834 1103.96L-250.776 1117.37L-245.666 1133.44L-240.518 1133.15C-236.96 1132.52 -233.464 1131.61 -230.068 1130.42L-226.802 1128.78L-232.834 1103.96ZM-449.214 1103.41L-447.908 1105.6L-447.101 1105.13L-446.41 1104.51L-447.37 1104.29L-449.214 1103.41ZM-283.318 1103.05L-298.148 1114.31L-290.464 1129.36H-289.004L-275.403 1125.94L-278.285 1118.98L-283.279 1102.87L-283.318 1103.05ZM-179.123 1102.47L-180.89 1104.03L-199.601 1117.7L-195.067 1136.29L-181.582 1132.97L-174.359 1129.33L-179.123 1102.61V1102.47ZM-384.823 1100.86L-393.967 1108.52L-388.703 1115.44L-385.975 1115.7L-377.446 1114.86L-384.823 1100.86ZM-436.075 1100.46L-438.265 1102.39L-437.88 1102.61L-432.079 1103.89L-435.921 1100.46H-436.075ZM-480.565 1093.97L-491.476 1103.96L-487.634 1109.46C-484.552 1113.07 -480.174 1115.47 -475.34 1116.21C-470.883 1116.58 -466.401 1115.83 -462.354 1114.02L-451.327 1107.53L-454.67 1102.21C-460.5 1101.21 -466.232 1099.75 -471.805 1097.84L-480.565 1093.97ZM-427.161 1092.63L-433.27 1097.98L-424.971 1105.27L-417.556 1105.6L-427.161 1092.77V1092.63ZM-323.428 1092.33L-330.036 1098.78L-337.413 1104.65L-332.648 1117.12L-329.268 1123.46L-317.089 1120.98L-314.246 1119.41L-315.475 1116.57L-323.428 1092.33ZM-475.57 1089.49L-476.953 1090.77L-469.538 1094.41L-464.774 1095.58L-472.842 1091.64L-475.57 1089.35V1089.49ZM-369.954 1087.05L-378.099 1095.32L-381.941 1098.38L-373.988 1113.76L-373.412 1114.49L-361.886 1113.36C-361.551 1113.31 -361.207 1113.34 -360.89 1113.46C-360.573 1113.57 -360.293 1113.77 -360.08 1114.02L-359.004 1114.89L-358.198 1114.42L-364.076 1103.27L-370.3 1087.05H-369.954ZM-514.759 1086.72L-526.707 1097.66L-535.198 1103.01L-533.968 1105.13C-532.616 1107.16 -530.843 1108.91 -528.756 1110.28C-526.67 1111.64 -524.312 1112.59 -521.828 1113.07C-517.709 1113.56 -513.528 1112.95 -509.764 1111.29L-496.202 1103.19L-500.505 1094.38L-514.759 1086.61V1086.72ZM-262.801 1083.84L-280.436 1100.32L-279.552 1103.56L-271.868 1124.77L-255.309 1115.8L-257.307 1109.46L-262.84 1083.95L-262.801 1083.84ZM-209.859 1082.93L-210.512 1083.59L-229.722 1100.9L-223.421 1126.81L-207.554 1118.9L-203.942 1116.21L-204.25 1114.97L-209.936 1082.93H-209.859ZM-313.592 1082.38L-320.469 1089.09L-317.127 1100.61L-310.826 1117.3L-302.604 1112.82L-313.131 1084.03L-313.592 1082.38ZM-469 1081.95L-472.842 1086.14L-462.546 1093.43L-451.75 1098.06L-469.039 1081.98L-469 1081.95ZM-155.61 1081.11L-175.78 1099.33L-170.824 1127.21L-157.761 1120.32L-150.078 1114.6L-153.919 1095.69L-155.917 1081.11H-155.61ZM-415.405 1079.98L-424.626 1089.82L-421.245 1095.4L-411.678 1105.53L-407.298 1105.75C-406.961 1105.74 -406.628 1105.82 -406.332 1105.97C-406.036 1106.13 -405.786 1106.35 -405.608 1106.62L-402.765 1109.68L-399.192 1107.64L-404.801 1100.35L-415.405 1080.02V1079.98ZM-505.999 1077.68L-508.88 1080.96L-512.069 1083.92L-498.276 1091.2C-497.817 1091.41 -497.459 1091.78 -497.278 1092.23L-493.436 1100.5L-484.099 1092.12L-487.749 1090.51L-506.037 1077.57L-505.999 1077.68ZM-558.98 1073.35L-566.664 1082.46L-579.419 1094.92L-576.038 1099.48C-572.133 1104.06 -566.494 1107.02 -560.324 1107.71C-555.384 1108.03 -550.442 1107.12 -545.994 1105.05L-540.385 1101.59L-542.075 1098.86C-543.923 1094.88 -545.464 1090.77 -546.685 1086.58L-558.98 1073.35ZM-459.588 1071.52L-466.503 1079.14L-446.986 1097.36L-441.761 1100.28L-438.956 1097.84L-443.221 1094.19L-459.588 1071.56V1071.52ZM-353.472 1069.23L-358.582 1075.06L-367.188 1083.88L-360.311 1101.81L-354.701 1112.42L-350.859 1110.19L-342.407 1103.41L-343.176 1101.66C-346.633 1092.37 -349.861 1082.64 -352.78 1072.51L-353.472 1069.23ZM-497.892 1068.46L-503.348 1074.7L-496.317 1080.78L-480.334 1088.91L-479.681 1088.29L-478.49 1086.98L-490.016 1077.36L-497.7 1068.46H-497.892ZM-400.844 1063.62L-407.721 1071.82L-412.639 1077.06L-401.92 1097.8L-396.272 1105.27L-386.628 1097.22L-391.392 1088.14L-400.844 1063.62ZM-293.691 1060.96L-309.75 1078.67L-310.519 1079.4L-309.789 1082.09L-299.492 1110.41L-284.547 1098.78L-288.389 1086.79L-293.845 1060.96H-293.691ZM-240.864 1060.96L-259.497 1080.64L-253.465 1108.55L-251.89 1113.55L-234.14 1100.13L-233.794 1099.84L-234.563 1096.74L-240.864 1060.96ZM-186.423 1059.17L-186.884 1059.68L-206.555 1079.61L-200.484 1113.8L-182.504 1100.5L-179.891 1098.13L-185.385 1067.19L-186.423 1059.17ZM-546.109 1057.68L-549.144 1061.68L-556.559 1070.5L-543.689 1084.28C-543.417 1084.51 -543.228 1084.82 -543.151 1085.15C-542.044 1089.07 -540.644 1092.91 -538.963 1096.63L-537.196 1099.66L-529.819 1095.1L-518.293 1084.17L-530.28 1075.1L-546.263 1057.53L-546.109 1057.68ZM-487.711 1056.69L-489.401 1058.84L-495.433 1065.73L-495.049 1066.28C-491.016 1071.09 -486.611 1075.61 -481.871 1079.8L-475.801 1084.06L-471.69 1079.51L-472.535 1078.74L-487.711 1056.87V1056.69ZM-447.178 1056.47L-457.013 1068.65L-440.608 1091.5L-436.113 1095.36L-429.928 1089.97L-429.39 1089.42L-432.809 1084.86C-437.929 1076.36 -442.472 1067.56 -446.41 1058.51L-447.178 1056.47ZM-601.664 1054.07L-607.773 1062.52C-613.382 1069.81 -618.697 1076.4 -623.717 1082.28L-629.25 1088L-625.1 1096.63C-623.789 1099.16 -621.914 1101.38 -619.605 1103.15C-617.296 1104.92 -614.609 1106.19 -611.73 1106.88C-604.43 1108.04 -595.863 1104.18 -585.989 1095.94L-584.375 1094.41L-585.95 1092.37C-588.556 1088 -590.816 1083.46 -592.712 1078.78L-601.664 1054.07ZM-334.57 1047.33L-337.144 1050.5L-350.475 1065.8L-344.059 1087.45L-338.949 1100.79L-332.072 1095.25L-324.849 1087.96L-325.464 1086.07L-334.646 1047.4L-334.57 1047.33ZM-535.582 1043.68L-543.842 1054.61L-527.36 1072.84L-515.373 1081.87L-511.877 1078.67L-509.188 1075.57L-509.572 1075.31C-514.915 1070.49 -519.849 1065.28 -524.325 1059.72L-535.582 1043.68ZM-383.977 1043.24L-387.051 1047.14L-398.039 1060.34L-388.242 1085.85L-383.67 1094.67L-381.019 1092.44L-371.568 1082.82L-374.91 1074.26C-377.856 1065.44 -380.584 1056.27 -383.094 1046.74L-383.977 1043.24ZM-475.34 1040.8L-485.29 1053.59L-469.922 1076.15L-469.269 1076.77L-461.585 1068.46L-475.301 1040.8H-475.34ZM-432.079 1037.16L-437.189 1043.97L-444.373 1052.86L-436.92 1069.7L-426.7 1086.39L-417.249 1076.37L-418.94 1073.13C-422.705 1064.65 -426.175 1055.7 -429.351 1046.27L-432.079 1037.16ZM-272.406 1036.14L-287.774 1054.14L-291.002 1057.78L-288.235 1072.36L-281.742 1096.2L-263.915 1079.36L-271.369 1044.81L-272.598 1036.21L-272.406 1036.14ZM-325.003 1035.41L-331.534 1043.5L-325.618 1071.31L-321.776 1084.94L-314.86 1078.12L-321.584 1053.67L-325.118 1035.44L-325.003 1035.41ZM-217.428 1034.53L-237.483 1057.31L-230.721 1095.94L-230.49 1096.78L-212.395 1080.31L-210.512 1078.41L-215.315 1051.37L-217.428 1034.53ZM-587.333 1034.13L-589.984 1038L-598.859 1050.24L-589.062 1077.54C-587.286 1081.89 -585.194 1086.11 -582.8 1090.18L-581.57 1091.86L-570.044 1080.93L-561.362 1070.65L-569.583 1061.79C-575.893 1053.43 -581.581 1044.67 -586.604 1035.55L-587.333 1034.13ZM-161.949 1032.46L-182.965 1055.38L-181.543 1066.53L-176.472 1094.99L-156.148 1076.77L-161.335 1038.69L-161.949 1032.6V1032.46ZM-523.441 1026.84L-529.742 1035.81L-532.97 1040.15L-526.246 1050.53C-522.508 1055.63 -518.441 1060.49 -514.067 1065.11L-506.191 1071.96L-500.39 1065.37L-501.734 1063.83C-507.688 1056.1 -512.981 1047.92 -517.563 1039.38L-523.441 1026.84ZM-459.933 1020.1L-468.155 1031.51L-472.612 1037.27V1037.78L-459.165 1065.11L-448.83 1052.35L-457.897 1028.52L-460.125 1020.1H-459.933ZM-364.96 1018.83L-380.942 1039.31L-379.367 1045.87C-376.831 1055.31 -374.142 1064.45 -371.184 1073.2L-368.609 1079.87L-360.925 1072.22L-354.356 1064.67L-360.503 1040.91L-364.767 1018.83H-364.96ZM-414.56 1013.98L-415.405 1015.11L-429.159 1033.33L-425.932 1044.26C-422.782 1053.59 -419.4 1062.49 -415.712 1070.9L-414.406 1073.42L-410.564 1069.52L-402.112 1059.43L-410.91 1029.8L-414.368 1013.98H-414.56ZM-573.349 1013.58L-584.875 1030.52L-583.338 1033.73C-578.353 1042.76 -572.704 1051.44 -566.433 1059.72L-559.018 1067.66L-552.487 1059.9L-548.645 1054.76L-551.526 1051.59C-557.392 1043.6 -562.668 1035.23 -567.317 1026.55L-573.349 1013.58ZM-303.488 1008.51L-313.823 1021.74L-321.776 1031.58L-317.934 1051.95L-311.633 1075.1L-294.69 1056.4L-301.375 1024.84L-303.603 1008.58L-303.488 1008.51ZM-248.74 1007.42L-263.493 1025.64L-268.948 1032.13L-267.258 1044.05L-260.381 1075.97L-241.594 1056.07L-245.435 1035.26L-248.893 1007.38L-248.74 1007.42ZM-509.38 1006.73L-520.906 1023.45L-517.755 1030.52C-514.463 1037.11 -510.821 1043.53 -506.844 1049.77L-497.546 1062.41L-491.976 1056.07L-489.632 1053.08L-503.041 1025.35L-509.188 1006.73H-509.38ZM-192.839 1005.56L-213.393 1029.94L-214.085 1030.71L-211.549 1050.82L-207.246 1075.06L-189.112 1056.58L-186.961 1054.25L-191.994 1014.6L-192.839 1005.56ZM-442.568 995.975L-445.18 999.838L-457.282 1016.6L-456.783 1018.43C-454.222 1027.17 -451.366 1035.58 -448.215 1043.64L-445.833 1049.04L-441.3 1043.46L-433.193 1032.53L-437.919 1016.75L-442.568 995.829V995.975ZM-559.786 993.388L-570.237 1009.24L-570.698 1009.93L-563.859 1024.51C-559.273 1033.11 -554.061 1041.39 -548.261 1049.29L-546.186 1051.59L-537.618 1040.18L-549.605 1017.84L-559.786 993.242V993.388ZM-344.635 992.148L-361.732 1014.89L-352.127 1059.02L-351.436 1061.36L-339.641 1047.4L-335.799 1042.51L-339.295 1027.54L-345.096 992.112L-344.635 992.148ZM-395.311 987.739L-411.294 1009.82L-407.452 1028.05L-399.269 1055.96L-389.74 1044.56L-384.9 1038.4L-389.933 1017.37L-395.427 987.739H-395.311ZM-493.282 983.22L-506.46 1002.79L-499.736 1023.31L-487.058 1049.77L-476.723 1036.46L-484.714 1014.85L-493.282 983.22ZM-334.493 978.518L-339.987 985.807L-341.447 987.739L-337.221 1015.11L-332.264 1038.58L-325.618 1030.42L-332.226 996.085L-334.493 978.373V978.518ZM-279.668 978.044L-288.504 989.597L-300.03 1004.54L-298.954 1012.89L-291.27 1052.97L-288.927 1050.42L-272.637 1031.11L-278.169 992.039L-279.514 977.971L-279.668 978.044ZM-223.652 976.477L-237.406 993.716L-245.09 1003.26L-241.248 1034.79L-238.136 1052.57L-217.889 1029.47L-221.5 1000.68L-223.69 976.477H-223.652ZM-167.366 975.201L-186.576 998.271L-189.266 1001.48L-188.075 1014.12L-183.464 1050.57L-164.254 1029.39L-162.526 1027.43L-167.674 975.238L-167.366 975.201ZM-543.881 969.48L-548.491 976.586L-556.867 989.306L-556.444 990.69C-551.203 1005.35 -544.714 1019.59 -537.042 1033.26L-534.737 1036.9L-532.547 1033.99L-524.863 1023.05L-530.972 1009.9L-543.881 969.808V969.48ZM-423.319 968.459L-439.34 991.674L-434.192 1015.11L-430.081 1028.88L-419.093 1014.31L-415.251 1008.99L-421.629 979.83L-423.319 968.386V968.459ZM-374.334 958.656L-391.546 982.782L-392.046 983.474L-385.937 1016.6L-381.672 1034.57L-366.842 1015.58L-365.536 1013.87L-370.146 989.925L-374.334 958.656ZM-475.071 956.214L-484.868 970.792L-490.285 978.846L-481.141 1012.85L-473.841 1032.75L-470.46 1028.45L-460.855 1015.11L-470.806 978.044L-475.071 956.178V956.214ZM-310.442 946.192L-313.746 950.638L-331.073 974.072L-328.384 994.882L-322.352 1026.7L-315.859 1018.72L-303.834 1003.3L-307.676 974.582L-310.288 946.192H-310.442ZM-254.579 945.609L-261.418 954.465L-276.018 973.525L-274.327 991.747L-269.294 1027.35L-265.03 1022.32L-248.97 1002.5L-250.968 986.573L-254.579 945.791V945.609ZM-198.179 944.661L-209.436 958.765L-220.078 972.14L-217.504 1000.2L-214.316 1025.71L-192.954 1000.42L-198.179 944.734V944.661ZM-526.707 942.985L-541.191 965.289L-527.399 1008.37L-522.481 1019.3L-510.955 1003.08L-510.263 1002.1L-519.138 975.093L-526.515 942.803L-526.707 942.985ZM-402.611 937.992L-420.092 963.795L-417.941 978.555L-412.255 1004.83L-396.08 982.563L-398.347 970.355L-402.611 937.992ZM-352.665 928.334L-366.266 947.431L-371.453 954.72L-370.646 961.098C-368.571 976.003 -366.266 990.618 -363.73 1004.83L-362.577 1010.04L-345.327 987.046L-346.48 979.757L-352.665 928.261V928.334ZM-454.862 925.783L-459.511 932.817L-472.151 951.841L-463.891 991.274L-458.32 1011.79L-447.562 996.85L-443.413 990.873L-448.292 969.006L-454.862 925.893V925.783ZM-507.497 913.501L-523.749 938.466L-515.758 973.635L-507.728 998.271L-494.358 978.445L-497.585 966.492C-500.466 953.773 -503.002 940.616 -505.269 927.168L-507.497 913.501ZM-285.661 912.845L-307.138 941.782L-305.063 965.216L-300.645 999.255L-290.925 986.791L-280.013 972.541L-285.661 912.845ZM-172.515 912.845L-194.683 940.543L-189.458 996.412L-188.19 994.918L-167.674 970.173L-169.787 948.962L-172.515 912.845ZM-229.146 912.845L-251.083 941.308L-247.049 986.208L-245.551 998.417L-239.442 990.873L-224.074 971.412L-228.646 921.628L-229.261 912.845H-229.146ZM-341.255 912.59L-349.4 923.997L-344.021 970.318L-342.061 982.928L-334.992 973.379L-337.951 950.492L-341.255 912.59ZM-381.211 906.686L-394.005 925.601L-399.345 933.509L-394.543 969.954L-392.968 978.482L-375.026 953.335L-381.058 907.816V906.613L-381.211 906.686ZM-434.039 894.623L-451.712 921.264L-444.642 967.767L-440.455 986.828L-424.088 963.139L-433.577 898.814L-434.039 894.623ZM-486.75 881.904L-490.592 887.626L-504.846 908.909L-502.118 926.184C-499.813 939.523 -497.277 952.606 -494.434 965.252L-491.937 974.473L-488.095 968.97L-476.3 951.185L-478.99 937.373L-487.019 881.867L-486.75 881.904ZM-203.174 879.535L-210.858 889.229L-225.496 908.29L-224.574 921.3L-220.386 967.074L-212.279 956.87L-198.487 939.632L-199.14 932.708L-202.982 879.535H-203.174ZM-259.92 878.624L-262.34 881.758L-282.165 908.435V908.69L-276.556 968.241L-264.53 952.57L-255.079 940.288L-257.768 910.221L-259.958 878.624H-259.92ZM-316.205 877.895L-337.797 907.816L-334.224 949.435L-331.727 968.933L-316.858 948.816L-310.903 940.835L-315.091 895.57L-316.205 877.895ZM-358.467 873.376L-369.532 889.521L-377.715 901.62L-376.332 915.761L-372.106 949.362L-369.416 945.718L-353.318 923.159L-355.508 904.609L-358.467 873.522V873.376ZM-411.678 861.349L-430.658 889.63L-429.736 898.012L-420.861 958.437L-403.303 932.562L-408.797 895.425L-412.293 861.204L-411.678 861.349ZM-345.634 854.68L-355.086 868.456L-352.204 899.215L-350.014 918.385L-343.982 909.93L-341.716 906.796L-344.174 878.515L-345.634 854.68ZM-464.736 848.995L-483.216 876.874L-480.219 901.547L-472.996 946.885L-462.546 931.14L-455.515 920.499L-459.972 891.051L-464.736 848.995ZM-177.317 847.537L-199.447 875.125L-195.259 932.379L-194.99 935.331L-172.745 907.524L-176.587 856.939L-177.317 847.537ZM-233.756 845.095L-256.155 873.996L-253.696 909.893L-251.391 935.769L-229.338 907.16L-233.756 845.204V845.095ZM-290.233 843.346L-312.594 873.157L-311.441 890.651L-307.407 936.388L-285.93 907.451L-290.233 843.346ZM-388.742 828.367L-406.492 853.878L-408.182 856.393L-404.34 895.17L-400.037 927.97L-397.232 923.815L-381.864 900.892L-389.01 828.549L-388.742 828.367ZM-319.855 818.563L-341.946 849.578L-340.217 877.895L-338.104 902.021L-316.82 872.501L-316.397 871.991L-319.855 818.563ZM-442.376 815.83L-452.826 831.027L-461.432 844.001L-456.207 890.177L-452.365 915.688L-436.997 892.363L-434.576 888.719L-442.491 815.83H-442.376ZM-208.015 811.748L-230.337 840.539L-225.918 902.495L-213.201 885.986L-203.481 873.85L-205.325 848.666L-208.015 811.639V811.748ZM-264.569 808.978L-286.737 838.571L-282.434 902.641L-265.26 879.499L-260.189 872.975L-262.993 832.193L-264.569 808.978ZM-365.728 795.203L-385.437 823.52L-378.253 895.68L-372.375 887.006L-358.966 867.435L-362.808 826.69L-365.728 795.203ZM-294.344 782.629L-316.474 813.68V814.117L-313.055 867.362L-290.733 837.551L-291.693 823.374L-294.382 782.629H-294.344ZM-419.593 782.629L-439.071 810.983L-438.803 813.57L-431.119 883.835L-412.139 855.518L-415.981 818.053L-419.516 782.629H-419.593ZM-182.389 780.843L-204.519 807.302L-201.483 848.557L-199.947 869.586L-177.817 841.997L-182.389 780.843ZM-238.712 776.142L-255.348 796.66L-260.996 804.241L-259.113 832.011L-256.616 868.456L-234.255 839.592L-238.712 776.215V776.142ZM-350.591 773.518L-362.309 790.355L-358.966 826.399L-355.585 862.552L-346.134 848.739V848.484L-348.862 805.006L-350.783 773.518H-350.591ZM-396.694 750.339L-412.523 772.206L-416.365 777.782L-412.523 817.871L-409.181 850.671L-389.702 822.754V822.536C-391.546 802.856 -393.544 783.285 -395.311 764.225L-396.694 750.339ZM-269.025 748.918L-287.16 772.388L-291.002 777.636L-288.005 823.155L-287.352 832.777L-265.222 803.22L-268.065 761.2L-269.102 748.918H-269.025ZM1194.27 747.642L1191.66 750.121C1142.94 794.692 1092.11 834.38 1037.67 861.823C980.041 890.978 931.402 912.117 880.457 921.884C631.766 970.318 445.429 1054.25 237.232 1211.8C135.036 1289.13 53.317 1327.33 -10.3831 1327.33C-19.2318 1327.42 -28.0657 1326.62 -36.739 1324.96L-54.6813 1319.64L-47.535 1325.32C-41.1738 1329.52 -34.3765 1333.08 -27.2495 1335.97C43.0972 1364.32 143.796 1325.03 280.647 1216.32C383.574 1134.54 481.621 1076.81 589.465 1034.64C691.393 994.845 794.666 971.266 918.377 948.087C1017.58 929.5 1113.13 861.495 1206.1 774.247L1209.02 771.404L1201.34 759.924L1194.23 747.642H1194.27ZM-213.432 744.727L-235.331 771.769L-230.874 834.963L-208.591 806.208L-211.242 770.019L-213.432 744.727ZM-325.272 739.515L-347.171 768.671L-344.981 805.115L-342.561 843.856L-320.469 812.842L-324.311 751.25L-325.234 739.843L-325.272 739.515ZM1214.25 728.582L1197.07 744.982L1204.37 757.592L1211.75 768.744L1229.54 751.506L1214.17 728.582H1214.25ZM1178.06 719.726L1157.58 738.203C1110.67 778.292 1059.92 814.117 1004.48 835.947C994.602 839.847 984.652 843.819 975.047 847.682C929.519 865.905 886.489 883.325 841.422 892.327C568.642 946.994 370.549 1076.63 191.244 1204.51C95.9244 1272.52 19.1233 1306.15 -41.3495 1306.15C-50.6404 1306.26 -59.9157 1305.4 -69.0118 1303.6L-73.6222 1302.18L-65.7077 1310.86L-64.0942 1312.17L-60.4442 1314.1C7.25146 1342.42 103.839 1308.01 234.812 1208.92C443.547 1051.01 630.536 966.783 879.65 918.421C930.134 908.654 978.581 887.48 1035.83 858.652C1089.96 831.392 1140.56 791.813 1189.12 747.388L1192.35 744.326L1178.06 719.726ZM-373.642 718.523L-393.352 745.711L-391.392 763.241L-386.167 817.907L-366.419 789.59L-368.648 765.464L-373.642 718.669V718.523ZM-243.783 716.337L-265.491 744.399L-264.146 760.434L-261.572 798.446L-258.383 794.219L-239.173 770.603L-239.557 765.537L-243.707 716.337H-243.783ZM-188.459 714.186L-190.88 716.847L-210.089 740.463L-207.554 769.619L-205.172 801.908L-183.08 775.486V774.611C-184.694 754.421 -186.423 734.522 -188.382 715.243L-188.459 714.186ZM1234.27 709.449L1217.28 725.666L1231.73 748.554L1245.14 735.579L1249.29 731.279L1233.61 709.412L1234.27 709.449ZM-300.261 706.496L-321.814 734.996L-320.623 750.23L-317.012 807.63L-294.882 776.579L-296.227 756.207L-300.069 706.496H-300.261ZM1198.11 701.795L1181.13 717.102L1195.31 741.629L1212.33 725.411L1210.91 723.297L1198.11 701.795ZM-356.046 695.709L-368.802 712.109L-370.108 713.931L-364.652 764.553L-362.808 784.524L-350.898 767.468L-352.243 745.601L-356.085 695.782L-356.046 695.709ZM1163.27 692.465L1129.99 721.22C1082.89 759.341 1030.95 792.469 971.896 810.218C950.765 816.632 929.634 823.921 909.464 830.954C873.119 843.601 838.81 855.555 802.964 862.843C563.801 912.153 381.23 1036.72 220.174 1146.64C194.394 1164.28 170.228 1180.89 145.486 1197.22C57.1205 1255.86 -14.3019 1284.91 -71.3938 1284.91L-88.2217 1283.3L-79.7308 1295.29L-78.3478 1296.79L-67.9362 1300C-4.92767 1312.13 79.596 1279.66 189.131 1201.6C368.782 1073.46 567.067 943.787 840.923 888.828C885.605 879.936 928.482 862.698 973.817 844.439C983.422 840.576 993.373 836.567 1003.29 832.667C1058.34 811.019 1108.82 775.45 1155.5 735.47L1176.4 716.592L1169.22 704.2L1163.27 692.538V692.465ZM1254.7 689.258L1239.95 704.237L1237.61 706.46L1244.83 718.013L1252.82 728.691L1270.11 710.979L1267.08 707.335L1254.7 689.368V689.258ZM-219.349 685.614L-224.343 691.372L-240.21 711.89L-235.638 765.026V766.156L-213.855 739.224L-216.121 713.166L-219.464 685.614H-219.349ZM1217.55 683.208L1203.53 696.911L1201.22 698.953L1212.75 718.268L1215.44 722.423L1232.34 706.278L1231.42 705.003L1217.55 683.136V683.208ZM1182.51 675.264L1175.67 681.714L1166.3 689.841L1172.45 701.904L1179.36 713.858L1196.31 698.552L1182.86 675.919L1182.51 675.264ZM-275.634 675.264L-281.665 682.297L-296.457 701.904L-292.077 755.515L-291.04 771.623L-289.081 768.853L-269.217 743.342L-272.714 701.431L-275.634 675.41V675.264ZM1273.53 670.344L1257.43 686.634L1270.07 704.857L1272.8 708.246L1289.36 690.242L1273.26 670.963L1272.65 670.125L1273.53 670.344ZM1149.13 664.695L1106.87 700.046C1058.19 737.583 1002.86 770.019 939.239 784.233C910.04 790.756 881.341 799.722 853.602 808.396C824.441 817.507 794.281 826.873 764.429 833.141C548.702 878.915 382.383 995.611 235.619 1098.57C187.901 1132.06 142.797 1163.69 99.7664 1190.01C29.266 1233.12 -30.2078 1257.25 -79.8077 1262.6L-99.0176 1263.7L-91.3337 1278.27L-90.6037 1279.37L-74.7748 1281.23C-17.9518 1282.57 54.1236 1253.75 143.68 1194.2C168.23 1177.83 192.55 1161.4 218.33 1143.68C379.693 1033.44 562.61 908.618 802.503 859.126C838.08 851.837 872.274 839.956 908.503 827.346C928.828 820.276 949.843 812.988 971.089 806.573C1029.6 788.934 1081.2 755.988 1128.11 718.049L1161.88 688.894L1149.43 664.549L1149.13 664.695ZM-331.842 664.695L-352.588 691.445L-352.281 694.324C-350.783 710.797 -349.515 727.744 -348.439 744.982L-347.363 762.803L-325.503 733.976L-328.384 697.531L-331.919 664.731L-331.842 664.695ZM1237.38 664.112L1221.05 680.001L1235.65 703.326L1237.34 701.722L1252.71 686.234L1237.34 664.112H1237.38ZM-195.528 657.442L-216.698 681.714L-212.856 712.692L-210.935 734.96L-194.068 714.15L-189.496 709.121L-195.259 658.681V657.442H-195.528ZM1200.53 657.442L1184.86 672.312L1188.28 678.58L1198.53 695.855L1200.26 694.324L1214.75 680.184L1202.65 661.16L1200.53 657.515V657.442ZM1292.74 650.153L1276.26 666.881L1292.16 687.691L1309.26 669.469L1292.74 650.263V650.153ZM1167.07 647.784L1152.47 661.378L1151.39 662.253L1163.76 686.525L1172.45 679.018L1179.9 671.947L1167.07 647.784ZM-252.274 646.983L-272.983 671.291L-269.717 700.155L-266.451 738.714L-244.782 710.688L-250.353 659.884L-252.274 646.983ZM1254.78 646.4L1239.41 661.451L1254.59 683.537L1270.53 667.355L1254.82 646.4H1254.78ZM1219.67 639.475L1204.3 654.053L1218.47 676.722L1234.65 660.904L1219.78 639.33L1219.67 639.475ZM1134.91 636.706L1130.45 640.787C1069.87 693.486 997.176 744.071 905.353 758.466C869.469 764.079 834.2 774.137 800.16 783.977C775.417 791.048 749.868 798.373 724.665 803.767C517.774 848.521 351.109 971.703 217.177 1070.72C158.318 1114.2 102.725 1155.27 52.8558 1182.79C-1.5083 1212.75 -48.9951 1231.44 -90.1812 1238.91L-111.888 1240.95V1241.32L-102.322 1259.54L-83.1118 1259.14C-33.8576 1254.29 25.693 1230.31 96.616 1186.87C139.454 1160.74 184.521 1129.03 232.199 1095.76C379.232 992.586 546.013 875.635 762.393 829.715C792.091 823.483 822.136 814.117 851.219 805.042C879.035 796.369 907.812 787.367 937.165 780.807C1000.17 766.703 1055.15 734.413 1103.52 696.984L1146.44 661.196L1138.75 646.618L1134.49 636.706H1134.91ZM-308.905 635.576L-322.775 652.049L-329.114 660.249L-325.272 696.183L-322.659 729.238L-301.106 700.775V699.353C-302.643 683.172 -304.333 667.392 -306.293 651.976L-308.905 635.576ZM1185.43 630.583L1170.07 644.796L1183.05 668.776L1198.69 653.98L1185.32 630.583H1185.43ZM1312.22 630.583L1302.11 640.823L1295.78 647.238L1312.22 666.335L1329.28 648.112L1312.22 630.656V630.583ZM1273.8 627.813L1260.24 641.152L1258.28 643.047L1274.11 663.747L1290.43 647.165L1273.8 627.813ZM1237.8 622.237L1231.81 627.995L1222.59 636.742L1237.42 658.317L1252.78 643.338L1246.25 634.628L1237.84 622.237H1237.8ZM1152.89 620.233L1138.02 633.899L1142.6 644.541L1149.82 658.718L1150.13 658.426L1165.49 644.249L1155.47 625.371L1153.01 620.233H1152.89ZM-228.608 619.285L-248.701 642.865L-247.741 648.732C-245.436 665.788 -243.438 683.427 -241.632 701.54L-241.248 706.205L-226.764 687.473L-220.501 680.184L-226.187 633.243L-228.608 619.176V619.285ZM1203.76 613.636L1188.12 628.214L1202.26 650.773L1217.63 636.195L1211.25 626.902L1203.57 613.636H1203.76ZM1331.24 611.085L1314.72 627.922L1331.7 645.343L1341.46 634.847L1348.76 626.829L1331.24 611.085ZM1292.43 609.518L1276.6 625.043L1293.2 644.359L1299.12 638.345L1309.45 627.849L1297.35 615.458L1292.43 609.518ZM-285.584 608.06L-305.447 631.64L-303.488 644.104L-297.571 696.256L-285.008 679.71L-276.786 670.052L-278.899 651.392C-280.743 637.301 -282.805 623.646 -285.085 610.429L-285.584 608.06ZM1122.54 607.331L1087.46 637.434C1029.83 682.881 959.41 723.88 872.619 732.408C830.358 736.527 788.979 747.533 748.907 758.175C728.276 763.642 706.953 769.327 686.014 773.919C481.506 819.183 317.568 947.577 185.942 1050.9C117.862 1104.25 59.1567 1150.32 7.13629 1175.5C-21.1658 1189.54 -50.7397 1201.14 -81.2292 1210.16L-119.956 1218.8L-112.887 1238.04L-90.2963 1235.34C-49.6865 1228.05 -2.77606 1209.43 51.0117 1179.73C100.65 1152.43 156.167 1111.32 214.911 1067.92C349.111 968.715 516.199 845.241 723.858 800.305C748.946 794.947 774.457 787.659 799.122 780.625C833.316 770.821 868.662 760.726 904.815 755.114C995.716 740.864 1067.91 690.607 1128.15 638.2L1133.53 633.28L1122.46 607.477L1122.54 607.331ZM1256.16 604.598L1240.8 619.467L1242.76 622.529L1256.16 640.131L1257.66 638.673L1271.53 625.08L1268.61 621.69L1256.28 604.598H1256.16ZM1170.76 603.833L1156.16 617.244L1165.69 636.487L1168.38 641.443L1183.74 627.303L1176.06 614.11L1170.76 603.833ZM1221.05 597.455L1208.33 609.408L1206.6 611.012L1214.29 624.825L1220.28 633.571L1228.96 625.334L1235.53 619.03L1220.93 597.455H1221.05ZM-205.94 593.227L-210.205 597.673L-225.342 615.458L-222.422 632.696L-217.12 676.43L-196.105 652.304L-203.289 605.691L-205.94 593.227ZM1139.75 592.607L1125.58 604.744L1136.53 630.255L1151.32 616.697L1139.79 592.462L1139.75 592.607ZM1350.1 591.952L1333.89 608.425L1351.25 624.059L1367.74 605.837L1353.1 594.576L1350.1 591.879V591.952ZM1311.68 591.405L1298.66 603.504L1295.24 606.857L1300.23 612.944L1312.18 625.189L1328.55 608.57L1324.71 605.218L1311.53 591.405H1311.68ZM1114.36 587.943L1078.13 622.456C1023.95 669.214 958.027 708.938 876.039 708.938C863.783 708.904 851.547 708.027 839.425 706.315C794.128 699.973 748.869 714.114 704.955 727.817C685.938 733.721 666.305 739.88 647.095 744.18C458.146 786.82 305.697 915.833 183.176 1019.48C97.999 1091.79 24.3868 1154.33 -38.929 1168.1C-64.7685 1184.93 -92.404 1199.12 -121.378 1210.45L-122.761 1210.85L-121.301 1214.86L-98.2492 1210.71C-62.2416 1201.61 -27.4404 1188.66 5.48431 1172.11C57.1205 1147.11 115.749 1101.12 183.675 1047.94C315.686 944.552 479.93 815.83 685.323 770.347C706.185 765.828 727.585 760.143 748.024 754.676C788.326 743.998 829.858 732.809 872.427 728.764C970.59 719.143 1045.7 669.323 1107.6 616.406L1121.35 603.906L1114.51 587.943H1114.36ZM1274.49 587.615L1265.31 595.924L1259.16 601.828L1271.65 619.103L1274.38 622.273L1290.24 606.711L1274.49 587.615ZM1188.93 587.214L1187.51 588.562L1174.18 600.771L1186.39 624.788L1201.99 610.21L1188.93 587.141V587.214ZM-263.339 582.804L-273.136 593.337L-282.434 604.27L-281.589 608.461C-279.207 621.763 -277.132 635.539 -275.249 649.753L-273.405 665.97L-252.851 641.88L-257.422 611.231L-263.339 582.731V582.804ZM1238.88 580.617L1224.54 594.102L1238.57 616.187L1253.94 601.61L1238.91 580.763L1238.88 580.617ZM1156.85 576.754L1142.71 589.874L1143.71 592.097L1154.47 613.964L1169.07 600.589L1156.85 576.827V576.754ZM1330.12 574.094L1314.29 588.672L1327.36 602.411L1331.2 605.728L1347.41 589.291L1330.28 573.948L1330.12 574.094ZM1369.58 572.709L1353.29 588.672L1352.71 589.255L1355.48 591.733L1370.04 602.776L1386.56 584.553L1380.34 580.508L1369.39 572.308L1369.58 572.709ZM1130.19 572.709L1128.34 574.641L1117.16 585.282L1124 601.318L1137.83 588.745L1130.15 572.709H1130.19ZM1205.18 571.98L1191.62 584.699L1204.64 607.768L1205.53 606.93L1218.9 594.357L1205.18 571.98ZM1292.39 571.36L1277.03 585.21L1292.7 604.16L1295.81 601.099L1308.95 588.89L1292.32 571.36H1292.39ZM1256.01 565.529L1244.87 575.078L1241.76 577.993L1256.78 598.803L1262.5 593.3L1271.92 584.808L1256.01 565.529ZM1173.91 561.047L1167.95 566.55L1160.27 573.839L1172.45 597.673L1184.74 586.376L1187.05 584.225L1173.98 561.119L1173.91 561.047ZM1101.91 559.261L1082.08 579.233C1023.88 633.899 950.996 685.213 855.945 685.213C839.325 685.166 822.746 683.654 806.422 680.694C757.936 671.947 708.874 686.416 661.426 700.411C643.945 705.549 625.887 710.87 608.329 714.988C416 759.123 262.321 897.429 138.763 1008.58C47.8613 1090.4 -23.9837 1155.06 -85.0328 1161.1C-98.2236 1168.95 -110.877 1175.79 -122.992 1181.62L-130.676 1184.83L-125.489 1203.64L-124.029 1207.61L-100.094 1197.8C-79.5712 1188.16 -59.7646 1177.2 -40.8115 1165L-40.1969 1164.75C22.2353 1151.12 95.694 1088.98 180.755 1017C303.699 913.064 456.418 783.759 646.327 740.864C665.344 736.6 684.939 730.477 703.956 724.573C748.101 710.761 793.859 696.474 840.039 702.961C933.668 716.118 1007.82 676.466 1067.87 626.428L1112.63 584.189L1101.83 558.969L1101.91 559.261ZM-240.979 558.896L-260.189 579.306L-255.847 599.532L-249.7 638.09L-229.645 614.547L-232.757 596.325C-235.062 584.347 -237.624 572.757 -240.441 561.557L-240.979 558.896ZM1349.26 557.548L1335.19 569.502L1332.93 571.615L1349.91 586.849L1350.45 586.266L1366.54 570.522L1349.26 557.548ZM1221.89 556.746L1216.32 561.593L1208.64 568.882L1222.62 590.968L1236.76 577.665L1224.01 559.953L1222.01 556.746H1221.89ZM1310.57 556.163L1297.04 567.096L1295.2 568.773L1311.8 586.266L1327.43 571.688L1313.83 559.516L1310.57 556.09V556.163ZM1146.55 555.653L1133.41 569.356L1140.91 585.975L1154.97 573.183L1150.32 564.072L1146.48 555.653H1146.55ZM1389.17 553.685L1372.31 570.158L1382.76 577.993L1389.29 582.257L1399.2 571.324L1406.39 563.415L1389.17 553.648V553.685ZM1273.91 550.041L1258.62 562.687L1274.45 581.857L1289.55 568.226L1283.14 561.448L1273.76 549.712L1273.91 550.041ZM1189.81 546.141L1176.67 558.35L1189.74 581.419L1203.22 568.81L1193.92 553.685L1189.81 546.141ZM1117.74 543.152L1104.71 556.272L1115.59 581.784L1123.27 574.714L1128.65 569.101L1117.85 543.262L1117.74 543.152ZM1238.76 541.877L1224.81 554.049L1227 557.694L1239.49 575.041L1242.18 572.49L1253.71 562.687L1238.84 542.059L1238.76 541.877ZM1330.08 541.549L1317.44 550.441L1313.6 553.685L1316.48 556.746L1330.28 569.137L1332.77 566.805L1346.37 555.252L1343.22 552.919L1330.24 541.549H1330.08ZM1368.5 541.111L1352.14 554.997L1369.23 567.789L1385.68 551.68L1374.57 545.375L1368.5 541.111ZM1162.07 539.399L1153.93 547.854L1149.4 552.555L1158.31 570.049L1165.11 563.853L1171.95 557.548L1164.26 543.845L1162.15 539.399H1162.07ZM1292.05 536.519L1278.41 546.25L1276.83 547.599L1286.17 559.297L1292.55 566.003L1294.51 564.217L1307.92 553.284L1292.05 536.483V536.519ZM-219.694 536.118L-220.616 536.993L-237.944 555.544L-236.484 560.719C-233.666 571.943 -231.105 583.569 -228.8 595.596L-226.226 610.684L-212.817 594.94L-206.939 588.818L-213.739 556.819L-219.656 536.118H-219.694ZM1407.88 535.28L1391.9 550.915L1408.92 560.573L1425.1 542.825L1407.88 535.28ZM1206.26 531.636L1197.65 538.925L1192.93 543.334L1196.54 550.004L1206.53 565.748L1213.75 559.006L1219.93 553.612L1206.26 531.745V531.636ZM1089.65 530.652L1088.5 531.855C1057.76 562.687 1021.53 595.414 979.388 620.087C913.344 658.718 846.033 670.052 773.688 654.672C721.591 643.739 668.38 658.317 616.897 672.895C601.337 677.232 585.201 681.714 569.602 685.322C372.662 731.206 217.062 879.535 92.0056 998.745C1.29639 1085.23 -70.6638 1153.82 -128.486 1153.82H-131.213L-137.668 1157.06L-135.708 1167.01L-131.867 1181.33L-114.731 1173.28C-105.741 1168.61 -96.4434 1163.47 -86.9153 1157.79C-86.6574 1157.64 -86.3699 1157.54 -86.0702 1157.5C-26.1737 1151.78 45.3254 1087.41 135.958 1005.89C259.823 894.441 413.964 755.733 607.292 711.234C624.735 707.298 642.715 701.977 660.119 696.657C708.106 682.553 757.59 667.975 807.037 676.831C906.736 694.761 984.229 655.729 1046.47 605.108L1100.26 555.653L1089.54 530.652H1089.65ZM1256.36 527.918L1243.18 538.014L1241.64 539.362L1256.51 560.026L1271.65 547.088L1256.28 527.918H1256.36ZM1349.6 527.918L1333.31 539.435L1345.49 550.113L1349.33 552.883L1365.58 539.071L1349.76 527.918H1349.6ZM2335.99 527.627L2305.26 599.168C2271.95 673.041 2230.15 750.011 2163.1 818.345C2101.63 881.102 2025.83 930.411 1931.35 969.043C1842.63 1005.34 1758.72 1023.48 1679.63 1023.45C1564.87 1023.45 1460.83 985.224 1368.43 908.909C1322.55 871.031 1279.63 823.86 1239.64 767.396L1231.27 754.858L1213.48 772.096L1239.18 810.837C1300.65 896.81 1375.04 969.407 1465.32 1014.31C1598.75 1080.67 1753.01 1078.63 1923.82 1008.18C2019.53 968.751 2095.98 917.838 2157.57 852.566C2247.59 757.118 2290.69 645.051 2328.69 546.032L2335.99 527.627ZM1133.76 527.153L1120.5 540.492L1122.62 545.63L1131.72 565.821L1144.9 552.118L1133.76 527.153ZM1310.91 524.821L1299.58 531.272L1295.16 534.406L1310.87 551.025L1315.02 547.635L1327.2 539.071L1310.91 524.821ZM1387.75 524.821L1371.35 538.779L1376.5 542.423L1388.37 549.129L1404.12 533.677L1387.75 524.821ZM1177.4 523.509L1164.76 536.665L1167.41 542.168L1174.71 555.07L1187.93 542.861L1177.4 523.509ZM1221.82 518.552L1209.22 529.23L1222.89 551.097L1236.65 539.107L1221.82 518.516V518.552ZM1273.45 517.058L1260.04 525.222L1259.31 525.805L1274.41 544.792L1275.91 543.517L1289.36 533.531L1273.41 516.657L1273.45 517.058ZM1426.79 516.876L1410.57 532.729L1427.56 540.018L1443.04 522.598L1438.89 521.322L1426.56 516.548L1426.79 516.876ZM1368.66 514.507L1352.75 525.695L1368.12 536.629L1384.18 522.999L1368.5 514.507H1368.66ZM1105.6 514.507L1092.46 527.955L1103.25 553.211L1103.91 552.591L1116.2 539.909L1105.6 514.398V514.507ZM1329.85 514.215L1314.49 522.999L1330.43 536.993L1346.37 525.768L1330.01 514.215H1329.85ZM1148.67 511.883L1135.99 524.967L1140.37 535.207L1147.59 549.384L1151.09 545.74L1160.31 536.118L1148.78 511.847L1148.67 511.883ZM1192.16 509.405L1180.4 520.63L1190.97 540.128L1195.04 536.483L1204.14 528.757L1192.16 509.514V509.405ZM1406.31 509.15L1390.67 522.452L1406.81 531.162L1422.83 515.491L1406.31 509.15ZM1291.43 507.947L1281.52 512.248L1276.76 515.126L1292.51 531.818L1297.31 528.392L1307.88 522.379L1291.43 507.801V507.947ZM1238.76 506.234L1225.08 515.929L1224.74 516.22L1239.49 536.738L1240.8 535.608L1254.09 525.477L1238.72 506.234H1238.76ZM1348.41 503.683L1333.43 512.211L1349.45 523.472L1364.82 512.539L1348.33 503.61L1348.41 503.683ZM1386.83 501.715L1371.77 512.321L1387.14 520.593L1402.51 507.692L1387.14 501.715H1386.83ZM1309.68 500.002L1295.12 506.307L1311.22 520.411L1326.32 511.847L1311.18 501.205L1309.68 500.002ZM1120.77 498.763L1117.32 502.407L1108.29 511.664L1118.81 537.176L1131.88 523.691L1120.77 498.872V498.763ZM1446.07 498.763L1437.58 506.453L1429.55 514.288L1440.2 518.37L1445.92 520.156L1461.83 502.699L1446.07 498.763ZM1254.78 497.087L1242.14 503.428L1241.83 503.647L1257.2 522.78L1258.05 522.16L1271.11 514.179L1254.78 497.087ZM1163 496.832L1161.84 497.925L1151.43 508.64L1162.96 532.875L1173.6 521.942L1175.48 520.083L1162.92 496.977L1163 496.832ZM1206.68 495.738L1202.61 499.018L1194.92 506.307L1207.06 525.768L1219.47 515.272L1216.13 510.644L1206.56 495.775L1206.68 495.738ZM1426.29 493.296L1409.73 506.088L1425.75 512.248L1429.59 508.384L1441.89 497.16L1426.21 493.296H1426.29ZM1366.77 492.895L1352.06 501.241L1368.16 509.952L1382.72 499.674L1366.77 492.895ZM1076.09 491.948L1069.33 498.18C1002.75 558.386 909.195 629.89 773.496 629.89C762.892 629.89 752.058 629.453 740.878 628.542C669.724 622.674 600.415 638.892 533.411 654.6L530.529 655.292C328.479 703.253 170.497 862.187 43.5582 989.925C-21.4481 1055.53 -76.9263 1111.14 -123.261 1134.97L-140.742 1142.26L-138.552 1153.2L-132.712 1150.21C-132.397 1150.03 -132.038 1149.95 -131.674 1149.95C-74.9669 1152.54 -2.50714 1083.48 89.201 996.012C214.603 876.51 370.626 727.744 568.527 681.532C583.895 677.888 600.069 673.478 615.629 669.141C667.573 654.563 721.168 639.73 774.342 650.919C915.534 680.912 1012.31 602.411 1084.89 529.777L1087.96 526.607L1076.05 491.911L1076.09 491.948ZM1328.51 491.547L1313.68 497.961L1330.01 509.478L1344.57 501.205L1328.51 491.547ZM1272.19 490.308L1263.54 492.677L1258.32 495.301L1274.26 512.175L1279.68 508.858L1288.36 504.922L1276.83 494.791L1272.22 490.308H1272.19ZM1406.31 488.34L1401.08 491.401L1390.63 498.69L1405.77 504.485L1421.83 492.094L1406.46 488.449L1406.31 488.34ZM2349.44 486.044L2340.06 506.125C2299.49 594.685 2253.7 695.162 2165.79 781.354C2104.82 841.268 2030.05 888.646 1937.42 926.22C1848.44 962.276 1764.33 980.304 1685.08 980.304C1575.32 980.304 1475.35 945.718 1386.18 876.364C1341.35 841.547 1299.18 797.972 1259.66 745.638L1251.67 734.45L1247.83 738.531L1234.11 751.797L1236.57 755.442C1278.1 815.794 1323.01 866.123 1371.04 905.702C1525.95 1033.59 1714.01 1053.63 1930.01 965.216C2024.06 926.803 2099.36 877.749 2160.53 815.393C2249.24 724.792 2293.69 618.593 2332.92 524.93L2349.44 486.044ZM1459.98 485.752L1449.53 495.228L1464.9 498.872L1475.58 487.137L1460.21 485.606L1459.98 485.752ZM1291.36 485.133L1276.41 489.178L1279.45 492.13L1292.13 503.064L1306.23 496.686L1291.36 484.987V485.133ZM1347.41 484.659L1336.35 488.303L1332.5 489.944L1347.64 499.018L1348.14 499.31L1362.43 491.219L1347.37 484.805L1347.41 484.659ZM1221.74 484.659L1217.28 487.283L1209.6 493.442L1219.28 508.494L1222.43 512.867L1222.74 512.612L1236.34 503.027L1221.7 484.805L1221.74 484.659ZM1135.3 483.748L1123.77 495.738L1134.49 520.885L1147.01 507.91L1135.49 483.748H1135.3ZM1177.17 483.748L1166.07 494.134L1178.59 517.168L1190.12 505.943L1184.78 497.305L1177.1 483.748H1177.17ZM1386.68 483.748L1372.15 490.126L1370.89 490.818L1385.6 497.087L1386.37 497.378L1398.93 488.522L1401.05 487.283L1386.68 483.639V483.748ZM1439 483.748L1430.01 490.672L1445.38 494.317L1455.14 485.388L1447.23 484.622L1439.16 483.602L1439 483.748ZM1418.95 481.197L1410.88 485.934L1425.56 489.579L1433.93 483.092L1418.95 481.197ZM1309.53 480.468L1295.81 484.112L1310.03 495.264L1316.14 492.495L1324.55 489.397L1309.53 480.359V480.468ZM1367.16 478.755L1353.06 483.201L1366.74 489.032L1370.39 486.955L1380.95 482.29L1379.11 481.853L1367.16 478.755ZM1398.59 478.755L1392.4 481.452L1405.77 484.768L1412.96 480.577L1402.2 479.229L1398.59 478.755ZM1091.42 478.354L1079.28 489.543L1091.15 524.056L1104.1 510.753L1096.65 492.932L1091.42 478.354ZM1328.32 476.933L1317.64 478.464L1314.49 479.338L1329.01 488.048L1342.61 483.019L1333.66 479.375L1328.32 477.079V476.933ZM1236.34 476.641H1235.76L1225.2 482.873L1239.64 501.095L1240.34 500.585L1252.28 494.608L1245.33 487.319L1236.34 476.641ZM1376.42 475.949L1373.81 476.787L1380.15 478.427L1386.52 479.994L1391.4 477.844L1376.42 475.949ZM1365.2 474.527L1366.77 474.928H1367.27L1365.2 474.673V474.527ZM1348.41 474.017L1335.46 475.876L1347.76 481.124L1354.02 478.791L1359.94 477.006L1348.41 474.017ZM1253.9 472.815L1245.56 473.762L1240.26 475.402L1248.13 484.805L1255.82 492.895L1262.23 489.688L1269.27 487.757L1253.9 472.815ZM1191.2 471.976L1185.7 476.167L1180.32 481.233L1188.2 495.447L1193.12 503.355L1194.69 501.788L1204.76 493.005L1191.2 471.976ZM1272.61 470.664L1258.74 472.231L1273.49 486.809L1287.9 482.91L1272.53 470.846L1272.61 470.664ZM1322.78 470.482L1328.97 473.143L1337.81 471.831L1322.78 470.482ZM1149.32 470.482L1144.32 475.038L1138.29 481.197L1149.82 505.36L1155.97 498.982L1161.31 493.843L1154.47 481.233L1149.32 470.3V470.482ZM1298.77 469.899L1310.11 476.678L1316.56 474.928L1321.86 474.163L1312.26 470.045H1298.77V469.899ZM1281.33 469.68L1277.83 470.081L1292.36 481.488L1305.3 477.844L1293.2 470.555L1291.66 469.608H1281.33V469.68ZM1385.06 469.389L1375.38 470.045L1367.47 471.211L1375.61 472.231L1385.06 469.389ZM1415.26 467.275L1402.81 468.15L1394.25 470.263L1384.49 473.361L1397.7 475.038L1415.26 467.275ZM1438.31 465.708H1437.66L1426.4 466.473L1405 475.876L1418.07 477.552L1438.31 465.671V465.708ZM1457.52 465.052L1446 465.416L1423.94 478.354L1437.85 480.14L1457.41 465.052H1457.52ZM1308.99 464.651L1313.29 466.51H1317.14L1308.91 464.615L1308.99 464.651ZM1106.21 464.651L1096.26 473.798L1094.3 475.584L1102.37 497.014L1106.83 507.947L1114.51 499.966L1119.08 495.228L1109.75 474.309L1106.1 464.76L1106.21 464.651ZM1478.42 464.323L1463.67 464.87L1443.04 480.796L1447.5 481.379L1458.56 482.472L1478.42 464.25V464.323ZM1498.55 463.631L1484.42 464.104L1463.59 482.946L1478.54 484.404L1478.88 484.04L1498.55 463.631ZM1204.99 462.719L1200.03 465.161L1194.08 469.717L1207.52 490.526L1219.36 482.108L1212.63 473.726L1204.95 462.792L1204.99 462.719ZM1065.76 462.355L1052.16 474.928C985.804 535.025 892.943 606.129 756.63 606.129C740.446 606.105 724.278 605.131 708.221 603.213C634.647 594.576 563.916 609.226 491.879 626.319C283.912 676.284 116.479 853.587 -5.77271 982.855C-59.5604 1039.78 -105.088 1087.96 -143.777 1116.06L-145.698 1117.3L-141.433 1139.17L-133.749 1136.87C-86.5695 1116.53 -28.2869 1057.89 40.8688 988.322C103.455 925.309 174.416 853.915 255.636 791.522C349.803 719.362 439.436 673.915 529.684 652.522L532.604 651.866C599.916 636.049 669.571 619.759 741.339 625.663C891.791 638.018 993.642 561.994 1064.83 497.888L1074.82 488.668L1065.83 462.501L1065.76 462.355ZM1426.56 462.355L1423.67 463.047H1425.17L1426.56 462.428V462.355ZM1281.48 459.549L1292.59 466.291H1303.54L1299.35 464.505L1290.01 460.861L1281.48 459.512V459.549ZM1162.77 458.054L1152.24 467.712L1156.85 477.406L1164.19 490.964L1175.18 480.395L1162.77 458.054ZM1453.41 456.815L1444.61 458.492L1436.16 462.136H1437.04L1444.73 461.845L1453.33 456.815H1453.41ZM1260.12 456.269L1273.72 466.983L1280.87 466.145H1285.56L1272.11 457.982L1261.62 456.269H1260.12ZM1218.86 456.269H1217.86L1208.41 460.97L1215.79 471.466L1222.47 479.848L1224.05 478.718L1233.77 473.798L1218.86 456.123V456.269ZM1241.56 455.504L1250.48 464.505L1255.32 469.206L1268.5 467.676L1255.9 457.763L1253.78 456.087L1241.56 455.504ZM1227.35 454.847L1223.2 455.54L1237.61 472.596L1244.72 470.409L1250.44 469.753L1247.71 467.093L1235.92 455.248L1227.35 454.847ZM1271.76 453.754L1272.68 454.301H1273.41L1271.76 453.645V453.754ZM1472.97 453.244L1464.44 454.847L1452.91 461.699L1462.63 461.335L1473.12 453.244H1472.97ZM1120.31 451.786L1109.06 462.136L1121.96 492.385L1133.49 480.541L1124.77 462.319L1120.27 451.823L1120.31 451.786ZM1462.25 451.786H1461.98H1462.25ZM1495.14 449.126L1481.3 451.75L1475.35 455.941L1468.47 461.225L1482.42 460.752L1495.14 449.126ZM1080.2 448.907L1078.66 450.292L1068.48 459.731L1077.47 485.934L1089.54 474.819L1080.2 448.907ZM1175.52 447.85L1167.84 453.39L1165.53 455.504L1177.9 477.88L1188.62 468.879L1182.21 458.929L1175.6 447.996L1175.52 447.85ZM1516.31 445.08L1502.47 447.704L1488.3 460.533L1501.9 460.059L1516.31 445.08ZM1244.75 444.679L1254.28 452.187L1263.62 453.353L1254.01 447.777L1244.75 444.679ZM2365.11 443.222L2343.48 485.643C2301.88 568.992 2254.73 663.455 2168.48 744.69C2107.97 801.689 2034.32 847.172 1943.3 883.726C1736.37 967.038 1554.92 953.772 1404.04 844.22C1364.57 815.097 1328.74 781.775 1297.27 744.909L1271.8 713.676L1254.4 731.534L1276.22 760.689C1308.84 802.331 1346.53 840.168 1388.52 873.412C1540.86 991.748 1724.96 1008.26 1935.77 922.685C2027.98 885.293 2102.36 838.171 2162.99 778.62C2250.28 692.903 2296.07 592.753 2336.45 504.339L2365.11 443.222ZM1486.99 442.638L1480.07 444.971L1473.27 448.943L1479.73 447.741L1486.99 442.638ZM1134.45 439.176L1124.69 447.048L1123.23 448.397L1128.19 459.986L1136.33 476.969L1138.14 475.11L1147.4 466.327L1134.45 439.176ZM1188.7 439.176L1182.55 442.31L1178.94 444.898L1185.63 456.196L1191.93 465.963L1202.65 459.002L1188.7 439.176ZM1225.31 438.63L1237.38 450.802L1248.21 451.13L1235.26 440.926L1225.31 438.63ZM1235.19 436.188L1236.76 437.427L1238.22 437.755L1235.19 436.188ZM1201.99 435.094H1200.11L1192.16 437.5L1205.83 456.925L1206.76 456.342L1216.17 452.697L1215.32 451.713L1201.99 435.277V435.094ZM1209.29 435.094H1206.79L1218.32 449.198L1220.4 451.64L1227.27 450.547H1231.92L1221.09 439.614L1218.4 436.917L1209.33 434.839L1209.29 435.094ZM1510.08 435.094L1499.05 438.739L1488.3 446.319L1500.13 444.096L1510.08 435.022V435.094ZM1095.15 435.094L1083.39 446.028L1093 471.539L1093.57 471.029L1104.87 460.606L1095.15 435.094ZM1055.5 431.997L1031.37 454.301C999.021 483.456 960.562 514.543 913.421 538.925C839.04 577.41 761.125 589.947 675.218 576.937C598.379 565.384 523.076 579.451 452.921 596.361C238.961 648.477 68.4928 837.624 -55.949 975.712C-79.9613 1002.39 -102.36 1027.21 -123.145 1049L-152.191 1078.34L-149.693 1096.56L-146.543 1112.45L-131.867 1101.74C-95.9824 1072.58 -54.7197 1028.85 -8.61597 980.158C54.7383 913.137 126.545 837.15 209.609 770.566C306.119 693.231 398.096 644.833 490.88 622.529C563.263 605.327 634.378 590.603 708.644 599.35C868.163 618.119 973.51 540.565 1046.74 474.6L1064.41 458.31L1055.38 432.033L1055.5 431.997ZM1147.4 429.263L1137.79 436.99L1150.59 463.849L1159.85 455.102L1160.92 454.264L1150.89 436.042L1147.4 429.118V429.263ZM1533.56 427.259L1519.88 431.487L1507.81 442.42L1520.88 439.978L1533.48 426.894L1533.56 427.259ZM1210.44 423.87L1220.51 433.928L1228.58 435.787L1217.9 427.368L1214.4 425.546L1210.56 423.87H1210.44ZM1523.99 423.615L1514.5 428.134L1509.89 431.377L1517.88 428.68L1523.99 423.615ZM1108.36 423.286L1104.33 426.603L1097.49 432.944L1102.14 445.226L1107.63 458.127L1118.85 447.777L1108.36 423.286ZM1160.35 421.136L1150.63 426.858L1154.47 434.147L1164.19 451.677L1173.29 444.388L1174.06 443.95L1160.46 421.1L1160.35 421.136ZM1069.94 418.694L1061.8 426.166L1058.57 429.154L1067.6 455.431L1076.36 447.34L1079.28 444.643L1069.94 418.694ZM2379.64 416.581L2374.57 425.364L2366.88 440.379L2379.6 416.581H2379.64ZM1191.08 415.706L1191.39 416.107L1203.99 431.596H1210.1L1213.56 432.361L1201.07 419.934L1191.31 415.779L1191.08 415.706ZM1172.56 415.706L1164.42 418.694L1163.61 419.168L1177.25 442.055L1186.78 436.479L1183.13 431.304L1172.56 415.706ZM1202.15 415.706L1203.64 417.2L1205.07 417.783L1202.15 415.706ZM1182.09 414.285L1176.64 415.014L1186.36 429.373L1190.2 434.73L1199.42 431.997L1188.43 418.476L1185.47 414.831L1182.17 414.285H1182.09ZM1121.58 412.426L1111.4 420.845V421.136L1121.77 445.335L1132.8 436.115L1121.46 412.426H1121.58ZM1548.04 412.207L1536.86 417.528L1526.95 425.655L1538.97 421.574L1548.04 412.207ZM1083.77 405.866L1073.25 415.597L1081.93 442.165L1093.46 431.45L1083.66 405.939L1083.77 405.866ZM1134.03 403.315L1126.34 408.271L1124.5 409.802L1135.8 433.491L1141.17 428.972L1145.48 426.056L1133.95 403.315H1134.03ZM1045.47 401.857L1044.66 402.623C1005.71 439.067 957.22 484.768 891.868 517.605C814.337 556.491 732.733 567.424 642.37 551.134C559.459 536.155 480.43 550.66 414.117 566.878C193.396 621.217 19.8533 822.645 -106.894 969.735C-116.537 980.923 -126.104 991.857 -135.132 1002.53L-158.645 1029.25L-157.608 1039.71L-152.882 1074.04L-125.566 1046.38C-104.973 1024.73 -82.7661 1000.09 -58.9458 973.489C65.8033 835 236.887 645.488 452.038 593.008C522.615 576.025 598.571 561.885 675.91 573.511C844.534 599.022 953.378 519.646 1028.8 451.75L1054.11 428.316L1048.43 411.697L1045.55 401.857H1045.47ZM1177.29 399.087L1187.51 411.624L1192.46 412.535L1194.15 413.264L1186.01 405.137L1184.28 403.57L1177.29 399.087ZM1146.13 397.156L1139.79 399.561L1137.37 401.128L1148.9 423.833L1155.04 419.642L1158.39 418.148L1152.62 408.49L1146.17 397.156H1146.13ZM1564.1 395.88L1563.52 396.172L1560.18 398.358L1548.89 407.652L1555.42 404.517L1559.95 399.816L1564.1 395.88ZM1096.72 394.896L1087.12 402.805L1086.2 403.643L1095.92 429.154L1102.22 423.323L1106.71 419.679L1096.72 394.787V394.896ZM1157.31 393.438H1155.85L1149.74 395.734L1155.89 406.668L1161.84 416.654L1170.37 413.009L1157.31 393.657V393.438ZM1164.19 393.438H1161.81L1174.29 411.879L1181.98 410.859L1169.14 395.115L1164.23 393.402L1164.19 393.438ZM1171.37 391.981L1171.56 392.199L1171.26 391.944L1171.37 391.981ZM1059.95 388.628L1048.7 399.087L1052.08 410.567L1057.23 425.619L1059.15 423.87L1068.52 415.196L1065.99 408.126L1059.95 388.628ZM2393.12 386.15L2378.98 408.599C2368.26 427.077 2357.74 446.319 2346.94 466.036C2304.3 544.027 2255.96 632.441 2171.36 708.719C2111.39 762.84 2038.81 806.391 1949.53 841.924C1843.6 884.163 1743.1 901.584 1650.74 893.675C1568.22 886.615 1489.22 858.661 1421.98 812.732C1377.11 781.816 1336.61 745.547 1301.5 704.82L1291.89 693.267L1274.41 711.161L1300.08 742.613C1331.42 779.302 1367.09 812.464 1406.39 841.451C1556.22 950.128 1736.34 963.248 1941.8 880.446C2032.36 844.001 2105.63 798.883 2165.75 742.212C2251.54 661.415 2298.57 567.279 2340.03 484.185C2350.09 463.995 2360.04 444.096 2370.34 424.744L2393.12 386.15ZM1109.44 384.692H1109.17L1099.91 392.309L1109.9 417.2L1120 408.964L1109.44 384.509V384.692ZM1120.97 377.403L1112.74 382.615L1123.12 406.595L1125.42 404.7L1132.49 400.217L1121.7 378.897L1120.97 377.403ZM1073.21 376.856L1067.25 381.922L1063.41 385.567L1072.1 412.062L1082.51 402.477L1076.94 387.899L1073.09 376.965L1073.21 376.856ZM1148.4 373.43L1159.5 389.903H1164.96L1161.34 385.457L1153.16 376.018L1148.4 373.394V373.43ZM1132.53 373.43L1124.61 376.054L1125.23 377.33L1135.87 398.286L1139.41 396.063L1144.4 394.277L1132.53 373.43ZM1137.45 371.79L1136.22 372.191L1148.09 393.001L1155.2 390.523L1142.9 372.301L1137.45 371.79ZM1036.4 371.061L1027.72 379.152C990.03 414.722 938.394 463.375 870.468 496.467C818.626 522.161 760.988 535.542 702.496 535.463C671.29 535.322 640.192 531.962 609.751 525.44C519.695 506.635 433.02 523.327 375.39 537.54C147.753 594.284 -29.0936 808.286 -158.146 964.596L-164.293 971.885L-159.145 1024.26L-137.86 1000.06C-128.755 989.597 -119.419 978.737 -109.814 967.621C17.2407 820.167 191.282 618.191 413.157 563.452C479.93 547.161 559.459 532.511 643.099 547.672C846.033 584.335 963.905 473.507 1041.94 400.217L1044.28 398.03L1036.29 370.916L1036.4 371.061ZM2409.14 365.886L2406.76 369.13L2405.95 370.551L2409.14 365.886ZM1085.58 365.668L1075.86 373.904L1084.89 399.415L1095.3 390.924L1092.69 384.4L1085.58 365.631V365.668ZM1139.37 359.691L1140.48 361.294L1145.09 368.109L1146.82 368.328L1139.37 359.691ZM1050.23 357.249L1039.4 367.344L1047.35 394.495L1058.57 384.109L1050.23 357.249ZM1097.61 357.249L1088.69 363.408L1096.38 383.198L1098.57 388.591L1107.75 381.302H1108.02L1097.8 357.613L1097.61 357.249ZM1108.75 351.892L1101.06 355.354L1111.24 378.861L1119.39 373.831L1108.82 351.965L1108.75 351.892ZM1123.65 349.632L1129.65 360.238L1134.37 368.583L1137.95 367.49L1140.1 367.709L1137.18 363.372L1128.46 350.908L1123.65 349.632ZM1118.97 349.122L1113.47 349.778L1112.36 350.288L1122.89 372.155L1130.57 369.713L1126.19 361.987L1118.89 349.122H1118.97ZM1062.87 346.753L1053.35 354.771L1061.99 381.12L1068.14 375.435L1071.71 372.519L1062.87 346.753ZM2422.24 342.526L2412.14 354.953L2408.3 361.367L2422.44 342.234L2422.24 342.526ZM1027.6 339.1L1010.55 354.953C932.593 428.644 802.119 551.972 576.825 499.055C504.173 481.962 427.833 484.477 336.586 507.437C131.194 559.042 -32.244 739.224 -158.261 894.477L-169.48 908.545L-166.406 949.181L-164.754 966.127L-160.912 961.717C-31.4756 805.006 145.832 590.457 374.622 533.458C432.251 519.172 519.81 502.371 610.673 521.322C823.711 565.821 949.805 447.012 1025.18 376.018L1035.4 366.579L1031.95 354.953L1027.72 339.1H1027.6ZM1075.05 337.35L1070.17 340.667L1065.87 344.311L1071.94 362.534L1074.63 370.114L1084.35 362.242L1079.28 348.867L1075.05 337.205V337.35ZM1113.7 331.993L1116.85 337.46L1121.27 345.259L1125.38 346.316L1119.35 337.642L1113.7 331.993ZM1086.54 330.754L1081.78 332.758L1078.28 335.127L1082.85 347.701L1087.46 359.873L1090.81 357.176L1096.3 353.933L1092.19 344.494L1086.54 330.754ZM1041.01 327.109L1035.98 331.228L1030.79 336.002L1035.48 353.678L1038.4 363.517L1049.2 353.532L1041.01 327.109ZM1096.84 326.782H1095.49L1090.08 329.041L1095.11 341.25L1099.64 351.709L1104.14 349.049L1107.21 348.247L1096.84 326.672V326.782ZM1102.52 326.38H1101.06L1111.13 347.263L1117.28 345.696L1113.43 338.99L1107.02 328.057L1102.49 326.453L1102.52 326.38ZM1053.46 317.051L1044.32 324.34L1047.74 336.949L1052.23 350.726L1061.88 342.999L1053.46 316.941V317.051ZM2439.88 314.864L2417.29 341.104C2393.47 372.665 2372.26 408.016 2349.82 445.335C2306.22 517.933 2256.81 600.224 2174.01 671.51C2114.54 722.714 2043.08 764.37 1955.44 799.066C1852.52 839.774 1754.55 857.377 1664.22 851.582C1584.12 846.63 1506.76 822.029 1439.7 780.188C1395.03 752.072 1354.42 718.566 1318.87 680.512L1311.68 672.13L1294.43 690.643L1295.35 691.882C1332.36 736.464 1375.68 775.98 1424.1 809.307C1571.28 908.399 1747.55 918.057 1947.99 838.097C2036.85 802.783 2109.05 759.45 2168.67 705.658C2252.81 629.781 2300.99 541.658 2343.48 463.922C2364.46 425.619 2384.82 388.409 2408.26 354.589L2439.88 314.864ZM1064.99 309.434L1057.3 313.807L1056.19 314.718L1059.61 325.652L1064.56 340.74L1073.55 333.451L1067.18 315.812L1064.87 309.288L1064.99 309.434ZM1091.88 307.685L1099.3 323.101L1102.79 322.882L1104.21 323.392L1101.26 318.29C1099.2 314.522 1096.45 311.129 1093.15 308.268L1091.88 307.685ZM1018.88 307.138L1018.19 307.721C1010.51 314.609 1002.09 322.554 993.027 331.155C927.713 393.11 826.4 489.069 663.385 489.069C622.861 488.809 582.558 483.391 543.554 472.96C468.02 453.39 387.492 454.738 297.359 477.698C115.864 523.764 -36.8928 675.956 -155.418 818.964L-174.628 843.018L-173.629 856.575L-170.094 903.042L-162.41 893.675C-109.122 828.075 -47.4966 755.879 21.0827 691.737C128.236 591.551 231.124 530.032 335.587 503.719C427.487 480.796 504.634 478.208 577.632 495.337C800.89 547.745 930.364 425.327 1007.93 352.22L1026.61 334.799L1019.27 307.138H1018.88ZM1075.71 304.732L1069.56 306.701L1068.18 307.502L1070.67 314.791L1076.82 331.701L1084.85 327.146L1079.47 314.099L1075.63 304.769L1075.71 304.732ZM2453.48 304.259L2449.64 307.903L2448.29 309.616L2453.48 304.259ZM1083.93 303.931H1079.78L1082.85 311.511L1088.5 325.214L1095.11 323.101L1086.39 304.878L1083.93 303.785V303.931ZM1032.33 296.241L1022.34 304.368L1029.6 331.701L1030.79 330.572L1039.75 323.101L1037.82 316.941L1032.33 296.241ZM2471.58 291.285L2464.66 297.189L2461.93 300.068L2471.58 291.285ZM2462.16 291.066L2455.44 296.642L2449.64 303.639L2462.32 291.139L2462.16 291.066ZM1044.47 287.676L1039.78 290.374L1035.94 293.398L1043.2 320.258L1050.89 313.771L1052.08 312.969L1050.5 308.013L1044.28 287.676H1044.47ZM1072.13 284.724L1078.51 300.396H1084.27L1083.54 298.865C1081.53 294.352 1078.74 290.189 1075.28 286.547L1072.13 284.724ZM1055.81 282.246L1051.96 283.449L1047.74 285.891L1049.66 292.378L1055 311.22L1062.68 306.154L1063.6 305.826L1056.77 286.255L1055.5 282.611L1055.81 282.246ZM1065.6 281.189H1059.45L1060.68 284.834L1067.45 304.149L1074.78 301.343L1068.48 285.745L1066.91 281.845L1065.6 281.153V281.189ZM2481.68 278.42L2470.85 287.166L2465.85 292.05L2481.68 278.42ZM2471.34 277.436L2461.16 285.453C2419.63 323.902 2387.51 372.483 2352.63 425.218C2308.18 492.422 2257.81 568.591 2177.01 634.847C2118.11 683.172 2047.69 722.897 1961.86 756.353C1861.97 795.494 1766.38 813.425 1678.17 809.635C1600.51 806.617 1524.85 785.326 1458.02 747.679C1417.02 724.327 1379.15 696.339 1345.26 664.33L1331.77 650.518L1314.56 668.995L1321.82 677.487C1357.19 715.398 1397.61 748.771 1442.08 776.762C1586.73 866.233 1759.04 872.465 1954.18 795.312C2041.39 761.017 2112.5 719.544 2171.63 668.631C2253.97 597.746 2303.22 515.564 2346.67 443.331C2379.25 389.065 2410.56 336.949 2452.17 295.257L2471.34 277.436ZM1011.39 275.504L998.291 286.438C991.49 292.633 984.152 299.594 976.314 307.065C936.012 345.295 880.956 397.666 805.5 431.596C764.792 450.02 720.897 461.282 675.948 464.833C623.928 468.915 568.373 462.792 511.166 446.611C431.906 424.234 349.38 424.562 258.978 447.668C102.878 487.757 -31.7062 605.801 -142.125 731.461L-179.43 776.106L-174.858 837.077L-156.916 814.737C-116.336 765.141 -72.9207 717.692 -26.8654 672.603C83.2458 566.185 189.093 501.314 296.745 473.762C387.569 450.838 468.75 449.271 544.975 469.024C778.222 529.522 911.231 403.424 990.645 328.13C998.79 320.44 1006.36 313.261 1013.43 306.846L1018.04 302.983L1017.35 300.359L1011.31 275.358L1011.39 275.504ZM1024.34 265.774L1017.23 270.584L1014.7 272.698L1021.15 299.521L1021.38 300.396L1031.29 292.086L1024.34 265.774ZM1052.39 260.853L1058.19 277.764L1059.07 277.436H1064.87L1061.72 270.766C1059.98 267.566 1057.71 264.65 1055 262.129L1052.39 260.853ZM1036.06 260.088L1028.37 263.149L1027.99 263.405L1035.02 289.353L1043.36 283.886L1039.86 272.552L1036.21 260.088H1036.06ZM1040.97 258.157L1039.48 258.776L1040.82 263.478L1046.39 282.137L1054.61 279.112L1048.01 259.76L1047.43 258.302C1045.33 257.937 1043.19 257.937 1041.09 258.302L1040.97 258.157ZM2544 253.054L2535.74 256.699L2534.43 257.428L2544 253.237V253.054ZM1003.98 244.198L999.75 247.077C985.614 258.571 972.098 270.734 959.256 283.522C918.147 322.663 861.823 376.346 783.793 410.531C741.578 429.154 696.088 440.189 649.631 443.076C595.574 446.392 537.944 438.921 478.355 420.845C395.445 395.662 310.96 394.823 220.174 418.221C91.3909 451.567 -22.5623 537.832 -120.725 638.783L-185.462 710.177L-184.924 714.551L-179.891 771.076L-144.776 729.129C-33.973 603.14 101.111 484.659 257.979 444.388C349.111 421.136 432.29 420.735 512.28 443.367C755.477 511.992 892.021 382.25 973.663 304.878C981.732 297.189 989.224 290.046 996.254 283.704L1010.47 271.787L1005.05 249.264L1003.94 244.198H1003.98ZM1033.14 237.383L1033.87 239.424L1038.52 255.423L1041.13 254.476H1045.93L1044.01 249.774C1042.32 246.072 1040.01 242.651 1037.17 239.643L1033.14 237.383ZM1016.77 237.383L1010.58 239.752L1007.4 241.902L1008.86 248.462L1013.74 268.835L1015.85 267.049L1023.34 262.129L1016.77 237.383ZM2594.17 235.197L2571.12 241.829L2567.74 243.251L2594.21 235.197H2594.17ZM1023.07 234.978L1020.42 235.998L1026.87 259.833L1027.41 259.468L1035.1 256.699L1030.33 240.408L1028.49 235.124H1023.11L1023.07 234.978ZM2642.12 224.846L2609.73 230.714L2605.35 231.989L2642.12 224.701V224.846ZM2682.58 220.108L2652.15 222.915L2648.31 223.607L2682.65 219.963L2682.58 220.108ZM2709.47 218.468H2698.52H2697.14L2709.47 218.141V218.468ZM997.369 214.715L992.835 216.428C979.465 224.117 962.599 240.153 942.005 259.797C900.013 299.886 842.498 354.807 761.932 389.357C718.185 408.155 671.09 418.949 623.121 421.173C567.105 423.724 507.324 414.904 445.429 394.86C360.176 367.271 271.272 365.157 181.255 388.591C51.8568 422.375 -60.5209 509.842 -156.378 612.251L-192.493 653.798L-186.154 705.221L-123.299 635.976C-24.829 534.77 89.5851 448.251 219.137 414.758C310.691 391.069 395.868 392.017 479.508 417.419C732.502 494.244 872.696 360.748 956.451 280.971C969.799 267.649 983.908 255.033 998.713 243.178L1003.02 240.408L997.407 214.715H997.369ZM1014.12 213.986L1016.04 220.327L1019.34 232.645L1023.19 231.333H1027.03L1026.18 228.892C1024.54 224.673 1022.2 220.726 1019.27 217.193L1014.12 213.986ZM1005.09 211.763L1001.02 213.33L1006.44 238.149L1009.89 235.889L1015.69 233.885L1012.31 221.165L1009.59 211.945H1005.09V211.763ZM2726.3 211.143L2697.41 211.325L2655.8 215.553L2644.27 216.61L2643.31 216.792L2631.4 217.995L2597.67 226.195L2593.6 227.033L2592.14 227.543L2575.42 231.625L2551.83 241.574L2548.18 242.813L2545.53 244.198L2528.01 251.487L2512.88 261.181L2507.69 263.878L2499.74 269.564L2488.06 277.253L2481.53 282.866L2499.89 269.673L2513.03 261.291L2545.69 244.198L2551.99 241.574L2592.25 227.397L2597.78 226.049L2643.43 216.646L2655.76 215.407L2700.67 211.253L2726.26 210.997L2726.3 211.143ZM2700.21 207.499L2665.4 210.633L2648.34 212.018L2647.04 212.273L2635.9 213.257L2603.09 220.546L2598.71 221.384L2597.17 221.858L2580.92 225.502L2557.21 235.16L2553.99 236.217L2551.72 237.31L2534.16 244.308L2518.33 253.893L2513.99 256.043L2507.54 260.197L2494.2 268.252L2486.52 274.557L2507.69 260.197L2518.41 253.747L2551.83 237.164L2557.33 235.014L2597.28 221.894L2603.2 220.582L2647.15 212.127L2665.52 210.487L2703.4 207.389H2700.33L2700.21 207.499ZM2703.02 203.636C2635.32 205.057 2582.76 217.047 2539.96 236.982L2520.75 247.916L2520.06 248.244L2519.1 248.863L2500.24 259.541L2493.13 265.482L2519.1 248.863L2520.75 247.916L2559.71 229.693C2601.43 213.694 2649.69 205.13 2705.97 203.781L2728.07 203.964L2702.98 203.636H2703.02ZM2705.86 199.809C2617.84 200.647 2555.29 219.562 2506.08 250.613L2495.09 259.104L2497.32 257.391C2552.37 219.926 2620.8 201.121 2708.63 199.955L2721.42 200.173L2705.78 199.809H2705.86ZM2708.51 195.8C2508.11 195.253 2439.15 289.572 2354.66 405.137C2309.48 467.093 2258.35 536.92 2179.7 598.293C2121.42 643.703 2052.07 681.532 1967.78 713.968C1870.65 751.542 1777.75 769.728 1691.65 768.015C1616.35 766.965 1542.36 749.058 1475.73 715.753C1437.91 696.527 1402.5 673.297 1370.19 646.509L1351.33 629.562L1343.99 637.653L1334.12 648.222L1347.6 662.071C1381.32 693.938 1418.99 721.804 1459.79 745.055C1601.94 824.868 1770.3 827.675 1960.21 753.328C2045.77 720.054 2115.81 680.439 2174.4 632.478C2254.77 566.55 2305.03 490.636 2349.29 423.687C2394.51 355.317 2437.19 290.774 2503.46 248.754C2558.48 213.84 2625.83 196.748 2711.43 196.602L2753.69 197.841H2753.42C2737.7 196.821 2722.69 196.286 2708.4 196.237L2708.51 195.8ZM2711.01 191.9C2515.49 188.803 2443.84 277.108 2356.01 385.311C2310.37 441.582 2258.58 505.578 2182.39 561.484C2124.76 603.942 2056.45 639.876 1973.77 671.291C1879.56 707.335 1789.35 725.958 1705.25 725.958C1632.25 726.764 1559.97 712.175 1493.64 683.245C1459.1 667.845 1426.33 649.124 1395.82 627.376L1370.54 607.914L1353.9 626.137L1372.69 643.047C1404.79 669.859 1439.99 693.125 1477.62 712.4C1617.04 782.556 1781.52 781.864 1966.32 710.396C2050.07 678.106 2119.23 640.459 2177.24 595.268C2255.43 534.406 2306.45 464.651 2351.44 403.096C2398.42 338.845 2442.8 278.128 2509.15 239.096C2564.17 206.733 2630.52 191.39 2713.97 192.228L2742.32 193.395L2710.97 191.9H2711.01ZM995.716 190.625L998.444 201.085L1000.37 209.831L1005.4 208.118L1008.63 208.337C1007.04 203.61 1004.71 199.138 1001.71 195.071L995.716 190.625ZM987.379 188.511C972.857 190.406 952.225 210.123 924.986 236.18C882.071 277.217 823.288 333.414 740.225 368.255C694.963 387.289 646.25 397.845 596.765 399.342C538.79 401.165 476.857 390.924 412.734 368.948C326.037 338.625 231.441 335.142 142.528 358.998C24.3867 390.086 -80.3071 465.453 -171.938 557.256L-202.674 589.364L-202.06 592.097C-199.498 604.634 -197.257 617.56 -195.336 630.874L-193.146 648.477L-158.107 608.388C-45.4988 488.121 65.1885 415.232 180.179 385.238C271.003 361.586 360.56 363.736 446.659 391.58C709.566 476.678 853.333 339.428 939.278 257.391C961.215 236.436 978.312 220.145 992.336 212.637L996.639 211.18L994.602 201.923L991.26 188.839L987.418 188.62L987.379 188.511ZM2713.35 187.928C2522.4 182.243 2447.91 264.462 2356.58 365.522C2310.48 416.289 2258.5 473.871 2185.04 524.821C2128.03 564.363 2060.87 598.366 1979.72 628.797C1888.44 663.273 1800.65 681.969 1718.85 684.338C1648.03 686.96 1577.4 675.682 1511.39 651.21C1479.81 639.166 1449.47 624.379 1420.75 607.04L1389.71 586.849L1373.04 605.072L1397.93 624.278C1428.26 645.913 1460.84 664.536 1495.17 679.856C1632.26 740.427 1792.77 736.272 1972.23 667.683C2054.6 636.378 2122.57 600.626 2179.97 558.35C2255.73 502.517 2307.33 438.921 2352.86 382.833C2401.69 322.59 2447.87 265.737 2514.22 229.766C2569.32 199.918 2634.74 186.288 2716.12 188.147L2755.23 190.224L2712.97 187.673L2713.35 187.928ZM2677.35 183.445C2517.91 186.652 2444.6 258.813 2356.28 345.878C2310.17 391.106 2258.23 442.347 2187.84 488.012C2131.6 524.456 2065.55 556.71 1985.87 586.121C1816.02 649.425 1662.49 660.431 1529.48 618.921C1501.03 609.988 1473.36 598.948 1446.73 585.902L1409.61 564.91L1401.93 573.365L1392.36 583.897L1422.87 603.76C1451.42 620.93 1481.58 635.569 1512.96 647.493C1647.43 698.515 1804.15 690.898 1978.38 625.08C2059.25 594.758 2126.18 560.901 2182.85 521.541C2255.85 470.846 2307.91 413.447 2353.66 362.789C2404.53 306.591 2452.6 253.455 2519.41 220.655C2574.69 193.358 2639.28 181.405 2718.69 184.211L2751.77 186.397L2715.73 183.737C2702.4 183.117 2689.61 182.972 2677.31 183.19L2677.35 183.445ZM2680.23 178.78C2523.48 179.035 2446.91 245.802 2354.55 326.308C2308.98 365.886 2257.54 411.005 2190.61 451.531C2135.21 485.169 2070.2 515.272 1991.9 543.808C1827.47 604.197 1677.9 618.665 1547.43 586.886C1521.9 580.607 1496.82 572.78 1472.35 563.452L1428.59 544.209L1412.15 562.432L1448.34 582.95C1474.82 595.916 1502.34 606.883 1530.64 615.75C1662.76 657.042 1815.44 646.072 1984.41 582.95C2063.83 553.794 2129.64 521.65 2185.66 485.206C2255.69 439.686 2307.48 388.482 2353.59 343.364C2406.68 291.029 2456.82 241.647 2524.06 211.617C2579.65 186.762 2643.5 176.557 2721.07 180.603L2759.49 183.664H2758.72C2732.67 180.503 2706.43 178.872 2680.16 178.78H2680.23ZM2682.81 174.006C2528.24 171.273 2447.91 232.755 2351.05 306.956C2304.3 342.744 2255.96 379.845 2193.53 414.941C2139.13 445.591 2075.2 473.872 1998.17 501.387C1882.91 543.007 1774.99 563.889 1675.44 563.889C1638.57 563.973 1601.77 560.923 1565.48 554.778C1542.24 550.769 1520.22 545.776 1499.17 540.2L1447.23 523.946L1431.17 541.549L1473.66 560.208C1498 569.51 1522.94 577.302 1548.35 583.533C1678.05 615.13 1826.78 600.698 1990.48 540.601C2068.55 512.211 2133.29 482.29 2188.5 448.652C2254.96 408.308 2304.22 365.34 2351.9 323.83C2459.17 230.167 2545.3 155.055 2758.84 180.02L2766.52 181.076L2759.69 180.02C2734.22 176.574 2708.56 174.566 2682.85 174.006H2682.81ZM2650.53 168.758C2518.56 171.929 2439.23 224.773 2344.87 287.531C2299.8 317.452 2253.43 348.357 2196.07 378.132C2142.86 405.684 2080.04 432.07 2003.97 458.747C1878.49 503.319 1761 525.841 1653.69 525.841C1630.22 525.86 1606.77 524.729 1583.42 522.452C1546.51 518.732 1509.86 512.878 1473.7 504.922L1466.01 503.064L1449.88 520.776L1500.01 536.483C1520.95 542.132 1542.89 547.125 1566.02 551.061C1693.3 572.928 1838.11 555.106 1996.55 497.888C2073.39 470.409 2137.09 442.201 2191.3 411.734C2253.7 376.82 2301.95 339.756 2348.63 303.931C2461.12 217.812 2551.41 148.641 2760.11 176.375L2767.45 177.541L2760.42 176.302C2724.09 170.624 2687.3 168.087 2650.5 168.722L2650.53 168.758ZM969.629 165.114C955.376 166.899 935.052 186.543 907.773 212.491C863.937 254.476 804.04 311.985 718.325 347.117C671.536 366.324 621.23 376.638 570.255 377.476C510.282 378.496 446.236 366.907 379.885 342.999C197.891 277.399 14.5128 324.777 -165.138 483.967L-216.582 532.802L-210.089 555.653L-203.596 584.808L-174.397 554.232C-82.4971 462.209 22.6962 386.587 141.49 355.354C231.167 331.314 326.566 334.835 414.002 365.413C686.514 458.82 839.847 312.24 922.181 233.484C951.265 205.64 971.743 186.106 987.687 184.685H989.992L986.457 175.974C985.475 173.538 983.986 171.315 982.078 169.436C980.171 167.558 977.884 166.063 975.354 165.041C973.495 164.532 971.543 164.408 969.629 164.676V165.114ZM2652.03 162.854C2519.83 162.854 2435.46 211.07 2335.34 268.543C2293.38 292.56 2250.05 317.379 2198.76 341.432C2146.51 366.105 2086.57 389.83 2010 416.18C1854.4 470.336 1722.85 482.399 1601.52 490.126C1566.1 492.248 1530.57 491.883 1495.21 489.032L1480.23 487.538L1469.01 499.856L1474.43 501.205C1510.46 509.164 1546.98 515.006 1583.77 518.698C1708.71 530.907 1849.67 509.587 2002.55 455.285C2078.39 428.607 2141.05 402.331 2194.07 374.888C2251.39 345.222 2297.8 314.317 2342.6 284.469C2461.16 205.531 2556.44 142.263 2760.84 172.731L2766.1 173.642L2761.07 172.658C2725.05 166.423 2688.53 163.155 2651.92 162.891L2652.03 162.854ZM2652.34 156.768C2518.68 153.124 2428.08 197.367 2320.51 249.665C2283.36 267.887 2244.94 286.401 2201.41 304.915C2151.35 326.308 2094.18 347.664 2016.15 373.868C1873.99 422.266 1740.52 450.401 1619.39 458.091C1578.39 460.606 1540.59 461.735 1504.13 462.829L1483.46 484.258L1495.56 485.461C1530.76 488.311 1566.14 488.676 1601.4 486.554C1722.47 478.864 1853.67 466.838 2008.85 412.827C2085.23 386.55 2145.12 362.862 2197.1 338.189C2248.24 314.026 2291.54 289.28 2333.34 265.3C2459.24 193.249 2560.25 135.411 2761.72 169.086L2765.06 169.706L2761.57 168.977C2725.57 162.033 2689.02 157.961 2652.3 156.804L2652.34 156.768ZM2626.56 149.115C2612.92 148.896 2599.67 149.115 2586.72 149.916C2482.99 155.747 2399.04 190.005 2297.46 231.406C2267.83 243.469 2237.21 255.933 2204.21 268.47C2145.54 290.738 2079.5 312.714 2022.18 331.556C1886.71 376.601 1757.08 408.381 1637.4 426.02L1617.93 428.644L1523.07 443.222L1507.7 459.148L1619.12 454.519C1739.95 447.012 1873.15 418.84 2014.84 370.697C2092.79 344.457 2149.89 323.319 2199.95 301.89C2243.28 283.413 2281.67 264.753 2318.78 246.713C2453.86 181.113 2562.36 128.268 2762.26 165.66H2762.99L2761.57 165.332C2717.2 155.578 2671.9 150.157 2626.37 149.151L2626.56 149.115ZM2578.57 140.331C2468.23 143.174 2374.26 174.99 2260.57 213.512C2243.28 219.343 2225.38 225.429 2207.02 231.516C2170.56 243.615 2132.67 255.605 2092.56 268.324L2028.33 288.77C1901.08 329.989 1779.14 364.247 1655.42 393.548C1616.23 402.805 1580.16 412.353 1546.7 422.339L1541.28 424.198L1527.02 438.994L1617.35 425.254L1636.79 422.448C1756.43 404.809 1885.63 373.102 2020.99 328.13C2078.23 309.288 2144.24 287.312 2202.87 265.081C2235.79 252.581 2266.38 240.116 2295.96 228.053C2376.64 195.253 2446.26 166.79 2524.86 153.524C2589.37 142.591 2655.49 143.028 2728.22 155.201L2795.15 169.451L2760.84 160.668C2693.03 144.778 2633.78 138.801 2578.61 140.368L2578.57 140.331ZM2561.94 129.763C2440.46 129.763 2333.23 160.011 2209.78 194.998C2153.81 210.888 2096.18 227.397 2034.4 246.458L1993.9 259.213C1872.99 297.116 1768.76 329.879 1673.4 361.258C1640.98 372.021 1609.33 383.951 1578.47 397.046L1557.8 406.923L1546.66 418.439L1654.42 389.903C1778.06 360.748 1899.93 326.417 2027.1 285.271C2049 278.25 2070.41 271.435 2091.33 264.826C2131.44 252.107 2169.29 240.153 2205.75 228.053C2224.11 221.931 2242.02 215.881 2259.31 210.05C2349.78 179.364 2427.93 152.905 2512.88 141.935C2584.08 132.983 2656.36 135.583 2726.64 149.625L2787.35 163.984L2758.84 155.893C2694.79 138.821 2628.62 129.995 2562.09 129.653L2561.94 129.763ZM2507.84 116.06C2413.41 117.044 2319.01 133.261 2212.2 158.153C2149.5 172.731 2093.1 187.782 2040.2 203.672C1909.57 243.396 1792.01 285.49 1691.27 328.822C1662.29 341.342 1634 355.257 1606.51 370.515L1578.2 387.061L1565.6 399.124L1576.89 393.767C1607.86 380.574 1639.61 368.62 1672.14 357.905C1767.42 326.381 1871.92 293.581 1992.63 255.678L2033.13 242.923C2094.83 223.717 2152.69 207.317 2208.59 191.5C2301.49 165.15 2397.54 137.963 2494.55 129.179C2571.26 122.249 2648.64 127.172 2723.69 143.757L2783.89 159.793L2724.95 142.3C2654.23 124.098 2581.19 115.279 2507.92 116.096L2507.84 116.06ZM2450.21 98.2016C2371.29 98.9576 2292.63 106.829 2215.28 121.708C2158.38 132.165 2102.09 145.437 2046.65 161.469C1924.09 197.258 1810.6 242.813 1709.63 296.824C1677.08 314.355 1645.78 333.894 1615.93 355.317L1595.22 370.879L1589.38 376.492L1604.75 367.49C1632.31 352.212 1660.69 338.296 1689.77 325.797C1790.66 282.429 1908.19 240.226 2039.05 200.501C2092.33 184.356 2148.43 169.414 2211.43 154.727C2398.69 110.994 2548.84 93.9741 2725.95 138.764L2785.35 156.404L2733.68 138.947C2642.06 111.439 2546.46 97.7029 2450.37 98.2381L2450.21 98.2016ZM2397.16 75.1322C2158.57 70.9647 1924.51 137.185 1727.31 264.644C1698.34 283.582 1670.7 304.277 1644.55 326.599L1621.15 347.3L1660.23 321.06C1675.85 311.22 1691.63 302.036 1707.56 293.508C1808.83 239.351 1922.48 193.723 2045.31 157.861C2100.88 141.77 2157.31 128.474 2214.35 118.027C2409.6 82.0567 2573.2 87.1955 2734.64 135.448L2778.01 150.026L2737.52 134.646C2628.23 97.3657 2513.27 77.2514 2397.16 75.096V75.1322ZM-882.282 0.0931416C-881.803 -0.0580022 -881.281 -0.0241891 -880.828 0.187234C-880.375 0.398656 -880.028 0.770685 -879.862 1.22291C-879.555 2.06114 -848.358 85.8471 -764.91 176.885C-687.84 260.708 -549.336 368.365 -326.54 403.606C-297.11 408.235 -273.098 424.125 -253.158 452.114C-239.903 470.737 -228.646 494.426 -219.118 524.019L-217.773 528.757L-167.828 481.379C-84.2646 407.324 0.604919 356.812 84.437 331.118C182.407 301.125 282.26 304.004 381.192 339.646C663.5 441.436 820.637 290.847 905.161 209.977C938.24 178.27 960.101 157.351 976.583 162.052C984.267 164.203 989.915 171.71 994.449 185.377L1004.21 191.937C1007.57 196.284 1010.17 201.121 1011.89 206.26L1012.7 208.92L1021.69 214.423C1024.97 218.205 1027.57 222.479 1029.37 227.069L1031.22 232.317L1039.32 236.8C1042.52 240.003 1045.12 243.701 1047.01 247.733L1050.12 255.387L1053.96 256.99C1059.84 260.635 1064.76 267.377 1068.91 277.837L1069.48 279.221L1077.17 283.267C1081.1 287.288 1084.27 291.924 1086.54 296.97L1089.12 302.327L1095.03 304.915C1098.82 308.104 1101.97 311.92 1104.33 316.176L1109.44 325.069L1112.94 326.271C1116.56 328.737 1119.66 331.828 1122.08 335.382L1130.49 347.373C1133.91 349.127 1136.94 351.49 1139.41 354.334L1155.04 372.556L1156.96 373.649L1186.66 400.582L1193.46 404.919C1199.99 409.365 1206.68 414.248 1213.6 419.496L1220.2 424.198L1240.72 434.876L1255.28 443.331L1268.69 447.814L1292.05 457.107L1338.15 466.983L1342.72 468.186L1353.1 469.097L1374.8 465.927L1403.54 463.922L1433.89 456.633L1442.58 454.993L1451.95 450.875L1478.35 441.946L1486.03 437.318L1513.35 424.343L1517.92 421.1L1557.53 395.589L1567.9 387.024L1592.41 368.583L1600.94 360.42C1642.05 322.517 1683.47 288.697 1725.19 262.02C1880.49 161.818 2059.01 98.6801 2245.55 77.975C2438.61 56.9101 2631.67 83.8426 2803.79 155.893C2804.02 155.985 2804.23 156.119 2804.41 156.288C2804.58 156.457 2804.72 156.658 2804.82 156.879C2804.91 157.099 2804.95 157.335 2804.95 157.573C2804.95 157.81 2804.89 158.045 2804.79 158.262L2803.71 158.663C2803.95 158.751 2804.16 158.883 2804.34 159.05C2804.53 159.217 2804.67 159.416 2804.77 159.636C2804.87 159.856 2804.92 160.093 2804.93 160.332C2804.93 160.572 2804.88 160.809 2804.79 161.032L2803.29 161.652H2803.48C2803.96 161.816 2804.35 162.154 2804.57 162.591C2804.79 163.029 2804.81 163.53 2804.64 163.984L2803.06 164.676H2803.68C2804.16 164.826 2804.56 165.153 2804.79 165.583C2805.02 166.014 2805.06 166.513 2804.91 166.972L2803.48 167.665L2804.87 169.815L2802.95 170.799H2803.45C2803.93 170.927 2804.35 171.232 2804.6 171.648C2804.85 172.065 2804.92 172.558 2804.79 173.022L2803.48 173.751L2804.79 175.828L2803.33 176.667L2804.75 178.744L2803.25 179.655L2804.71 181.769L2803.18 182.716H2803.37C2803.87 182.813 2804.31 183.093 2804.6 183.495C2804.89 183.896 2805 184.389 2804.91 184.867L2803.25 185.887L2804.87 187.891L2803.29 188.912L2804.83 190.916L2803.25 191.973L2804.75 193.868L2803.25 194.889L2804.87 196.893L2803.33 197.987L2804.91 199.918L2803.29 201.121L2804.91 203.052L2803.29 204.255L2804.79 206.041L2803.18 207.243L2804.79 209.066L2803.18 210.268L2804.75 212.054L2803.22 213.257L2804.87 215.116L2803.25 216.391L2804.83 218.141L2803.29 219.416L2804.91 221.202C2804.87 221.679 2804.63 222.122 2804.25 222.436C2803.87 222.75 2803.37 222.908 2802.87 222.878C2648.04 212.455 2541.61 238.586 2468.04 305.243C2401.69 365.303 2367.92 453.244 2332.15 546.36C2294.04 645.598 2250.81 758.102 2160.26 854.024C2098.33 919.624 2021.41 970.901 1925.21 1010.73C1753.2 1081.66 1597.76 1083.62 1463.4 1016.75C1372.65 971.667 1297.77 898.814 1236.15 812.659L1210.52 774.138L1207.79 776.798C1114.47 864.265 1018.46 932.525 918.493 951.258C658.429 999.875 488.652 1054.61 282.568 1218.58C173.763 1305.21 87.2031 1347.99 20.2374 1347.99C3.22394 1348.18 -13.6511 1345.08 -29.3625 1338.88C-36.6429 1335.92 -43.5825 1332.26 -50.0709 1327.95L-67.2828 1314.32L-82.6508 1305.97L-98.7487 1293.18L-115.615 1283.85L-130.791 1271.6L-148.541 1261.47L-162.948 1249.63L-181.351 1238.7L-195.221 1227.03H-195.605L-202.367 1222.81L-214.853 1221.6C-222.958 1219.92 -230.833 1217.36 -238.328 1213.99C-244.206 1211.31 -249.802 1208.12 -255.04 1204.44L-261.687 1198.93L-268.18 1196.75C-273.855 1194.08 -279.257 1190.92 -284.316 1187.31L-290.079 1182.43L-298.032 1179.69C-303.503 1176.98 -308.721 1173.84 -313.631 1170.29L-317.895 1166.64L-327.961 1163C-333.233 1160.31 -338.247 1157.19 -342.945 1153.67L-345.711 1151.23L-357.929 1146.6C-362.996 1143.88 -367.804 1140.75 -372.298 1137.23L-372.874 1136.72L-388.012 1130.6L-395.388 1125.54L-396.502 1125.32L-411.102 1118.46L-412.255 1119.12C-416.777 1121.15 -421.699 1122.25 -426.7 1122.36H-429.044C-433.137 1121.9 -437.069 1120.57 -440.552 1118.47C-444.035 1116.38 -446.981 1113.58 -449.176 1110.27L-459.011 1116.28C-463.249 1118.31 -467.906 1119.43 -472.65 1119.56C-473.61 1119.61 -474.572 1119.61 -475.532 1119.56C-480.987 1118.8 -485.976 1116.22 -489.594 1112.27L-494.473 1105.89L-506.383 1113.55C-510.368 1115.55 -514.784 1116.66 -519.292 1116.79C-520.334 1116.79 -521.374 1116.72 -522.404 1116.57C-528.091 1115.55 -533.119 1112.43 -536.389 1107.9L-538.271 1104.83L-543.074 1107.9C-547.71 1110.14 -552.815 1111.39 -558.019 1111.54C-558.85 1111.61 -559.686 1111.61 -560.516 1111.54C-567.397 1110.79 -573.724 1107.6 -578.228 1102.61L-582.07 1097.76L-582.416 1098.09C-592.367 1106.44 -601.242 1110.88 -609.31 1110.88C-610.391 1110.89 -611.471 1110.8 -612.537 1110.63C-615.782 1109.98 -618.839 1108.66 -621.493 1106.77C-624.147 1104.88 -626.335 1102.47 -627.905 1099.7L-632.208 1091.24L-637.971 1097.18C-646.807 1105.13 -654.53 1109.35 -661.023 1109.35C-662.044 1109.35 -663.062 1109.24 -664.058 1109.03C-674.892 1106.73 -681.462 1092.44 -684.651 1064.16C-717.154 775.777 -769.175 614.839 -807.249 530.615C-848.396 439.504 -882.359 416.034 -882.667 415.815C-882.878 415.68 -883.058 415.506 -883.197 415.304C-883.337 415.103 -883.432 414.876 -883.479 414.639C-883.525 414.402 -883.521 414.158 -883.468 413.922C-883.414 413.686 -883.311 413.462 -883.166 413.264C-883.02 413.067 -882.835 412.899 -882.621 412.771C-882.407 412.642 -882.168 412.555 -881.918 412.514C-881.667 412.473 -881.411 412.48 -881.164 412.534C-880.917 412.587 -880.683 412.687 -880.477 412.827C-879.094 413.738 -845.63 436.625 -804.06 528.465C-765.832 612.907 -713.427 774.32 -680.847 1063.8C-677.927 1089.56 -671.972 1103.6 -663.213 1105.49C-657.334 1106.73 -650.035 1103.16 -641.39 1095.58L-633.706 1087.82L-638.586 1071.71C-652.225 1014.6 -664.365 955.34 -676.083 898.049C-699.673 782.702 -721.957 673.733 -751.54 609.81C-826.151 448.761 -882.167 396.5 -882.782 395.99C-882.966 395.826 -883.112 395.628 -883.212 395.409C-883.312 395.19 -883.364 394.953 -883.364 394.714C-883.364 394.475 -883.312 394.238 -883.212 394.019C-883.112 393.8 -882.966 393.602 -882.782 393.438C-882.423 393.105 -881.94 392.917 -881.437 392.917C-880.934 392.917 -880.452 393.105 -880.092 393.438C-879.516 393.949 -822.924 446.575 -748.005 608.461C-718.345 672.713 -695.946 781.864 -672.28 897.429C-660.754 954.72 -648.459 1014.05 -634.782 1070.98L-630.671 1084.79L-627.252 1081.15C-622.257 1075.42 -616.917 1068.79 -611.269 1061.32L-603.086 1050.02L-612.383 1024.18C-630.748 966.127 -645.271 900.272 -659.486 835.656C-680.578 739.771 -700.518 649.206 -730.294 599.678C-824 443.987 -882.359 376.783 -882.935 376.127C-883.261 375.753 -883.419 375.273 -883.376 374.789C-883.333 374.306 -883.092 373.857 -882.705 373.54C-882.302 373.244 -881.795 373.106 -881.288 373.154C-880.781 373.201 -880.312 373.43 -879.977 373.795C-879.401 374.451 -820.888 441.873 -726.99 597.892C-696.868 647.894 -677.044 738.75 -655.721 834.781C-641.582 899.106 -627.06 965.07 -608.733 1022.94L-600.358 1046.16L-593.365 1036.5L-589.216 1030.42L-601.165 1005.81C-627.79 942.985 -641.121 862.734 -653.377 788.934C-667.131 706.314 -680.271 628.25 -709.048 589.546C-821.464 439.358 -882.436 357.067 -883.051 356.302C-883.329 355.9 -883.437 355.413 -883.351 354.94C-883.265 354.466 -882.993 354.041 -882.59 353.75C-882.17 353.477 -881.654 353.37 -881.152 353.452C-880.65 353.534 -880.201 353.797 -879.9 354.188C-879.286 355.026 -818.429 437.281 -705.936 587.433C-676.468 626.829 -663.405 705.294 -649.612 788.351C-637.395 861.896 -624.063 941.892 -597.668 1004.28L-586.757 1026.77L-575.231 1009.75L-580.61 998.198C-605.122 938.028 -616.994 860.62 -628.059 788.752C-641.659 700.119 -654.491 616.442 -687.84 579.487C-818.467 434.766 -882.513 337.46 -883.128 336.512C-883.373 336.114 -883.445 335.64 -883.331 335.192C-883.216 334.744 -882.923 334.355 -882.513 334.107C-882.3 333.975 -882.061 333.885 -881.811 333.842C-881.561 333.8 -881.304 333.806 -881.056 333.861C-880.808 333.915 -880.575 334.017 -880.37 334.159C-880.164 334.302 -879.992 334.482 -879.862 334.69C-879.247 335.638 -815.355 432.726 -684.92 577.228C-650.841 614.948 -637.894 699.208 -624.217 788.388C-613.267 859.855 -601.434 936.862 -577.191 996.558L-572.772 1006.11L-561.515 988.978L-574.54 946.155C-586.834 897.866 -594.595 843.674 -602.164 790.793C-615.764 695.344 -628.635 604.926 -666.632 569.538C-815.163 430.102 -882.513 318.071 -883.166 316.832C-883.294 316.625 -883.378 316.396 -883.41 316.157C-883.443 315.919 -883.425 315.677 -883.357 315.446C-883.289 315.214 -883.172 314.998 -883.014 314.811C-882.856 314.623 -882.659 314.468 -882.436 314.354C-881.993 314.118 -881.469 314.058 -880.979 314.188C-880.489 314.318 -880.074 314.626 -879.823 315.046C-879.17 316.14 -812.051 428.024 -663.866 566.841C-624.947 603.286 -612.076 694.142 -598.245 790.246C-590.561 842.945 -582.877 897.029 -570.774 945.099L-558.711 984.714L-552.103 974.655L-545.802 964.961L-546.877 961.608C-560.324 910.367 -568.162 851.327 -575.846 793.963C-589.562 691.044 -602.471 594.029 -645.309 559.516C-811.628 425.437 -882.513 298.537 -883.204 297.298C-883.437 296.867 -883.483 296.366 -883.332 295.903C-883.182 295.44 -882.846 295.052 -882.398 294.82C-881.941 294.608 -881.417 294.57 -880.932 294.712C-880.446 294.854 -880.037 295.166 -879.785 295.585C-879.094 296.861 -808.555 423.141 -642.812 556.746C-598.859 592.17 -585.835 689.951 -572.042 793.417C-564.358 850.744 -556.674 909.565 -543.189 960.624V960.916L-528.897 939.049L-528.398 938.247L-529.358 934.056C-537.887 890.906 -543.804 843.965 -549.605 797.644C-563.436 687.327 -576.499 583.096 -624.217 549.603C-808.055 420.626 -882.628 279.221 -883.358 277.8C-883.571 277.369 -883.598 276.876 -883.433 276.427C-883.268 275.977 -882.924 275.607 -882.474 275.395C-882.021 275.179 -881.495 275.142 -881.013 275.292C-880.531 275.442 -880.131 275.767 -879.9 276.197C-879.17 277.618 -805.059 418.33 -621.873 546.687C-572.811 581.091 -559.671 686.088 -545.763 797.207C-539.962 843.273 -534.237 889.885 -525.708 932.744L-525.478 933.801L-508.919 908.29L-512.338 886.423C-516.18 858.543 -519.715 829.898 -523.057 801.471C-537.004 683.427 -550.182 571.871 -602.894 539.435C-685.621 488.585 -758.829 425.004 -819.505 351.309C-863.649 297.298 -883.205 258.011 -883.397 257.646C-883.506 257.431 -883.569 257.198 -883.582 256.96C-883.594 256.722 -883.557 256.483 -883.471 256.259C-883.385 256.035 -883.252 255.829 -883.081 255.654C-882.91 255.479 -882.704 255.339 -882.474 255.241C-882.01 255.04 -881.481 255.019 -881 255.182C-880.519 255.345 -880.125 255.68 -879.9 256.116C-879.17 257.683 -801.217 412.499 -600.857 535.973C-546.608 569.393 -533.354 681.751 -519.292 800.669C-515.95 828.914 -512.569 857.377 -508.65 885.074L-505.845 903.005L-494.319 885.439L-488.018 876L-488.595 872.1C-491.399 849.942 -493.897 827.492 -496.279 805.115C-510.379 679.273 -523.71 560.391 -581.455 528.939C-671.441 480.039 -750.794 415.341 -815.278 338.298C-862.496 281.299 -882.974 238.44 -883.166 238.003C-883.362 237.567 -883.371 237.076 -883.192 236.634C-883.013 236.191 -882.659 235.833 -882.205 235.634C-881.736 235.449 -881.209 235.444 -880.736 235.621C-880.262 235.798 -879.88 236.142 -879.67 236.581C-879.67 236.982 -859.154 279.549 -812.166 336.184C-747.993 412.777 -669.046 477.091 -579.534 525.695C-520.06 558.095 -506.537 677.888 -492.513 804.678L-484.484 870.716L-465.927 842.762L-469.769 809.234C-484.023 675.519 -497.47 549.202 -560.247 518.734C-657.416 471.752 -742.976 405.757 -811.283 325.105C-861.613 265.19 -883.012 218.76 -883.243 218.286C-883.436 217.846 -883.44 217.351 -883.253 216.908C-883.067 216.465 -882.704 216.11 -882.244 215.917C-882.013 215.816 -881.762 215.76 -881.508 215.752C-881.253 215.745 -880.999 215.788 -880.762 215.876C-880.525 215.965 -880.309 216.098 -880.128 216.268C-879.947 216.438 -879.804 216.641 -879.708 216.865C-879.708 217.375 -858.232 263.404 -808.171 322.955C-740.21 403.165 -655.096 468.799 -558.442 515.528C-493.743 546.87 -480.296 674.134 -465.85 808.869L-462.584 837.77L-456.591 828.695L-443.49 809.671L-448.561 760.945C-461.739 640.022 -479.604 534.369 -539.04 508.603C-643.228 463.607 -735.006 396.32 -807.172 312.021C-860.575 249.118 -882.935 199.044 -883.166 198.643C-883.347 198.197 -883.34 197.702 -883.147 197.261C-882.954 196.82 -882.589 196.467 -882.129 196.274C-881.894 196.185 -881.643 196.141 -881.391 196.144C-881.138 196.147 -880.889 196.198 -880.657 196.293C-880.425 196.388 -880.215 196.525 -880.039 196.697C-879.863 196.869 -879.725 197.072 -879.631 197.294C-879.401 197.804 -857.194 247.369 -804.098 309.835C-732.279 393.654 -640.98 460.563 -537.349 505.323C-476.224 531.891 -458.051 638.418 -444.758 760.434L-440.109 804.933L-420.592 776.543L-422.013 762.403C-435.383 634.847 -453.901 523.436 -517.717 498.617C-628.895 455.596 -727.009 386.952 -803.176 298.901C-859.653 233.301 -882.935 179.692 -883.166 179.145C-883.347 178.699 -883.34 178.205 -883.147 177.764C-882.954 177.322 -882.589 176.969 -882.129 176.776C-881.65 176.595 -881.115 176.601 -880.64 176.792C-880.165 176.983 -879.789 177.344 -879.593 177.796C-879.401 178.307 -856.234 231.37 -800.102 296.715C-724.368 384.206 -626.858 452.43 -516.372 495.228C-450.674 520.739 -431.848 633.061 -418.325 761.673L-417.326 771.659L-416.097 769.837L-397.732 744.545L-401.881 707.481C-415.635 597.856 -438.111 509.004 -496.624 488.449C-614.72 447.514 -719.227 377.547 -799.449 285.709C-858.962 217.047 -883.204 160.084 -883.435 159.538C-883.612 159.093 -883.599 158.6 -883.398 158.164C-883.197 157.728 -882.824 157.384 -882.359 157.205C-882.125 157.117 -881.874 157.073 -881.621 157.076C-881.369 157.079 -881.12 157.13 -880.888 157.224C-880.656 157.319 -880.446 157.456 -880.27 157.628C-880.094 157.8 -879.955 158.003 -879.862 158.226C-879.631 158.772 -855.581 215.261 -796.376 283.486C-716.624 374.754 -612.798 444.344 -495.472 485.169C-434 506.744 -411.332 599.714 -397.463 713.275L-394.505 739.916L-374.795 712.765L-381.403 664.039C-396.195 568.919 -421.014 495.629 -475.57 478.172C-600.369 439.203 -711.177 367.875 -795.454 272.261C-858.078 200.72 -883.204 140.332 -883.435 139.748C-883.529 139.526 -883.575 139.288 -883.572 139.048C-883.568 138.809 -883.515 138.572 -883.415 138.352C-883.315 138.132 -883.17 137.933 -882.989 137.766C-882.808 137.599 -882.594 137.468 -882.359 137.379C-881.885 137.21 -881.359 137.222 -880.894 137.412C-880.428 137.602 -880.058 137.956 -879.862 138.4C-879.631 139.02 -854.658 198.971 -792.418 270.074C-708.58 365.083 -598.406 435.963 -474.341 474.71C-418.21 492.495 -392.814 566.44 -377.753 662.326L-371.529 708.137L-357.352 689.914L-361.963 647.274C-373.95 555.215 -397.309 484.368 -454.362 468.004C-527.535 447.299 -596.736 415.603 -659.332 374.123C-708.501 341.389 -752.923 302.669 -791.458 258.958C-857.156 184.611 -883.204 120.724 -883.435 120.105C-883.528 119.885 -883.574 119.65 -883.57 119.413C-883.566 119.176 -883.512 118.942 -883.412 118.725C-883.312 118.508 -883.167 118.312 -882.987 118.148C-882.806 117.985 -882.593 117.857 -882.359 117.772C-882.122 117.685 -881.869 117.642 -881.615 117.648C-881.361 117.654 -881.11 117.707 -880.878 117.806C-880.645 117.904 -880.436 118.045 -880.262 118.221C-880.087 118.396 -879.951 118.603 -879.862 118.829C-879.593 119.449 -853.737 182.826 -788.461 256.772C-728.257 324.996 -621.181 416.398 -453.248 464.505C-394.543 481.343 -370.53 552.92 -358.313 645.78L-353.971 685.541L-333.225 658.791L-333.878 652.449C-346.595 551.535 -371.337 473.871 -433.116 457.799C-509.996 438.127 -582.906 406.502 -648.882 364.21C-700.594 330.859 -747.268 290.973 -787.616 245.656C-856.311 168.394 -883.281 101.081 -883.665 100.425C-883.838 99.9704 -883.814 99.4696 -883.598 99.0322C-883.382 98.5949 -882.992 98.2569 -882.513 98.0924C-882.279 98.0052 -882.028 97.9633 -881.777 97.9694C-881.525 97.9755 -881.277 98.0295 -881.048 98.128C-880.819 98.2265 -880.613 98.3677 -880.442 98.5431C-880.271 98.7185 -880.139 98.9246 -880.054 99.1492C-879.785 99.8417 -853.16 166.608 -784.696 243.433C-721.572 314.281 -609.233 408.381 -432.233 454.337C-368.686 470.81 -343.329 549.093 -330.382 651.138L-329.998 654.782L-326.156 649.68L-310.058 630.583L-313.516 607.914C-328.883 523.145 -356.2 461.079 -412.178 447.923C-492.807 429.372 -569.48 397.826 -638.855 354.661C-693.054 320.691 -741.899 279.597 -783.928 232.609C-855.696 152.431 -883.55 81.7651 -883.819 81.0727C-883.982 80.618 -883.953 80.1212 -883.738 79.6864C-883.523 79.2516 -883.139 78.9127 -882.667 78.7404C-882.432 78.6532 -882.182 78.6113 -881.93 78.6174C-881.679 78.6235 -881.431 78.6775 -881.202 78.776C-880.973 78.8745 -880.766 79.0157 -880.596 79.1911C-880.425 79.3665 -880.293 79.5726 -880.208 79.7972C-879.939 80.4897 -852.238 150.791 -780.892 230.349C-715.079 303.858 -597.515 400.618 -411.371 444.388C-353.741 457.945 -325.771 520.557 -310.135 606.019L-306.869 626.574L-287.198 603.286L-293.537 572.417C-310.865 499.966 -339.641 448.834 -391.162 437.864C-475.427 420.276 -555.78 388.783 -628.558 344.821C-685.264 310.163 -736.337 267.843 -780.162 219.197C-855.004 136.213 -883.665 62.0852 -883.896 61.3563C-884.059 60.9016 -884.03 60.4049 -883.815 59.9701C-883.6 59.5353 -883.216 59.1961 -882.743 59.0238C-882.507 58.9374 -882.254 58.8974 -882.001 58.9059C-881.747 58.9145 -881.498 58.9715 -881.268 59.0736C-881.039 59.1758 -880.833 59.3207 -880.664 59.5001C-880.495 59.6794 -880.366 59.8893 -880.284 60.1171C-879.977 60.846 -851.47 134.464 -777.05 216.828C-708.356 293.034 -585.566 392.491 -390.278 434.11C-337.22 445.408 -307.829 497.05 -290.079 570.085L-284.009 599.459L-276.594 590.676L-264.838 578.103L-267.296 566.368C-288.235 481.087 -320.854 436.953 -369.916 427.478C-457.84 411.005 -541.906 379.609 -618.069 334.799C-677.259 299.562 -730.528 256.084 -776.09 205.822C-853.89 119.996 -883.665 42.4417 -883.665 41.8221C-883.828 41.3674 -883.799 40.8705 -883.584 40.4357C-883.369 40.0009 -882.985 39.6619 -882.513 39.4896C-882.034 39.3255 -881.506 39.3484 -881.045 39.5535C-880.584 39.7585 -880.227 40.1287 -880.054 40.5829C-879.747 41.3482 -850.317 118.355 -772.901 203.708C-701.479 282.429 -573.464 384.582 -368.994 423.979C-313.247 434.912 -282.203 488.522 -263.378 565.129L-261.341 574.641L-242.516 554.487L-249.47 529.996C-271.6 461.262 -303.526 425.255 -348.554 417.455C-440.132 401.888 -527.909 370.472 -607.504 324.777C-669.169 288.928 -724.634 244.269 -771.941 192.374C-852.853 103.741 -883.358 23.0532 -883.665 22.1785C-883.826 21.7191 -883.792 21.2185 -883.569 20.7829C-883.347 20.3473 -882.954 20.0112 -882.474 19.846C-881.995 19.6948 -881.473 19.7287 -881.02 19.9401C-880.567 20.1515 -880.22 20.5235 -880.054 20.9758C-879.747 21.7775 -849.318 102.028 -768.944 190.151C-694.717 271.386 -561.477 376.018 -347.863 413.884C-319.701 418.767 -296.765 434.256 -277.747 461.262C-265.107 479.156 -254.426 501.934 -245.359 530.324L-239.48 551.243L-223.69 534.333L-221.193 531.964L-223.536 523.837C-246.857 452.114 -280.359 414.868 -327.27 407.397C-426.163 391.762 -516.948 360.784 -597.092 315.265C-661.232 278.811 -718.873 232.941 -767.868 179.364C-851.816 87.7421 -883.128 3.40956 -883.473 2.57134C-883.634 2.11199 -883.6 1.61133 -883.377 1.17575C-883.155 0.740183 -882.762 0.404007 -882.282 0.23884V0.0931416Z" fill="#CEAF59"/>
</svg>
